M48
; DRILL file {KiCad 8.0.3-8.0.3-0~ubuntu22.04.1} date 2024-06-15T19:31:18-0400
; FORMAT={-:-/ absolute / inch / decimal}
; #@! TF.CreationDate,2024-06-15T19:31:18-04:00
; #@! TF.GenerationSoftware,Kicad,Pcbnew,8.0.3-8.0.3-0~ubuntu22.04.1
; #@! TF.FileFunction,Plated,1,2,PTH
FMAT,2
INCH
; #@! TA.AperFunction,Plated,PTH,ViaDrill
T1C0.0118
; #@! TA.AperFunction,Plated,PTH,ComponentDrill
T2C0.0236
; #@! TA.AperFunction,Plated,PTH,ComponentDrill
T3C0.0315
; #@! TA.AperFunction,Plated,PTH,ComponentDrill
T4C0.0335
; #@! TA.AperFunction,Plated,PTH,ComponentDrill
T5C0.0354
; #@! TA.AperFunction,Plated,PTH,ComponentDrill
T6C0.0360
; #@! TA.AperFunction,Plated,PTH,ComponentDrill
T7C0.0394
; #@! TA.AperFunction,Plated,PTH,ComponentDrill
T8C0.0728
; #@! TA.AperFunction,Plated,PTH,ViaDrill
T9C0.0866
%
G90
G05
T1
X3.252Y-4.685
X3.2953Y-4.685
X3.7087Y-3.3228
X3.7717Y-4.3307
T2
X2.7205Y-3.4606
X2.7205Y-3.6378
X2.7205Y-3.815
X2.7697Y-3.4606
X2.7697Y-3.6378
X2.7697Y-3.815
X2.8189Y-3.4606
X2.8189Y-3.6378
X2.8189Y-3.815
X2.8681Y-3.4606
X2.8681Y-3.6378
X2.8681Y-3.815
X3.2795Y-3.0364
X3.2795Y-3.0856
X3.2795Y-3.1348
X3.2795Y-3.1841
X3.2795Y-3.3435
X3.2795Y-3.3927
X3.2795Y-3.4419
X3.2795Y-3.4911
X4.5925Y-4.7953
X4.6417Y-4.7953
X4.6909Y-4.7953
T3
X4.6457Y-3.9504
X4.6457Y-4.0504
X4.6457Y-4.1504
X4.6457Y-4.2504
X4.6457Y-4.3504
X4.6457Y-4.4504
X4.6457Y-4.5504
X4.8208Y-3.6772
X4.9457Y-3.9504
X4.9457Y-4.0504
X4.9457Y-4.1504
X4.9457Y-4.2504
X4.9457Y-4.3504
X4.9457Y-4.4504
X4.9457Y-4.5504
X4.9586Y-3.6772
T4
X2.8937Y-3.0945
X2.9921Y-3.0945
X5.1772Y-3.2913
X5.1772Y-3.3898
X5.1969Y-4.1339
X5.1969Y-4.2323
X5.1969Y-4.4882
X5.1969Y-4.5866
T5
X3.6413Y-3.0734
X3.6413Y-3.1734
X3.6413Y-3.2734
X3.6413Y-3.3734
X3.6413Y-3.4734
X3.6413Y-3.5734
X3.6413Y-3.6734
X3.6413Y-3.7734
X3.6413Y-3.8734
X3.6413Y-3.9734
X3.6413Y-4.0734
X3.6413Y-4.1734
T6
X4.2413Y-3.0734
X4.2413Y-3.1734
X4.2413Y-3.2734
X4.2413Y-3.3734
X4.2413Y-3.4734
X4.2413Y-3.5734
X4.2413Y-3.6734
X4.2413Y-3.7734
X4.2413Y-3.8734
X4.2413Y-3.9734
X4.2413Y-4.0734
T7
X2.8268Y-4.8425
X2.9268Y-4.8425
X3.0268Y-4.8425
X3.1268Y-4.8425
X3.2268Y-4.8425
X3.437Y-3.7724
X3.437Y-3.8724
X3.437Y-3.9724
X3.7866Y-4.5276
X3.8866Y-4.5276
X3.9866Y-4.5276
X4.0866Y-4.5276
T8
X4.4644Y-3.043
X4.5394Y-3.4182
X4.7244Y-3.4182
X4.9094Y-3.4182
X4.9844Y-3.043
T9
X2.6378Y-3.0315
X2.6378Y-4.8425
X5.2362Y-3.0315
X5.2362Y-4.8425
M30
