%TF.GenerationSoftware,KiCad,Pcbnew,8.0.3-8.0.3-0~ubuntu22.04.1*%
%TF.CreationDate,2024-06-15T19:31:17-04:00*%
%TF.ProjectId,main_board,6d61696e-5f62-46f6-9172-642e6b696361,rev?*%
%TF.SameCoordinates,Original*%
%TF.FileFunction,Drillmap*%
%TF.FilePolarity,Positive*%
%FSLAX45Y45*%
G04 Gerber Fmt 4.5, Leading zero omitted, Abs format (unit mm)*
G04 Created by KiCad (PCBNEW 8.0.3-8.0.3-0~ubuntu22.04.1) date 2024-06-15 19:31:17*
%MOMM*%
%LPD*%
G01*
G04 APERTURE LIST*
%ADD10C,0.050000*%
%ADD11C,0.200000*%
G04 APERTURE END LIST*
D10*
X6500000Y-7700000D02*
G75*
G02*
X6700000Y-7500000I200000J0D01*
G01*
X13500000Y-7700000D02*
X13500000Y-12300000D01*
X13300000Y-7500000D02*
G75*
G02*
X13500000Y-7700000I0J-200000D01*
G01*
X6500000Y-12300000D02*
X6500000Y-7700000D01*
X6700000Y-7500000D02*
X13300000Y-7500000D01*
X13500000Y-12300000D02*
G75*
G02*
X13300000Y-12500000I-200000J0D01*
G01*
X6700000Y-12500000D02*
G75*
G02*
X6500000Y-12300000I0J200000D01*
G01*
X13300000Y-12500000D02*
X6700000Y-12500000D01*
D11*
X6758277Y-12813984D02*
X6758277Y-12613984D01*
X6758277Y-12613984D02*
X6805896Y-12613984D01*
X6805896Y-12613984D02*
X6834467Y-12623508D01*
X6834467Y-12623508D02*
X6853515Y-12642555D01*
X6853515Y-12642555D02*
X6863039Y-12661603D01*
X6863039Y-12661603D02*
X6872562Y-12699698D01*
X6872562Y-12699698D02*
X6872562Y-12728269D01*
X6872562Y-12728269D02*
X6863039Y-12766365D01*
X6863039Y-12766365D02*
X6853515Y-12785412D01*
X6853515Y-12785412D02*
X6834467Y-12804460D01*
X6834467Y-12804460D02*
X6805896Y-12813984D01*
X6805896Y-12813984D02*
X6758277Y-12813984D01*
X6958277Y-12813984D02*
X6958277Y-12680650D01*
X6958277Y-12718746D02*
X6967801Y-12699698D01*
X6967801Y-12699698D02*
X6977324Y-12690174D01*
X6977324Y-12690174D02*
X6996372Y-12680650D01*
X6996372Y-12680650D02*
X7015420Y-12680650D01*
X7082086Y-12813984D02*
X7082086Y-12680650D01*
X7082086Y-12613984D02*
X7072562Y-12623508D01*
X7072562Y-12623508D02*
X7082086Y-12633031D01*
X7082086Y-12633031D02*
X7091610Y-12623508D01*
X7091610Y-12623508D02*
X7082086Y-12613984D01*
X7082086Y-12613984D02*
X7082086Y-12633031D01*
X7205896Y-12813984D02*
X7186848Y-12804460D01*
X7186848Y-12804460D02*
X7177324Y-12785412D01*
X7177324Y-12785412D02*
X7177324Y-12613984D01*
X7310658Y-12813984D02*
X7291610Y-12804460D01*
X7291610Y-12804460D02*
X7282086Y-12785412D01*
X7282086Y-12785412D02*
X7282086Y-12613984D01*
X7539229Y-12813984D02*
X7539229Y-12613984D01*
X7539229Y-12613984D02*
X7605896Y-12756841D01*
X7605896Y-12756841D02*
X7672562Y-12613984D01*
X7672562Y-12613984D02*
X7672562Y-12813984D01*
X7853515Y-12813984D02*
X7853515Y-12709222D01*
X7853515Y-12709222D02*
X7843991Y-12690174D01*
X7843991Y-12690174D02*
X7824943Y-12680650D01*
X7824943Y-12680650D02*
X7786848Y-12680650D01*
X7786848Y-12680650D02*
X7767801Y-12690174D01*
X7853515Y-12804460D02*
X7834467Y-12813984D01*
X7834467Y-12813984D02*
X7786848Y-12813984D01*
X7786848Y-12813984D02*
X7767801Y-12804460D01*
X7767801Y-12804460D02*
X7758277Y-12785412D01*
X7758277Y-12785412D02*
X7758277Y-12766365D01*
X7758277Y-12766365D02*
X7767801Y-12747317D01*
X7767801Y-12747317D02*
X7786848Y-12737793D01*
X7786848Y-12737793D02*
X7834467Y-12737793D01*
X7834467Y-12737793D02*
X7853515Y-12728269D01*
X7948753Y-12680650D02*
X7948753Y-12880650D01*
X7948753Y-12690174D02*
X7967801Y-12680650D01*
X7967801Y-12680650D02*
X8005896Y-12680650D01*
X8005896Y-12680650D02*
X8024943Y-12690174D01*
X8024943Y-12690174D02*
X8034467Y-12699698D01*
X8034467Y-12699698D02*
X8043991Y-12718746D01*
X8043991Y-12718746D02*
X8043991Y-12775888D01*
X8043991Y-12775888D02*
X8034467Y-12794936D01*
X8034467Y-12794936D02*
X8024943Y-12804460D01*
X8024943Y-12804460D02*
X8005896Y-12813984D01*
X8005896Y-12813984D02*
X7967801Y-12813984D01*
X7967801Y-12813984D02*
X7948753Y-12804460D01*
X8129705Y-12794936D02*
X8139229Y-12804460D01*
X8139229Y-12804460D02*
X8129705Y-12813984D01*
X8129705Y-12813984D02*
X8120182Y-12804460D01*
X8120182Y-12804460D02*
X8129705Y-12794936D01*
X8129705Y-12794936D02*
X8129705Y-12813984D01*
X8129705Y-12690174D02*
X8139229Y-12699698D01*
X8139229Y-12699698D02*
X8129705Y-12709222D01*
X8129705Y-12709222D02*
X8120182Y-12699698D01*
X8120182Y-12699698D02*
X8129705Y-12690174D01*
X8129705Y-12690174D02*
X8129705Y-12709222D01*
M02*
