%TF.GenerationSoftware,KiCad,Pcbnew,8.0.3-8.0.3-0~ubuntu22.04.1*%
%TF.CreationDate,2024-06-15T19:31:27-04:00*%
%TF.ProjectId,main_board,6d61696e-5f62-46f6-9172-642e6b696361,rev?*%
%TF.SameCoordinates,Original*%
%TF.FileFunction,Soldermask,Top*%
%TF.FilePolarity,Negative*%
%FSLAX46Y46*%
G04 Gerber Fmt 4.6, Leading zero omitted, Abs format (unit mm)*
G04 Created by KiCad (PCBNEW 8.0.3-8.0.3-0~ubuntu22.04.1) date 2024-06-15 19:31:27*
%MOMM*%
%LPD*%
G01*
G04 APERTURE LIST*
G04 Aperture macros list*
%AMRoundRect*
0 Rectangle with rounded corners*
0 $1 Rounding radius*
0 $2 $3 $4 $5 $6 $7 $8 $9 X,Y pos of 4 corners*
0 Add a 4 corners polygon primitive as box body*
4,1,4,$2,$3,$4,$5,$6,$7,$8,$9,$2,$3,0*
0 Add four circle primitives for the rounded corners*
1,1,$1+$1,$2,$3*
1,1,$1+$1,$4,$5*
1,1,$1+$1,$6,$7*
1,1,$1+$1,$8,$9*
0 Add four rect primitives between the rounded corners*
20,1,$1+$1,$2,$3,$4,$5,0*
20,1,$1+$1,$4,$5,$6,$7,0*
20,1,$1+$1,$6,$7,$8,$9,0*
20,1,$1+$1,$8,$9,$2,$3,0*%
G04 Aperture macros list end*
%ADD10RoundRect,0.225000X-0.225000X-0.475000X0.225000X-0.475000X0.225000X0.475000X-0.225000X0.475000X0*%
%ADD11O,0.900000X1.400000*%
%ADD12R,1.700000X1.700000*%
%ADD13O,1.700000X1.700000*%
%ADD14RoundRect,0.250000X-0.600000X-0.675000X0.600000X-0.675000X0.600000X0.675000X-0.600000X0.675000X0*%
%ADD15O,1.700000X1.850000*%
%ADD16R,1.600000X1.600000*%
%ADD17C,1.600000*%
%ADD18RoundRect,0.225000X-0.475000X0.225000X-0.475000X-0.225000X0.475000X-0.225000X0.475000X0.225000X0*%
%ADD19O,1.400000X0.900000*%
%ADD20RoundRect,0.102000X-1.387500X-1.387500X1.387500X-1.387500X1.387500X1.387500X-1.387500X1.387500X0*%
%ADD21C,2.979000*%
%ADD22R,2.400000X1.600000*%
%ADD23O,2.400000X1.600000*%
%ADD24RoundRect,0.200000X-0.200000X-0.275000X0.200000X-0.275000X0.200000X0.275000X-0.200000X0.275000X0*%
%ADD25RoundRect,0.250000X-0.675000X0.600000X-0.675000X-0.600000X0.675000X-0.600000X0.675000X0.600000X0*%
%ADD26O,1.850000X1.700000*%
%ADD27RoundRect,0.200000X0.200000X0.275000X-0.200000X0.275000X-0.200000X-0.275000X0.200000X-0.275000X0*%
%ADD28C,1.473200*%
%ADD29RoundRect,0.025400X-0.635000X-0.635000X0.635000X-0.635000X0.635000X0.635000X-0.635000X0.635000X0*%
%ADD30RoundRect,0.225000X0.225000X0.475000X-0.225000X0.475000X-0.225000X-0.475000X0.225000X-0.475000X0*%
G04 APERTURE END LIST*
D10*
%TO.C,J8*%
X69100000Y-87900000D03*
D11*
X70350000Y-87900000D03*
X71600000Y-87900000D03*
X72850000Y-87900000D03*
%TD*%
D12*
%TO.C,J12*%
X87300000Y-95820000D03*
D13*
X87300000Y-98360000D03*
X87300000Y-100900000D03*
%TD*%
D14*
%TO.C,J10*%
X73500000Y-78600000D03*
D15*
X76000000Y-78600000D03*
%TD*%
D12*
%TO.C,U3*%
X81960000Y-123000000D03*
D13*
X79420000Y-123000000D03*
X76880000Y-123000000D03*
X74340000Y-123000000D03*
X71800000Y-123000000D03*
%TD*%
D16*
%TO.C,C1*%
X122447349Y-93400000D03*
D17*
X125947349Y-93400000D03*
%TD*%
D18*
%TO.C,J4*%
X83300000Y-84925000D03*
D19*
X83300000Y-86175000D03*
X83300000Y-87425000D03*
X83300000Y-88675000D03*
%TD*%
D20*
%TO.C,S1*%
X115300000Y-86822500D03*
D21*
X120000000Y-86822500D03*
X124700000Y-86822500D03*
X113395000Y-77292500D03*
X126605000Y-77292500D03*
%TD*%
D18*
%TO.C,J5*%
X83300000Y-77125000D03*
D19*
X83300000Y-78375000D03*
X83300000Y-79625000D03*
X83300000Y-80875000D03*
%TD*%
D22*
%TO.C,U2*%
X118000000Y-100340000D03*
D23*
X118000000Y-102880000D03*
X118000000Y-105420000D03*
X118000000Y-107960000D03*
X118000000Y-110500000D03*
X118000000Y-113040000D03*
X118000000Y-115580000D03*
X125620000Y-115580000D03*
X125620000Y-113040000D03*
X125620000Y-110500000D03*
X125620000Y-107960000D03*
X125620000Y-105420000D03*
X125620000Y-102880000D03*
X125620000Y-100340000D03*
%TD*%
D24*
%TO.C,R2*%
X95750000Y-98200000D03*
X97400000Y-98200000D03*
%TD*%
D25*
%TO.C,J2*%
X132000000Y-105000000D03*
D26*
X132000000Y-107500000D03*
%TD*%
D25*
%TO.C,J3*%
X132000000Y-114000000D03*
D26*
X132000000Y-116500000D03*
%TD*%
D10*
%TO.C,J7*%
X69100000Y-96900000D03*
D11*
X70350000Y-96900000D03*
X71600000Y-96900000D03*
X72850000Y-96900000D03*
%TD*%
D27*
%TO.C,R1*%
X97400000Y-100200000D03*
X95750000Y-100200000D03*
%TD*%
D10*
%TO.C,J6*%
X69100000Y-92400000D03*
D11*
X70350000Y-92400000D03*
X71600000Y-92400000D03*
X72850000Y-92400000D03*
%TD*%
D28*
%TO.C,U1*%
X107730000Y-78064000D03*
D29*
X107730000Y-80604000D03*
D28*
X107730000Y-83144000D03*
X107730000Y-85684000D03*
X107730000Y-88224000D03*
X107730000Y-90764000D03*
X107730000Y-93304000D03*
X107730000Y-95844000D03*
X107730000Y-98384000D03*
X107730000Y-100924000D03*
X107730000Y-103464000D03*
X92490000Y-106004000D03*
X92490000Y-103464000D03*
D29*
X92490000Y-100924000D03*
D28*
X92490000Y-98384000D03*
X92490000Y-95844000D03*
X92490000Y-93304000D03*
X92490000Y-90764000D03*
X92490000Y-88224000D03*
X92490000Y-85684000D03*
X92490000Y-83144000D03*
X92490000Y-80604000D03*
X92490000Y-78064000D03*
%TD*%
D30*
%TO.C,J13*%
X119150000Y-121800000D03*
D11*
X117900000Y-121800000D03*
X116650000Y-121800000D03*
%TD*%
D12*
%TO.C,J9*%
X96180000Y-115000000D03*
D13*
X98720000Y-115000000D03*
X101260000Y-115000000D03*
X103800000Y-115000000D03*
%TD*%
D25*
%TO.C,J1*%
X131500000Y-83600000D03*
D26*
X131500000Y-86100000D03*
%TD*%
M02*
