%TF.GenerationSoftware,KiCad,Pcbnew,8.0.3-8.0.3-0~ubuntu22.04.1*%
%TF.CreationDate,2024-06-15T19:31:17-04:00*%
%TF.ProjectId,main_board,6d61696e-5f62-46f6-9172-642e6b696361,rev?*%
%TF.SameCoordinates,Original*%
%TF.FileFunction,Drillmap*%
%TF.FilePolarity,Positive*%
%FSLAX45Y45*%
G04 Gerber Fmt 4.5, Leading zero omitted, Abs format (unit mm)*
G04 Created by KiCad (PCBNEW 8.0.3-8.0.3-0~ubuntu22.04.1) date 2024-06-15 19:31:17*
%MOMM*%
%LPD*%
G01*
G04 APERTURE LIST*
%ADD10C,0.050000*%
%ADD11C,0.200000*%
%ADD12C,0.100000*%
%ADD13C,0.185000*%
%ADD14C,0.220000*%
G04 APERTURE END LIST*
D10*
X6500000Y-7700000D02*
G75*
G02*
X6700000Y-7500000I200000J0D01*
G01*
X13500000Y-7700000D02*
X13500000Y-12300000D01*
X13300000Y-7500000D02*
G75*
G02*
X13500000Y-7700000I0J-200000D01*
G01*
X6500000Y-12300000D02*
X6500000Y-7700000D01*
X6700000Y-7500000D02*
X13300000Y-7500000D01*
X13500000Y-12300000D02*
G75*
G02*
X13300000Y-12500000I-200000J0D01*
G01*
X6700000Y-12500000D02*
G75*
G02*
X6500000Y-12300000I0J200000D01*
G01*
X13300000Y-12500000D02*
X6700000Y-12500000D01*
D11*
D12*
X8245000Y-11885000D02*
X8275000Y-11915000D01*
X8275000Y-11885000D02*
X8245000Y-11915000D01*
X8355000Y-11885000D02*
X8385000Y-11915000D01*
X8385000Y-11885000D02*
X8355000Y-11915000D01*
X9405000Y-8425000D02*
X9435000Y-8455000D01*
X9435000Y-8425000D02*
X9405000Y-8455000D01*
X9565000Y-10985000D02*
X9595000Y-11015000D01*
X9595000Y-10985000D02*
X9565000Y-11015000D01*
X6940000Y-8790000D02*
G75*
G02*
X6880000Y-8790000I-30000J0D01*
G01*
X6880000Y-8790000D02*
G75*
G02*
X6940000Y-8790000I30000J0D01*
G01*
X6940000Y-9240000D02*
G75*
G02*
X6880000Y-9240000I-30000J0D01*
G01*
X6880000Y-9240000D02*
G75*
G02*
X6940000Y-9240000I30000J0D01*
G01*
X6940000Y-9690000D02*
G75*
G02*
X6880000Y-9690000I-30000J0D01*
G01*
X6880000Y-9690000D02*
G75*
G02*
X6940000Y-9690000I30000J0D01*
G01*
X7065000Y-8790000D02*
G75*
G02*
X7005000Y-8790000I-30000J0D01*
G01*
X7005000Y-8790000D02*
G75*
G02*
X7065000Y-8790000I30000J0D01*
G01*
X7065000Y-9240000D02*
G75*
G02*
X7005000Y-9240000I-30000J0D01*
G01*
X7005000Y-9240000D02*
G75*
G02*
X7065000Y-9240000I30000J0D01*
G01*
X7065000Y-9690000D02*
G75*
G02*
X7005000Y-9690000I-30000J0D01*
G01*
X7005000Y-9690000D02*
G75*
G02*
X7065000Y-9690000I30000J0D01*
G01*
X7190000Y-8790000D02*
G75*
G02*
X7130000Y-8790000I-30000J0D01*
G01*
X7130000Y-8790000D02*
G75*
G02*
X7190000Y-8790000I30000J0D01*
G01*
X7190000Y-9240000D02*
G75*
G02*
X7130000Y-9240000I-30000J0D01*
G01*
X7130000Y-9240000D02*
G75*
G02*
X7190000Y-9240000I30000J0D01*
G01*
X7190000Y-9690000D02*
G75*
G02*
X7130000Y-9690000I-30000J0D01*
G01*
X7130000Y-9690000D02*
G75*
G02*
X7190000Y-9690000I30000J0D01*
G01*
X7315000Y-8790000D02*
G75*
G02*
X7255000Y-8790000I-30000J0D01*
G01*
X7255000Y-8790000D02*
G75*
G02*
X7315000Y-8790000I30000J0D01*
G01*
X7315000Y-9240000D02*
G75*
G02*
X7255000Y-9240000I-30000J0D01*
G01*
X7255000Y-9240000D02*
G75*
G02*
X7315000Y-9240000I30000J0D01*
G01*
X7315000Y-9690000D02*
G75*
G02*
X7255000Y-9690000I-30000J0D01*
G01*
X7255000Y-9690000D02*
G75*
G02*
X7315000Y-9690000I30000J0D01*
G01*
X8360000Y-7712500D02*
G75*
G02*
X8300000Y-7712500I-30000J0D01*
G01*
X8300000Y-7712500D02*
G75*
G02*
X8360000Y-7712500I30000J0D01*
G01*
X8360000Y-7837500D02*
G75*
G02*
X8300000Y-7837500I-30000J0D01*
G01*
X8300000Y-7837500D02*
G75*
G02*
X8360000Y-7837500I30000J0D01*
G01*
X8360000Y-7962500D02*
G75*
G02*
X8300000Y-7962500I-30000J0D01*
G01*
X8300000Y-7962500D02*
G75*
G02*
X8360000Y-7962500I30000J0D01*
G01*
X8360000Y-8087500D02*
G75*
G02*
X8300000Y-8087500I-30000J0D01*
G01*
X8300000Y-8087500D02*
G75*
G02*
X8360000Y-8087500I30000J0D01*
G01*
X8360000Y-8492500D02*
G75*
G02*
X8300000Y-8492500I-30000J0D01*
G01*
X8300000Y-8492500D02*
G75*
G02*
X8360000Y-8492500I30000J0D01*
G01*
X8360000Y-8617500D02*
G75*
G02*
X8300000Y-8617500I-30000J0D01*
G01*
X8300000Y-8617500D02*
G75*
G02*
X8360000Y-8617500I30000J0D01*
G01*
X8360000Y-8742500D02*
G75*
G02*
X8300000Y-8742500I-30000J0D01*
G01*
X8300000Y-8742500D02*
G75*
G02*
X8360000Y-8742500I30000J0D01*
G01*
X8360000Y-8867500D02*
G75*
G02*
X8300000Y-8867500I-30000J0D01*
G01*
X8300000Y-8867500D02*
G75*
G02*
X8360000Y-8867500I30000J0D01*
G01*
X11695000Y-12180000D02*
G75*
G02*
X11635000Y-12180000I-30000J0D01*
G01*
X11635000Y-12180000D02*
G75*
G02*
X11695000Y-12180000I30000J0D01*
G01*
X11820000Y-12180000D02*
G75*
G02*
X11760000Y-12180000I-30000J0D01*
G01*
X11760000Y-12180000D02*
G75*
G02*
X11820000Y-12180000I30000J0D01*
G01*
X11945000Y-12180000D02*
G75*
G02*
X11885000Y-12180000I-30000J0D01*
G01*
X11885000Y-12180000D02*
G75*
G02*
X11945000Y-12180000I30000J0D01*
G01*
X11800000Y-9994000D02*
X11800000Y-10074000D01*
X11760000Y-10034000D02*
X11840000Y-10034000D01*
X11800000Y-10248000D02*
X11800000Y-10328000D01*
X11760000Y-10288000D02*
X11840000Y-10288000D01*
X11800000Y-10502000D02*
X11800000Y-10582000D01*
X11760000Y-10542000D02*
X11840000Y-10542000D01*
X11800000Y-10756000D02*
X11800000Y-10836000D01*
X11760000Y-10796000D02*
X11840000Y-10796000D01*
X11800000Y-11010000D02*
X11800000Y-11090000D01*
X11760000Y-11050000D02*
X11840000Y-11050000D01*
X11800000Y-11264000D02*
X11800000Y-11344000D01*
X11760000Y-11304000D02*
X11840000Y-11304000D01*
X11800000Y-11518000D02*
X11800000Y-11598000D01*
X11760000Y-11558000D02*
X11840000Y-11558000D01*
X12244735Y-9300000D02*
X12244735Y-9380000D01*
X12204735Y-9340000D02*
X12284735Y-9340000D01*
X12562000Y-9994000D02*
X12562000Y-10074000D01*
X12522000Y-10034000D02*
X12602000Y-10034000D01*
X12562000Y-10248000D02*
X12562000Y-10328000D01*
X12522000Y-10288000D02*
X12602000Y-10288000D01*
X12562000Y-10502000D02*
X12562000Y-10582000D01*
X12522000Y-10542000D02*
X12602000Y-10542000D01*
X12562000Y-10756000D02*
X12562000Y-10836000D01*
X12522000Y-10796000D02*
X12602000Y-10796000D01*
X12562000Y-11010000D02*
X12562000Y-11090000D01*
X12522000Y-11050000D02*
X12602000Y-11050000D01*
X12562000Y-11264000D02*
X12562000Y-11344000D01*
X12522000Y-11304000D02*
X12602000Y-11304000D01*
X12562000Y-11518000D02*
X12562000Y-11598000D01*
X12522000Y-11558000D02*
X12602000Y-11558000D01*
X12594735Y-9300000D02*
X12594735Y-9380000D01*
X12554735Y-9340000D02*
X12634735Y-9340000D01*
X7380052Y-7890052D02*
X7380052Y-7829948D01*
X7319948Y-7829948D01*
X7319948Y-7890052D01*
X7380052Y-7890052D01*
X7630052Y-7890052D02*
X7630052Y-7829948D01*
X7569948Y-7829948D01*
X7569948Y-7890052D01*
X7630052Y-7890052D01*
X13180052Y-8390052D02*
X13180052Y-8329948D01*
X13119948Y-8329948D01*
X13119948Y-8390052D01*
X13180052Y-8390052D01*
X13180052Y-8640052D02*
X13180052Y-8579948D01*
X13119948Y-8579948D01*
X13119948Y-8640052D01*
X13180052Y-8640052D01*
X13230052Y-10530052D02*
X13230052Y-10469948D01*
X13169948Y-10469948D01*
X13169948Y-10530052D01*
X13230052Y-10530052D01*
X13230052Y-10780052D02*
X13230052Y-10719948D01*
X13169948Y-10719948D01*
X13169948Y-10780052D01*
X13230052Y-10780052D01*
X13230052Y-11430052D02*
X13230052Y-11369948D01*
X13169948Y-11369948D01*
X13169948Y-11430052D01*
X13230052Y-11430052D01*
X13230052Y-11680052D02*
X13230052Y-11619948D01*
X13169948Y-11619948D01*
X13169948Y-11680052D01*
X13230052Y-11680052D01*
X9249000Y-7851400D02*
X9294000Y-7806400D01*
X9249000Y-7761400D01*
X9204000Y-7806400D01*
X9249000Y-7851400D01*
X9249000Y-8105400D02*
X9294000Y-8060400D01*
X9249000Y-8015400D01*
X9204000Y-8060400D01*
X9249000Y-8105400D01*
X9249000Y-8359400D02*
X9294000Y-8314400D01*
X9249000Y-8269400D01*
X9204000Y-8314400D01*
X9249000Y-8359400D01*
X9249000Y-8613400D02*
X9294000Y-8568400D01*
X9249000Y-8523400D01*
X9204000Y-8568400D01*
X9249000Y-8613400D01*
X9249000Y-8867400D02*
X9294000Y-8822400D01*
X9249000Y-8777400D01*
X9204000Y-8822400D01*
X9249000Y-8867400D01*
X9249000Y-9121400D02*
X9294000Y-9076400D01*
X9249000Y-9031400D01*
X9204000Y-9076400D01*
X9249000Y-9121400D01*
X9249000Y-9375400D02*
X9294000Y-9330400D01*
X9249000Y-9285400D01*
X9204000Y-9330400D01*
X9249000Y-9375400D01*
X9249000Y-9629400D02*
X9294000Y-9584400D01*
X9249000Y-9539400D01*
X9204000Y-9584400D01*
X9249000Y-9629400D01*
X9249000Y-9883400D02*
X9294000Y-9838400D01*
X9249000Y-9793400D01*
X9204000Y-9838400D01*
X9249000Y-9883400D01*
X9249000Y-10137400D02*
X9294000Y-10092400D01*
X9249000Y-10047400D01*
X9204000Y-10092400D01*
X9249000Y-10137400D01*
X9249000Y-10391400D02*
X9294000Y-10346400D01*
X9249000Y-10301400D01*
X9204000Y-10346400D01*
X9249000Y-10391400D01*
X9249000Y-10645400D02*
X9294000Y-10600400D01*
X9249000Y-10555400D01*
X9204000Y-10600400D01*
X9249000Y-10645400D01*
X10727280Y-7760680D02*
X10818720Y-7852120D01*
X10818720Y-7760680D02*
X10727280Y-7852120D01*
X10818720Y-7806400D02*
G75*
G02*
X10727280Y-7806400I-45720J0D01*
G01*
X10727280Y-7806400D02*
G75*
G02*
X10818720Y-7806400I45720J0D01*
G01*
X10727280Y-8014680D02*
X10818720Y-8106120D01*
X10818720Y-8014680D02*
X10727280Y-8106120D01*
X10818720Y-8060400D02*
G75*
G02*
X10727280Y-8060400I-45720J0D01*
G01*
X10727280Y-8060400D02*
G75*
G02*
X10818720Y-8060400I45720J0D01*
G01*
X10727280Y-8268680D02*
X10818720Y-8360120D01*
X10818720Y-8268680D02*
X10727280Y-8360120D01*
X10818720Y-8314400D02*
G75*
G02*
X10727280Y-8314400I-45720J0D01*
G01*
X10727280Y-8314400D02*
G75*
G02*
X10818720Y-8314400I45720J0D01*
G01*
X10727280Y-8522680D02*
X10818720Y-8614120D01*
X10818720Y-8522680D02*
X10727280Y-8614120D01*
X10818720Y-8568400D02*
G75*
G02*
X10727280Y-8568400I-45720J0D01*
G01*
X10727280Y-8568400D02*
G75*
G02*
X10818720Y-8568400I45720J0D01*
G01*
X10727280Y-8776680D02*
X10818720Y-8868120D01*
X10818720Y-8776680D02*
X10727280Y-8868120D01*
X10818720Y-8822400D02*
G75*
G02*
X10727280Y-8822400I-45720J0D01*
G01*
X10727280Y-8822400D02*
G75*
G02*
X10818720Y-8822400I45720J0D01*
G01*
X10727280Y-9030680D02*
X10818720Y-9122120D01*
X10818720Y-9030680D02*
X10727280Y-9122120D01*
X10818720Y-9076400D02*
G75*
G02*
X10727280Y-9076400I-45720J0D01*
G01*
X10727280Y-9076400D02*
G75*
G02*
X10818720Y-9076400I45720J0D01*
G01*
X10727280Y-9284680D02*
X10818720Y-9376120D01*
X10818720Y-9284680D02*
X10727280Y-9376120D01*
X10818720Y-9330400D02*
G75*
G02*
X10727280Y-9330400I-45720J0D01*
G01*
X10727280Y-9330400D02*
G75*
G02*
X10818720Y-9330400I45720J0D01*
G01*
X10727280Y-9538680D02*
X10818720Y-9630120D01*
X10818720Y-9538680D02*
X10727280Y-9630120D01*
X10818720Y-9584400D02*
G75*
G02*
X10727280Y-9584400I-45720J0D01*
G01*
X10727280Y-9584400D02*
G75*
G02*
X10818720Y-9584400I45720J0D01*
G01*
X10727280Y-9792680D02*
X10818720Y-9884120D01*
X10818720Y-9792680D02*
X10727280Y-9884120D01*
X10818720Y-9838400D02*
G75*
G02*
X10727280Y-9838400I-45720J0D01*
G01*
X10727280Y-9838400D02*
G75*
G02*
X10818720Y-9838400I45720J0D01*
G01*
X10727280Y-10046680D02*
X10818720Y-10138120D01*
X10818720Y-10046680D02*
X10727280Y-10138120D01*
X10818720Y-10092400D02*
G75*
G02*
X10727280Y-10092400I-45720J0D01*
G01*
X10727280Y-10092400D02*
G75*
G02*
X10818720Y-10092400I45720J0D01*
G01*
X10727280Y-10300680D02*
X10818720Y-10392120D01*
X10818720Y-10300680D02*
X10727280Y-10392120D01*
X10818720Y-10346400D02*
G75*
G02*
X10727280Y-10346400I-45720J0D01*
G01*
X10727280Y-10346400D02*
G75*
G02*
X10818720Y-10346400I45720J0D01*
G01*
X7130000Y-12250000D02*
X7230000Y-12350000D01*
X7230000Y-12250000D02*
X7130000Y-12350000D01*
X7180000Y-12250000D02*
X7180000Y-12350000D01*
X7130000Y-12300000D02*
X7230000Y-12300000D01*
X7384000Y-12250000D02*
X7484000Y-12350000D01*
X7484000Y-12250000D02*
X7384000Y-12350000D01*
X7434000Y-12250000D02*
X7434000Y-12350000D01*
X7384000Y-12300000D02*
X7484000Y-12300000D01*
X7638000Y-12250000D02*
X7738000Y-12350000D01*
X7738000Y-12250000D02*
X7638000Y-12350000D01*
X7688000Y-12250000D02*
X7688000Y-12350000D01*
X7638000Y-12300000D02*
X7738000Y-12300000D01*
X7892000Y-12250000D02*
X7992000Y-12350000D01*
X7992000Y-12250000D02*
X7892000Y-12350000D01*
X7942000Y-12250000D02*
X7942000Y-12350000D01*
X7892000Y-12300000D02*
X7992000Y-12300000D01*
X8146000Y-12250000D02*
X8246000Y-12350000D01*
X8246000Y-12250000D02*
X8146000Y-12350000D01*
X8196000Y-12250000D02*
X8196000Y-12350000D01*
X8146000Y-12300000D02*
X8246000Y-12300000D01*
X8680000Y-9532000D02*
X8780000Y-9632000D01*
X8780000Y-9532000D02*
X8680000Y-9632000D01*
X8730000Y-9532000D02*
X8730000Y-9632000D01*
X8680000Y-9582000D02*
X8780000Y-9582000D01*
X8680000Y-9786000D02*
X8780000Y-9886000D01*
X8780000Y-9786000D02*
X8680000Y-9886000D01*
X8730000Y-9786000D02*
X8730000Y-9886000D01*
X8680000Y-9836000D02*
X8780000Y-9836000D01*
X8680000Y-10040000D02*
X8780000Y-10140000D01*
X8780000Y-10040000D02*
X8680000Y-10140000D01*
X8730000Y-10040000D02*
X8730000Y-10140000D01*
X8680000Y-10090000D02*
X8780000Y-10090000D01*
X9568000Y-11450000D02*
X9668000Y-11550000D01*
X9668000Y-11450000D02*
X9568000Y-11550000D01*
X9618000Y-11450000D02*
X9618000Y-11550000D01*
X9568000Y-11500000D02*
X9668000Y-11500000D01*
X9822000Y-11450000D02*
X9922000Y-11550000D01*
X9922000Y-11450000D02*
X9822000Y-11550000D01*
X9872000Y-11450000D02*
X9872000Y-11550000D01*
X9822000Y-11500000D02*
X9922000Y-11500000D01*
X10076000Y-11450000D02*
X10176000Y-11550000D01*
X10176000Y-11450000D02*
X10076000Y-11550000D01*
X10126000Y-11450000D02*
X10126000Y-11550000D01*
X10076000Y-11500000D02*
X10176000Y-11500000D01*
X10330000Y-11450000D02*
X10430000Y-11550000D01*
X10430000Y-11450000D02*
X10330000Y-11550000D01*
X10380000Y-11450000D02*
X10380000Y-11550000D01*
X10330000Y-11500000D02*
X10430000Y-11500000D01*
D13*
X11247000Y-7636750D02*
X11432000Y-7821750D01*
X11432000Y-7636750D02*
X11247000Y-7821750D01*
X11404908Y-7794658D02*
X11404908Y-7663842D01*
X11274092Y-7663842D01*
X11274092Y-7794658D01*
X11404908Y-7794658D01*
X11437500Y-8589750D02*
X11622500Y-8774750D01*
X11622500Y-8589750D02*
X11437500Y-8774750D01*
X11595408Y-8747658D02*
X11595408Y-8616842D01*
X11464592Y-8616842D01*
X11464592Y-8747658D01*
X11595408Y-8747658D01*
X11907500Y-8589750D02*
X12092500Y-8774750D01*
X12092500Y-8589750D02*
X11907500Y-8774750D01*
X12065408Y-8747658D02*
X12065408Y-8616842D01*
X11934592Y-8616842D01*
X11934592Y-8747658D01*
X12065408Y-8747658D01*
X12377500Y-8589750D02*
X12562500Y-8774750D01*
X12562500Y-8589750D02*
X12377500Y-8774750D01*
X12535408Y-8747658D02*
X12535408Y-8616842D01*
X12404592Y-8616842D01*
X12404592Y-8747658D01*
X12535408Y-8747658D01*
X12568000Y-7636750D02*
X12753000Y-7821750D01*
X12753000Y-7636750D02*
X12568000Y-7821750D01*
X12725908Y-7794658D02*
X12725908Y-7663842D01*
X12595092Y-7663842D01*
X12595092Y-7794658D01*
X12725908Y-7794658D01*
D14*
X6590000Y-7590000D02*
X6810000Y-7810000D01*
X6810000Y-7590000D02*
X6590000Y-7810000D01*
X6700000Y-7810000D02*
X6810000Y-7700000D01*
X6700000Y-7590000D01*
X6590000Y-7700000D01*
X6700000Y-7810000D01*
X6590000Y-12190000D02*
X6810000Y-12410000D01*
X6810000Y-12190000D02*
X6590000Y-12410000D01*
X6700000Y-12410000D02*
X6810000Y-12300000D01*
X6700000Y-12190000D01*
X6590000Y-12300000D01*
X6700000Y-12410000D01*
X13190000Y-7590000D02*
X13410000Y-7810000D01*
X13410000Y-7590000D02*
X13190000Y-7810000D01*
X13300000Y-7810000D02*
X13410000Y-7700000D01*
X13300000Y-7590000D01*
X13190000Y-7700000D01*
X13300000Y-7810000D01*
X13190000Y-12190000D02*
X13410000Y-12410000D01*
X13410000Y-12190000D02*
X13190000Y-12410000D01*
X13300000Y-12410000D02*
X13410000Y-12300000D01*
X13300000Y-12190000D01*
X13190000Y-12300000D01*
X13300000Y-12410000D01*
D11*
X6758277Y-12813984D02*
X6758277Y-12613984D01*
X6758277Y-12613984D02*
X6805896Y-12613984D01*
X6805896Y-12613984D02*
X6834467Y-12623508D01*
X6834467Y-12623508D02*
X6853515Y-12642555D01*
X6853515Y-12642555D02*
X6863039Y-12661603D01*
X6863039Y-12661603D02*
X6872562Y-12699698D01*
X6872562Y-12699698D02*
X6872562Y-12728269D01*
X6872562Y-12728269D02*
X6863039Y-12766365D01*
X6863039Y-12766365D02*
X6853515Y-12785412D01*
X6853515Y-12785412D02*
X6834467Y-12804460D01*
X6834467Y-12804460D02*
X6805896Y-12813984D01*
X6805896Y-12813984D02*
X6758277Y-12813984D01*
X6958277Y-12813984D02*
X6958277Y-12680650D01*
X6958277Y-12718746D02*
X6967801Y-12699698D01*
X6967801Y-12699698D02*
X6977324Y-12690174D01*
X6977324Y-12690174D02*
X6996372Y-12680650D01*
X6996372Y-12680650D02*
X7015420Y-12680650D01*
X7082086Y-12813984D02*
X7082086Y-12680650D01*
X7082086Y-12613984D02*
X7072562Y-12623508D01*
X7072562Y-12623508D02*
X7082086Y-12633031D01*
X7082086Y-12633031D02*
X7091610Y-12623508D01*
X7091610Y-12623508D02*
X7082086Y-12613984D01*
X7082086Y-12613984D02*
X7082086Y-12633031D01*
X7205896Y-12813984D02*
X7186848Y-12804460D01*
X7186848Y-12804460D02*
X7177324Y-12785412D01*
X7177324Y-12785412D02*
X7177324Y-12613984D01*
X7310658Y-12813984D02*
X7291610Y-12804460D01*
X7291610Y-12804460D02*
X7282086Y-12785412D01*
X7282086Y-12785412D02*
X7282086Y-12613984D01*
X7539229Y-12813984D02*
X7539229Y-12613984D01*
X7539229Y-12613984D02*
X7605896Y-12756841D01*
X7605896Y-12756841D02*
X7672562Y-12613984D01*
X7672562Y-12613984D02*
X7672562Y-12813984D01*
X7853515Y-12813984D02*
X7853515Y-12709222D01*
X7853515Y-12709222D02*
X7843991Y-12690174D01*
X7843991Y-12690174D02*
X7824943Y-12680650D01*
X7824943Y-12680650D02*
X7786848Y-12680650D01*
X7786848Y-12680650D02*
X7767801Y-12690174D01*
X7853515Y-12804460D02*
X7834467Y-12813984D01*
X7834467Y-12813984D02*
X7786848Y-12813984D01*
X7786848Y-12813984D02*
X7767801Y-12804460D01*
X7767801Y-12804460D02*
X7758277Y-12785412D01*
X7758277Y-12785412D02*
X7758277Y-12766365D01*
X7758277Y-12766365D02*
X7767801Y-12747317D01*
X7767801Y-12747317D02*
X7786848Y-12737793D01*
X7786848Y-12737793D02*
X7834467Y-12737793D01*
X7834467Y-12737793D02*
X7853515Y-12728269D01*
X7948753Y-12680650D02*
X7948753Y-12880650D01*
X7948753Y-12690174D02*
X7967801Y-12680650D01*
X7967801Y-12680650D02*
X8005896Y-12680650D01*
X8005896Y-12680650D02*
X8024943Y-12690174D01*
X8024943Y-12690174D02*
X8034467Y-12699698D01*
X8034467Y-12699698D02*
X8043991Y-12718746D01*
X8043991Y-12718746D02*
X8043991Y-12775888D01*
X8043991Y-12775888D02*
X8034467Y-12794936D01*
X8034467Y-12794936D02*
X8024943Y-12804460D01*
X8024943Y-12804460D02*
X8005896Y-12813984D01*
X8005896Y-12813984D02*
X7967801Y-12813984D01*
X7967801Y-12813984D02*
X7948753Y-12804460D01*
X8129705Y-12794936D02*
X8139229Y-12804460D01*
X8139229Y-12804460D02*
X8129705Y-12813984D01*
X8129705Y-12813984D02*
X8120182Y-12804460D01*
X8120182Y-12804460D02*
X8129705Y-12794936D01*
X8129705Y-12794936D02*
X8129705Y-12813984D01*
X8129705Y-12690174D02*
X8139229Y-12699698D01*
X8139229Y-12699698D02*
X8129705Y-12709222D01*
X8129705Y-12709222D02*
X8120182Y-12699698D01*
X8120182Y-12699698D02*
X8129705Y-12690174D01*
X8129705Y-12690174D02*
X8129705Y-12709222D01*
D12*
X6467500Y-13127500D02*
X6497500Y-13157500D01*
X6497500Y-13127500D02*
X6467500Y-13157500D01*
D11*
X6796372Y-13033984D02*
X6815420Y-13033984D01*
X6815420Y-13033984D02*
X6834467Y-13043508D01*
X6834467Y-13043508D02*
X6843991Y-13053031D01*
X6843991Y-13053031D02*
X6853515Y-13072079D01*
X6853515Y-13072079D02*
X6863039Y-13110174D01*
X6863039Y-13110174D02*
X6863039Y-13157793D01*
X6863039Y-13157793D02*
X6853515Y-13195888D01*
X6853515Y-13195888D02*
X6843991Y-13214936D01*
X6843991Y-13214936D02*
X6834467Y-13224460D01*
X6834467Y-13224460D02*
X6815420Y-13233984D01*
X6815420Y-13233984D02*
X6796372Y-13233984D01*
X6796372Y-13233984D02*
X6777324Y-13224460D01*
X6777324Y-13224460D02*
X6767801Y-13214936D01*
X6767801Y-13214936D02*
X6758277Y-13195888D01*
X6758277Y-13195888D02*
X6748753Y-13157793D01*
X6748753Y-13157793D02*
X6748753Y-13110174D01*
X6748753Y-13110174D02*
X6758277Y-13072079D01*
X6758277Y-13072079D02*
X6767801Y-13053031D01*
X6767801Y-13053031D02*
X6777324Y-13043508D01*
X6777324Y-13043508D02*
X6796372Y-13033984D01*
X6948753Y-13214936D02*
X6958277Y-13224460D01*
X6958277Y-13224460D02*
X6948753Y-13233984D01*
X6948753Y-13233984D02*
X6939229Y-13224460D01*
X6939229Y-13224460D02*
X6948753Y-13214936D01*
X6948753Y-13214936D02*
X6948753Y-13233984D01*
X7024943Y-13033984D02*
X7148753Y-13033984D01*
X7148753Y-13033984D02*
X7082086Y-13110174D01*
X7082086Y-13110174D02*
X7110658Y-13110174D01*
X7110658Y-13110174D02*
X7129705Y-13119698D01*
X7129705Y-13119698D02*
X7139229Y-13129222D01*
X7139229Y-13129222D02*
X7148753Y-13148269D01*
X7148753Y-13148269D02*
X7148753Y-13195888D01*
X7148753Y-13195888D02*
X7139229Y-13214936D01*
X7139229Y-13214936D02*
X7129705Y-13224460D01*
X7129705Y-13224460D02*
X7110658Y-13233984D01*
X7110658Y-13233984D02*
X7053515Y-13233984D01*
X7053515Y-13233984D02*
X7034467Y-13224460D01*
X7034467Y-13224460D02*
X7024943Y-13214936D01*
X7272562Y-13033984D02*
X7291610Y-13033984D01*
X7291610Y-13033984D02*
X7310658Y-13043508D01*
X7310658Y-13043508D02*
X7320182Y-13053031D01*
X7320182Y-13053031D02*
X7329705Y-13072079D01*
X7329705Y-13072079D02*
X7339229Y-13110174D01*
X7339229Y-13110174D02*
X7339229Y-13157793D01*
X7339229Y-13157793D02*
X7329705Y-13195888D01*
X7329705Y-13195888D02*
X7320182Y-13214936D01*
X7320182Y-13214936D02*
X7310658Y-13224460D01*
X7310658Y-13224460D02*
X7291610Y-13233984D01*
X7291610Y-13233984D02*
X7272562Y-13233984D01*
X7272562Y-13233984D02*
X7253515Y-13224460D01*
X7253515Y-13224460D02*
X7243991Y-13214936D01*
X7243991Y-13214936D02*
X7234467Y-13195888D01*
X7234467Y-13195888D02*
X7224943Y-13157793D01*
X7224943Y-13157793D02*
X7224943Y-13110174D01*
X7224943Y-13110174D02*
X7234467Y-13072079D01*
X7234467Y-13072079D02*
X7243991Y-13053031D01*
X7243991Y-13053031D02*
X7253515Y-13043508D01*
X7253515Y-13043508D02*
X7272562Y-13033984D01*
X7463039Y-13033984D02*
X7482086Y-13033984D01*
X7482086Y-13033984D02*
X7501134Y-13043508D01*
X7501134Y-13043508D02*
X7510658Y-13053031D01*
X7510658Y-13053031D02*
X7520182Y-13072079D01*
X7520182Y-13072079D02*
X7529705Y-13110174D01*
X7529705Y-13110174D02*
X7529705Y-13157793D01*
X7529705Y-13157793D02*
X7520182Y-13195888D01*
X7520182Y-13195888D02*
X7510658Y-13214936D01*
X7510658Y-13214936D02*
X7501134Y-13224460D01*
X7501134Y-13224460D02*
X7482086Y-13233984D01*
X7482086Y-13233984D02*
X7463039Y-13233984D01*
X7463039Y-13233984D02*
X7443991Y-13224460D01*
X7443991Y-13224460D02*
X7434467Y-13214936D01*
X7434467Y-13214936D02*
X7424943Y-13195888D01*
X7424943Y-13195888D02*
X7415420Y-13157793D01*
X7415420Y-13157793D02*
X7415420Y-13110174D01*
X7415420Y-13110174D02*
X7424943Y-13072079D01*
X7424943Y-13072079D02*
X7434467Y-13053031D01*
X7434467Y-13053031D02*
X7443991Y-13043508D01*
X7443991Y-13043508D02*
X7463039Y-13033984D01*
X7615420Y-13233984D02*
X7615420Y-13100650D01*
X7615420Y-13119698D02*
X7624943Y-13110174D01*
X7624943Y-13110174D02*
X7643991Y-13100650D01*
X7643991Y-13100650D02*
X7672563Y-13100650D01*
X7672563Y-13100650D02*
X7691610Y-13110174D01*
X7691610Y-13110174D02*
X7701134Y-13129222D01*
X7701134Y-13129222D02*
X7701134Y-13233984D01*
X7701134Y-13129222D02*
X7710658Y-13110174D01*
X7710658Y-13110174D02*
X7729705Y-13100650D01*
X7729705Y-13100650D02*
X7758277Y-13100650D01*
X7758277Y-13100650D02*
X7777324Y-13110174D01*
X7777324Y-13110174D02*
X7786848Y-13129222D01*
X7786848Y-13129222D02*
X7786848Y-13233984D01*
X7882086Y-13233984D02*
X7882086Y-13100650D01*
X7882086Y-13119698D02*
X7891610Y-13110174D01*
X7891610Y-13110174D02*
X7910658Y-13100650D01*
X7910658Y-13100650D02*
X7939229Y-13100650D01*
X7939229Y-13100650D02*
X7958277Y-13110174D01*
X7958277Y-13110174D02*
X7967801Y-13129222D01*
X7967801Y-13129222D02*
X7967801Y-13233984D01*
X7967801Y-13129222D02*
X7977324Y-13110174D01*
X7977324Y-13110174D02*
X7996372Y-13100650D01*
X7996372Y-13100650D02*
X8024943Y-13100650D01*
X8024943Y-13100650D02*
X8043991Y-13110174D01*
X8043991Y-13110174D02*
X8053515Y-13129222D01*
X8053515Y-13129222D02*
X8053515Y-13233984D01*
X8443991Y-13024460D02*
X8272563Y-13281603D01*
X8701134Y-13033984D02*
X8720182Y-13033984D01*
X8720182Y-13033984D02*
X8739229Y-13043508D01*
X8739229Y-13043508D02*
X8748753Y-13053031D01*
X8748753Y-13053031D02*
X8758277Y-13072079D01*
X8758277Y-13072079D02*
X8767801Y-13110174D01*
X8767801Y-13110174D02*
X8767801Y-13157793D01*
X8767801Y-13157793D02*
X8758277Y-13195888D01*
X8758277Y-13195888D02*
X8748753Y-13214936D01*
X8748753Y-13214936D02*
X8739229Y-13224460D01*
X8739229Y-13224460D02*
X8720182Y-13233984D01*
X8720182Y-13233984D02*
X8701134Y-13233984D01*
X8701134Y-13233984D02*
X8682087Y-13224460D01*
X8682087Y-13224460D02*
X8672563Y-13214936D01*
X8672563Y-13214936D02*
X8663039Y-13195888D01*
X8663039Y-13195888D02*
X8653515Y-13157793D01*
X8653515Y-13157793D02*
X8653515Y-13110174D01*
X8653515Y-13110174D02*
X8663039Y-13072079D01*
X8663039Y-13072079D02*
X8672563Y-13053031D01*
X8672563Y-13053031D02*
X8682087Y-13043508D01*
X8682087Y-13043508D02*
X8701134Y-13033984D01*
X8853515Y-13214936D02*
X8863039Y-13224460D01*
X8863039Y-13224460D02*
X8853515Y-13233984D01*
X8853515Y-13233984D02*
X8843991Y-13224460D01*
X8843991Y-13224460D02*
X8853515Y-13214936D01*
X8853515Y-13214936D02*
X8853515Y-13233984D01*
X8986848Y-13033984D02*
X9005896Y-13033984D01*
X9005896Y-13033984D02*
X9024944Y-13043508D01*
X9024944Y-13043508D02*
X9034468Y-13053031D01*
X9034468Y-13053031D02*
X9043991Y-13072079D01*
X9043991Y-13072079D02*
X9053515Y-13110174D01*
X9053515Y-13110174D02*
X9053515Y-13157793D01*
X9053515Y-13157793D02*
X9043991Y-13195888D01*
X9043991Y-13195888D02*
X9034468Y-13214936D01*
X9034468Y-13214936D02*
X9024944Y-13224460D01*
X9024944Y-13224460D02*
X9005896Y-13233984D01*
X9005896Y-13233984D02*
X8986848Y-13233984D01*
X8986848Y-13233984D02*
X8967801Y-13224460D01*
X8967801Y-13224460D02*
X8958277Y-13214936D01*
X8958277Y-13214936D02*
X8948753Y-13195888D01*
X8948753Y-13195888D02*
X8939229Y-13157793D01*
X8939229Y-13157793D02*
X8939229Y-13110174D01*
X8939229Y-13110174D02*
X8948753Y-13072079D01*
X8948753Y-13072079D02*
X8958277Y-13053031D01*
X8958277Y-13053031D02*
X8967801Y-13043508D01*
X8967801Y-13043508D02*
X8986848Y-13033984D01*
X9243991Y-13233984D02*
X9129706Y-13233984D01*
X9186848Y-13233984D02*
X9186848Y-13033984D01*
X9186848Y-13033984D02*
X9167801Y-13062555D01*
X9167801Y-13062555D02*
X9148753Y-13081603D01*
X9148753Y-13081603D02*
X9129706Y-13091127D01*
X9434468Y-13233984D02*
X9320182Y-13233984D01*
X9377325Y-13233984D02*
X9377325Y-13033984D01*
X9377325Y-13033984D02*
X9358277Y-13062555D01*
X9358277Y-13062555D02*
X9339229Y-13081603D01*
X9339229Y-13081603D02*
X9320182Y-13091127D01*
X9548753Y-13119698D02*
X9529706Y-13110174D01*
X9529706Y-13110174D02*
X9520182Y-13100650D01*
X9520182Y-13100650D02*
X9510658Y-13081603D01*
X9510658Y-13081603D02*
X9510658Y-13072079D01*
X9510658Y-13072079D02*
X9520182Y-13053031D01*
X9520182Y-13053031D02*
X9529706Y-13043508D01*
X9529706Y-13043508D02*
X9548753Y-13033984D01*
X9548753Y-13033984D02*
X9586849Y-13033984D01*
X9586849Y-13033984D02*
X9605896Y-13043508D01*
X9605896Y-13043508D02*
X9615420Y-13053031D01*
X9615420Y-13053031D02*
X9624944Y-13072079D01*
X9624944Y-13072079D02*
X9624944Y-13081603D01*
X9624944Y-13081603D02*
X9615420Y-13100650D01*
X9615420Y-13100650D02*
X9605896Y-13110174D01*
X9605896Y-13110174D02*
X9586849Y-13119698D01*
X9586849Y-13119698D02*
X9548753Y-13119698D01*
X9548753Y-13119698D02*
X9529706Y-13129222D01*
X9529706Y-13129222D02*
X9520182Y-13138746D01*
X9520182Y-13138746D02*
X9510658Y-13157793D01*
X9510658Y-13157793D02*
X9510658Y-13195888D01*
X9510658Y-13195888D02*
X9520182Y-13214936D01*
X9520182Y-13214936D02*
X9529706Y-13224460D01*
X9529706Y-13224460D02*
X9548753Y-13233984D01*
X9548753Y-13233984D02*
X9586849Y-13233984D01*
X9586849Y-13233984D02*
X9605896Y-13224460D01*
X9605896Y-13224460D02*
X9615420Y-13214936D01*
X9615420Y-13214936D02*
X9624944Y-13195888D01*
X9624944Y-13195888D02*
X9624944Y-13157793D01*
X9624944Y-13157793D02*
X9615420Y-13138746D01*
X9615420Y-13138746D02*
X9605896Y-13129222D01*
X9605896Y-13129222D02*
X9586849Y-13119698D01*
X9701134Y-13033984D02*
X9701134Y-13072079D01*
X9777325Y-13033984D02*
X9777325Y-13072079D01*
X10072563Y-13310174D02*
X10063039Y-13300650D01*
X10063039Y-13300650D02*
X10043991Y-13272079D01*
X10043991Y-13272079D02*
X10034468Y-13253031D01*
X10034468Y-13253031D02*
X10024944Y-13224460D01*
X10024944Y-13224460D02*
X10015420Y-13176841D01*
X10015420Y-13176841D02*
X10015420Y-13138746D01*
X10015420Y-13138746D02*
X10024944Y-13091127D01*
X10024944Y-13091127D02*
X10034468Y-13062555D01*
X10034468Y-13062555D02*
X10043991Y-13043508D01*
X10043991Y-13043508D02*
X10063039Y-13014936D01*
X10063039Y-13014936D02*
X10072563Y-13005412D01*
X10234468Y-13100650D02*
X10234468Y-13233984D01*
X10186849Y-13024460D02*
X10139230Y-13167317D01*
X10139230Y-13167317D02*
X10263039Y-13167317D01*
X10491611Y-13233984D02*
X10491611Y-13033984D01*
X10577325Y-13233984D02*
X10577325Y-13129222D01*
X10577325Y-13129222D02*
X10567801Y-13110174D01*
X10567801Y-13110174D02*
X10548753Y-13100650D01*
X10548753Y-13100650D02*
X10520182Y-13100650D01*
X10520182Y-13100650D02*
X10501134Y-13110174D01*
X10501134Y-13110174D02*
X10491611Y-13119698D01*
X10701134Y-13233984D02*
X10682087Y-13224460D01*
X10682087Y-13224460D02*
X10672563Y-13214936D01*
X10672563Y-13214936D02*
X10663039Y-13195888D01*
X10663039Y-13195888D02*
X10663039Y-13138746D01*
X10663039Y-13138746D02*
X10672563Y-13119698D01*
X10672563Y-13119698D02*
X10682087Y-13110174D01*
X10682087Y-13110174D02*
X10701134Y-13100650D01*
X10701134Y-13100650D02*
X10729706Y-13100650D01*
X10729706Y-13100650D02*
X10748753Y-13110174D01*
X10748753Y-13110174D02*
X10758277Y-13119698D01*
X10758277Y-13119698D02*
X10767801Y-13138746D01*
X10767801Y-13138746D02*
X10767801Y-13195888D01*
X10767801Y-13195888D02*
X10758277Y-13214936D01*
X10758277Y-13214936D02*
X10748753Y-13224460D01*
X10748753Y-13224460D02*
X10729706Y-13233984D01*
X10729706Y-13233984D02*
X10701134Y-13233984D01*
X10882087Y-13233984D02*
X10863039Y-13224460D01*
X10863039Y-13224460D02*
X10853515Y-13205412D01*
X10853515Y-13205412D02*
X10853515Y-13033984D01*
X11034468Y-13224460D02*
X11015420Y-13233984D01*
X11015420Y-13233984D02*
X10977325Y-13233984D01*
X10977325Y-13233984D02*
X10958277Y-13224460D01*
X10958277Y-13224460D02*
X10948753Y-13205412D01*
X10948753Y-13205412D02*
X10948753Y-13129222D01*
X10948753Y-13129222D02*
X10958277Y-13110174D01*
X10958277Y-13110174D02*
X10977325Y-13100650D01*
X10977325Y-13100650D02*
X11015420Y-13100650D01*
X11015420Y-13100650D02*
X11034468Y-13110174D01*
X11034468Y-13110174D02*
X11043992Y-13129222D01*
X11043992Y-13129222D02*
X11043992Y-13148269D01*
X11043992Y-13148269D02*
X10948753Y-13167317D01*
X11120182Y-13224460D02*
X11139230Y-13233984D01*
X11139230Y-13233984D02*
X11177325Y-13233984D01*
X11177325Y-13233984D02*
X11196372Y-13224460D01*
X11196372Y-13224460D02*
X11205896Y-13205412D01*
X11205896Y-13205412D02*
X11205896Y-13195888D01*
X11205896Y-13195888D02*
X11196372Y-13176841D01*
X11196372Y-13176841D02*
X11177325Y-13167317D01*
X11177325Y-13167317D02*
X11148753Y-13167317D01*
X11148753Y-13167317D02*
X11129706Y-13157793D01*
X11129706Y-13157793D02*
X11120182Y-13138746D01*
X11120182Y-13138746D02*
X11120182Y-13129222D01*
X11120182Y-13129222D02*
X11129706Y-13110174D01*
X11129706Y-13110174D02*
X11148753Y-13100650D01*
X11148753Y-13100650D02*
X11177325Y-13100650D01*
X11177325Y-13100650D02*
X11196372Y-13110174D01*
X11272563Y-13310174D02*
X11282087Y-13300650D01*
X11282087Y-13300650D02*
X11301134Y-13272079D01*
X11301134Y-13272079D02*
X11310658Y-13253031D01*
X11310658Y-13253031D02*
X11320182Y-13224460D01*
X11320182Y-13224460D02*
X11329706Y-13176841D01*
X11329706Y-13176841D02*
X11329706Y-13138746D01*
X11329706Y-13138746D02*
X11320182Y-13091127D01*
X11320182Y-13091127D02*
X11310658Y-13062555D01*
X11310658Y-13062555D02*
X11301134Y-13043508D01*
X11301134Y-13043508D02*
X11282087Y-13014936D01*
X11282087Y-13014936D02*
X11272563Y-13005412D01*
D12*
X6497500Y-13406500D02*
G75*
G02*
X6437500Y-13406500I-30000J0D01*
G01*
X6437500Y-13406500D02*
G75*
G02*
X6497500Y-13406500I30000J0D01*
G01*
D11*
X6796372Y-13297984D02*
X6815420Y-13297984D01*
X6815420Y-13297984D02*
X6834467Y-13307508D01*
X6834467Y-13307508D02*
X6843991Y-13317031D01*
X6843991Y-13317031D02*
X6853515Y-13336079D01*
X6853515Y-13336079D02*
X6863039Y-13374174D01*
X6863039Y-13374174D02*
X6863039Y-13421793D01*
X6863039Y-13421793D02*
X6853515Y-13459888D01*
X6853515Y-13459888D02*
X6843991Y-13478936D01*
X6843991Y-13478936D02*
X6834467Y-13488460D01*
X6834467Y-13488460D02*
X6815420Y-13497984D01*
X6815420Y-13497984D02*
X6796372Y-13497984D01*
X6796372Y-13497984D02*
X6777324Y-13488460D01*
X6777324Y-13488460D02*
X6767801Y-13478936D01*
X6767801Y-13478936D02*
X6758277Y-13459888D01*
X6758277Y-13459888D02*
X6748753Y-13421793D01*
X6748753Y-13421793D02*
X6748753Y-13374174D01*
X6748753Y-13374174D02*
X6758277Y-13336079D01*
X6758277Y-13336079D02*
X6767801Y-13317031D01*
X6767801Y-13317031D02*
X6777324Y-13307508D01*
X6777324Y-13307508D02*
X6796372Y-13297984D01*
X6948753Y-13478936D02*
X6958277Y-13488460D01*
X6958277Y-13488460D02*
X6948753Y-13497984D01*
X6948753Y-13497984D02*
X6939229Y-13488460D01*
X6939229Y-13488460D02*
X6948753Y-13478936D01*
X6948753Y-13478936D02*
X6948753Y-13497984D01*
X7129705Y-13297984D02*
X7091610Y-13297984D01*
X7091610Y-13297984D02*
X7072562Y-13307508D01*
X7072562Y-13307508D02*
X7063039Y-13317031D01*
X7063039Y-13317031D02*
X7043991Y-13345603D01*
X7043991Y-13345603D02*
X7034467Y-13383698D01*
X7034467Y-13383698D02*
X7034467Y-13459888D01*
X7034467Y-13459888D02*
X7043991Y-13478936D01*
X7043991Y-13478936D02*
X7053515Y-13488460D01*
X7053515Y-13488460D02*
X7072562Y-13497984D01*
X7072562Y-13497984D02*
X7110658Y-13497984D01*
X7110658Y-13497984D02*
X7129705Y-13488460D01*
X7129705Y-13488460D02*
X7139229Y-13478936D01*
X7139229Y-13478936D02*
X7148753Y-13459888D01*
X7148753Y-13459888D02*
X7148753Y-13412269D01*
X7148753Y-13412269D02*
X7139229Y-13393222D01*
X7139229Y-13393222D02*
X7129705Y-13383698D01*
X7129705Y-13383698D02*
X7110658Y-13374174D01*
X7110658Y-13374174D02*
X7072562Y-13374174D01*
X7072562Y-13374174D02*
X7053515Y-13383698D01*
X7053515Y-13383698D02*
X7043991Y-13393222D01*
X7043991Y-13393222D02*
X7034467Y-13412269D01*
X7272562Y-13297984D02*
X7291610Y-13297984D01*
X7291610Y-13297984D02*
X7310658Y-13307508D01*
X7310658Y-13307508D02*
X7320182Y-13317031D01*
X7320182Y-13317031D02*
X7329705Y-13336079D01*
X7329705Y-13336079D02*
X7339229Y-13374174D01*
X7339229Y-13374174D02*
X7339229Y-13421793D01*
X7339229Y-13421793D02*
X7329705Y-13459888D01*
X7329705Y-13459888D02*
X7320182Y-13478936D01*
X7320182Y-13478936D02*
X7310658Y-13488460D01*
X7310658Y-13488460D02*
X7291610Y-13497984D01*
X7291610Y-13497984D02*
X7272562Y-13497984D01*
X7272562Y-13497984D02*
X7253515Y-13488460D01*
X7253515Y-13488460D02*
X7243991Y-13478936D01*
X7243991Y-13478936D02*
X7234467Y-13459888D01*
X7234467Y-13459888D02*
X7224943Y-13421793D01*
X7224943Y-13421793D02*
X7224943Y-13374174D01*
X7224943Y-13374174D02*
X7234467Y-13336079D01*
X7234467Y-13336079D02*
X7243991Y-13317031D01*
X7243991Y-13317031D02*
X7253515Y-13307508D01*
X7253515Y-13307508D02*
X7272562Y-13297984D01*
X7463039Y-13297984D02*
X7482086Y-13297984D01*
X7482086Y-13297984D02*
X7501134Y-13307508D01*
X7501134Y-13307508D02*
X7510658Y-13317031D01*
X7510658Y-13317031D02*
X7520182Y-13336079D01*
X7520182Y-13336079D02*
X7529705Y-13374174D01*
X7529705Y-13374174D02*
X7529705Y-13421793D01*
X7529705Y-13421793D02*
X7520182Y-13459888D01*
X7520182Y-13459888D02*
X7510658Y-13478936D01*
X7510658Y-13478936D02*
X7501134Y-13488460D01*
X7501134Y-13488460D02*
X7482086Y-13497984D01*
X7482086Y-13497984D02*
X7463039Y-13497984D01*
X7463039Y-13497984D02*
X7443991Y-13488460D01*
X7443991Y-13488460D02*
X7434467Y-13478936D01*
X7434467Y-13478936D02*
X7424943Y-13459888D01*
X7424943Y-13459888D02*
X7415420Y-13421793D01*
X7415420Y-13421793D02*
X7415420Y-13374174D01*
X7415420Y-13374174D02*
X7424943Y-13336079D01*
X7424943Y-13336079D02*
X7434467Y-13317031D01*
X7434467Y-13317031D02*
X7443991Y-13307508D01*
X7443991Y-13307508D02*
X7463039Y-13297984D01*
X7615420Y-13497984D02*
X7615420Y-13364650D01*
X7615420Y-13383698D02*
X7624943Y-13374174D01*
X7624943Y-13374174D02*
X7643991Y-13364650D01*
X7643991Y-13364650D02*
X7672563Y-13364650D01*
X7672563Y-13364650D02*
X7691610Y-13374174D01*
X7691610Y-13374174D02*
X7701134Y-13393222D01*
X7701134Y-13393222D02*
X7701134Y-13497984D01*
X7701134Y-13393222D02*
X7710658Y-13374174D01*
X7710658Y-13374174D02*
X7729705Y-13364650D01*
X7729705Y-13364650D02*
X7758277Y-13364650D01*
X7758277Y-13364650D02*
X7777324Y-13374174D01*
X7777324Y-13374174D02*
X7786848Y-13393222D01*
X7786848Y-13393222D02*
X7786848Y-13497984D01*
X7882086Y-13497984D02*
X7882086Y-13364650D01*
X7882086Y-13383698D02*
X7891610Y-13374174D01*
X7891610Y-13374174D02*
X7910658Y-13364650D01*
X7910658Y-13364650D02*
X7939229Y-13364650D01*
X7939229Y-13364650D02*
X7958277Y-13374174D01*
X7958277Y-13374174D02*
X7967801Y-13393222D01*
X7967801Y-13393222D02*
X7967801Y-13497984D01*
X7967801Y-13393222D02*
X7977324Y-13374174D01*
X7977324Y-13374174D02*
X7996372Y-13364650D01*
X7996372Y-13364650D02*
X8024943Y-13364650D01*
X8024943Y-13364650D02*
X8043991Y-13374174D01*
X8043991Y-13374174D02*
X8053515Y-13393222D01*
X8053515Y-13393222D02*
X8053515Y-13497984D01*
X8443991Y-13288460D02*
X8272563Y-13545603D01*
X8701134Y-13297984D02*
X8720182Y-13297984D01*
X8720182Y-13297984D02*
X8739229Y-13307508D01*
X8739229Y-13307508D02*
X8748753Y-13317031D01*
X8748753Y-13317031D02*
X8758277Y-13336079D01*
X8758277Y-13336079D02*
X8767801Y-13374174D01*
X8767801Y-13374174D02*
X8767801Y-13421793D01*
X8767801Y-13421793D02*
X8758277Y-13459888D01*
X8758277Y-13459888D02*
X8748753Y-13478936D01*
X8748753Y-13478936D02*
X8739229Y-13488460D01*
X8739229Y-13488460D02*
X8720182Y-13497984D01*
X8720182Y-13497984D02*
X8701134Y-13497984D01*
X8701134Y-13497984D02*
X8682087Y-13488460D01*
X8682087Y-13488460D02*
X8672563Y-13478936D01*
X8672563Y-13478936D02*
X8663039Y-13459888D01*
X8663039Y-13459888D02*
X8653515Y-13421793D01*
X8653515Y-13421793D02*
X8653515Y-13374174D01*
X8653515Y-13374174D02*
X8663039Y-13336079D01*
X8663039Y-13336079D02*
X8672563Y-13317031D01*
X8672563Y-13317031D02*
X8682087Y-13307508D01*
X8682087Y-13307508D02*
X8701134Y-13297984D01*
X8853515Y-13478936D02*
X8863039Y-13488460D01*
X8863039Y-13488460D02*
X8853515Y-13497984D01*
X8853515Y-13497984D02*
X8843991Y-13488460D01*
X8843991Y-13488460D02*
X8853515Y-13478936D01*
X8853515Y-13478936D02*
X8853515Y-13497984D01*
X8986848Y-13297984D02*
X9005896Y-13297984D01*
X9005896Y-13297984D02*
X9024944Y-13307508D01*
X9024944Y-13307508D02*
X9034468Y-13317031D01*
X9034468Y-13317031D02*
X9043991Y-13336079D01*
X9043991Y-13336079D02*
X9053515Y-13374174D01*
X9053515Y-13374174D02*
X9053515Y-13421793D01*
X9053515Y-13421793D02*
X9043991Y-13459888D01*
X9043991Y-13459888D02*
X9034468Y-13478936D01*
X9034468Y-13478936D02*
X9024944Y-13488460D01*
X9024944Y-13488460D02*
X9005896Y-13497984D01*
X9005896Y-13497984D02*
X8986848Y-13497984D01*
X8986848Y-13497984D02*
X8967801Y-13488460D01*
X8967801Y-13488460D02*
X8958277Y-13478936D01*
X8958277Y-13478936D02*
X8948753Y-13459888D01*
X8948753Y-13459888D02*
X8939229Y-13421793D01*
X8939229Y-13421793D02*
X8939229Y-13374174D01*
X8939229Y-13374174D02*
X8948753Y-13336079D01*
X8948753Y-13336079D02*
X8958277Y-13317031D01*
X8958277Y-13317031D02*
X8967801Y-13307508D01*
X8967801Y-13307508D02*
X8986848Y-13297984D01*
X9129706Y-13317031D02*
X9139229Y-13307508D01*
X9139229Y-13307508D02*
X9158277Y-13297984D01*
X9158277Y-13297984D02*
X9205896Y-13297984D01*
X9205896Y-13297984D02*
X9224944Y-13307508D01*
X9224944Y-13307508D02*
X9234468Y-13317031D01*
X9234468Y-13317031D02*
X9243991Y-13336079D01*
X9243991Y-13336079D02*
X9243991Y-13355127D01*
X9243991Y-13355127D02*
X9234468Y-13383698D01*
X9234468Y-13383698D02*
X9120182Y-13497984D01*
X9120182Y-13497984D02*
X9243991Y-13497984D01*
X9310658Y-13297984D02*
X9434468Y-13297984D01*
X9434468Y-13297984D02*
X9367801Y-13374174D01*
X9367801Y-13374174D02*
X9396372Y-13374174D01*
X9396372Y-13374174D02*
X9415420Y-13383698D01*
X9415420Y-13383698D02*
X9424944Y-13393222D01*
X9424944Y-13393222D02*
X9434468Y-13412269D01*
X9434468Y-13412269D02*
X9434468Y-13459888D01*
X9434468Y-13459888D02*
X9424944Y-13478936D01*
X9424944Y-13478936D02*
X9415420Y-13488460D01*
X9415420Y-13488460D02*
X9396372Y-13497984D01*
X9396372Y-13497984D02*
X9339229Y-13497984D01*
X9339229Y-13497984D02*
X9320182Y-13488460D01*
X9320182Y-13488460D02*
X9310658Y-13478936D01*
X9605896Y-13297984D02*
X9567801Y-13297984D01*
X9567801Y-13297984D02*
X9548753Y-13307508D01*
X9548753Y-13307508D02*
X9539229Y-13317031D01*
X9539229Y-13317031D02*
X9520182Y-13345603D01*
X9520182Y-13345603D02*
X9510658Y-13383698D01*
X9510658Y-13383698D02*
X9510658Y-13459888D01*
X9510658Y-13459888D02*
X9520182Y-13478936D01*
X9520182Y-13478936D02*
X9529706Y-13488460D01*
X9529706Y-13488460D02*
X9548753Y-13497984D01*
X9548753Y-13497984D02*
X9586849Y-13497984D01*
X9586849Y-13497984D02*
X9605896Y-13488460D01*
X9605896Y-13488460D02*
X9615420Y-13478936D01*
X9615420Y-13478936D02*
X9624944Y-13459888D01*
X9624944Y-13459888D02*
X9624944Y-13412269D01*
X9624944Y-13412269D02*
X9615420Y-13393222D01*
X9615420Y-13393222D02*
X9605896Y-13383698D01*
X9605896Y-13383698D02*
X9586849Y-13374174D01*
X9586849Y-13374174D02*
X9548753Y-13374174D01*
X9548753Y-13374174D02*
X9529706Y-13383698D01*
X9529706Y-13383698D02*
X9520182Y-13393222D01*
X9520182Y-13393222D02*
X9510658Y-13412269D01*
X9701134Y-13297984D02*
X9701134Y-13336079D01*
X9777325Y-13297984D02*
X9777325Y-13336079D01*
X10072563Y-13574174D02*
X10063039Y-13564650D01*
X10063039Y-13564650D02*
X10043991Y-13536079D01*
X10043991Y-13536079D02*
X10034468Y-13517031D01*
X10034468Y-13517031D02*
X10024944Y-13488460D01*
X10024944Y-13488460D02*
X10015420Y-13440841D01*
X10015420Y-13440841D02*
X10015420Y-13402746D01*
X10015420Y-13402746D02*
X10024944Y-13355127D01*
X10024944Y-13355127D02*
X10034468Y-13326555D01*
X10034468Y-13326555D02*
X10043991Y-13307508D01*
X10043991Y-13307508D02*
X10063039Y-13278936D01*
X10063039Y-13278936D02*
X10072563Y-13269412D01*
X10139230Y-13317031D02*
X10148753Y-13307508D01*
X10148753Y-13307508D02*
X10167801Y-13297984D01*
X10167801Y-13297984D02*
X10215420Y-13297984D01*
X10215420Y-13297984D02*
X10234468Y-13307508D01*
X10234468Y-13307508D02*
X10243991Y-13317031D01*
X10243991Y-13317031D02*
X10253515Y-13336079D01*
X10253515Y-13336079D02*
X10253515Y-13355127D01*
X10253515Y-13355127D02*
X10243991Y-13383698D01*
X10243991Y-13383698D02*
X10129706Y-13497984D01*
X10129706Y-13497984D02*
X10253515Y-13497984D01*
X10320182Y-13297984D02*
X10443991Y-13297984D01*
X10443991Y-13297984D02*
X10377325Y-13374174D01*
X10377325Y-13374174D02*
X10405896Y-13374174D01*
X10405896Y-13374174D02*
X10424944Y-13383698D01*
X10424944Y-13383698D02*
X10434468Y-13393222D01*
X10434468Y-13393222D02*
X10443991Y-13412269D01*
X10443991Y-13412269D02*
X10443991Y-13459888D01*
X10443991Y-13459888D02*
X10434468Y-13478936D01*
X10434468Y-13478936D02*
X10424944Y-13488460D01*
X10424944Y-13488460D02*
X10405896Y-13497984D01*
X10405896Y-13497984D02*
X10348753Y-13497984D01*
X10348753Y-13497984D02*
X10329706Y-13488460D01*
X10329706Y-13488460D02*
X10320182Y-13478936D01*
X10682087Y-13497984D02*
X10682087Y-13297984D01*
X10767801Y-13497984D02*
X10767801Y-13393222D01*
X10767801Y-13393222D02*
X10758277Y-13374174D01*
X10758277Y-13374174D02*
X10739230Y-13364650D01*
X10739230Y-13364650D02*
X10710658Y-13364650D01*
X10710658Y-13364650D02*
X10691611Y-13374174D01*
X10691611Y-13374174D02*
X10682087Y-13383698D01*
X10891611Y-13497984D02*
X10872563Y-13488460D01*
X10872563Y-13488460D02*
X10863039Y-13478936D01*
X10863039Y-13478936D02*
X10853515Y-13459888D01*
X10853515Y-13459888D02*
X10853515Y-13402746D01*
X10853515Y-13402746D02*
X10863039Y-13383698D01*
X10863039Y-13383698D02*
X10872563Y-13374174D01*
X10872563Y-13374174D02*
X10891611Y-13364650D01*
X10891611Y-13364650D02*
X10920182Y-13364650D01*
X10920182Y-13364650D02*
X10939230Y-13374174D01*
X10939230Y-13374174D02*
X10948753Y-13383698D01*
X10948753Y-13383698D02*
X10958277Y-13402746D01*
X10958277Y-13402746D02*
X10958277Y-13459888D01*
X10958277Y-13459888D02*
X10948753Y-13478936D01*
X10948753Y-13478936D02*
X10939230Y-13488460D01*
X10939230Y-13488460D02*
X10920182Y-13497984D01*
X10920182Y-13497984D02*
X10891611Y-13497984D01*
X11072563Y-13497984D02*
X11053515Y-13488460D01*
X11053515Y-13488460D02*
X11043992Y-13469412D01*
X11043992Y-13469412D02*
X11043992Y-13297984D01*
X11224944Y-13488460D02*
X11205896Y-13497984D01*
X11205896Y-13497984D02*
X11167801Y-13497984D01*
X11167801Y-13497984D02*
X11148753Y-13488460D01*
X11148753Y-13488460D02*
X11139230Y-13469412D01*
X11139230Y-13469412D02*
X11139230Y-13393222D01*
X11139230Y-13393222D02*
X11148753Y-13374174D01*
X11148753Y-13374174D02*
X11167801Y-13364650D01*
X11167801Y-13364650D02*
X11205896Y-13364650D01*
X11205896Y-13364650D02*
X11224944Y-13374174D01*
X11224944Y-13374174D02*
X11234468Y-13393222D01*
X11234468Y-13393222D02*
X11234468Y-13412269D01*
X11234468Y-13412269D02*
X11139230Y-13431317D01*
X11310658Y-13488460D02*
X11329706Y-13497984D01*
X11329706Y-13497984D02*
X11367801Y-13497984D01*
X11367801Y-13497984D02*
X11386849Y-13488460D01*
X11386849Y-13488460D02*
X11396372Y-13469412D01*
X11396372Y-13469412D02*
X11396372Y-13459888D01*
X11396372Y-13459888D02*
X11386849Y-13440841D01*
X11386849Y-13440841D02*
X11367801Y-13431317D01*
X11367801Y-13431317D02*
X11339230Y-13431317D01*
X11339230Y-13431317D02*
X11320182Y-13421793D01*
X11320182Y-13421793D02*
X11310658Y-13402746D01*
X11310658Y-13402746D02*
X11310658Y-13393222D01*
X11310658Y-13393222D02*
X11320182Y-13374174D01*
X11320182Y-13374174D02*
X11339230Y-13364650D01*
X11339230Y-13364650D02*
X11367801Y-13364650D01*
X11367801Y-13364650D02*
X11386849Y-13374174D01*
X11463039Y-13574174D02*
X11472563Y-13564650D01*
X11472563Y-13564650D02*
X11491611Y-13536079D01*
X11491611Y-13536079D02*
X11501134Y-13517031D01*
X11501134Y-13517031D02*
X11510658Y-13488460D01*
X11510658Y-13488460D02*
X11520182Y-13440841D01*
X11520182Y-13440841D02*
X11520182Y-13402746D01*
X11520182Y-13402746D02*
X11510658Y-13355127D01*
X11510658Y-13355127D02*
X11501134Y-13326555D01*
X11501134Y-13326555D02*
X11491611Y-13307508D01*
X11491611Y-13307508D02*
X11472563Y-13278936D01*
X11472563Y-13278936D02*
X11463039Y-13269412D01*
D12*
X6457500Y-13630500D02*
X6457500Y-13710500D01*
X6417500Y-13670500D02*
X6497500Y-13670500D01*
D11*
X6796372Y-13561984D02*
X6815420Y-13561984D01*
X6815420Y-13561984D02*
X6834467Y-13571508D01*
X6834467Y-13571508D02*
X6843991Y-13581031D01*
X6843991Y-13581031D02*
X6853515Y-13600079D01*
X6853515Y-13600079D02*
X6863039Y-13638174D01*
X6863039Y-13638174D02*
X6863039Y-13685793D01*
X6863039Y-13685793D02*
X6853515Y-13723888D01*
X6853515Y-13723888D02*
X6843991Y-13742936D01*
X6843991Y-13742936D02*
X6834467Y-13752460D01*
X6834467Y-13752460D02*
X6815420Y-13761984D01*
X6815420Y-13761984D02*
X6796372Y-13761984D01*
X6796372Y-13761984D02*
X6777324Y-13752460D01*
X6777324Y-13752460D02*
X6767801Y-13742936D01*
X6767801Y-13742936D02*
X6758277Y-13723888D01*
X6758277Y-13723888D02*
X6748753Y-13685793D01*
X6748753Y-13685793D02*
X6748753Y-13638174D01*
X6748753Y-13638174D02*
X6758277Y-13600079D01*
X6758277Y-13600079D02*
X6767801Y-13581031D01*
X6767801Y-13581031D02*
X6777324Y-13571508D01*
X6777324Y-13571508D02*
X6796372Y-13561984D01*
X6948753Y-13742936D02*
X6958277Y-13752460D01*
X6958277Y-13752460D02*
X6948753Y-13761984D01*
X6948753Y-13761984D02*
X6939229Y-13752460D01*
X6939229Y-13752460D02*
X6948753Y-13742936D01*
X6948753Y-13742936D02*
X6948753Y-13761984D01*
X7072562Y-13647698D02*
X7053515Y-13638174D01*
X7053515Y-13638174D02*
X7043991Y-13628650D01*
X7043991Y-13628650D02*
X7034467Y-13609603D01*
X7034467Y-13609603D02*
X7034467Y-13600079D01*
X7034467Y-13600079D02*
X7043991Y-13581031D01*
X7043991Y-13581031D02*
X7053515Y-13571508D01*
X7053515Y-13571508D02*
X7072562Y-13561984D01*
X7072562Y-13561984D02*
X7110658Y-13561984D01*
X7110658Y-13561984D02*
X7129705Y-13571508D01*
X7129705Y-13571508D02*
X7139229Y-13581031D01*
X7139229Y-13581031D02*
X7148753Y-13600079D01*
X7148753Y-13600079D02*
X7148753Y-13609603D01*
X7148753Y-13609603D02*
X7139229Y-13628650D01*
X7139229Y-13628650D02*
X7129705Y-13638174D01*
X7129705Y-13638174D02*
X7110658Y-13647698D01*
X7110658Y-13647698D02*
X7072562Y-13647698D01*
X7072562Y-13647698D02*
X7053515Y-13657222D01*
X7053515Y-13657222D02*
X7043991Y-13666746D01*
X7043991Y-13666746D02*
X7034467Y-13685793D01*
X7034467Y-13685793D02*
X7034467Y-13723888D01*
X7034467Y-13723888D02*
X7043991Y-13742936D01*
X7043991Y-13742936D02*
X7053515Y-13752460D01*
X7053515Y-13752460D02*
X7072562Y-13761984D01*
X7072562Y-13761984D02*
X7110658Y-13761984D01*
X7110658Y-13761984D02*
X7129705Y-13752460D01*
X7129705Y-13752460D02*
X7139229Y-13742936D01*
X7139229Y-13742936D02*
X7148753Y-13723888D01*
X7148753Y-13723888D02*
X7148753Y-13685793D01*
X7148753Y-13685793D02*
X7139229Y-13666746D01*
X7139229Y-13666746D02*
X7129705Y-13657222D01*
X7129705Y-13657222D02*
X7110658Y-13647698D01*
X7272562Y-13561984D02*
X7291610Y-13561984D01*
X7291610Y-13561984D02*
X7310658Y-13571508D01*
X7310658Y-13571508D02*
X7320182Y-13581031D01*
X7320182Y-13581031D02*
X7329705Y-13600079D01*
X7329705Y-13600079D02*
X7339229Y-13638174D01*
X7339229Y-13638174D02*
X7339229Y-13685793D01*
X7339229Y-13685793D02*
X7329705Y-13723888D01*
X7329705Y-13723888D02*
X7320182Y-13742936D01*
X7320182Y-13742936D02*
X7310658Y-13752460D01*
X7310658Y-13752460D02*
X7291610Y-13761984D01*
X7291610Y-13761984D02*
X7272562Y-13761984D01*
X7272562Y-13761984D02*
X7253515Y-13752460D01*
X7253515Y-13752460D02*
X7243991Y-13742936D01*
X7243991Y-13742936D02*
X7234467Y-13723888D01*
X7234467Y-13723888D02*
X7224943Y-13685793D01*
X7224943Y-13685793D02*
X7224943Y-13638174D01*
X7224943Y-13638174D02*
X7234467Y-13600079D01*
X7234467Y-13600079D02*
X7243991Y-13581031D01*
X7243991Y-13581031D02*
X7253515Y-13571508D01*
X7253515Y-13571508D02*
X7272562Y-13561984D01*
X7463039Y-13561984D02*
X7482086Y-13561984D01*
X7482086Y-13561984D02*
X7501134Y-13571508D01*
X7501134Y-13571508D02*
X7510658Y-13581031D01*
X7510658Y-13581031D02*
X7520182Y-13600079D01*
X7520182Y-13600079D02*
X7529705Y-13638174D01*
X7529705Y-13638174D02*
X7529705Y-13685793D01*
X7529705Y-13685793D02*
X7520182Y-13723888D01*
X7520182Y-13723888D02*
X7510658Y-13742936D01*
X7510658Y-13742936D02*
X7501134Y-13752460D01*
X7501134Y-13752460D02*
X7482086Y-13761984D01*
X7482086Y-13761984D02*
X7463039Y-13761984D01*
X7463039Y-13761984D02*
X7443991Y-13752460D01*
X7443991Y-13752460D02*
X7434467Y-13742936D01*
X7434467Y-13742936D02*
X7424943Y-13723888D01*
X7424943Y-13723888D02*
X7415420Y-13685793D01*
X7415420Y-13685793D02*
X7415420Y-13638174D01*
X7415420Y-13638174D02*
X7424943Y-13600079D01*
X7424943Y-13600079D02*
X7434467Y-13581031D01*
X7434467Y-13581031D02*
X7443991Y-13571508D01*
X7443991Y-13571508D02*
X7463039Y-13561984D01*
X7615420Y-13761984D02*
X7615420Y-13628650D01*
X7615420Y-13647698D02*
X7624943Y-13638174D01*
X7624943Y-13638174D02*
X7643991Y-13628650D01*
X7643991Y-13628650D02*
X7672563Y-13628650D01*
X7672563Y-13628650D02*
X7691610Y-13638174D01*
X7691610Y-13638174D02*
X7701134Y-13657222D01*
X7701134Y-13657222D02*
X7701134Y-13761984D01*
X7701134Y-13657222D02*
X7710658Y-13638174D01*
X7710658Y-13638174D02*
X7729705Y-13628650D01*
X7729705Y-13628650D02*
X7758277Y-13628650D01*
X7758277Y-13628650D02*
X7777324Y-13638174D01*
X7777324Y-13638174D02*
X7786848Y-13657222D01*
X7786848Y-13657222D02*
X7786848Y-13761984D01*
X7882086Y-13761984D02*
X7882086Y-13628650D01*
X7882086Y-13647698D02*
X7891610Y-13638174D01*
X7891610Y-13638174D02*
X7910658Y-13628650D01*
X7910658Y-13628650D02*
X7939229Y-13628650D01*
X7939229Y-13628650D02*
X7958277Y-13638174D01*
X7958277Y-13638174D02*
X7967801Y-13657222D01*
X7967801Y-13657222D02*
X7967801Y-13761984D01*
X7967801Y-13657222D02*
X7977324Y-13638174D01*
X7977324Y-13638174D02*
X7996372Y-13628650D01*
X7996372Y-13628650D02*
X8024943Y-13628650D01*
X8024943Y-13628650D02*
X8043991Y-13638174D01*
X8043991Y-13638174D02*
X8053515Y-13657222D01*
X8053515Y-13657222D02*
X8053515Y-13761984D01*
X8443991Y-13552460D02*
X8272563Y-13809603D01*
X8701134Y-13561984D02*
X8720182Y-13561984D01*
X8720182Y-13561984D02*
X8739229Y-13571508D01*
X8739229Y-13571508D02*
X8748753Y-13581031D01*
X8748753Y-13581031D02*
X8758277Y-13600079D01*
X8758277Y-13600079D02*
X8767801Y-13638174D01*
X8767801Y-13638174D02*
X8767801Y-13685793D01*
X8767801Y-13685793D02*
X8758277Y-13723888D01*
X8758277Y-13723888D02*
X8748753Y-13742936D01*
X8748753Y-13742936D02*
X8739229Y-13752460D01*
X8739229Y-13752460D02*
X8720182Y-13761984D01*
X8720182Y-13761984D02*
X8701134Y-13761984D01*
X8701134Y-13761984D02*
X8682087Y-13752460D01*
X8682087Y-13752460D02*
X8672563Y-13742936D01*
X8672563Y-13742936D02*
X8663039Y-13723888D01*
X8663039Y-13723888D02*
X8653515Y-13685793D01*
X8653515Y-13685793D02*
X8653515Y-13638174D01*
X8653515Y-13638174D02*
X8663039Y-13600079D01*
X8663039Y-13600079D02*
X8672563Y-13581031D01*
X8672563Y-13581031D02*
X8682087Y-13571508D01*
X8682087Y-13571508D02*
X8701134Y-13561984D01*
X8853515Y-13742936D02*
X8863039Y-13752460D01*
X8863039Y-13752460D02*
X8853515Y-13761984D01*
X8853515Y-13761984D02*
X8843991Y-13752460D01*
X8843991Y-13752460D02*
X8853515Y-13742936D01*
X8853515Y-13742936D02*
X8853515Y-13761984D01*
X8986848Y-13561984D02*
X9005896Y-13561984D01*
X9005896Y-13561984D02*
X9024944Y-13571508D01*
X9024944Y-13571508D02*
X9034468Y-13581031D01*
X9034468Y-13581031D02*
X9043991Y-13600079D01*
X9043991Y-13600079D02*
X9053515Y-13638174D01*
X9053515Y-13638174D02*
X9053515Y-13685793D01*
X9053515Y-13685793D02*
X9043991Y-13723888D01*
X9043991Y-13723888D02*
X9034468Y-13742936D01*
X9034468Y-13742936D02*
X9024944Y-13752460D01*
X9024944Y-13752460D02*
X9005896Y-13761984D01*
X9005896Y-13761984D02*
X8986848Y-13761984D01*
X8986848Y-13761984D02*
X8967801Y-13752460D01*
X8967801Y-13752460D02*
X8958277Y-13742936D01*
X8958277Y-13742936D02*
X8948753Y-13723888D01*
X8948753Y-13723888D02*
X8939229Y-13685793D01*
X8939229Y-13685793D02*
X8939229Y-13638174D01*
X8939229Y-13638174D02*
X8948753Y-13600079D01*
X8948753Y-13600079D02*
X8958277Y-13581031D01*
X8958277Y-13581031D02*
X8967801Y-13571508D01*
X8967801Y-13571508D02*
X8986848Y-13561984D01*
X9120182Y-13561984D02*
X9243991Y-13561984D01*
X9243991Y-13561984D02*
X9177325Y-13638174D01*
X9177325Y-13638174D02*
X9205896Y-13638174D01*
X9205896Y-13638174D02*
X9224944Y-13647698D01*
X9224944Y-13647698D02*
X9234468Y-13657222D01*
X9234468Y-13657222D02*
X9243991Y-13676269D01*
X9243991Y-13676269D02*
X9243991Y-13723888D01*
X9243991Y-13723888D02*
X9234468Y-13742936D01*
X9234468Y-13742936D02*
X9224944Y-13752460D01*
X9224944Y-13752460D02*
X9205896Y-13761984D01*
X9205896Y-13761984D02*
X9148753Y-13761984D01*
X9148753Y-13761984D02*
X9129706Y-13752460D01*
X9129706Y-13752460D02*
X9120182Y-13742936D01*
X9434468Y-13761984D02*
X9320182Y-13761984D01*
X9377325Y-13761984D02*
X9377325Y-13561984D01*
X9377325Y-13561984D02*
X9358277Y-13590555D01*
X9358277Y-13590555D02*
X9339229Y-13609603D01*
X9339229Y-13609603D02*
X9320182Y-13619127D01*
X9615420Y-13561984D02*
X9520182Y-13561984D01*
X9520182Y-13561984D02*
X9510658Y-13657222D01*
X9510658Y-13657222D02*
X9520182Y-13647698D01*
X9520182Y-13647698D02*
X9539229Y-13638174D01*
X9539229Y-13638174D02*
X9586849Y-13638174D01*
X9586849Y-13638174D02*
X9605896Y-13647698D01*
X9605896Y-13647698D02*
X9615420Y-13657222D01*
X9615420Y-13657222D02*
X9624944Y-13676269D01*
X9624944Y-13676269D02*
X9624944Y-13723888D01*
X9624944Y-13723888D02*
X9615420Y-13742936D01*
X9615420Y-13742936D02*
X9605896Y-13752460D01*
X9605896Y-13752460D02*
X9586849Y-13761984D01*
X9586849Y-13761984D02*
X9539229Y-13761984D01*
X9539229Y-13761984D02*
X9520182Y-13752460D01*
X9520182Y-13752460D02*
X9510658Y-13742936D01*
X9701134Y-13561984D02*
X9701134Y-13600079D01*
X9777325Y-13561984D02*
X9777325Y-13600079D01*
X10072563Y-13838174D02*
X10063039Y-13828650D01*
X10063039Y-13828650D02*
X10043991Y-13800079D01*
X10043991Y-13800079D02*
X10034468Y-13781031D01*
X10034468Y-13781031D02*
X10024944Y-13752460D01*
X10024944Y-13752460D02*
X10015420Y-13704841D01*
X10015420Y-13704841D02*
X10015420Y-13666746D01*
X10015420Y-13666746D02*
X10024944Y-13619127D01*
X10024944Y-13619127D02*
X10034468Y-13590555D01*
X10034468Y-13590555D02*
X10043991Y-13571508D01*
X10043991Y-13571508D02*
X10063039Y-13542936D01*
X10063039Y-13542936D02*
X10072563Y-13533412D01*
X10253515Y-13761984D02*
X10139230Y-13761984D01*
X10196372Y-13761984D02*
X10196372Y-13561984D01*
X10196372Y-13561984D02*
X10177325Y-13590555D01*
X10177325Y-13590555D02*
X10158277Y-13609603D01*
X10158277Y-13609603D02*
X10139230Y-13619127D01*
X10424944Y-13561984D02*
X10386849Y-13561984D01*
X10386849Y-13561984D02*
X10367801Y-13571508D01*
X10367801Y-13571508D02*
X10358277Y-13581031D01*
X10358277Y-13581031D02*
X10339230Y-13609603D01*
X10339230Y-13609603D02*
X10329706Y-13647698D01*
X10329706Y-13647698D02*
X10329706Y-13723888D01*
X10329706Y-13723888D02*
X10339230Y-13742936D01*
X10339230Y-13742936D02*
X10348753Y-13752460D01*
X10348753Y-13752460D02*
X10367801Y-13761984D01*
X10367801Y-13761984D02*
X10405896Y-13761984D01*
X10405896Y-13761984D02*
X10424944Y-13752460D01*
X10424944Y-13752460D02*
X10434468Y-13742936D01*
X10434468Y-13742936D02*
X10443991Y-13723888D01*
X10443991Y-13723888D02*
X10443991Y-13676269D01*
X10443991Y-13676269D02*
X10434468Y-13657222D01*
X10434468Y-13657222D02*
X10424944Y-13647698D01*
X10424944Y-13647698D02*
X10405896Y-13638174D01*
X10405896Y-13638174D02*
X10367801Y-13638174D01*
X10367801Y-13638174D02*
X10348753Y-13647698D01*
X10348753Y-13647698D02*
X10339230Y-13657222D01*
X10339230Y-13657222D02*
X10329706Y-13676269D01*
X10682087Y-13761984D02*
X10682087Y-13561984D01*
X10767801Y-13761984D02*
X10767801Y-13657222D01*
X10767801Y-13657222D02*
X10758277Y-13638174D01*
X10758277Y-13638174D02*
X10739230Y-13628650D01*
X10739230Y-13628650D02*
X10710658Y-13628650D01*
X10710658Y-13628650D02*
X10691611Y-13638174D01*
X10691611Y-13638174D02*
X10682087Y-13647698D01*
X10891611Y-13761984D02*
X10872563Y-13752460D01*
X10872563Y-13752460D02*
X10863039Y-13742936D01*
X10863039Y-13742936D02*
X10853515Y-13723888D01*
X10853515Y-13723888D02*
X10853515Y-13666746D01*
X10853515Y-13666746D02*
X10863039Y-13647698D01*
X10863039Y-13647698D02*
X10872563Y-13638174D01*
X10872563Y-13638174D02*
X10891611Y-13628650D01*
X10891611Y-13628650D02*
X10920182Y-13628650D01*
X10920182Y-13628650D02*
X10939230Y-13638174D01*
X10939230Y-13638174D02*
X10948753Y-13647698D01*
X10948753Y-13647698D02*
X10958277Y-13666746D01*
X10958277Y-13666746D02*
X10958277Y-13723888D01*
X10958277Y-13723888D02*
X10948753Y-13742936D01*
X10948753Y-13742936D02*
X10939230Y-13752460D01*
X10939230Y-13752460D02*
X10920182Y-13761984D01*
X10920182Y-13761984D02*
X10891611Y-13761984D01*
X11072563Y-13761984D02*
X11053515Y-13752460D01*
X11053515Y-13752460D02*
X11043992Y-13733412D01*
X11043992Y-13733412D02*
X11043992Y-13561984D01*
X11224944Y-13752460D02*
X11205896Y-13761984D01*
X11205896Y-13761984D02*
X11167801Y-13761984D01*
X11167801Y-13761984D02*
X11148753Y-13752460D01*
X11148753Y-13752460D02*
X11139230Y-13733412D01*
X11139230Y-13733412D02*
X11139230Y-13657222D01*
X11139230Y-13657222D02*
X11148753Y-13638174D01*
X11148753Y-13638174D02*
X11167801Y-13628650D01*
X11167801Y-13628650D02*
X11205896Y-13628650D01*
X11205896Y-13628650D02*
X11224944Y-13638174D01*
X11224944Y-13638174D02*
X11234468Y-13657222D01*
X11234468Y-13657222D02*
X11234468Y-13676269D01*
X11234468Y-13676269D02*
X11139230Y-13695317D01*
X11310658Y-13752460D02*
X11329706Y-13761984D01*
X11329706Y-13761984D02*
X11367801Y-13761984D01*
X11367801Y-13761984D02*
X11386849Y-13752460D01*
X11386849Y-13752460D02*
X11396372Y-13733412D01*
X11396372Y-13733412D02*
X11396372Y-13723888D01*
X11396372Y-13723888D02*
X11386849Y-13704841D01*
X11386849Y-13704841D02*
X11367801Y-13695317D01*
X11367801Y-13695317D02*
X11339230Y-13695317D01*
X11339230Y-13695317D02*
X11320182Y-13685793D01*
X11320182Y-13685793D02*
X11310658Y-13666746D01*
X11310658Y-13666746D02*
X11310658Y-13657222D01*
X11310658Y-13657222D02*
X11320182Y-13638174D01*
X11320182Y-13638174D02*
X11339230Y-13628650D01*
X11339230Y-13628650D02*
X11367801Y-13628650D01*
X11367801Y-13628650D02*
X11386849Y-13638174D01*
X11463039Y-13838174D02*
X11472563Y-13828650D01*
X11472563Y-13828650D02*
X11491611Y-13800079D01*
X11491611Y-13800079D02*
X11501134Y-13781031D01*
X11501134Y-13781031D02*
X11510658Y-13752460D01*
X11510658Y-13752460D02*
X11520182Y-13704841D01*
X11520182Y-13704841D02*
X11520182Y-13666746D01*
X11520182Y-13666746D02*
X11510658Y-13619127D01*
X11510658Y-13619127D02*
X11501134Y-13590555D01*
X11501134Y-13590555D02*
X11491611Y-13571508D01*
X11491611Y-13571508D02*
X11472563Y-13542936D01*
X11472563Y-13542936D02*
X11463039Y-13533412D01*
D12*
X6485052Y-13964552D02*
X6485052Y-13904448D01*
X6424948Y-13904448D01*
X6424948Y-13964552D01*
X6485052Y-13964552D01*
D11*
X6796372Y-13825984D02*
X6815420Y-13825984D01*
X6815420Y-13825984D02*
X6834467Y-13835508D01*
X6834467Y-13835508D02*
X6843991Y-13845031D01*
X6843991Y-13845031D02*
X6853515Y-13864079D01*
X6853515Y-13864079D02*
X6863039Y-13902174D01*
X6863039Y-13902174D02*
X6863039Y-13949793D01*
X6863039Y-13949793D02*
X6853515Y-13987888D01*
X6853515Y-13987888D02*
X6843991Y-14006936D01*
X6843991Y-14006936D02*
X6834467Y-14016460D01*
X6834467Y-14016460D02*
X6815420Y-14025984D01*
X6815420Y-14025984D02*
X6796372Y-14025984D01*
X6796372Y-14025984D02*
X6777324Y-14016460D01*
X6777324Y-14016460D02*
X6767801Y-14006936D01*
X6767801Y-14006936D02*
X6758277Y-13987888D01*
X6758277Y-13987888D02*
X6748753Y-13949793D01*
X6748753Y-13949793D02*
X6748753Y-13902174D01*
X6748753Y-13902174D02*
X6758277Y-13864079D01*
X6758277Y-13864079D02*
X6767801Y-13845031D01*
X6767801Y-13845031D02*
X6777324Y-13835508D01*
X6777324Y-13835508D02*
X6796372Y-13825984D01*
X6948753Y-14006936D02*
X6958277Y-14016460D01*
X6958277Y-14016460D02*
X6948753Y-14025984D01*
X6948753Y-14025984D02*
X6939229Y-14016460D01*
X6939229Y-14016460D02*
X6948753Y-14006936D01*
X6948753Y-14006936D02*
X6948753Y-14025984D01*
X7072562Y-13911698D02*
X7053515Y-13902174D01*
X7053515Y-13902174D02*
X7043991Y-13892650D01*
X7043991Y-13892650D02*
X7034467Y-13873603D01*
X7034467Y-13873603D02*
X7034467Y-13864079D01*
X7034467Y-13864079D02*
X7043991Y-13845031D01*
X7043991Y-13845031D02*
X7053515Y-13835508D01*
X7053515Y-13835508D02*
X7072562Y-13825984D01*
X7072562Y-13825984D02*
X7110658Y-13825984D01*
X7110658Y-13825984D02*
X7129705Y-13835508D01*
X7129705Y-13835508D02*
X7139229Y-13845031D01*
X7139229Y-13845031D02*
X7148753Y-13864079D01*
X7148753Y-13864079D02*
X7148753Y-13873603D01*
X7148753Y-13873603D02*
X7139229Y-13892650D01*
X7139229Y-13892650D02*
X7129705Y-13902174D01*
X7129705Y-13902174D02*
X7110658Y-13911698D01*
X7110658Y-13911698D02*
X7072562Y-13911698D01*
X7072562Y-13911698D02*
X7053515Y-13921222D01*
X7053515Y-13921222D02*
X7043991Y-13930746D01*
X7043991Y-13930746D02*
X7034467Y-13949793D01*
X7034467Y-13949793D02*
X7034467Y-13987888D01*
X7034467Y-13987888D02*
X7043991Y-14006936D01*
X7043991Y-14006936D02*
X7053515Y-14016460D01*
X7053515Y-14016460D02*
X7072562Y-14025984D01*
X7072562Y-14025984D02*
X7110658Y-14025984D01*
X7110658Y-14025984D02*
X7129705Y-14016460D01*
X7129705Y-14016460D02*
X7139229Y-14006936D01*
X7139229Y-14006936D02*
X7148753Y-13987888D01*
X7148753Y-13987888D02*
X7148753Y-13949793D01*
X7148753Y-13949793D02*
X7139229Y-13930746D01*
X7139229Y-13930746D02*
X7129705Y-13921222D01*
X7129705Y-13921222D02*
X7110658Y-13911698D01*
X7329705Y-13825984D02*
X7234467Y-13825984D01*
X7234467Y-13825984D02*
X7224943Y-13921222D01*
X7224943Y-13921222D02*
X7234467Y-13911698D01*
X7234467Y-13911698D02*
X7253515Y-13902174D01*
X7253515Y-13902174D02*
X7301134Y-13902174D01*
X7301134Y-13902174D02*
X7320182Y-13911698D01*
X7320182Y-13911698D02*
X7329705Y-13921222D01*
X7329705Y-13921222D02*
X7339229Y-13940269D01*
X7339229Y-13940269D02*
X7339229Y-13987888D01*
X7339229Y-13987888D02*
X7329705Y-14006936D01*
X7329705Y-14006936D02*
X7320182Y-14016460D01*
X7320182Y-14016460D02*
X7301134Y-14025984D01*
X7301134Y-14025984D02*
X7253515Y-14025984D01*
X7253515Y-14025984D02*
X7234467Y-14016460D01*
X7234467Y-14016460D02*
X7224943Y-14006936D01*
X7463039Y-13825984D02*
X7482086Y-13825984D01*
X7482086Y-13825984D02*
X7501134Y-13835508D01*
X7501134Y-13835508D02*
X7510658Y-13845031D01*
X7510658Y-13845031D02*
X7520182Y-13864079D01*
X7520182Y-13864079D02*
X7529705Y-13902174D01*
X7529705Y-13902174D02*
X7529705Y-13949793D01*
X7529705Y-13949793D02*
X7520182Y-13987888D01*
X7520182Y-13987888D02*
X7510658Y-14006936D01*
X7510658Y-14006936D02*
X7501134Y-14016460D01*
X7501134Y-14016460D02*
X7482086Y-14025984D01*
X7482086Y-14025984D02*
X7463039Y-14025984D01*
X7463039Y-14025984D02*
X7443991Y-14016460D01*
X7443991Y-14016460D02*
X7434467Y-14006936D01*
X7434467Y-14006936D02*
X7424943Y-13987888D01*
X7424943Y-13987888D02*
X7415420Y-13949793D01*
X7415420Y-13949793D02*
X7415420Y-13902174D01*
X7415420Y-13902174D02*
X7424943Y-13864079D01*
X7424943Y-13864079D02*
X7434467Y-13845031D01*
X7434467Y-13845031D02*
X7443991Y-13835508D01*
X7443991Y-13835508D02*
X7463039Y-13825984D01*
X7615420Y-14025984D02*
X7615420Y-13892650D01*
X7615420Y-13911698D02*
X7624943Y-13902174D01*
X7624943Y-13902174D02*
X7643991Y-13892650D01*
X7643991Y-13892650D02*
X7672563Y-13892650D01*
X7672563Y-13892650D02*
X7691610Y-13902174D01*
X7691610Y-13902174D02*
X7701134Y-13921222D01*
X7701134Y-13921222D02*
X7701134Y-14025984D01*
X7701134Y-13921222D02*
X7710658Y-13902174D01*
X7710658Y-13902174D02*
X7729705Y-13892650D01*
X7729705Y-13892650D02*
X7758277Y-13892650D01*
X7758277Y-13892650D02*
X7777324Y-13902174D01*
X7777324Y-13902174D02*
X7786848Y-13921222D01*
X7786848Y-13921222D02*
X7786848Y-14025984D01*
X7882086Y-14025984D02*
X7882086Y-13892650D01*
X7882086Y-13911698D02*
X7891610Y-13902174D01*
X7891610Y-13902174D02*
X7910658Y-13892650D01*
X7910658Y-13892650D02*
X7939229Y-13892650D01*
X7939229Y-13892650D02*
X7958277Y-13902174D01*
X7958277Y-13902174D02*
X7967801Y-13921222D01*
X7967801Y-13921222D02*
X7967801Y-14025984D01*
X7967801Y-13921222D02*
X7977324Y-13902174D01*
X7977324Y-13902174D02*
X7996372Y-13892650D01*
X7996372Y-13892650D02*
X8024943Y-13892650D01*
X8024943Y-13892650D02*
X8043991Y-13902174D01*
X8043991Y-13902174D02*
X8053515Y-13921222D01*
X8053515Y-13921222D02*
X8053515Y-14025984D01*
X8443991Y-13816460D02*
X8272563Y-14073603D01*
X8701134Y-13825984D02*
X8720182Y-13825984D01*
X8720182Y-13825984D02*
X8739229Y-13835508D01*
X8739229Y-13835508D02*
X8748753Y-13845031D01*
X8748753Y-13845031D02*
X8758277Y-13864079D01*
X8758277Y-13864079D02*
X8767801Y-13902174D01*
X8767801Y-13902174D02*
X8767801Y-13949793D01*
X8767801Y-13949793D02*
X8758277Y-13987888D01*
X8758277Y-13987888D02*
X8748753Y-14006936D01*
X8748753Y-14006936D02*
X8739229Y-14016460D01*
X8739229Y-14016460D02*
X8720182Y-14025984D01*
X8720182Y-14025984D02*
X8701134Y-14025984D01*
X8701134Y-14025984D02*
X8682087Y-14016460D01*
X8682087Y-14016460D02*
X8672563Y-14006936D01*
X8672563Y-14006936D02*
X8663039Y-13987888D01*
X8663039Y-13987888D02*
X8653515Y-13949793D01*
X8653515Y-13949793D02*
X8653515Y-13902174D01*
X8653515Y-13902174D02*
X8663039Y-13864079D01*
X8663039Y-13864079D02*
X8672563Y-13845031D01*
X8672563Y-13845031D02*
X8682087Y-13835508D01*
X8682087Y-13835508D02*
X8701134Y-13825984D01*
X8853515Y-14006936D02*
X8863039Y-14016460D01*
X8863039Y-14016460D02*
X8853515Y-14025984D01*
X8853515Y-14025984D02*
X8843991Y-14016460D01*
X8843991Y-14016460D02*
X8853515Y-14006936D01*
X8853515Y-14006936D02*
X8853515Y-14025984D01*
X8986848Y-13825984D02*
X9005896Y-13825984D01*
X9005896Y-13825984D02*
X9024944Y-13835508D01*
X9024944Y-13835508D02*
X9034468Y-13845031D01*
X9034468Y-13845031D02*
X9043991Y-13864079D01*
X9043991Y-13864079D02*
X9053515Y-13902174D01*
X9053515Y-13902174D02*
X9053515Y-13949793D01*
X9053515Y-13949793D02*
X9043991Y-13987888D01*
X9043991Y-13987888D02*
X9034468Y-14006936D01*
X9034468Y-14006936D02*
X9024944Y-14016460D01*
X9024944Y-14016460D02*
X9005896Y-14025984D01*
X9005896Y-14025984D02*
X8986848Y-14025984D01*
X8986848Y-14025984D02*
X8967801Y-14016460D01*
X8967801Y-14016460D02*
X8958277Y-14006936D01*
X8958277Y-14006936D02*
X8948753Y-13987888D01*
X8948753Y-13987888D02*
X8939229Y-13949793D01*
X8939229Y-13949793D02*
X8939229Y-13902174D01*
X8939229Y-13902174D02*
X8948753Y-13864079D01*
X8948753Y-13864079D02*
X8958277Y-13845031D01*
X8958277Y-13845031D02*
X8967801Y-13835508D01*
X8967801Y-13835508D02*
X8986848Y-13825984D01*
X9120182Y-13825984D02*
X9243991Y-13825984D01*
X9243991Y-13825984D02*
X9177325Y-13902174D01*
X9177325Y-13902174D02*
X9205896Y-13902174D01*
X9205896Y-13902174D02*
X9224944Y-13911698D01*
X9224944Y-13911698D02*
X9234468Y-13921222D01*
X9234468Y-13921222D02*
X9243991Y-13940269D01*
X9243991Y-13940269D02*
X9243991Y-13987888D01*
X9243991Y-13987888D02*
X9234468Y-14006936D01*
X9234468Y-14006936D02*
X9224944Y-14016460D01*
X9224944Y-14016460D02*
X9205896Y-14025984D01*
X9205896Y-14025984D02*
X9148753Y-14025984D01*
X9148753Y-14025984D02*
X9129706Y-14016460D01*
X9129706Y-14016460D02*
X9120182Y-14006936D01*
X9310658Y-13825984D02*
X9434468Y-13825984D01*
X9434468Y-13825984D02*
X9367801Y-13902174D01*
X9367801Y-13902174D02*
X9396372Y-13902174D01*
X9396372Y-13902174D02*
X9415420Y-13911698D01*
X9415420Y-13911698D02*
X9424944Y-13921222D01*
X9424944Y-13921222D02*
X9434468Y-13940269D01*
X9434468Y-13940269D02*
X9434468Y-13987888D01*
X9434468Y-13987888D02*
X9424944Y-14006936D01*
X9424944Y-14006936D02*
X9415420Y-14016460D01*
X9415420Y-14016460D02*
X9396372Y-14025984D01*
X9396372Y-14025984D02*
X9339229Y-14025984D01*
X9339229Y-14025984D02*
X9320182Y-14016460D01*
X9320182Y-14016460D02*
X9310658Y-14006936D01*
X9615420Y-13825984D02*
X9520182Y-13825984D01*
X9520182Y-13825984D02*
X9510658Y-13921222D01*
X9510658Y-13921222D02*
X9520182Y-13911698D01*
X9520182Y-13911698D02*
X9539229Y-13902174D01*
X9539229Y-13902174D02*
X9586849Y-13902174D01*
X9586849Y-13902174D02*
X9605896Y-13911698D01*
X9605896Y-13911698D02*
X9615420Y-13921222D01*
X9615420Y-13921222D02*
X9624944Y-13940269D01*
X9624944Y-13940269D02*
X9624944Y-13987888D01*
X9624944Y-13987888D02*
X9615420Y-14006936D01*
X9615420Y-14006936D02*
X9605896Y-14016460D01*
X9605896Y-14016460D02*
X9586849Y-14025984D01*
X9586849Y-14025984D02*
X9539229Y-14025984D01*
X9539229Y-14025984D02*
X9520182Y-14016460D01*
X9520182Y-14016460D02*
X9510658Y-14006936D01*
X9701134Y-13825984D02*
X9701134Y-13864079D01*
X9777325Y-13825984D02*
X9777325Y-13864079D01*
X10072563Y-14102174D02*
X10063039Y-14092650D01*
X10063039Y-14092650D02*
X10043991Y-14064079D01*
X10043991Y-14064079D02*
X10034468Y-14045031D01*
X10034468Y-14045031D02*
X10024944Y-14016460D01*
X10024944Y-14016460D02*
X10015420Y-13968841D01*
X10015420Y-13968841D02*
X10015420Y-13930746D01*
X10015420Y-13930746D02*
X10024944Y-13883127D01*
X10024944Y-13883127D02*
X10034468Y-13854555D01*
X10034468Y-13854555D02*
X10043991Y-13835508D01*
X10043991Y-13835508D02*
X10063039Y-13806936D01*
X10063039Y-13806936D02*
X10072563Y-13797412D01*
X10177325Y-13911698D02*
X10158277Y-13902174D01*
X10158277Y-13902174D02*
X10148753Y-13892650D01*
X10148753Y-13892650D02*
X10139230Y-13873603D01*
X10139230Y-13873603D02*
X10139230Y-13864079D01*
X10139230Y-13864079D02*
X10148753Y-13845031D01*
X10148753Y-13845031D02*
X10158277Y-13835508D01*
X10158277Y-13835508D02*
X10177325Y-13825984D01*
X10177325Y-13825984D02*
X10215420Y-13825984D01*
X10215420Y-13825984D02*
X10234468Y-13835508D01*
X10234468Y-13835508D02*
X10243991Y-13845031D01*
X10243991Y-13845031D02*
X10253515Y-13864079D01*
X10253515Y-13864079D02*
X10253515Y-13873603D01*
X10253515Y-13873603D02*
X10243991Y-13892650D01*
X10243991Y-13892650D02*
X10234468Y-13902174D01*
X10234468Y-13902174D02*
X10215420Y-13911698D01*
X10215420Y-13911698D02*
X10177325Y-13911698D01*
X10177325Y-13911698D02*
X10158277Y-13921222D01*
X10158277Y-13921222D02*
X10148753Y-13930746D01*
X10148753Y-13930746D02*
X10139230Y-13949793D01*
X10139230Y-13949793D02*
X10139230Y-13987888D01*
X10139230Y-13987888D02*
X10148753Y-14006936D01*
X10148753Y-14006936D02*
X10158277Y-14016460D01*
X10158277Y-14016460D02*
X10177325Y-14025984D01*
X10177325Y-14025984D02*
X10215420Y-14025984D01*
X10215420Y-14025984D02*
X10234468Y-14016460D01*
X10234468Y-14016460D02*
X10243991Y-14006936D01*
X10243991Y-14006936D02*
X10253515Y-13987888D01*
X10253515Y-13987888D02*
X10253515Y-13949793D01*
X10253515Y-13949793D02*
X10243991Y-13930746D01*
X10243991Y-13930746D02*
X10234468Y-13921222D01*
X10234468Y-13921222D02*
X10215420Y-13911698D01*
X10491611Y-14025984D02*
X10491611Y-13825984D01*
X10577325Y-14025984D02*
X10577325Y-13921222D01*
X10577325Y-13921222D02*
X10567801Y-13902174D01*
X10567801Y-13902174D02*
X10548753Y-13892650D01*
X10548753Y-13892650D02*
X10520182Y-13892650D01*
X10520182Y-13892650D02*
X10501134Y-13902174D01*
X10501134Y-13902174D02*
X10491611Y-13911698D01*
X10701134Y-14025984D02*
X10682087Y-14016460D01*
X10682087Y-14016460D02*
X10672563Y-14006936D01*
X10672563Y-14006936D02*
X10663039Y-13987888D01*
X10663039Y-13987888D02*
X10663039Y-13930746D01*
X10663039Y-13930746D02*
X10672563Y-13911698D01*
X10672563Y-13911698D02*
X10682087Y-13902174D01*
X10682087Y-13902174D02*
X10701134Y-13892650D01*
X10701134Y-13892650D02*
X10729706Y-13892650D01*
X10729706Y-13892650D02*
X10748753Y-13902174D01*
X10748753Y-13902174D02*
X10758277Y-13911698D01*
X10758277Y-13911698D02*
X10767801Y-13930746D01*
X10767801Y-13930746D02*
X10767801Y-13987888D01*
X10767801Y-13987888D02*
X10758277Y-14006936D01*
X10758277Y-14006936D02*
X10748753Y-14016460D01*
X10748753Y-14016460D02*
X10729706Y-14025984D01*
X10729706Y-14025984D02*
X10701134Y-14025984D01*
X10882087Y-14025984D02*
X10863039Y-14016460D01*
X10863039Y-14016460D02*
X10853515Y-13997412D01*
X10853515Y-13997412D02*
X10853515Y-13825984D01*
X11034468Y-14016460D02*
X11015420Y-14025984D01*
X11015420Y-14025984D02*
X10977325Y-14025984D01*
X10977325Y-14025984D02*
X10958277Y-14016460D01*
X10958277Y-14016460D02*
X10948753Y-13997412D01*
X10948753Y-13997412D02*
X10948753Y-13921222D01*
X10948753Y-13921222D02*
X10958277Y-13902174D01*
X10958277Y-13902174D02*
X10977325Y-13892650D01*
X10977325Y-13892650D02*
X11015420Y-13892650D01*
X11015420Y-13892650D02*
X11034468Y-13902174D01*
X11034468Y-13902174D02*
X11043992Y-13921222D01*
X11043992Y-13921222D02*
X11043992Y-13940269D01*
X11043992Y-13940269D02*
X10948753Y-13959317D01*
X11120182Y-14016460D02*
X11139230Y-14025984D01*
X11139230Y-14025984D02*
X11177325Y-14025984D01*
X11177325Y-14025984D02*
X11196372Y-14016460D01*
X11196372Y-14016460D02*
X11205896Y-13997412D01*
X11205896Y-13997412D02*
X11205896Y-13987888D01*
X11205896Y-13987888D02*
X11196372Y-13968841D01*
X11196372Y-13968841D02*
X11177325Y-13959317D01*
X11177325Y-13959317D02*
X11148753Y-13959317D01*
X11148753Y-13959317D02*
X11129706Y-13949793D01*
X11129706Y-13949793D02*
X11120182Y-13930746D01*
X11120182Y-13930746D02*
X11120182Y-13921222D01*
X11120182Y-13921222D02*
X11129706Y-13902174D01*
X11129706Y-13902174D02*
X11148753Y-13892650D01*
X11148753Y-13892650D02*
X11177325Y-13892650D01*
X11177325Y-13892650D02*
X11196372Y-13902174D01*
X11272563Y-14102174D02*
X11282087Y-14092650D01*
X11282087Y-14092650D02*
X11301134Y-14064079D01*
X11301134Y-14064079D02*
X11310658Y-14045031D01*
X11310658Y-14045031D02*
X11320182Y-14016460D01*
X11320182Y-14016460D02*
X11329706Y-13968841D01*
X11329706Y-13968841D02*
X11329706Y-13930746D01*
X11329706Y-13930746D02*
X11320182Y-13883127D01*
X11320182Y-13883127D02*
X11310658Y-13854555D01*
X11310658Y-13854555D02*
X11301134Y-13835508D01*
X11301134Y-13835508D02*
X11282087Y-13806936D01*
X11282087Y-13806936D02*
X11272563Y-13797412D01*
D12*
X6452500Y-14243500D02*
X6497500Y-14198500D01*
X6452500Y-14153500D01*
X6407500Y-14198500D01*
X6452500Y-14243500D01*
D11*
X6796372Y-14089984D02*
X6815420Y-14089984D01*
X6815420Y-14089984D02*
X6834467Y-14099508D01*
X6834467Y-14099508D02*
X6843991Y-14109031D01*
X6843991Y-14109031D02*
X6853515Y-14128079D01*
X6853515Y-14128079D02*
X6863039Y-14166174D01*
X6863039Y-14166174D02*
X6863039Y-14213793D01*
X6863039Y-14213793D02*
X6853515Y-14251888D01*
X6853515Y-14251888D02*
X6843991Y-14270936D01*
X6843991Y-14270936D02*
X6834467Y-14280460D01*
X6834467Y-14280460D02*
X6815420Y-14289984D01*
X6815420Y-14289984D02*
X6796372Y-14289984D01*
X6796372Y-14289984D02*
X6777324Y-14280460D01*
X6777324Y-14280460D02*
X6767801Y-14270936D01*
X6767801Y-14270936D02*
X6758277Y-14251888D01*
X6758277Y-14251888D02*
X6748753Y-14213793D01*
X6748753Y-14213793D02*
X6748753Y-14166174D01*
X6748753Y-14166174D02*
X6758277Y-14128079D01*
X6758277Y-14128079D02*
X6767801Y-14109031D01*
X6767801Y-14109031D02*
X6777324Y-14099508D01*
X6777324Y-14099508D02*
X6796372Y-14089984D01*
X6948753Y-14270936D02*
X6958277Y-14280460D01*
X6958277Y-14280460D02*
X6948753Y-14289984D01*
X6948753Y-14289984D02*
X6939229Y-14280460D01*
X6939229Y-14280460D02*
X6948753Y-14270936D01*
X6948753Y-14270936D02*
X6948753Y-14289984D01*
X7053515Y-14289984D02*
X7091610Y-14289984D01*
X7091610Y-14289984D02*
X7110658Y-14280460D01*
X7110658Y-14280460D02*
X7120182Y-14270936D01*
X7120182Y-14270936D02*
X7139229Y-14242365D01*
X7139229Y-14242365D02*
X7148753Y-14204269D01*
X7148753Y-14204269D02*
X7148753Y-14128079D01*
X7148753Y-14128079D02*
X7139229Y-14109031D01*
X7139229Y-14109031D02*
X7129705Y-14099508D01*
X7129705Y-14099508D02*
X7110658Y-14089984D01*
X7110658Y-14089984D02*
X7072562Y-14089984D01*
X7072562Y-14089984D02*
X7053515Y-14099508D01*
X7053515Y-14099508D02*
X7043991Y-14109031D01*
X7043991Y-14109031D02*
X7034467Y-14128079D01*
X7034467Y-14128079D02*
X7034467Y-14175698D01*
X7034467Y-14175698D02*
X7043991Y-14194746D01*
X7043991Y-14194746D02*
X7053515Y-14204269D01*
X7053515Y-14204269D02*
X7072562Y-14213793D01*
X7072562Y-14213793D02*
X7110658Y-14213793D01*
X7110658Y-14213793D02*
X7129705Y-14204269D01*
X7129705Y-14204269D02*
X7139229Y-14194746D01*
X7139229Y-14194746D02*
X7148753Y-14175698D01*
X7272562Y-14089984D02*
X7291610Y-14089984D01*
X7291610Y-14089984D02*
X7310658Y-14099508D01*
X7310658Y-14099508D02*
X7320182Y-14109031D01*
X7320182Y-14109031D02*
X7329705Y-14128079D01*
X7329705Y-14128079D02*
X7339229Y-14166174D01*
X7339229Y-14166174D02*
X7339229Y-14213793D01*
X7339229Y-14213793D02*
X7329705Y-14251888D01*
X7329705Y-14251888D02*
X7320182Y-14270936D01*
X7320182Y-14270936D02*
X7310658Y-14280460D01*
X7310658Y-14280460D02*
X7291610Y-14289984D01*
X7291610Y-14289984D02*
X7272562Y-14289984D01*
X7272562Y-14289984D02*
X7253515Y-14280460D01*
X7253515Y-14280460D02*
X7243991Y-14270936D01*
X7243991Y-14270936D02*
X7234467Y-14251888D01*
X7234467Y-14251888D02*
X7224943Y-14213793D01*
X7224943Y-14213793D02*
X7224943Y-14166174D01*
X7224943Y-14166174D02*
X7234467Y-14128079D01*
X7234467Y-14128079D02*
X7243991Y-14109031D01*
X7243991Y-14109031D02*
X7253515Y-14099508D01*
X7253515Y-14099508D02*
X7272562Y-14089984D01*
X7463039Y-14089984D02*
X7482086Y-14089984D01*
X7482086Y-14089984D02*
X7501134Y-14099508D01*
X7501134Y-14099508D02*
X7510658Y-14109031D01*
X7510658Y-14109031D02*
X7520182Y-14128079D01*
X7520182Y-14128079D02*
X7529705Y-14166174D01*
X7529705Y-14166174D02*
X7529705Y-14213793D01*
X7529705Y-14213793D02*
X7520182Y-14251888D01*
X7520182Y-14251888D02*
X7510658Y-14270936D01*
X7510658Y-14270936D02*
X7501134Y-14280460D01*
X7501134Y-14280460D02*
X7482086Y-14289984D01*
X7482086Y-14289984D02*
X7463039Y-14289984D01*
X7463039Y-14289984D02*
X7443991Y-14280460D01*
X7443991Y-14280460D02*
X7434467Y-14270936D01*
X7434467Y-14270936D02*
X7424943Y-14251888D01*
X7424943Y-14251888D02*
X7415420Y-14213793D01*
X7415420Y-14213793D02*
X7415420Y-14166174D01*
X7415420Y-14166174D02*
X7424943Y-14128079D01*
X7424943Y-14128079D02*
X7434467Y-14109031D01*
X7434467Y-14109031D02*
X7443991Y-14099508D01*
X7443991Y-14099508D02*
X7463039Y-14089984D01*
X7615420Y-14289984D02*
X7615420Y-14156650D01*
X7615420Y-14175698D02*
X7624943Y-14166174D01*
X7624943Y-14166174D02*
X7643991Y-14156650D01*
X7643991Y-14156650D02*
X7672563Y-14156650D01*
X7672563Y-14156650D02*
X7691610Y-14166174D01*
X7691610Y-14166174D02*
X7701134Y-14185222D01*
X7701134Y-14185222D02*
X7701134Y-14289984D01*
X7701134Y-14185222D02*
X7710658Y-14166174D01*
X7710658Y-14166174D02*
X7729705Y-14156650D01*
X7729705Y-14156650D02*
X7758277Y-14156650D01*
X7758277Y-14156650D02*
X7777324Y-14166174D01*
X7777324Y-14166174D02*
X7786848Y-14185222D01*
X7786848Y-14185222D02*
X7786848Y-14289984D01*
X7882086Y-14289984D02*
X7882086Y-14156650D01*
X7882086Y-14175698D02*
X7891610Y-14166174D01*
X7891610Y-14166174D02*
X7910658Y-14156650D01*
X7910658Y-14156650D02*
X7939229Y-14156650D01*
X7939229Y-14156650D02*
X7958277Y-14166174D01*
X7958277Y-14166174D02*
X7967801Y-14185222D01*
X7967801Y-14185222D02*
X7967801Y-14289984D01*
X7967801Y-14185222D02*
X7977324Y-14166174D01*
X7977324Y-14166174D02*
X7996372Y-14156650D01*
X7996372Y-14156650D02*
X8024943Y-14156650D01*
X8024943Y-14156650D02*
X8043991Y-14166174D01*
X8043991Y-14166174D02*
X8053515Y-14185222D01*
X8053515Y-14185222D02*
X8053515Y-14289984D01*
X8443991Y-14080460D02*
X8272563Y-14337603D01*
X8701134Y-14089984D02*
X8720182Y-14089984D01*
X8720182Y-14089984D02*
X8739229Y-14099508D01*
X8739229Y-14099508D02*
X8748753Y-14109031D01*
X8748753Y-14109031D02*
X8758277Y-14128079D01*
X8758277Y-14128079D02*
X8767801Y-14166174D01*
X8767801Y-14166174D02*
X8767801Y-14213793D01*
X8767801Y-14213793D02*
X8758277Y-14251888D01*
X8758277Y-14251888D02*
X8748753Y-14270936D01*
X8748753Y-14270936D02*
X8739229Y-14280460D01*
X8739229Y-14280460D02*
X8720182Y-14289984D01*
X8720182Y-14289984D02*
X8701134Y-14289984D01*
X8701134Y-14289984D02*
X8682087Y-14280460D01*
X8682087Y-14280460D02*
X8672563Y-14270936D01*
X8672563Y-14270936D02*
X8663039Y-14251888D01*
X8663039Y-14251888D02*
X8653515Y-14213793D01*
X8653515Y-14213793D02*
X8653515Y-14166174D01*
X8653515Y-14166174D02*
X8663039Y-14128079D01*
X8663039Y-14128079D02*
X8672563Y-14109031D01*
X8672563Y-14109031D02*
X8682087Y-14099508D01*
X8682087Y-14099508D02*
X8701134Y-14089984D01*
X8853515Y-14270936D02*
X8863039Y-14280460D01*
X8863039Y-14280460D02*
X8853515Y-14289984D01*
X8853515Y-14289984D02*
X8843991Y-14280460D01*
X8843991Y-14280460D02*
X8853515Y-14270936D01*
X8853515Y-14270936D02*
X8853515Y-14289984D01*
X8986848Y-14089984D02*
X9005896Y-14089984D01*
X9005896Y-14089984D02*
X9024944Y-14099508D01*
X9024944Y-14099508D02*
X9034468Y-14109031D01*
X9034468Y-14109031D02*
X9043991Y-14128079D01*
X9043991Y-14128079D02*
X9053515Y-14166174D01*
X9053515Y-14166174D02*
X9053515Y-14213793D01*
X9053515Y-14213793D02*
X9043991Y-14251888D01*
X9043991Y-14251888D02*
X9034468Y-14270936D01*
X9034468Y-14270936D02*
X9024944Y-14280460D01*
X9024944Y-14280460D02*
X9005896Y-14289984D01*
X9005896Y-14289984D02*
X8986848Y-14289984D01*
X8986848Y-14289984D02*
X8967801Y-14280460D01*
X8967801Y-14280460D02*
X8958277Y-14270936D01*
X8958277Y-14270936D02*
X8948753Y-14251888D01*
X8948753Y-14251888D02*
X8939229Y-14213793D01*
X8939229Y-14213793D02*
X8939229Y-14166174D01*
X8939229Y-14166174D02*
X8948753Y-14128079D01*
X8948753Y-14128079D02*
X8958277Y-14109031D01*
X8958277Y-14109031D02*
X8967801Y-14099508D01*
X8967801Y-14099508D02*
X8986848Y-14089984D01*
X9120182Y-14089984D02*
X9243991Y-14089984D01*
X9243991Y-14089984D02*
X9177325Y-14166174D01*
X9177325Y-14166174D02*
X9205896Y-14166174D01*
X9205896Y-14166174D02*
X9224944Y-14175698D01*
X9224944Y-14175698D02*
X9234468Y-14185222D01*
X9234468Y-14185222D02*
X9243991Y-14204269D01*
X9243991Y-14204269D02*
X9243991Y-14251888D01*
X9243991Y-14251888D02*
X9234468Y-14270936D01*
X9234468Y-14270936D02*
X9224944Y-14280460D01*
X9224944Y-14280460D02*
X9205896Y-14289984D01*
X9205896Y-14289984D02*
X9148753Y-14289984D01*
X9148753Y-14289984D02*
X9129706Y-14280460D01*
X9129706Y-14280460D02*
X9120182Y-14270936D01*
X9424944Y-14089984D02*
X9329706Y-14089984D01*
X9329706Y-14089984D02*
X9320182Y-14185222D01*
X9320182Y-14185222D02*
X9329706Y-14175698D01*
X9329706Y-14175698D02*
X9348753Y-14166174D01*
X9348753Y-14166174D02*
X9396372Y-14166174D01*
X9396372Y-14166174D02*
X9415420Y-14175698D01*
X9415420Y-14175698D02*
X9424944Y-14185222D01*
X9424944Y-14185222D02*
X9434468Y-14204269D01*
X9434468Y-14204269D02*
X9434468Y-14251888D01*
X9434468Y-14251888D02*
X9424944Y-14270936D01*
X9424944Y-14270936D02*
X9415420Y-14280460D01*
X9415420Y-14280460D02*
X9396372Y-14289984D01*
X9396372Y-14289984D02*
X9348753Y-14289984D01*
X9348753Y-14289984D02*
X9329706Y-14280460D01*
X9329706Y-14280460D02*
X9320182Y-14270936D01*
X9605896Y-14156650D02*
X9605896Y-14289984D01*
X9558277Y-14080460D02*
X9510658Y-14223317D01*
X9510658Y-14223317D02*
X9634468Y-14223317D01*
X9701134Y-14089984D02*
X9701134Y-14128079D01*
X9777325Y-14089984D02*
X9777325Y-14128079D01*
X10072563Y-14366174D02*
X10063039Y-14356650D01*
X10063039Y-14356650D02*
X10043991Y-14328079D01*
X10043991Y-14328079D02*
X10034468Y-14309031D01*
X10034468Y-14309031D02*
X10024944Y-14280460D01*
X10024944Y-14280460D02*
X10015420Y-14232841D01*
X10015420Y-14232841D02*
X10015420Y-14194746D01*
X10015420Y-14194746D02*
X10024944Y-14147127D01*
X10024944Y-14147127D02*
X10034468Y-14118555D01*
X10034468Y-14118555D02*
X10043991Y-14099508D01*
X10043991Y-14099508D02*
X10063039Y-14070936D01*
X10063039Y-14070936D02*
X10072563Y-14061412D01*
X10253515Y-14289984D02*
X10139230Y-14289984D01*
X10196372Y-14289984D02*
X10196372Y-14089984D01*
X10196372Y-14089984D02*
X10177325Y-14118555D01*
X10177325Y-14118555D02*
X10158277Y-14137603D01*
X10158277Y-14137603D02*
X10139230Y-14147127D01*
X10329706Y-14109031D02*
X10339230Y-14099508D01*
X10339230Y-14099508D02*
X10358277Y-14089984D01*
X10358277Y-14089984D02*
X10405896Y-14089984D01*
X10405896Y-14089984D02*
X10424944Y-14099508D01*
X10424944Y-14099508D02*
X10434468Y-14109031D01*
X10434468Y-14109031D02*
X10443991Y-14128079D01*
X10443991Y-14128079D02*
X10443991Y-14147127D01*
X10443991Y-14147127D02*
X10434468Y-14175698D01*
X10434468Y-14175698D02*
X10320182Y-14289984D01*
X10320182Y-14289984D02*
X10443991Y-14289984D01*
X10682087Y-14289984D02*
X10682087Y-14089984D01*
X10767801Y-14289984D02*
X10767801Y-14185222D01*
X10767801Y-14185222D02*
X10758277Y-14166174D01*
X10758277Y-14166174D02*
X10739230Y-14156650D01*
X10739230Y-14156650D02*
X10710658Y-14156650D01*
X10710658Y-14156650D02*
X10691611Y-14166174D01*
X10691611Y-14166174D02*
X10682087Y-14175698D01*
X10891611Y-14289984D02*
X10872563Y-14280460D01*
X10872563Y-14280460D02*
X10863039Y-14270936D01*
X10863039Y-14270936D02*
X10853515Y-14251888D01*
X10853515Y-14251888D02*
X10853515Y-14194746D01*
X10853515Y-14194746D02*
X10863039Y-14175698D01*
X10863039Y-14175698D02*
X10872563Y-14166174D01*
X10872563Y-14166174D02*
X10891611Y-14156650D01*
X10891611Y-14156650D02*
X10920182Y-14156650D01*
X10920182Y-14156650D02*
X10939230Y-14166174D01*
X10939230Y-14166174D02*
X10948753Y-14175698D01*
X10948753Y-14175698D02*
X10958277Y-14194746D01*
X10958277Y-14194746D02*
X10958277Y-14251888D01*
X10958277Y-14251888D02*
X10948753Y-14270936D01*
X10948753Y-14270936D02*
X10939230Y-14280460D01*
X10939230Y-14280460D02*
X10920182Y-14289984D01*
X10920182Y-14289984D02*
X10891611Y-14289984D01*
X11072563Y-14289984D02*
X11053515Y-14280460D01*
X11053515Y-14280460D02*
X11043992Y-14261412D01*
X11043992Y-14261412D02*
X11043992Y-14089984D01*
X11224944Y-14280460D02*
X11205896Y-14289984D01*
X11205896Y-14289984D02*
X11167801Y-14289984D01*
X11167801Y-14289984D02*
X11148753Y-14280460D01*
X11148753Y-14280460D02*
X11139230Y-14261412D01*
X11139230Y-14261412D02*
X11139230Y-14185222D01*
X11139230Y-14185222D02*
X11148753Y-14166174D01*
X11148753Y-14166174D02*
X11167801Y-14156650D01*
X11167801Y-14156650D02*
X11205896Y-14156650D01*
X11205896Y-14156650D02*
X11224944Y-14166174D01*
X11224944Y-14166174D02*
X11234468Y-14185222D01*
X11234468Y-14185222D02*
X11234468Y-14204269D01*
X11234468Y-14204269D02*
X11139230Y-14223317D01*
X11310658Y-14280460D02*
X11329706Y-14289984D01*
X11329706Y-14289984D02*
X11367801Y-14289984D01*
X11367801Y-14289984D02*
X11386849Y-14280460D01*
X11386849Y-14280460D02*
X11396372Y-14261412D01*
X11396372Y-14261412D02*
X11396372Y-14251888D01*
X11396372Y-14251888D02*
X11386849Y-14232841D01*
X11386849Y-14232841D02*
X11367801Y-14223317D01*
X11367801Y-14223317D02*
X11339230Y-14223317D01*
X11339230Y-14223317D02*
X11320182Y-14213793D01*
X11320182Y-14213793D02*
X11310658Y-14194746D01*
X11310658Y-14194746D02*
X11310658Y-14185222D01*
X11310658Y-14185222D02*
X11320182Y-14166174D01*
X11320182Y-14166174D02*
X11339230Y-14156650D01*
X11339230Y-14156650D02*
X11367801Y-14156650D01*
X11367801Y-14156650D02*
X11386849Y-14166174D01*
X11463039Y-14366174D02*
X11472563Y-14356650D01*
X11472563Y-14356650D02*
X11491611Y-14328079D01*
X11491611Y-14328079D02*
X11501134Y-14309031D01*
X11501134Y-14309031D02*
X11510658Y-14280460D01*
X11510658Y-14280460D02*
X11520182Y-14232841D01*
X11520182Y-14232841D02*
X11520182Y-14194746D01*
X11520182Y-14194746D02*
X11510658Y-14147127D01*
X11510658Y-14147127D02*
X11501134Y-14118555D01*
X11501134Y-14118555D02*
X11491611Y-14099508D01*
X11491611Y-14099508D02*
X11472563Y-14070936D01*
X11472563Y-14070936D02*
X11463039Y-14061412D01*
D12*
X6406060Y-14416780D02*
X6497500Y-14508220D01*
X6497500Y-14416780D02*
X6406060Y-14508220D01*
X6497500Y-14462500D02*
G75*
G02*
X6406060Y-14462500I-45720J0D01*
G01*
X6406060Y-14462500D02*
G75*
G02*
X6497500Y-14462500I45720J0D01*
G01*
D11*
X6796372Y-14353984D02*
X6815420Y-14353984D01*
X6815420Y-14353984D02*
X6834467Y-14363508D01*
X6834467Y-14363508D02*
X6843991Y-14373031D01*
X6843991Y-14373031D02*
X6853515Y-14392079D01*
X6853515Y-14392079D02*
X6863039Y-14430174D01*
X6863039Y-14430174D02*
X6863039Y-14477793D01*
X6863039Y-14477793D02*
X6853515Y-14515888D01*
X6853515Y-14515888D02*
X6843991Y-14534936D01*
X6843991Y-14534936D02*
X6834467Y-14544460D01*
X6834467Y-14544460D02*
X6815420Y-14553984D01*
X6815420Y-14553984D02*
X6796372Y-14553984D01*
X6796372Y-14553984D02*
X6777324Y-14544460D01*
X6777324Y-14544460D02*
X6767801Y-14534936D01*
X6767801Y-14534936D02*
X6758277Y-14515888D01*
X6758277Y-14515888D02*
X6748753Y-14477793D01*
X6748753Y-14477793D02*
X6748753Y-14430174D01*
X6748753Y-14430174D02*
X6758277Y-14392079D01*
X6758277Y-14392079D02*
X6767801Y-14373031D01*
X6767801Y-14373031D02*
X6777324Y-14363508D01*
X6777324Y-14363508D02*
X6796372Y-14353984D01*
X6948753Y-14534936D02*
X6958277Y-14544460D01*
X6958277Y-14544460D02*
X6948753Y-14553984D01*
X6948753Y-14553984D02*
X6939229Y-14544460D01*
X6939229Y-14544460D02*
X6948753Y-14534936D01*
X6948753Y-14534936D02*
X6948753Y-14553984D01*
X7053515Y-14553984D02*
X7091610Y-14553984D01*
X7091610Y-14553984D02*
X7110658Y-14544460D01*
X7110658Y-14544460D02*
X7120182Y-14534936D01*
X7120182Y-14534936D02*
X7139229Y-14506365D01*
X7139229Y-14506365D02*
X7148753Y-14468269D01*
X7148753Y-14468269D02*
X7148753Y-14392079D01*
X7148753Y-14392079D02*
X7139229Y-14373031D01*
X7139229Y-14373031D02*
X7129705Y-14363508D01*
X7129705Y-14363508D02*
X7110658Y-14353984D01*
X7110658Y-14353984D02*
X7072562Y-14353984D01*
X7072562Y-14353984D02*
X7053515Y-14363508D01*
X7053515Y-14363508D02*
X7043991Y-14373031D01*
X7043991Y-14373031D02*
X7034467Y-14392079D01*
X7034467Y-14392079D02*
X7034467Y-14439698D01*
X7034467Y-14439698D02*
X7043991Y-14458746D01*
X7043991Y-14458746D02*
X7053515Y-14468269D01*
X7053515Y-14468269D02*
X7072562Y-14477793D01*
X7072562Y-14477793D02*
X7110658Y-14477793D01*
X7110658Y-14477793D02*
X7129705Y-14468269D01*
X7129705Y-14468269D02*
X7139229Y-14458746D01*
X7139229Y-14458746D02*
X7148753Y-14439698D01*
X7339229Y-14553984D02*
X7224943Y-14553984D01*
X7282086Y-14553984D02*
X7282086Y-14353984D01*
X7282086Y-14353984D02*
X7263039Y-14382555D01*
X7263039Y-14382555D02*
X7243991Y-14401603D01*
X7243991Y-14401603D02*
X7224943Y-14411127D01*
X7510658Y-14420650D02*
X7510658Y-14553984D01*
X7463039Y-14344460D02*
X7415420Y-14487317D01*
X7415420Y-14487317D02*
X7539229Y-14487317D01*
X7615420Y-14553984D02*
X7615420Y-14420650D01*
X7615420Y-14439698D02*
X7624943Y-14430174D01*
X7624943Y-14430174D02*
X7643991Y-14420650D01*
X7643991Y-14420650D02*
X7672563Y-14420650D01*
X7672563Y-14420650D02*
X7691610Y-14430174D01*
X7691610Y-14430174D02*
X7701134Y-14449222D01*
X7701134Y-14449222D02*
X7701134Y-14553984D01*
X7701134Y-14449222D02*
X7710658Y-14430174D01*
X7710658Y-14430174D02*
X7729705Y-14420650D01*
X7729705Y-14420650D02*
X7758277Y-14420650D01*
X7758277Y-14420650D02*
X7777324Y-14430174D01*
X7777324Y-14430174D02*
X7786848Y-14449222D01*
X7786848Y-14449222D02*
X7786848Y-14553984D01*
X7882086Y-14553984D02*
X7882086Y-14420650D01*
X7882086Y-14439698D02*
X7891610Y-14430174D01*
X7891610Y-14430174D02*
X7910658Y-14420650D01*
X7910658Y-14420650D02*
X7939229Y-14420650D01*
X7939229Y-14420650D02*
X7958277Y-14430174D01*
X7958277Y-14430174D02*
X7967801Y-14449222D01*
X7967801Y-14449222D02*
X7967801Y-14553984D01*
X7967801Y-14449222D02*
X7977324Y-14430174D01*
X7977324Y-14430174D02*
X7996372Y-14420650D01*
X7996372Y-14420650D02*
X8024943Y-14420650D01*
X8024943Y-14420650D02*
X8043991Y-14430174D01*
X8043991Y-14430174D02*
X8053515Y-14449222D01*
X8053515Y-14449222D02*
X8053515Y-14553984D01*
X8443991Y-14344460D02*
X8272563Y-14601603D01*
X8701134Y-14353984D02*
X8720182Y-14353984D01*
X8720182Y-14353984D02*
X8739229Y-14363508D01*
X8739229Y-14363508D02*
X8748753Y-14373031D01*
X8748753Y-14373031D02*
X8758277Y-14392079D01*
X8758277Y-14392079D02*
X8767801Y-14430174D01*
X8767801Y-14430174D02*
X8767801Y-14477793D01*
X8767801Y-14477793D02*
X8758277Y-14515888D01*
X8758277Y-14515888D02*
X8748753Y-14534936D01*
X8748753Y-14534936D02*
X8739229Y-14544460D01*
X8739229Y-14544460D02*
X8720182Y-14553984D01*
X8720182Y-14553984D02*
X8701134Y-14553984D01*
X8701134Y-14553984D02*
X8682087Y-14544460D01*
X8682087Y-14544460D02*
X8672563Y-14534936D01*
X8672563Y-14534936D02*
X8663039Y-14515888D01*
X8663039Y-14515888D02*
X8653515Y-14477793D01*
X8653515Y-14477793D02*
X8653515Y-14430174D01*
X8653515Y-14430174D02*
X8663039Y-14392079D01*
X8663039Y-14392079D02*
X8672563Y-14373031D01*
X8672563Y-14373031D02*
X8682087Y-14363508D01*
X8682087Y-14363508D02*
X8701134Y-14353984D01*
X8853515Y-14534936D02*
X8863039Y-14544460D01*
X8863039Y-14544460D02*
X8853515Y-14553984D01*
X8853515Y-14553984D02*
X8843991Y-14544460D01*
X8843991Y-14544460D02*
X8853515Y-14534936D01*
X8853515Y-14534936D02*
X8853515Y-14553984D01*
X8986848Y-14353984D02*
X9005896Y-14353984D01*
X9005896Y-14353984D02*
X9024944Y-14363508D01*
X9024944Y-14363508D02*
X9034468Y-14373031D01*
X9034468Y-14373031D02*
X9043991Y-14392079D01*
X9043991Y-14392079D02*
X9053515Y-14430174D01*
X9053515Y-14430174D02*
X9053515Y-14477793D01*
X9053515Y-14477793D02*
X9043991Y-14515888D01*
X9043991Y-14515888D02*
X9034468Y-14534936D01*
X9034468Y-14534936D02*
X9024944Y-14544460D01*
X9024944Y-14544460D02*
X9005896Y-14553984D01*
X9005896Y-14553984D02*
X8986848Y-14553984D01*
X8986848Y-14553984D02*
X8967801Y-14544460D01*
X8967801Y-14544460D02*
X8958277Y-14534936D01*
X8958277Y-14534936D02*
X8948753Y-14515888D01*
X8948753Y-14515888D02*
X8939229Y-14477793D01*
X8939229Y-14477793D02*
X8939229Y-14430174D01*
X8939229Y-14430174D02*
X8948753Y-14392079D01*
X8948753Y-14392079D02*
X8958277Y-14373031D01*
X8958277Y-14373031D02*
X8967801Y-14363508D01*
X8967801Y-14363508D02*
X8986848Y-14353984D01*
X9120182Y-14353984D02*
X9243991Y-14353984D01*
X9243991Y-14353984D02*
X9177325Y-14430174D01*
X9177325Y-14430174D02*
X9205896Y-14430174D01*
X9205896Y-14430174D02*
X9224944Y-14439698D01*
X9224944Y-14439698D02*
X9234468Y-14449222D01*
X9234468Y-14449222D02*
X9243991Y-14468269D01*
X9243991Y-14468269D02*
X9243991Y-14515888D01*
X9243991Y-14515888D02*
X9234468Y-14534936D01*
X9234468Y-14534936D02*
X9224944Y-14544460D01*
X9224944Y-14544460D02*
X9205896Y-14553984D01*
X9205896Y-14553984D02*
X9148753Y-14553984D01*
X9148753Y-14553984D02*
X9129706Y-14544460D01*
X9129706Y-14544460D02*
X9120182Y-14534936D01*
X9415420Y-14353984D02*
X9377325Y-14353984D01*
X9377325Y-14353984D02*
X9358277Y-14363508D01*
X9358277Y-14363508D02*
X9348753Y-14373031D01*
X9348753Y-14373031D02*
X9329706Y-14401603D01*
X9329706Y-14401603D02*
X9320182Y-14439698D01*
X9320182Y-14439698D02*
X9320182Y-14515888D01*
X9320182Y-14515888D02*
X9329706Y-14534936D01*
X9329706Y-14534936D02*
X9339229Y-14544460D01*
X9339229Y-14544460D02*
X9358277Y-14553984D01*
X9358277Y-14553984D02*
X9396372Y-14553984D01*
X9396372Y-14553984D02*
X9415420Y-14544460D01*
X9415420Y-14544460D02*
X9424944Y-14534936D01*
X9424944Y-14534936D02*
X9434468Y-14515888D01*
X9434468Y-14515888D02*
X9434468Y-14468269D01*
X9434468Y-14468269D02*
X9424944Y-14449222D01*
X9424944Y-14449222D02*
X9415420Y-14439698D01*
X9415420Y-14439698D02*
X9396372Y-14430174D01*
X9396372Y-14430174D02*
X9358277Y-14430174D01*
X9358277Y-14430174D02*
X9339229Y-14439698D01*
X9339229Y-14439698D02*
X9329706Y-14449222D01*
X9329706Y-14449222D02*
X9320182Y-14468269D01*
X9558277Y-14353984D02*
X9577325Y-14353984D01*
X9577325Y-14353984D02*
X9596372Y-14363508D01*
X9596372Y-14363508D02*
X9605896Y-14373031D01*
X9605896Y-14373031D02*
X9615420Y-14392079D01*
X9615420Y-14392079D02*
X9624944Y-14430174D01*
X9624944Y-14430174D02*
X9624944Y-14477793D01*
X9624944Y-14477793D02*
X9615420Y-14515888D01*
X9615420Y-14515888D02*
X9605896Y-14534936D01*
X9605896Y-14534936D02*
X9596372Y-14544460D01*
X9596372Y-14544460D02*
X9577325Y-14553984D01*
X9577325Y-14553984D02*
X9558277Y-14553984D01*
X9558277Y-14553984D02*
X9539229Y-14544460D01*
X9539229Y-14544460D02*
X9529706Y-14534936D01*
X9529706Y-14534936D02*
X9520182Y-14515888D01*
X9520182Y-14515888D02*
X9510658Y-14477793D01*
X9510658Y-14477793D02*
X9510658Y-14430174D01*
X9510658Y-14430174D02*
X9520182Y-14392079D01*
X9520182Y-14392079D02*
X9529706Y-14373031D01*
X9529706Y-14373031D02*
X9539229Y-14363508D01*
X9539229Y-14363508D02*
X9558277Y-14353984D01*
X9701134Y-14353984D02*
X9701134Y-14392079D01*
X9777325Y-14353984D02*
X9777325Y-14392079D01*
X10072563Y-14630174D02*
X10063039Y-14620650D01*
X10063039Y-14620650D02*
X10043991Y-14592079D01*
X10043991Y-14592079D02*
X10034468Y-14573031D01*
X10034468Y-14573031D02*
X10024944Y-14544460D01*
X10024944Y-14544460D02*
X10015420Y-14496841D01*
X10015420Y-14496841D02*
X10015420Y-14458746D01*
X10015420Y-14458746D02*
X10024944Y-14411127D01*
X10024944Y-14411127D02*
X10034468Y-14382555D01*
X10034468Y-14382555D02*
X10043991Y-14363508D01*
X10043991Y-14363508D02*
X10063039Y-14334936D01*
X10063039Y-14334936D02*
X10072563Y-14325412D01*
X10253515Y-14553984D02*
X10139230Y-14553984D01*
X10196372Y-14553984D02*
X10196372Y-14353984D01*
X10196372Y-14353984D02*
X10177325Y-14382555D01*
X10177325Y-14382555D02*
X10158277Y-14401603D01*
X10158277Y-14401603D02*
X10139230Y-14411127D01*
X10443991Y-14553984D02*
X10329706Y-14553984D01*
X10386849Y-14553984D02*
X10386849Y-14353984D01*
X10386849Y-14353984D02*
X10367801Y-14382555D01*
X10367801Y-14382555D02*
X10348753Y-14401603D01*
X10348753Y-14401603D02*
X10329706Y-14411127D01*
X10682087Y-14553984D02*
X10682087Y-14353984D01*
X10767801Y-14553984D02*
X10767801Y-14449222D01*
X10767801Y-14449222D02*
X10758277Y-14430174D01*
X10758277Y-14430174D02*
X10739230Y-14420650D01*
X10739230Y-14420650D02*
X10710658Y-14420650D01*
X10710658Y-14420650D02*
X10691611Y-14430174D01*
X10691611Y-14430174D02*
X10682087Y-14439698D01*
X10891611Y-14553984D02*
X10872563Y-14544460D01*
X10872563Y-14544460D02*
X10863039Y-14534936D01*
X10863039Y-14534936D02*
X10853515Y-14515888D01*
X10853515Y-14515888D02*
X10853515Y-14458746D01*
X10853515Y-14458746D02*
X10863039Y-14439698D01*
X10863039Y-14439698D02*
X10872563Y-14430174D01*
X10872563Y-14430174D02*
X10891611Y-14420650D01*
X10891611Y-14420650D02*
X10920182Y-14420650D01*
X10920182Y-14420650D02*
X10939230Y-14430174D01*
X10939230Y-14430174D02*
X10948753Y-14439698D01*
X10948753Y-14439698D02*
X10958277Y-14458746D01*
X10958277Y-14458746D02*
X10958277Y-14515888D01*
X10958277Y-14515888D02*
X10948753Y-14534936D01*
X10948753Y-14534936D02*
X10939230Y-14544460D01*
X10939230Y-14544460D02*
X10920182Y-14553984D01*
X10920182Y-14553984D02*
X10891611Y-14553984D01*
X11072563Y-14553984D02*
X11053515Y-14544460D01*
X11053515Y-14544460D02*
X11043992Y-14525412D01*
X11043992Y-14525412D02*
X11043992Y-14353984D01*
X11224944Y-14544460D02*
X11205896Y-14553984D01*
X11205896Y-14553984D02*
X11167801Y-14553984D01*
X11167801Y-14553984D02*
X11148753Y-14544460D01*
X11148753Y-14544460D02*
X11139230Y-14525412D01*
X11139230Y-14525412D02*
X11139230Y-14449222D01*
X11139230Y-14449222D02*
X11148753Y-14430174D01*
X11148753Y-14430174D02*
X11167801Y-14420650D01*
X11167801Y-14420650D02*
X11205896Y-14420650D01*
X11205896Y-14420650D02*
X11224944Y-14430174D01*
X11224944Y-14430174D02*
X11234468Y-14449222D01*
X11234468Y-14449222D02*
X11234468Y-14468269D01*
X11234468Y-14468269D02*
X11139230Y-14487317D01*
X11310658Y-14544460D02*
X11329706Y-14553984D01*
X11329706Y-14553984D02*
X11367801Y-14553984D01*
X11367801Y-14553984D02*
X11386849Y-14544460D01*
X11386849Y-14544460D02*
X11396372Y-14525412D01*
X11396372Y-14525412D02*
X11396372Y-14515888D01*
X11396372Y-14515888D02*
X11386849Y-14496841D01*
X11386849Y-14496841D02*
X11367801Y-14487317D01*
X11367801Y-14487317D02*
X11339230Y-14487317D01*
X11339230Y-14487317D02*
X11320182Y-14477793D01*
X11320182Y-14477793D02*
X11310658Y-14458746D01*
X11310658Y-14458746D02*
X11310658Y-14449222D01*
X11310658Y-14449222D02*
X11320182Y-14430174D01*
X11320182Y-14430174D02*
X11339230Y-14420650D01*
X11339230Y-14420650D02*
X11367801Y-14420650D01*
X11367801Y-14420650D02*
X11386849Y-14430174D01*
X11463039Y-14630174D02*
X11472563Y-14620650D01*
X11472563Y-14620650D02*
X11491611Y-14592079D01*
X11491611Y-14592079D02*
X11501134Y-14573031D01*
X11501134Y-14573031D02*
X11510658Y-14544460D01*
X11510658Y-14544460D02*
X11520182Y-14496841D01*
X11520182Y-14496841D02*
X11520182Y-14458746D01*
X11520182Y-14458746D02*
X11510658Y-14411127D01*
X11510658Y-14411127D02*
X11501134Y-14382555D01*
X11501134Y-14382555D02*
X11491611Y-14363508D01*
X11491611Y-14363508D02*
X11472563Y-14334936D01*
X11472563Y-14334936D02*
X11463039Y-14325412D01*
D12*
X6397500Y-14676500D02*
X6497500Y-14776500D01*
X6497500Y-14676500D02*
X6397500Y-14776500D01*
X6447500Y-14676500D02*
X6447500Y-14776500D01*
X6397500Y-14726500D02*
X6497500Y-14726500D01*
D11*
X6863039Y-14817984D02*
X6748753Y-14817984D01*
X6805896Y-14817984D02*
X6805896Y-14617984D01*
X6805896Y-14617984D02*
X6786848Y-14646555D01*
X6786848Y-14646555D02*
X6767801Y-14665603D01*
X6767801Y-14665603D02*
X6748753Y-14675127D01*
X6948753Y-14798936D02*
X6958277Y-14808460D01*
X6958277Y-14808460D02*
X6948753Y-14817984D01*
X6948753Y-14817984D02*
X6939229Y-14808460D01*
X6939229Y-14808460D02*
X6948753Y-14798936D01*
X6948753Y-14798936D02*
X6948753Y-14817984D01*
X7082086Y-14617984D02*
X7101134Y-14617984D01*
X7101134Y-14617984D02*
X7120182Y-14627508D01*
X7120182Y-14627508D02*
X7129705Y-14637031D01*
X7129705Y-14637031D02*
X7139229Y-14656079D01*
X7139229Y-14656079D02*
X7148753Y-14694174D01*
X7148753Y-14694174D02*
X7148753Y-14741793D01*
X7148753Y-14741793D02*
X7139229Y-14779888D01*
X7139229Y-14779888D02*
X7129705Y-14798936D01*
X7129705Y-14798936D02*
X7120182Y-14808460D01*
X7120182Y-14808460D02*
X7101134Y-14817984D01*
X7101134Y-14817984D02*
X7082086Y-14817984D01*
X7082086Y-14817984D02*
X7063039Y-14808460D01*
X7063039Y-14808460D02*
X7053515Y-14798936D01*
X7053515Y-14798936D02*
X7043991Y-14779888D01*
X7043991Y-14779888D02*
X7034467Y-14741793D01*
X7034467Y-14741793D02*
X7034467Y-14694174D01*
X7034467Y-14694174D02*
X7043991Y-14656079D01*
X7043991Y-14656079D02*
X7053515Y-14637031D01*
X7053515Y-14637031D02*
X7063039Y-14627508D01*
X7063039Y-14627508D02*
X7082086Y-14617984D01*
X7272562Y-14617984D02*
X7291610Y-14617984D01*
X7291610Y-14617984D02*
X7310658Y-14627508D01*
X7310658Y-14627508D02*
X7320182Y-14637031D01*
X7320182Y-14637031D02*
X7329705Y-14656079D01*
X7329705Y-14656079D02*
X7339229Y-14694174D01*
X7339229Y-14694174D02*
X7339229Y-14741793D01*
X7339229Y-14741793D02*
X7329705Y-14779888D01*
X7329705Y-14779888D02*
X7320182Y-14798936D01*
X7320182Y-14798936D02*
X7310658Y-14808460D01*
X7310658Y-14808460D02*
X7291610Y-14817984D01*
X7291610Y-14817984D02*
X7272562Y-14817984D01*
X7272562Y-14817984D02*
X7253515Y-14808460D01*
X7253515Y-14808460D02*
X7243991Y-14798936D01*
X7243991Y-14798936D02*
X7234467Y-14779888D01*
X7234467Y-14779888D02*
X7224943Y-14741793D01*
X7224943Y-14741793D02*
X7224943Y-14694174D01*
X7224943Y-14694174D02*
X7234467Y-14656079D01*
X7234467Y-14656079D02*
X7243991Y-14637031D01*
X7243991Y-14637031D02*
X7253515Y-14627508D01*
X7253515Y-14627508D02*
X7272562Y-14617984D01*
X7463039Y-14617984D02*
X7482086Y-14617984D01*
X7482086Y-14617984D02*
X7501134Y-14627508D01*
X7501134Y-14627508D02*
X7510658Y-14637031D01*
X7510658Y-14637031D02*
X7520182Y-14656079D01*
X7520182Y-14656079D02*
X7529705Y-14694174D01*
X7529705Y-14694174D02*
X7529705Y-14741793D01*
X7529705Y-14741793D02*
X7520182Y-14779888D01*
X7520182Y-14779888D02*
X7510658Y-14798936D01*
X7510658Y-14798936D02*
X7501134Y-14808460D01*
X7501134Y-14808460D02*
X7482086Y-14817984D01*
X7482086Y-14817984D02*
X7463039Y-14817984D01*
X7463039Y-14817984D02*
X7443991Y-14808460D01*
X7443991Y-14808460D02*
X7434467Y-14798936D01*
X7434467Y-14798936D02*
X7424943Y-14779888D01*
X7424943Y-14779888D02*
X7415420Y-14741793D01*
X7415420Y-14741793D02*
X7415420Y-14694174D01*
X7415420Y-14694174D02*
X7424943Y-14656079D01*
X7424943Y-14656079D02*
X7434467Y-14637031D01*
X7434467Y-14637031D02*
X7443991Y-14627508D01*
X7443991Y-14627508D02*
X7463039Y-14617984D01*
X7615420Y-14817984D02*
X7615420Y-14684650D01*
X7615420Y-14703698D02*
X7624943Y-14694174D01*
X7624943Y-14694174D02*
X7643991Y-14684650D01*
X7643991Y-14684650D02*
X7672563Y-14684650D01*
X7672563Y-14684650D02*
X7691610Y-14694174D01*
X7691610Y-14694174D02*
X7701134Y-14713222D01*
X7701134Y-14713222D02*
X7701134Y-14817984D01*
X7701134Y-14713222D02*
X7710658Y-14694174D01*
X7710658Y-14694174D02*
X7729705Y-14684650D01*
X7729705Y-14684650D02*
X7758277Y-14684650D01*
X7758277Y-14684650D02*
X7777324Y-14694174D01*
X7777324Y-14694174D02*
X7786848Y-14713222D01*
X7786848Y-14713222D02*
X7786848Y-14817984D01*
X7882086Y-14817984D02*
X7882086Y-14684650D01*
X7882086Y-14703698D02*
X7891610Y-14694174D01*
X7891610Y-14694174D02*
X7910658Y-14684650D01*
X7910658Y-14684650D02*
X7939229Y-14684650D01*
X7939229Y-14684650D02*
X7958277Y-14694174D01*
X7958277Y-14694174D02*
X7967801Y-14713222D01*
X7967801Y-14713222D02*
X7967801Y-14817984D01*
X7967801Y-14713222D02*
X7977324Y-14694174D01*
X7977324Y-14694174D02*
X7996372Y-14684650D01*
X7996372Y-14684650D02*
X8024943Y-14684650D01*
X8024943Y-14684650D02*
X8043991Y-14694174D01*
X8043991Y-14694174D02*
X8053515Y-14713222D01*
X8053515Y-14713222D02*
X8053515Y-14817984D01*
X8443991Y-14608460D02*
X8272563Y-14865603D01*
X8701134Y-14617984D02*
X8720182Y-14617984D01*
X8720182Y-14617984D02*
X8739229Y-14627508D01*
X8739229Y-14627508D02*
X8748753Y-14637031D01*
X8748753Y-14637031D02*
X8758277Y-14656079D01*
X8758277Y-14656079D02*
X8767801Y-14694174D01*
X8767801Y-14694174D02*
X8767801Y-14741793D01*
X8767801Y-14741793D02*
X8758277Y-14779888D01*
X8758277Y-14779888D02*
X8748753Y-14798936D01*
X8748753Y-14798936D02*
X8739229Y-14808460D01*
X8739229Y-14808460D02*
X8720182Y-14817984D01*
X8720182Y-14817984D02*
X8701134Y-14817984D01*
X8701134Y-14817984D02*
X8682087Y-14808460D01*
X8682087Y-14808460D02*
X8672563Y-14798936D01*
X8672563Y-14798936D02*
X8663039Y-14779888D01*
X8663039Y-14779888D02*
X8653515Y-14741793D01*
X8653515Y-14741793D02*
X8653515Y-14694174D01*
X8653515Y-14694174D02*
X8663039Y-14656079D01*
X8663039Y-14656079D02*
X8672563Y-14637031D01*
X8672563Y-14637031D02*
X8682087Y-14627508D01*
X8682087Y-14627508D02*
X8701134Y-14617984D01*
X8853515Y-14798936D02*
X8863039Y-14808460D01*
X8863039Y-14808460D02*
X8853515Y-14817984D01*
X8853515Y-14817984D02*
X8843991Y-14808460D01*
X8843991Y-14808460D02*
X8853515Y-14798936D01*
X8853515Y-14798936D02*
X8853515Y-14817984D01*
X8986848Y-14617984D02*
X9005896Y-14617984D01*
X9005896Y-14617984D02*
X9024944Y-14627508D01*
X9024944Y-14627508D02*
X9034468Y-14637031D01*
X9034468Y-14637031D02*
X9043991Y-14656079D01*
X9043991Y-14656079D02*
X9053515Y-14694174D01*
X9053515Y-14694174D02*
X9053515Y-14741793D01*
X9053515Y-14741793D02*
X9043991Y-14779888D01*
X9043991Y-14779888D02*
X9034468Y-14798936D01*
X9034468Y-14798936D02*
X9024944Y-14808460D01*
X9024944Y-14808460D02*
X9005896Y-14817984D01*
X9005896Y-14817984D02*
X8986848Y-14817984D01*
X8986848Y-14817984D02*
X8967801Y-14808460D01*
X8967801Y-14808460D02*
X8958277Y-14798936D01*
X8958277Y-14798936D02*
X8948753Y-14779888D01*
X8948753Y-14779888D02*
X8939229Y-14741793D01*
X8939229Y-14741793D02*
X8939229Y-14694174D01*
X8939229Y-14694174D02*
X8948753Y-14656079D01*
X8948753Y-14656079D02*
X8958277Y-14637031D01*
X8958277Y-14637031D02*
X8967801Y-14627508D01*
X8967801Y-14627508D02*
X8986848Y-14617984D01*
X9120182Y-14617984D02*
X9243991Y-14617984D01*
X9243991Y-14617984D02*
X9177325Y-14694174D01*
X9177325Y-14694174D02*
X9205896Y-14694174D01*
X9205896Y-14694174D02*
X9224944Y-14703698D01*
X9224944Y-14703698D02*
X9234468Y-14713222D01*
X9234468Y-14713222D02*
X9243991Y-14732269D01*
X9243991Y-14732269D02*
X9243991Y-14779888D01*
X9243991Y-14779888D02*
X9234468Y-14798936D01*
X9234468Y-14798936D02*
X9224944Y-14808460D01*
X9224944Y-14808460D02*
X9205896Y-14817984D01*
X9205896Y-14817984D02*
X9148753Y-14817984D01*
X9148753Y-14817984D02*
X9129706Y-14808460D01*
X9129706Y-14808460D02*
X9120182Y-14798936D01*
X9339229Y-14817984D02*
X9377325Y-14817984D01*
X9377325Y-14817984D02*
X9396372Y-14808460D01*
X9396372Y-14808460D02*
X9405896Y-14798936D01*
X9405896Y-14798936D02*
X9424944Y-14770365D01*
X9424944Y-14770365D02*
X9434468Y-14732269D01*
X9434468Y-14732269D02*
X9434468Y-14656079D01*
X9434468Y-14656079D02*
X9424944Y-14637031D01*
X9424944Y-14637031D02*
X9415420Y-14627508D01*
X9415420Y-14627508D02*
X9396372Y-14617984D01*
X9396372Y-14617984D02*
X9358277Y-14617984D01*
X9358277Y-14617984D02*
X9339229Y-14627508D01*
X9339229Y-14627508D02*
X9329706Y-14637031D01*
X9329706Y-14637031D02*
X9320182Y-14656079D01*
X9320182Y-14656079D02*
X9320182Y-14703698D01*
X9320182Y-14703698D02*
X9329706Y-14722746D01*
X9329706Y-14722746D02*
X9339229Y-14732269D01*
X9339229Y-14732269D02*
X9358277Y-14741793D01*
X9358277Y-14741793D02*
X9396372Y-14741793D01*
X9396372Y-14741793D02*
X9415420Y-14732269D01*
X9415420Y-14732269D02*
X9424944Y-14722746D01*
X9424944Y-14722746D02*
X9434468Y-14703698D01*
X9605896Y-14684650D02*
X9605896Y-14817984D01*
X9558277Y-14608460D02*
X9510658Y-14751317D01*
X9510658Y-14751317D02*
X9634468Y-14751317D01*
X9701134Y-14617984D02*
X9701134Y-14656079D01*
X9777325Y-14617984D02*
X9777325Y-14656079D01*
X10072563Y-14894174D02*
X10063039Y-14884650D01*
X10063039Y-14884650D02*
X10043991Y-14856079D01*
X10043991Y-14856079D02*
X10034468Y-14837031D01*
X10034468Y-14837031D02*
X10024944Y-14808460D01*
X10024944Y-14808460D02*
X10015420Y-14760841D01*
X10015420Y-14760841D02*
X10015420Y-14722746D01*
X10015420Y-14722746D02*
X10024944Y-14675127D01*
X10024944Y-14675127D02*
X10034468Y-14646555D01*
X10034468Y-14646555D02*
X10043991Y-14627508D01*
X10043991Y-14627508D02*
X10063039Y-14598936D01*
X10063039Y-14598936D02*
X10072563Y-14589412D01*
X10253515Y-14817984D02*
X10139230Y-14817984D01*
X10196372Y-14817984D02*
X10196372Y-14617984D01*
X10196372Y-14617984D02*
X10177325Y-14646555D01*
X10177325Y-14646555D02*
X10158277Y-14665603D01*
X10158277Y-14665603D02*
X10139230Y-14675127D01*
X10329706Y-14637031D02*
X10339230Y-14627508D01*
X10339230Y-14627508D02*
X10358277Y-14617984D01*
X10358277Y-14617984D02*
X10405896Y-14617984D01*
X10405896Y-14617984D02*
X10424944Y-14627508D01*
X10424944Y-14627508D02*
X10434468Y-14637031D01*
X10434468Y-14637031D02*
X10443991Y-14656079D01*
X10443991Y-14656079D02*
X10443991Y-14675127D01*
X10443991Y-14675127D02*
X10434468Y-14703698D01*
X10434468Y-14703698D02*
X10320182Y-14817984D01*
X10320182Y-14817984D02*
X10443991Y-14817984D01*
X10682087Y-14817984D02*
X10682087Y-14617984D01*
X10767801Y-14817984D02*
X10767801Y-14713222D01*
X10767801Y-14713222D02*
X10758277Y-14694174D01*
X10758277Y-14694174D02*
X10739230Y-14684650D01*
X10739230Y-14684650D02*
X10710658Y-14684650D01*
X10710658Y-14684650D02*
X10691611Y-14694174D01*
X10691611Y-14694174D02*
X10682087Y-14703698D01*
X10891611Y-14817984D02*
X10872563Y-14808460D01*
X10872563Y-14808460D02*
X10863039Y-14798936D01*
X10863039Y-14798936D02*
X10853515Y-14779888D01*
X10853515Y-14779888D02*
X10853515Y-14722746D01*
X10853515Y-14722746D02*
X10863039Y-14703698D01*
X10863039Y-14703698D02*
X10872563Y-14694174D01*
X10872563Y-14694174D02*
X10891611Y-14684650D01*
X10891611Y-14684650D02*
X10920182Y-14684650D01*
X10920182Y-14684650D02*
X10939230Y-14694174D01*
X10939230Y-14694174D02*
X10948753Y-14703698D01*
X10948753Y-14703698D02*
X10958277Y-14722746D01*
X10958277Y-14722746D02*
X10958277Y-14779888D01*
X10958277Y-14779888D02*
X10948753Y-14798936D01*
X10948753Y-14798936D02*
X10939230Y-14808460D01*
X10939230Y-14808460D02*
X10920182Y-14817984D01*
X10920182Y-14817984D02*
X10891611Y-14817984D01*
X11072563Y-14817984D02*
X11053515Y-14808460D01*
X11053515Y-14808460D02*
X11043992Y-14789412D01*
X11043992Y-14789412D02*
X11043992Y-14617984D01*
X11224944Y-14808460D02*
X11205896Y-14817984D01*
X11205896Y-14817984D02*
X11167801Y-14817984D01*
X11167801Y-14817984D02*
X11148753Y-14808460D01*
X11148753Y-14808460D02*
X11139230Y-14789412D01*
X11139230Y-14789412D02*
X11139230Y-14713222D01*
X11139230Y-14713222D02*
X11148753Y-14694174D01*
X11148753Y-14694174D02*
X11167801Y-14684650D01*
X11167801Y-14684650D02*
X11205896Y-14684650D01*
X11205896Y-14684650D02*
X11224944Y-14694174D01*
X11224944Y-14694174D02*
X11234468Y-14713222D01*
X11234468Y-14713222D02*
X11234468Y-14732269D01*
X11234468Y-14732269D02*
X11139230Y-14751317D01*
X11310658Y-14808460D02*
X11329706Y-14817984D01*
X11329706Y-14817984D02*
X11367801Y-14817984D01*
X11367801Y-14817984D02*
X11386849Y-14808460D01*
X11386849Y-14808460D02*
X11396372Y-14789412D01*
X11396372Y-14789412D02*
X11396372Y-14779888D01*
X11396372Y-14779888D02*
X11386849Y-14760841D01*
X11386849Y-14760841D02*
X11367801Y-14751317D01*
X11367801Y-14751317D02*
X11339230Y-14751317D01*
X11339230Y-14751317D02*
X11320182Y-14741793D01*
X11320182Y-14741793D02*
X11310658Y-14722746D01*
X11310658Y-14722746D02*
X11310658Y-14713222D01*
X11310658Y-14713222D02*
X11320182Y-14694174D01*
X11320182Y-14694174D02*
X11339230Y-14684650D01*
X11339230Y-14684650D02*
X11367801Y-14684650D01*
X11367801Y-14684650D02*
X11386849Y-14694174D01*
X11463039Y-14894174D02*
X11472563Y-14884650D01*
X11472563Y-14884650D02*
X11491611Y-14856079D01*
X11491611Y-14856079D02*
X11501134Y-14837031D01*
X11501134Y-14837031D02*
X11510658Y-14808460D01*
X11510658Y-14808460D02*
X11520182Y-14760841D01*
X11520182Y-14760841D02*
X11520182Y-14722746D01*
X11520182Y-14722746D02*
X11510658Y-14675127D01*
X11510658Y-14675127D02*
X11501134Y-14646555D01*
X11501134Y-14646555D02*
X11491611Y-14627508D01*
X11491611Y-14627508D02*
X11472563Y-14598936D01*
X11472563Y-14598936D02*
X11463039Y-14589412D01*
D13*
X6312500Y-14898000D02*
X6497500Y-15083000D01*
X6497500Y-14898000D02*
X6312500Y-15083000D01*
X6470408Y-15055908D02*
X6470408Y-14925092D01*
X6339592Y-14925092D01*
X6339592Y-15055908D01*
X6470408Y-15055908D01*
D11*
X6863039Y-15081984D02*
X6748753Y-15081984D01*
X6805896Y-15081984D02*
X6805896Y-14881984D01*
X6805896Y-14881984D02*
X6786848Y-14910555D01*
X6786848Y-14910555D02*
X6767801Y-14929603D01*
X6767801Y-14929603D02*
X6748753Y-14939127D01*
X6948753Y-15062936D02*
X6958277Y-15072460D01*
X6958277Y-15072460D02*
X6948753Y-15081984D01*
X6948753Y-15081984D02*
X6939229Y-15072460D01*
X6939229Y-15072460D02*
X6948753Y-15062936D01*
X6948753Y-15062936D02*
X6948753Y-15081984D01*
X7072562Y-14967698D02*
X7053515Y-14958174D01*
X7053515Y-14958174D02*
X7043991Y-14948650D01*
X7043991Y-14948650D02*
X7034467Y-14929603D01*
X7034467Y-14929603D02*
X7034467Y-14920079D01*
X7034467Y-14920079D02*
X7043991Y-14901031D01*
X7043991Y-14901031D02*
X7053515Y-14891508D01*
X7053515Y-14891508D02*
X7072562Y-14881984D01*
X7072562Y-14881984D02*
X7110658Y-14881984D01*
X7110658Y-14881984D02*
X7129705Y-14891508D01*
X7129705Y-14891508D02*
X7139229Y-14901031D01*
X7139229Y-14901031D02*
X7148753Y-14920079D01*
X7148753Y-14920079D02*
X7148753Y-14929603D01*
X7148753Y-14929603D02*
X7139229Y-14948650D01*
X7139229Y-14948650D02*
X7129705Y-14958174D01*
X7129705Y-14958174D02*
X7110658Y-14967698D01*
X7110658Y-14967698D02*
X7072562Y-14967698D01*
X7072562Y-14967698D02*
X7053515Y-14977222D01*
X7053515Y-14977222D02*
X7043991Y-14986746D01*
X7043991Y-14986746D02*
X7034467Y-15005793D01*
X7034467Y-15005793D02*
X7034467Y-15043888D01*
X7034467Y-15043888D02*
X7043991Y-15062936D01*
X7043991Y-15062936D02*
X7053515Y-15072460D01*
X7053515Y-15072460D02*
X7072562Y-15081984D01*
X7072562Y-15081984D02*
X7110658Y-15081984D01*
X7110658Y-15081984D02*
X7129705Y-15072460D01*
X7129705Y-15072460D02*
X7139229Y-15062936D01*
X7139229Y-15062936D02*
X7148753Y-15043888D01*
X7148753Y-15043888D02*
X7148753Y-15005793D01*
X7148753Y-15005793D02*
X7139229Y-14986746D01*
X7139229Y-14986746D02*
X7129705Y-14977222D01*
X7129705Y-14977222D02*
X7110658Y-14967698D01*
X7329705Y-14881984D02*
X7234467Y-14881984D01*
X7234467Y-14881984D02*
X7224943Y-14977222D01*
X7224943Y-14977222D02*
X7234467Y-14967698D01*
X7234467Y-14967698D02*
X7253515Y-14958174D01*
X7253515Y-14958174D02*
X7301134Y-14958174D01*
X7301134Y-14958174D02*
X7320182Y-14967698D01*
X7320182Y-14967698D02*
X7329705Y-14977222D01*
X7329705Y-14977222D02*
X7339229Y-14996269D01*
X7339229Y-14996269D02*
X7339229Y-15043888D01*
X7339229Y-15043888D02*
X7329705Y-15062936D01*
X7329705Y-15062936D02*
X7320182Y-15072460D01*
X7320182Y-15072460D02*
X7301134Y-15081984D01*
X7301134Y-15081984D02*
X7253515Y-15081984D01*
X7253515Y-15081984D02*
X7234467Y-15072460D01*
X7234467Y-15072460D02*
X7224943Y-15062936D01*
X7463039Y-14881984D02*
X7482086Y-14881984D01*
X7482086Y-14881984D02*
X7501134Y-14891508D01*
X7501134Y-14891508D02*
X7510658Y-14901031D01*
X7510658Y-14901031D02*
X7520182Y-14920079D01*
X7520182Y-14920079D02*
X7529705Y-14958174D01*
X7529705Y-14958174D02*
X7529705Y-15005793D01*
X7529705Y-15005793D02*
X7520182Y-15043888D01*
X7520182Y-15043888D02*
X7510658Y-15062936D01*
X7510658Y-15062936D02*
X7501134Y-15072460D01*
X7501134Y-15072460D02*
X7482086Y-15081984D01*
X7482086Y-15081984D02*
X7463039Y-15081984D01*
X7463039Y-15081984D02*
X7443991Y-15072460D01*
X7443991Y-15072460D02*
X7434467Y-15062936D01*
X7434467Y-15062936D02*
X7424943Y-15043888D01*
X7424943Y-15043888D02*
X7415420Y-15005793D01*
X7415420Y-15005793D02*
X7415420Y-14958174D01*
X7415420Y-14958174D02*
X7424943Y-14920079D01*
X7424943Y-14920079D02*
X7434467Y-14901031D01*
X7434467Y-14901031D02*
X7443991Y-14891508D01*
X7443991Y-14891508D02*
X7463039Y-14881984D01*
X7615420Y-15081984D02*
X7615420Y-14948650D01*
X7615420Y-14967698D02*
X7624943Y-14958174D01*
X7624943Y-14958174D02*
X7643991Y-14948650D01*
X7643991Y-14948650D02*
X7672563Y-14948650D01*
X7672563Y-14948650D02*
X7691610Y-14958174D01*
X7691610Y-14958174D02*
X7701134Y-14977222D01*
X7701134Y-14977222D02*
X7701134Y-15081984D01*
X7701134Y-14977222D02*
X7710658Y-14958174D01*
X7710658Y-14958174D02*
X7729705Y-14948650D01*
X7729705Y-14948650D02*
X7758277Y-14948650D01*
X7758277Y-14948650D02*
X7777324Y-14958174D01*
X7777324Y-14958174D02*
X7786848Y-14977222D01*
X7786848Y-14977222D02*
X7786848Y-15081984D01*
X7882086Y-15081984D02*
X7882086Y-14948650D01*
X7882086Y-14967698D02*
X7891610Y-14958174D01*
X7891610Y-14958174D02*
X7910658Y-14948650D01*
X7910658Y-14948650D02*
X7939229Y-14948650D01*
X7939229Y-14948650D02*
X7958277Y-14958174D01*
X7958277Y-14958174D02*
X7967801Y-14977222D01*
X7967801Y-14977222D02*
X7967801Y-15081984D01*
X7967801Y-14977222D02*
X7977324Y-14958174D01*
X7977324Y-14958174D02*
X7996372Y-14948650D01*
X7996372Y-14948650D02*
X8024943Y-14948650D01*
X8024943Y-14948650D02*
X8043991Y-14958174D01*
X8043991Y-14958174D02*
X8053515Y-14977222D01*
X8053515Y-14977222D02*
X8053515Y-15081984D01*
X8443991Y-14872460D02*
X8272563Y-15129603D01*
X8701134Y-14881984D02*
X8720182Y-14881984D01*
X8720182Y-14881984D02*
X8739229Y-14891508D01*
X8739229Y-14891508D02*
X8748753Y-14901031D01*
X8748753Y-14901031D02*
X8758277Y-14920079D01*
X8758277Y-14920079D02*
X8767801Y-14958174D01*
X8767801Y-14958174D02*
X8767801Y-15005793D01*
X8767801Y-15005793D02*
X8758277Y-15043888D01*
X8758277Y-15043888D02*
X8748753Y-15062936D01*
X8748753Y-15062936D02*
X8739229Y-15072460D01*
X8739229Y-15072460D02*
X8720182Y-15081984D01*
X8720182Y-15081984D02*
X8701134Y-15081984D01*
X8701134Y-15081984D02*
X8682087Y-15072460D01*
X8682087Y-15072460D02*
X8672563Y-15062936D01*
X8672563Y-15062936D02*
X8663039Y-15043888D01*
X8663039Y-15043888D02*
X8653515Y-15005793D01*
X8653515Y-15005793D02*
X8653515Y-14958174D01*
X8653515Y-14958174D02*
X8663039Y-14920079D01*
X8663039Y-14920079D02*
X8672563Y-14901031D01*
X8672563Y-14901031D02*
X8682087Y-14891508D01*
X8682087Y-14891508D02*
X8701134Y-14881984D01*
X8853515Y-15062936D02*
X8863039Y-15072460D01*
X8863039Y-15072460D02*
X8853515Y-15081984D01*
X8853515Y-15081984D02*
X8843991Y-15072460D01*
X8843991Y-15072460D02*
X8853515Y-15062936D01*
X8853515Y-15062936D02*
X8853515Y-15081984D01*
X8986848Y-14881984D02*
X9005896Y-14881984D01*
X9005896Y-14881984D02*
X9024944Y-14891508D01*
X9024944Y-14891508D02*
X9034468Y-14901031D01*
X9034468Y-14901031D02*
X9043991Y-14920079D01*
X9043991Y-14920079D02*
X9053515Y-14958174D01*
X9053515Y-14958174D02*
X9053515Y-15005793D01*
X9053515Y-15005793D02*
X9043991Y-15043888D01*
X9043991Y-15043888D02*
X9034468Y-15062936D01*
X9034468Y-15062936D02*
X9024944Y-15072460D01*
X9024944Y-15072460D02*
X9005896Y-15081984D01*
X9005896Y-15081984D02*
X8986848Y-15081984D01*
X8986848Y-15081984D02*
X8967801Y-15072460D01*
X8967801Y-15072460D02*
X8958277Y-15062936D01*
X8958277Y-15062936D02*
X8948753Y-15043888D01*
X8948753Y-15043888D02*
X8939229Y-15005793D01*
X8939229Y-15005793D02*
X8939229Y-14958174D01*
X8939229Y-14958174D02*
X8948753Y-14920079D01*
X8948753Y-14920079D02*
X8958277Y-14901031D01*
X8958277Y-14901031D02*
X8967801Y-14891508D01*
X8967801Y-14891508D02*
X8986848Y-14881984D01*
X9120182Y-14881984D02*
X9253515Y-14881984D01*
X9253515Y-14881984D02*
X9167801Y-15081984D01*
X9320182Y-14901031D02*
X9329706Y-14891508D01*
X9329706Y-14891508D02*
X9348753Y-14881984D01*
X9348753Y-14881984D02*
X9396372Y-14881984D01*
X9396372Y-14881984D02*
X9415420Y-14891508D01*
X9415420Y-14891508D02*
X9424944Y-14901031D01*
X9424944Y-14901031D02*
X9434468Y-14920079D01*
X9434468Y-14920079D02*
X9434468Y-14939127D01*
X9434468Y-14939127D02*
X9424944Y-14967698D01*
X9424944Y-14967698D02*
X9310658Y-15081984D01*
X9310658Y-15081984D02*
X9434468Y-15081984D01*
X9548753Y-14967698D02*
X9529706Y-14958174D01*
X9529706Y-14958174D02*
X9520182Y-14948650D01*
X9520182Y-14948650D02*
X9510658Y-14929603D01*
X9510658Y-14929603D02*
X9510658Y-14920079D01*
X9510658Y-14920079D02*
X9520182Y-14901031D01*
X9520182Y-14901031D02*
X9529706Y-14891508D01*
X9529706Y-14891508D02*
X9548753Y-14881984D01*
X9548753Y-14881984D02*
X9586849Y-14881984D01*
X9586849Y-14881984D02*
X9605896Y-14891508D01*
X9605896Y-14891508D02*
X9615420Y-14901031D01*
X9615420Y-14901031D02*
X9624944Y-14920079D01*
X9624944Y-14920079D02*
X9624944Y-14929603D01*
X9624944Y-14929603D02*
X9615420Y-14948650D01*
X9615420Y-14948650D02*
X9605896Y-14958174D01*
X9605896Y-14958174D02*
X9586849Y-14967698D01*
X9586849Y-14967698D02*
X9548753Y-14967698D01*
X9548753Y-14967698D02*
X9529706Y-14977222D01*
X9529706Y-14977222D02*
X9520182Y-14986746D01*
X9520182Y-14986746D02*
X9510658Y-15005793D01*
X9510658Y-15005793D02*
X9510658Y-15043888D01*
X9510658Y-15043888D02*
X9520182Y-15062936D01*
X9520182Y-15062936D02*
X9529706Y-15072460D01*
X9529706Y-15072460D02*
X9548753Y-15081984D01*
X9548753Y-15081984D02*
X9586849Y-15081984D01*
X9586849Y-15081984D02*
X9605896Y-15072460D01*
X9605896Y-15072460D02*
X9615420Y-15062936D01*
X9615420Y-15062936D02*
X9624944Y-15043888D01*
X9624944Y-15043888D02*
X9624944Y-15005793D01*
X9624944Y-15005793D02*
X9615420Y-14986746D01*
X9615420Y-14986746D02*
X9605896Y-14977222D01*
X9605896Y-14977222D02*
X9586849Y-14967698D01*
X9701134Y-14881984D02*
X9701134Y-14920079D01*
X9777325Y-14881984D02*
X9777325Y-14920079D01*
X10072563Y-15158174D02*
X10063039Y-15148650D01*
X10063039Y-15148650D02*
X10043991Y-15120079D01*
X10043991Y-15120079D02*
X10034468Y-15101031D01*
X10034468Y-15101031D02*
X10024944Y-15072460D01*
X10024944Y-15072460D02*
X10015420Y-15024841D01*
X10015420Y-15024841D02*
X10015420Y-14986746D01*
X10015420Y-14986746D02*
X10024944Y-14939127D01*
X10024944Y-14939127D02*
X10034468Y-14910555D01*
X10034468Y-14910555D02*
X10043991Y-14891508D01*
X10043991Y-14891508D02*
X10063039Y-14862936D01*
X10063039Y-14862936D02*
X10072563Y-14853412D01*
X10243991Y-14881984D02*
X10148753Y-14881984D01*
X10148753Y-14881984D02*
X10139230Y-14977222D01*
X10139230Y-14977222D02*
X10148753Y-14967698D01*
X10148753Y-14967698D02*
X10167801Y-14958174D01*
X10167801Y-14958174D02*
X10215420Y-14958174D01*
X10215420Y-14958174D02*
X10234468Y-14967698D01*
X10234468Y-14967698D02*
X10243991Y-14977222D01*
X10243991Y-14977222D02*
X10253515Y-14996269D01*
X10253515Y-14996269D02*
X10253515Y-15043888D01*
X10253515Y-15043888D02*
X10243991Y-15062936D01*
X10243991Y-15062936D02*
X10234468Y-15072460D01*
X10234468Y-15072460D02*
X10215420Y-15081984D01*
X10215420Y-15081984D02*
X10167801Y-15081984D01*
X10167801Y-15081984D02*
X10148753Y-15072460D01*
X10148753Y-15072460D02*
X10139230Y-15062936D01*
X10491611Y-15081984D02*
X10491611Y-14881984D01*
X10577325Y-15081984D02*
X10577325Y-14977222D01*
X10577325Y-14977222D02*
X10567801Y-14958174D01*
X10567801Y-14958174D02*
X10548753Y-14948650D01*
X10548753Y-14948650D02*
X10520182Y-14948650D01*
X10520182Y-14948650D02*
X10501134Y-14958174D01*
X10501134Y-14958174D02*
X10491611Y-14967698D01*
X10701134Y-15081984D02*
X10682087Y-15072460D01*
X10682087Y-15072460D02*
X10672563Y-15062936D01*
X10672563Y-15062936D02*
X10663039Y-15043888D01*
X10663039Y-15043888D02*
X10663039Y-14986746D01*
X10663039Y-14986746D02*
X10672563Y-14967698D01*
X10672563Y-14967698D02*
X10682087Y-14958174D01*
X10682087Y-14958174D02*
X10701134Y-14948650D01*
X10701134Y-14948650D02*
X10729706Y-14948650D01*
X10729706Y-14948650D02*
X10748753Y-14958174D01*
X10748753Y-14958174D02*
X10758277Y-14967698D01*
X10758277Y-14967698D02*
X10767801Y-14986746D01*
X10767801Y-14986746D02*
X10767801Y-15043888D01*
X10767801Y-15043888D02*
X10758277Y-15062936D01*
X10758277Y-15062936D02*
X10748753Y-15072460D01*
X10748753Y-15072460D02*
X10729706Y-15081984D01*
X10729706Y-15081984D02*
X10701134Y-15081984D01*
X10882087Y-15081984D02*
X10863039Y-15072460D01*
X10863039Y-15072460D02*
X10853515Y-15053412D01*
X10853515Y-15053412D02*
X10853515Y-14881984D01*
X11034468Y-15072460D02*
X11015420Y-15081984D01*
X11015420Y-15081984D02*
X10977325Y-15081984D01*
X10977325Y-15081984D02*
X10958277Y-15072460D01*
X10958277Y-15072460D02*
X10948753Y-15053412D01*
X10948753Y-15053412D02*
X10948753Y-14977222D01*
X10948753Y-14977222D02*
X10958277Y-14958174D01*
X10958277Y-14958174D02*
X10977325Y-14948650D01*
X10977325Y-14948650D02*
X11015420Y-14948650D01*
X11015420Y-14948650D02*
X11034468Y-14958174D01*
X11034468Y-14958174D02*
X11043992Y-14977222D01*
X11043992Y-14977222D02*
X11043992Y-14996269D01*
X11043992Y-14996269D02*
X10948753Y-15015317D01*
X11120182Y-15072460D02*
X11139230Y-15081984D01*
X11139230Y-15081984D02*
X11177325Y-15081984D01*
X11177325Y-15081984D02*
X11196372Y-15072460D01*
X11196372Y-15072460D02*
X11205896Y-15053412D01*
X11205896Y-15053412D02*
X11205896Y-15043888D01*
X11205896Y-15043888D02*
X11196372Y-15024841D01*
X11196372Y-15024841D02*
X11177325Y-15015317D01*
X11177325Y-15015317D02*
X11148753Y-15015317D01*
X11148753Y-15015317D02*
X11129706Y-15005793D01*
X11129706Y-15005793D02*
X11120182Y-14986746D01*
X11120182Y-14986746D02*
X11120182Y-14977222D01*
X11120182Y-14977222D02*
X11129706Y-14958174D01*
X11129706Y-14958174D02*
X11148753Y-14948650D01*
X11148753Y-14948650D02*
X11177325Y-14948650D01*
X11177325Y-14948650D02*
X11196372Y-14958174D01*
X11272563Y-15158174D02*
X11282087Y-15148650D01*
X11282087Y-15148650D02*
X11301134Y-15120079D01*
X11301134Y-15120079D02*
X11310658Y-15101031D01*
X11310658Y-15101031D02*
X11320182Y-15072460D01*
X11320182Y-15072460D02*
X11329706Y-15024841D01*
X11329706Y-15024841D02*
X11329706Y-14986746D01*
X11329706Y-14986746D02*
X11320182Y-14939127D01*
X11320182Y-14939127D02*
X11310658Y-14910555D01*
X11310658Y-14910555D02*
X11301134Y-14891508D01*
X11301134Y-14891508D02*
X11282087Y-14862936D01*
X11282087Y-14862936D02*
X11272563Y-14853412D01*
X6297500Y-15195500D02*
X6497500Y-15395500D01*
X6497500Y-15195500D02*
X6297500Y-15395500D01*
X6397500Y-15395500D02*
X6497500Y-15295500D01*
X6397500Y-15195500D01*
X6297500Y-15295500D01*
X6397500Y-15395500D01*
X6748753Y-15206031D02*
X6758277Y-15196508D01*
X6758277Y-15196508D02*
X6777324Y-15186984D01*
X6777324Y-15186984D02*
X6824943Y-15186984D01*
X6824943Y-15186984D02*
X6843991Y-15196508D01*
X6843991Y-15196508D02*
X6853515Y-15206031D01*
X6853515Y-15206031D02*
X6863039Y-15225079D01*
X6863039Y-15225079D02*
X6863039Y-15244127D01*
X6863039Y-15244127D02*
X6853515Y-15272698D01*
X6853515Y-15272698D02*
X6739229Y-15386984D01*
X6739229Y-15386984D02*
X6863039Y-15386984D01*
X6948753Y-15367936D02*
X6958277Y-15377460D01*
X6958277Y-15377460D02*
X6948753Y-15386984D01*
X6948753Y-15386984D02*
X6939229Y-15377460D01*
X6939229Y-15377460D02*
X6948753Y-15367936D01*
X6948753Y-15367936D02*
X6948753Y-15386984D01*
X7034467Y-15206031D02*
X7043991Y-15196508D01*
X7043991Y-15196508D02*
X7063039Y-15186984D01*
X7063039Y-15186984D02*
X7110658Y-15186984D01*
X7110658Y-15186984D02*
X7129705Y-15196508D01*
X7129705Y-15196508D02*
X7139229Y-15206031D01*
X7139229Y-15206031D02*
X7148753Y-15225079D01*
X7148753Y-15225079D02*
X7148753Y-15244127D01*
X7148753Y-15244127D02*
X7139229Y-15272698D01*
X7139229Y-15272698D02*
X7024943Y-15386984D01*
X7024943Y-15386984D02*
X7148753Y-15386984D01*
X7272562Y-15186984D02*
X7291610Y-15186984D01*
X7291610Y-15186984D02*
X7310658Y-15196508D01*
X7310658Y-15196508D02*
X7320182Y-15206031D01*
X7320182Y-15206031D02*
X7329705Y-15225079D01*
X7329705Y-15225079D02*
X7339229Y-15263174D01*
X7339229Y-15263174D02*
X7339229Y-15310793D01*
X7339229Y-15310793D02*
X7329705Y-15348888D01*
X7329705Y-15348888D02*
X7320182Y-15367936D01*
X7320182Y-15367936D02*
X7310658Y-15377460D01*
X7310658Y-15377460D02*
X7291610Y-15386984D01*
X7291610Y-15386984D02*
X7272562Y-15386984D01*
X7272562Y-15386984D02*
X7253515Y-15377460D01*
X7253515Y-15377460D02*
X7243991Y-15367936D01*
X7243991Y-15367936D02*
X7234467Y-15348888D01*
X7234467Y-15348888D02*
X7224943Y-15310793D01*
X7224943Y-15310793D02*
X7224943Y-15263174D01*
X7224943Y-15263174D02*
X7234467Y-15225079D01*
X7234467Y-15225079D02*
X7243991Y-15206031D01*
X7243991Y-15206031D02*
X7253515Y-15196508D01*
X7253515Y-15196508D02*
X7272562Y-15186984D01*
X7463039Y-15186984D02*
X7482086Y-15186984D01*
X7482086Y-15186984D02*
X7501134Y-15196508D01*
X7501134Y-15196508D02*
X7510658Y-15206031D01*
X7510658Y-15206031D02*
X7520182Y-15225079D01*
X7520182Y-15225079D02*
X7529705Y-15263174D01*
X7529705Y-15263174D02*
X7529705Y-15310793D01*
X7529705Y-15310793D02*
X7520182Y-15348888D01*
X7520182Y-15348888D02*
X7510658Y-15367936D01*
X7510658Y-15367936D02*
X7501134Y-15377460D01*
X7501134Y-15377460D02*
X7482086Y-15386984D01*
X7482086Y-15386984D02*
X7463039Y-15386984D01*
X7463039Y-15386984D02*
X7443991Y-15377460D01*
X7443991Y-15377460D02*
X7434467Y-15367936D01*
X7434467Y-15367936D02*
X7424943Y-15348888D01*
X7424943Y-15348888D02*
X7415420Y-15310793D01*
X7415420Y-15310793D02*
X7415420Y-15263174D01*
X7415420Y-15263174D02*
X7424943Y-15225079D01*
X7424943Y-15225079D02*
X7434467Y-15206031D01*
X7434467Y-15206031D02*
X7443991Y-15196508D01*
X7443991Y-15196508D02*
X7463039Y-15186984D01*
X7615420Y-15386984D02*
X7615420Y-15253650D01*
X7615420Y-15272698D02*
X7624943Y-15263174D01*
X7624943Y-15263174D02*
X7643991Y-15253650D01*
X7643991Y-15253650D02*
X7672563Y-15253650D01*
X7672563Y-15253650D02*
X7691610Y-15263174D01*
X7691610Y-15263174D02*
X7701134Y-15282222D01*
X7701134Y-15282222D02*
X7701134Y-15386984D01*
X7701134Y-15282222D02*
X7710658Y-15263174D01*
X7710658Y-15263174D02*
X7729705Y-15253650D01*
X7729705Y-15253650D02*
X7758277Y-15253650D01*
X7758277Y-15253650D02*
X7777324Y-15263174D01*
X7777324Y-15263174D02*
X7786848Y-15282222D01*
X7786848Y-15282222D02*
X7786848Y-15386984D01*
X7882086Y-15386984D02*
X7882086Y-15253650D01*
X7882086Y-15272698D02*
X7891610Y-15263174D01*
X7891610Y-15263174D02*
X7910658Y-15253650D01*
X7910658Y-15253650D02*
X7939229Y-15253650D01*
X7939229Y-15253650D02*
X7958277Y-15263174D01*
X7958277Y-15263174D02*
X7967801Y-15282222D01*
X7967801Y-15282222D02*
X7967801Y-15386984D01*
X7967801Y-15282222D02*
X7977324Y-15263174D01*
X7977324Y-15263174D02*
X7996372Y-15253650D01*
X7996372Y-15253650D02*
X8024943Y-15253650D01*
X8024943Y-15253650D02*
X8043991Y-15263174D01*
X8043991Y-15263174D02*
X8053515Y-15282222D01*
X8053515Y-15282222D02*
X8053515Y-15386984D01*
X8443991Y-15177460D02*
X8272563Y-15434603D01*
X8701134Y-15186984D02*
X8720182Y-15186984D01*
X8720182Y-15186984D02*
X8739229Y-15196508D01*
X8739229Y-15196508D02*
X8748753Y-15206031D01*
X8748753Y-15206031D02*
X8758277Y-15225079D01*
X8758277Y-15225079D02*
X8767801Y-15263174D01*
X8767801Y-15263174D02*
X8767801Y-15310793D01*
X8767801Y-15310793D02*
X8758277Y-15348888D01*
X8758277Y-15348888D02*
X8748753Y-15367936D01*
X8748753Y-15367936D02*
X8739229Y-15377460D01*
X8739229Y-15377460D02*
X8720182Y-15386984D01*
X8720182Y-15386984D02*
X8701134Y-15386984D01*
X8701134Y-15386984D02*
X8682087Y-15377460D01*
X8682087Y-15377460D02*
X8672563Y-15367936D01*
X8672563Y-15367936D02*
X8663039Y-15348888D01*
X8663039Y-15348888D02*
X8653515Y-15310793D01*
X8653515Y-15310793D02*
X8653515Y-15263174D01*
X8653515Y-15263174D02*
X8663039Y-15225079D01*
X8663039Y-15225079D02*
X8672563Y-15206031D01*
X8672563Y-15206031D02*
X8682087Y-15196508D01*
X8682087Y-15196508D02*
X8701134Y-15186984D01*
X8853515Y-15367936D02*
X8863039Y-15377460D01*
X8863039Y-15377460D02*
X8853515Y-15386984D01*
X8853515Y-15386984D02*
X8843991Y-15377460D01*
X8843991Y-15377460D02*
X8853515Y-15367936D01*
X8853515Y-15367936D02*
X8853515Y-15386984D01*
X8986848Y-15186984D02*
X9005896Y-15186984D01*
X9005896Y-15186984D02*
X9024944Y-15196508D01*
X9024944Y-15196508D02*
X9034468Y-15206031D01*
X9034468Y-15206031D02*
X9043991Y-15225079D01*
X9043991Y-15225079D02*
X9053515Y-15263174D01*
X9053515Y-15263174D02*
X9053515Y-15310793D01*
X9053515Y-15310793D02*
X9043991Y-15348888D01*
X9043991Y-15348888D02*
X9034468Y-15367936D01*
X9034468Y-15367936D02*
X9024944Y-15377460D01*
X9024944Y-15377460D02*
X9005896Y-15386984D01*
X9005896Y-15386984D02*
X8986848Y-15386984D01*
X8986848Y-15386984D02*
X8967801Y-15377460D01*
X8967801Y-15377460D02*
X8958277Y-15367936D01*
X8958277Y-15367936D02*
X8948753Y-15348888D01*
X8948753Y-15348888D02*
X8939229Y-15310793D01*
X8939229Y-15310793D02*
X8939229Y-15263174D01*
X8939229Y-15263174D02*
X8948753Y-15225079D01*
X8948753Y-15225079D02*
X8958277Y-15206031D01*
X8958277Y-15206031D02*
X8967801Y-15196508D01*
X8967801Y-15196508D02*
X8986848Y-15186984D01*
X9167801Y-15272698D02*
X9148753Y-15263174D01*
X9148753Y-15263174D02*
X9139229Y-15253650D01*
X9139229Y-15253650D02*
X9129706Y-15234603D01*
X9129706Y-15234603D02*
X9129706Y-15225079D01*
X9129706Y-15225079D02*
X9139229Y-15206031D01*
X9139229Y-15206031D02*
X9148753Y-15196508D01*
X9148753Y-15196508D02*
X9167801Y-15186984D01*
X9167801Y-15186984D02*
X9205896Y-15186984D01*
X9205896Y-15186984D02*
X9224944Y-15196508D01*
X9224944Y-15196508D02*
X9234468Y-15206031D01*
X9234468Y-15206031D02*
X9243991Y-15225079D01*
X9243991Y-15225079D02*
X9243991Y-15234603D01*
X9243991Y-15234603D02*
X9234468Y-15253650D01*
X9234468Y-15253650D02*
X9224944Y-15263174D01*
X9224944Y-15263174D02*
X9205896Y-15272698D01*
X9205896Y-15272698D02*
X9167801Y-15272698D01*
X9167801Y-15272698D02*
X9148753Y-15282222D01*
X9148753Y-15282222D02*
X9139229Y-15291746D01*
X9139229Y-15291746D02*
X9129706Y-15310793D01*
X9129706Y-15310793D02*
X9129706Y-15348888D01*
X9129706Y-15348888D02*
X9139229Y-15367936D01*
X9139229Y-15367936D02*
X9148753Y-15377460D01*
X9148753Y-15377460D02*
X9167801Y-15386984D01*
X9167801Y-15386984D02*
X9205896Y-15386984D01*
X9205896Y-15386984D02*
X9224944Y-15377460D01*
X9224944Y-15377460D02*
X9234468Y-15367936D01*
X9234468Y-15367936D02*
X9243991Y-15348888D01*
X9243991Y-15348888D02*
X9243991Y-15310793D01*
X9243991Y-15310793D02*
X9234468Y-15291746D01*
X9234468Y-15291746D02*
X9224944Y-15282222D01*
X9224944Y-15282222D02*
X9205896Y-15272698D01*
X9415420Y-15186984D02*
X9377325Y-15186984D01*
X9377325Y-15186984D02*
X9358277Y-15196508D01*
X9358277Y-15196508D02*
X9348753Y-15206031D01*
X9348753Y-15206031D02*
X9329706Y-15234603D01*
X9329706Y-15234603D02*
X9320182Y-15272698D01*
X9320182Y-15272698D02*
X9320182Y-15348888D01*
X9320182Y-15348888D02*
X9329706Y-15367936D01*
X9329706Y-15367936D02*
X9339229Y-15377460D01*
X9339229Y-15377460D02*
X9358277Y-15386984D01*
X9358277Y-15386984D02*
X9396372Y-15386984D01*
X9396372Y-15386984D02*
X9415420Y-15377460D01*
X9415420Y-15377460D02*
X9424944Y-15367936D01*
X9424944Y-15367936D02*
X9434468Y-15348888D01*
X9434468Y-15348888D02*
X9434468Y-15301269D01*
X9434468Y-15301269D02*
X9424944Y-15282222D01*
X9424944Y-15282222D02*
X9415420Y-15272698D01*
X9415420Y-15272698D02*
X9396372Y-15263174D01*
X9396372Y-15263174D02*
X9358277Y-15263174D01*
X9358277Y-15263174D02*
X9339229Y-15272698D01*
X9339229Y-15272698D02*
X9329706Y-15282222D01*
X9329706Y-15282222D02*
X9320182Y-15301269D01*
X9605896Y-15186984D02*
X9567801Y-15186984D01*
X9567801Y-15186984D02*
X9548753Y-15196508D01*
X9548753Y-15196508D02*
X9539229Y-15206031D01*
X9539229Y-15206031D02*
X9520182Y-15234603D01*
X9520182Y-15234603D02*
X9510658Y-15272698D01*
X9510658Y-15272698D02*
X9510658Y-15348888D01*
X9510658Y-15348888D02*
X9520182Y-15367936D01*
X9520182Y-15367936D02*
X9529706Y-15377460D01*
X9529706Y-15377460D02*
X9548753Y-15386984D01*
X9548753Y-15386984D02*
X9586849Y-15386984D01*
X9586849Y-15386984D02*
X9605896Y-15377460D01*
X9605896Y-15377460D02*
X9615420Y-15367936D01*
X9615420Y-15367936D02*
X9624944Y-15348888D01*
X9624944Y-15348888D02*
X9624944Y-15301269D01*
X9624944Y-15301269D02*
X9615420Y-15282222D01*
X9615420Y-15282222D02*
X9605896Y-15272698D01*
X9605896Y-15272698D02*
X9586849Y-15263174D01*
X9586849Y-15263174D02*
X9548753Y-15263174D01*
X9548753Y-15263174D02*
X9529706Y-15272698D01*
X9529706Y-15272698D02*
X9520182Y-15282222D01*
X9520182Y-15282222D02*
X9510658Y-15301269D01*
X9701134Y-15186984D02*
X9701134Y-15225079D01*
X9777325Y-15186984D02*
X9777325Y-15225079D01*
X10072563Y-15463174D02*
X10063039Y-15453650D01*
X10063039Y-15453650D02*
X10043991Y-15425079D01*
X10043991Y-15425079D02*
X10034468Y-15406031D01*
X10034468Y-15406031D02*
X10024944Y-15377460D01*
X10024944Y-15377460D02*
X10015420Y-15329841D01*
X10015420Y-15329841D02*
X10015420Y-15291746D01*
X10015420Y-15291746D02*
X10024944Y-15244127D01*
X10024944Y-15244127D02*
X10034468Y-15215555D01*
X10034468Y-15215555D02*
X10043991Y-15196508D01*
X10043991Y-15196508D02*
X10063039Y-15167936D01*
X10063039Y-15167936D02*
X10072563Y-15158412D01*
X10234468Y-15253650D02*
X10234468Y-15386984D01*
X10186849Y-15177460D02*
X10139230Y-15320317D01*
X10139230Y-15320317D02*
X10263039Y-15320317D01*
X10491611Y-15386984D02*
X10491611Y-15186984D01*
X10577325Y-15386984D02*
X10577325Y-15282222D01*
X10577325Y-15282222D02*
X10567801Y-15263174D01*
X10567801Y-15263174D02*
X10548753Y-15253650D01*
X10548753Y-15253650D02*
X10520182Y-15253650D01*
X10520182Y-15253650D02*
X10501134Y-15263174D01*
X10501134Y-15263174D02*
X10491611Y-15272698D01*
X10701134Y-15386984D02*
X10682087Y-15377460D01*
X10682087Y-15377460D02*
X10672563Y-15367936D01*
X10672563Y-15367936D02*
X10663039Y-15348888D01*
X10663039Y-15348888D02*
X10663039Y-15291746D01*
X10663039Y-15291746D02*
X10672563Y-15272698D01*
X10672563Y-15272698D02*
X10682087Y-15263174D01*
X10682087Y-15263174D02*
X10701134Y-15253650D01*
X10701134Y-15253650D02*
X10729706Y-15253650D01*
X10729706Y-15253650D02*
X10748753Y-15263174D01*
X10748753Y-15263174D02*
X10758277Y-15272698D01*
X10758277Y-15272698D02*
X10767801Y-15291746D01*
X10767801Y-15291746D02*
X10767801Y-15348888D01*
X10767801Y-15348888D02*
X10758277Y-15367936D01*
X10758277Y-15367936D02*
X10748753Y-15377460D01*
X10748753Y-15377460D02*
X10729706Y-15386984D01*
X10729706Y-15386984D02*
X10701134Y-15386984D01*
X10882087Y-15386984D02*
X10863039Y-15377460D01*
X10863039Y-15377460D02*
X10853515Y-15358412D01*
X10853515Y-15358412D02*
X10853515Y-15186984D01*
X11034468Y-15377460D02*
X11015420Y-15386984D01*
X11015420Y-15386984D02*
X10977325Y-15386984D01*
X10977325Y-15386984D02*
X10958277Y-15377460D01*
X10958277Y-15377460D02*
X10948753Y-15358412D01*
X10948753Y-15358412D02*
X10948753Y-15282222D01*
X10948753Y-15282222D02*
X10958277Y-15263174D01*
X10958277Y-15263174D02*
X10977325Y-15253650D01*
X10977325Y-15253650D02*
X11015420Y-15253650D01*
X11015420Y-15253650D02*
X11034468Y-15263174D01*
X11034468Y-15263174D02*
X11043992Y-15282222D01*
X11043992Y-15282222D02*
X11043992Y-15301269D01*
X11043992Y-15301269D02*
X10948753Y-15320317D01*
X11120182Y-15377460D02*
X11139230Y-15386984D01*
X11139230Y-15386984D02*
X11177325Y-15386984D01*
X11177325Y-15386984D02*
X11196372Y-15377460D01*
X11196372Y-15377460D02*
X11205896Y-15358412D01*
X11205896Y-15358412D02*
X11205896Y-15348888D01*
X11205896Y-15348888D02*
X11196372Y-15329841D01*
X11196372Y-15329841D02*
X11177325Y-15320317D01*
X11177325Y-15320317D02*
X11148753Y-15320317D01*
X11148753Y-15320317D02*
X11129706Y-15310793D01*
X11129706Y-15310793D02*
X11120182Y-15291746D01*
X11120182Y-15291746D02*
X11120182Y-15282222D01*
X11120182Y-15282222D02*
X11129706Y-15263174D01*
X11129706Y-15263174D02*
X11148753Y-15253650D01*
X11148753Y-15253650D02*
X11177325Y-15253650D01*
X11177325Y-15253650D02*
X11196372Y-15263174D01*
X11272563Y-15463174D02*
X11282087Y-15453650D01*
X11282087Y-15453650D02*
X11301134Y-15425079D01*
X11301134Y-15425079D02*
X11310658Y-15406031D01*
X11310658Y-15406031D02*
X11320182Y-15377460D01*
X11320182Y-15377460D02*
X11329706Y-15329841D01*
X11329706Y-15329841D02*
X11329706Y-15291746D01*
X11329706Y-15291746D02*
X11320182Y-15244127D01*
X11320182Y-15244127D02*
X11310658Y-15215555D01*
X11310658Y-15215555D02*
X11301134Y-15196508D01*
X11301134Y-15196508D02*
X11282087Y-15167936D01*
X11282087Y-15167936D02*
X11272563Y-15158412D01*
M02*
