%TF.GenerationSoftware,KiCad,Pcbnew,8.0.3-8.0.3-0~ubuntu22.04.1*%
%TF.CreationDate,2024-06-15T19:31:27-04:00*%
%TF.ProjectId,main_board,6d61696e-5f62-46f6-9172-642e6b696361,rev?*%
%TF.SameCoordinates,Original*%
%TF.FileFunction,Copper,L2,Bot*%
%TF.FilePolarity,Positive*%
%FSLAX46Y46*%
G04 Gerber Fmt 4.6, Leading zero omitted, Abs format (unit mm)*
G04 Created by KiCad (PCBNEW 8.0.3-8.0.3-0~ubuntu22.04.1) date 2024-06-15 19:31:27*
%MOMM*%
%LPD*%
G01*
G04 APERTURE LIST*
G04 Aperture macros list*
%AMRoundRect*
0 Rectangle with rounded corners*
0 $1 Rounding radius*
0 $2 $3 $4 $5 $6 $7 $8 $9 X,Y pos of 4 corners*
0 Add a 4 corners polygon primitive as box body*
4,1,4,$2,$3,$4,$5,$6,$7,$8,$9,$2,$3,0*
0 Add four circle primitives for the rounded corners*
1,1,$1+$1,$2,$3*
1,1,$1+$1,$4,$5*
1,1,$1+$1,$6,$7*
1,1,$1+$1,$8,$9*
0 Add four rect primitives between the rounded corners*
20,1,$1+$1,$2,$3,$4,$5,0*
20,1,$1+$1,$4,$5,$6,$7,0*
20,1,$1+$1,$6,$7,$8,$9,0*
20,1,$1+$1,$8,$9,$2,$3,0*%
G04 Aperture macros list end*
%TA.AperFunction,ComponentPad*%
%ADD10RoundRect,0.225000X-0.225000X-0.475000X0.225000X-0.475000X0.225000X0.475000X-0.225000X0.475000X0*%
%TD*%
%TA.AperFunction,ComponentPad*%
%ADD11O,0.900000X1.400000*%
%TD*%
%TA.AperFunction,ComponentPad*%
%ADD12R,1.700000X1.700000*%
%TD*%
%TA.AperFunction,ComponentPad*%
%ADD13O,1.700000X1.700000*%
%TD*%
%TA.AperFunction,ComponentPad*%
%ADD14RoundRect,0.250000X-0.600000X-0.675000X0.600000X-0.675000X0.600000X0.675000X-0.600000X0.675000X0*%
%TD*%
%TA.AperFunction,ComponentPad*%
%ADD15O,1.700000X1.850000*%
%TD*%
%TA.AperFunction,ComponentPad*%
%ADD16R,1.600000X1.600000*%
%TD*%
%TA.AperFunction,ComponentPad*%
%ADD17C,1.600000*%
%TD*%
%TA.AperFunction,ComponentPad*%
%ADD18RoundRect,0.225000X-0.475000X0.225000X-0.475000X-0.225000X0.475000X-0.225000X0.475000X0.225000X0*%
%TD*%
%TA.AperFunction,ComponentPad*%
%ADD19O,1.400000X0.900000*%
%TD*%
%TA.AperFunction,ComponentPad*%
%ADD20R,2.775000X2.775000*%
%TD*%
%TA.AperFunction,ComponentPad*%
%ADD21C,2.775000*%
%TD*%
%TA.AperFunction,ComponentPad*%
%ADD22R,2.400000X1.600000*%
%TD*%
%TA.AperFunction,ComponentPad*%
%ADD23O,2.400000X1.600000*%
%TD*%
%TA.AperFunction,ComponentPad*%
%ADD24RoundRect,0.250000X-0.675000X0.600000X-0.675000X-0.600000X0.675000X-0.600000X0.675000X0.600000X0*%
%TD*%
%TA.AperFunction,ComponentPad*%
%ADD25O,1.850000X1.700000*%
%TD*%
%TA.AperFunction,ComponentPad*%
%ADD26C,1.422400*%
%TD*%
%TA.AperFunction,ComponentPad*%
%ADD27R,1.270000X1.270000*%
%TD*%
%TA.AperFunction,ComponentPad*%
%ADD28RoundRect,0.225000X0.225000X0.475000X-0.225000X0.475000X-0.225000X-0.475000X0.225000X-0.475000X0*%
%TD*%
%TA.AperFunction,ViaPad*%
%ADD29C,3.500000*%
%TD*%
%TA.AperFunction,ViaPad*%
%ADD30C,0.600000*%
%TD*%
%TA.AperFunction,Conductor*%
%ADD31C,0.200000*%
%TD*%
%TA.AperFunction,Conductor*%
%ADD32C,0.750000*%
%TD*%
G04 APERTURE END LIST*
D10*
%TO.P,J8,1,Pin_1*%
%TO.N,3V3*%
X69100000Y-87900000D03*
D11*
%TO.P,J8,2,Pin_2*%
%TO.N,GND*%
X70350000Y-87900000D03*
%TO.P,J8,3,Pin_3*%
%TO.N,SCL*%
X71600000Y-87900000D03*
%TO.P,J8,4,Pin_4*%
%TO.N,SDA*%
X72850000Y-87900000D03*
%TD*%
D12*
%TO.P,J12,1,Pin_1*%
%TO.N,Servo*%
X87300000Y-95820000D03*
D13*
%TO.P,J12,2,Pin_2*%
%TO.N,5V*%
X87300000Y-98360000D03*
%TO.P,J12,3,Pin_3*%
%TO.N,GND*%
X87300000Y-100900000D03*
%TD*%
D14*
%TO.P,J10,1,Pin_1*%
%TO.N,GND*%
X73500000Y-78600000D03*
D15*
%TO.P,J10,2,Pin_2*%
%TO.N,5V*%
X76000000Y-78600000D03*
%TD*%
D12*
%TO.P,U3,1,Enable*%
%TO.N,unconnected-(U3-Enable-Pad1)*%
X81960000Y-123000000D03*
D13*
%TO.P,U3,2,Vin*%
%TO.N,Net-(U2-Vcc)*%
X79420000Y-123000000D03*
%TO.P,U3,3,Ground*%
%TO.N,GND*%
X76880000Y-123000000D03*
%TO.P,U3,4,Ground*%
X74340000Y-123000000D03*
%TO.P,U3,5,Vout*%
%TO.N,5V*%
X71800000Y-123000000D03*
%TD*%
D16*
%TO.P,C1,1*%
%TO.N,Net-(U2-Vcc)*%
X122447349Y-93400000D03*
D17*
%TO.P,C1,2*%
%TO.N,GND*%
X125947349Y-93400000D03*
%TD*%
D18*
%TO.P,J4,1,Pin_1*%
%TO.N,3V3*%
X83300000Y-84925000D03*
D19*
%TO.P,J4,2,Pin_2*%
%TO.N,L_A*%
X83300000Y-86175000D03*
%TO.P,J4,3,Pin_3*%
%TO.N,L_B*%
X83300000Y-87425000D03*
%TO.P,J4,4,Pin_4*%
%TO.N,GND*%
X83300000Y-88675000D03*
%TD*%
D20*
%TO.P,S1,1*%
%TO.N,unconnected-(S1-Pad1)*%
X115300000Y-86822500D03*
D21*
%TO.P,S1,2*%
%TO.N,Net-(J1-Pin_2)*%
X120000000Y-86822500D03*
%TO.P,S1,3*%
%TO.N,Net-(U2-Vcc)*%
X124700000Y-86822500D03*
%TO.P,S1,S1*%
%TO.N,N/C*%
X113395000Y-77292500D03*
%TO.P,S1,S2*%
X126605000Y-77292500D03*
%TD*%
D18*
%TO.P,J5,1,Pin_1*%
%TO.N,3V3*%
X83300000Y-77125000D03*
D19*
%TO.P,J5,2,Pin_2*%
%TO.N,R_A*%
X83300000Y-78375000D03*
%TO.P,J5,3,Pin_3*%
%TO.N,R_B*%
X83300000Y-79625000D03*
%TO.P,J5,4,Pin_4*%
%TO.N,GND*%
X83300000Y-80875000D03*
%TD*%
D22*
%TO.P,U2,1,Gnd*%
%TO.N,GND*%
X118000000Y-100340000D03*
D23*
%TO.P,U2,2,Vcc*%
%TO.N,Net-(U2-Vcc)*%
X118000000Y-102880000D03*
%TO.P,U2,3,BIn2*%
%TO.N,Left_Motor_2*%
X118000000Y-105420000D03*
%TO.P,U2,4,BIn1*%
%TO.N,Left_Motor_1*%
X118000000Y-107960000D03*
%TO.P,U2,5,AIn2*%
%TO.N,Right_Motor_2*%
X118000000Y-110500000D03*
%TO.P,U2,6,AIn1*%
%TO.N,Right_Motor_1*%
X118000000Y-113040000D03*
%TO.P,U2,7,Mode*%
%TO.N,unconnected-(U2-Mode-Pad7)*%
X118000000Y-115580000D03*
%TO.P,U2,8,Vmm*%
%TO.N,unconnected-(U2-Vmm-Pad8)*%
X125620000Y-115580000D03*
%TO.P,U2,9,AOut1*%
%TO.N,Net-(J3-Pin_2)*%
X125620000Y-113040000D03*
%TO.P,U2,10,AOut2*%
%TO.N,Net-(J3-Pin_1)*%
X125620000Y-110500000D03*
%TO.P,U2,11,BOut1*%
%TO.N,Net-(J2-Pin_2)*%
X125620000Y-107960000D03*
%TO.P,U2,12,BOut2*%
%TO.N,Net-(J2-Pin_1)*%
X125620000Y-105420000D03*
%TO.P,U2,13,VIn*%
%TO.N,3V3*%
X125620000Y-102880000D03*
%TO.P,U2,14,Gnd*%
%TO.N,GND*%
X125620000Y-100340000D03*
%TD*%
D24*
%TO.P,J2,1,Pin_1*%
%TO.N,Net-(J2-Pin_1)*%
X132000000Y-105000000D03*
D25*
%TO.P,J2,2,Pin_2*%
%TO.N,Net-(J2-Pin_2)*%
X132000000Y-107500000D03*
%TD*%
D24*
%TO.P,J3,1,Pin_1*%
%TO.N,Net-(J3-Pin_1)*%
X132000000Y-114000000D03*
D25*
%TO.P,J3,2,Pin_2*%
%TO.N,Net-(J3-Pin_2)*%
X132000000Y-116500000D03*
%TD*%
D10*
%TO.P,J7,1,Pin_1*%
%TO.N,3V3*%
X69100000Y-96900000D03*
D11*
%TO.P,J7,2,Pin_2*%
%TO.N,GND*%
X70350000Y-96900000D03*
%TO.P,J7,3,Pin_3*%
%TO.N,RX*%
X71600000Y-96900000D03*
%TO.P,J7,4,Pin_4*%
%TO.N,TX*%
X72850000Y-96900000D03*
%TD*%
D10*
%TO.P,J6,1,Pin_1*%
%TO.N,3V3*%
X69100000Y-92400000D03*
D11*
%TO.P,J6,2,Pin_2*%
%TO.N,GND*%
X70350000Y-92400000D03*
%TO.P,J6,3,Pin_3*%
%TO.N,SCL*%
X71600000Y-92400000D03*
%TO.P,J6,4,Pin_4*%
%TO.N,SDA*%
X72850000Y-92400000D03*
%TD*%
D26*
%TO.P,U1,1,VBAT*%
%TO.N,unconnected-(U1-VBAT-Pad1)*%
X107730000Y-78064000D03*
D27*
%TO.P,U1,2,GND*%
%TO.N,GND*%
X107730000Y-80604000D03*
D26*
%TO.P,U1,3,5V*%
%TO.N,5V*%
X107730000Y-83144000D03*
%TO.P,U1,4,3V3*%
%TO.N,3V3*%
X107730000Y-85684000D03*
%TO.P,U1,5,IO1*%
%TO.N,Right_Motor_1*%
X107730000Y-88224000D03*
%TO.P,U1,6,IO2*%
%TO.N,Right_Motor_2*%
X107730000Y-90764000D03*
%TO.P,U1,7,IO3*%
%TO.N,Left_Motor_1*%
X107730000Y-93304000D03*
%TO.P,U1,8,IO4*%
%TO.N,Left_Motor_2*%
X107730000Y-95844000D03*
%TO.P,U1,9,IO5*%
%TO.N,Left ToF Shutdown*%
X107730000Y-98384000D03*
%TO.P,U1,10,IO21*%
%TO.N,Center ToF Shutdown*%
X107730000Y-100924000D03*
%TO.P,U1,11,IO0*%
%TO.N,Right ToF Shutdown*%
X107730000Y-103464000D03*
%TO.P,U1,12,RX*%
%TO.N,RX*%
X92490000Y-106004000D03*
%TO.P,U1,13,TX*%
%TO.N,TX*%
X92490000Y-103464000D03*
D27*
%TO.P,U1,14,GND*%
%TO.N,GND*%
X92490000Y-100924000D03*
D26*
%TO.P,U1,15,RST*%
%TO.N,unconnected-(U1-RST-Pad15)*%
X92490000Y-98384000D03*
%TO.P,U1,16,IO6*%
%TO.N,Servo*%
X92490000Y-95844000D03*
%TO.P,U1,17,IO7*%
%TO.N,BATT*%
X92490000Y-93304000D03*
%TO.P,U1,18,IO8*%
%TO.N,SDA*%
X92490000Y-90764000D03*
%TO.P,U1,19,IO9*%
%TO.N,SCL*%
X92490000Y-88224000D03*
%TO.P,U1,20,IO34*%
%TO.N,L_B*%
X92490000Y-85684000D03*
%TO.P,U1,21,IO36*%
%TO.N,L_A*%
X92490000Y-83144000D03*
%TO.P,U1,22,IO37*%
%TO.N,R_B*%
X92490000Y-80604000D03*
%TO.P,U1,23,IO35*%
%TO.N,R_A*%
X92490000Y-78064000D03*
%TD*%
D28*
%TO.P,J13,1,Pin_1*%
%TO.N,Left ToF Shutdown*%
X119150000Y-121800000D03*
D11*
%TO.P,J13,2,Pin_2*%
%TO.N,Center ToF Shutdown*%
X117900000Y-121800000D03*
%TO.P,J13,3,Pin_3*%
%TO.N,Right ToF Shutdown*%
X116650000Y-121800000D03*
%TD*%
D12*
%TO.P,J9,1,Pin_1*%
%TO.N,3V3*%
X96180000Y-115000000D03*
D13*
%TO.P,J9,2,Pin_2*%
%TO.N,GND*%
X98720000Y-115000000D03*
%TO.P,J9,3,Pin_3*%
%TO.N,SCL*%
X101260000Y-115000000D03*
%TO.P,J9,4,Pin_4*%
%TO.N,SDA*%
X103800000Y-115000000D03*
%TD*%
D24*
%TO.P,J1,1,Pin_1*%
%TO.N,GND*%
X131500000Y-83600000D03*
D25*
%TO.P,J1,2,Pin_2*%
%TO.N,Net-(J1-Pin_2)*%
X131500000Y-86100000D03*
%TD*%
D29*
%TO.N,*%
X133000000Y-77000000D03*
X67000000Y-77000000D03*
X133000000Y-123000000D03*
X67000000Y-123000000D03*
D30*
%TO.N,GND*%
X83700000Y-119000000D03*
X82600000Y-119000000D03*
%TO.N,3V3*%
X94200000Y-84400000D03*
%TO.N,Net-(U2-Vcc)*%
X95800000Y-110000000D03*
%TD*%
D31*
%TO.N,3V3*%
X90175000Y-84925000D02*
X90700000Y-84400000D01*
X90700000Y-84400000D02*
X94200000Y-84400000D01*
X83300000Y-84925000D02*
X90175000Y-84925000D01*
D32*
%TO.N,5V*%
X84540000Y-98360000D02*
X76600000Y-106300000D01*
X105056000Y-83144000D02*
X107730000Y-83144000D01*
X78600000Y-108300000D02*
X98100000Y-108300000D01*
X102000000Y-86200000D02*
X105056000Y-83144000D01*
X102000000Y-104400000D02*
X102000000Y-86200000D01*
X98100000Y-108300000D02*
X102000000Y-104400000D01*
X76000000Y-78600000D02*
X76000000Y-89820000D01*
X71800000Y-111100000D02*
X71800000Y-123000000D01*
X76600000Y-106300000D02*
X78600000Y-108300000D01*
X76600000Y-106300000D02*
X71800000Y-111100000D01*
X87300000Y-98360000D02*
X84540000Y-98360000D01*
X76000000Y-89820000D02*
X84540000Y-98360000D01*
%TO.N,Net-(U2-Vcc)*%
X79420000Y-119480000D02*
X88900000Y-110000000D01*
X95800000Y-110000000D02*
X109800000Y-110000000D01*
X112700000Y-107100000D02*
X112700000Y-104700000D01*
X124700000Y-91200000D02*
X121700000Y-94200000D01*
X79420000Y-123000000D02*
X79420000Y-119480000D01*
X124700000Y-86822500D02*
X124700000Y-91200000D01*
X114520000Y-102880000D02*
X118000000Y-102880000D01*
X88900000Y-110000000D02*
X95800000Y-110000000D01*
X120320000Y-102880000D02*
X118000000Y-102880000D01*
X109800000Y-110000000D02*
X112700000Y-107100000D01*
X121700000Y-101500000D02*
X120320000Y-102880000D01*
X121700000Y-94200000D02*
X121700000Y-101500000D01*
X112700000Y-104700000D02*
X114520000Y-102880000D01*
%TD*%
%TA.AperFunction,Conductor*%
%TO.N,GND*%
G36*
X112332851Y-75520185D02*
G01*
X112378606Y-75572989D01*
X112388550Y-75642147D01*
X112359525Y-75705703D01*
X112340122Y-75723767D01*
X112155472Y-75861993D01*
X112155454Y-75862009D01*
X111964509Y-76052954D01*
X111964493Y-76052972D01*
X111802657Y-76269160D01*
X111802652Y-76269168D01*
X111673230Y-76506187D01*
X111673228Y-76506191D01*
X111601668Y-76698051D01*
X111581439Y-76752290D01*
X111578848Y-76759236D01*
X111521443Y-77023117D01*
X111502177Y-77292498D01*
X111502177Y-77292501D01*
X111521443Y-77561882D01*
X111567220Y-77772309D01*
X111578850Y-77825770D01*
X111605803Y-77898034D01*
X111673228Y-78078808D01*
X111673230Y-78078812D01*
X111802652Y-78315831D01*
X111802657Y-78315839D01*
X111964493Y-78532027D01*
X111964509Y-78532045D01*
X112155454Y-78722990D01*
X112155472Y-78723006D01*
X112371660Y-78884842D01*
X112371668Y-78884847D01*
X112608687Y-79014269D01*
X112608691Y-79014271D01*
X112608693Y-79014272D01*
X112861730Y-79108650D01*
X112993676Y-79137353D01*
X113125617Y-79166056D01*
X113125619Y-79166056D01*
X113125623Y-79166057D01*
X113365007Y-79183177D01*
X113394999Y-79185323D01*
X113395000Y-79185323D01*
X113395001Y-79185323D01*
X113421987Y-79183392D01*
X113664377Y-79166057D01*
X113928270Y-79108650D01*
X114181307Y-79014272D01*
X114418337Y-78884844D01*
X114634535Y-78723000D01*
X114825500Y-78532035D01*
X114987344Y-78315837D01*
X115116772Y-78078807D01*
X115211150Y-77825770D01*
X115268557Y-77561877D01*
X115287823Y-77292500D01*
X115287083Y-77282159D01*
X115279419Y-77175000D01*
X115268557Y-77023123D01*
X115263528Y-77000007D01*
X115234409Y-76866150D01*
X115211150Y-76759230D01*
X115116772Y-76506193D01*
X115067677Y-76416283D01*
X114987347Y-76269168D01*
X114987342Y-76269160D01*
X114825506Y-76052972D01*
X114825490Y-76052954D01*
X114634545Y-75862009D01*
X114634527Y-75861993D01*
X114449878Y-75723767D01*
X114408006Y-75667834D01*
X114403022Y-75598142D01*
X114436507Y-75536819D01*
X114497830Y-75503334D01*
X114524188Y-75500500D01*
X125475812Y-75500500D01*
X125542851Y-75520185D01*
X125588606Y-75572989D01*
X125598550Y-75642147D01*
X125569525Y-75705703D01*
X125550122Y-75723767D01*
X125365472Y-75861993D01*
X125365454Y-75862009D01*
X125174509Y-76052954D01*
X125174493Y-76052972D01*
X125012657Y-76269160D01*
X125012652Y-76269168D01*
X124883230Y-76506187D01*
X124883228Y-76506191D01*
X124811668Y-76698051D01*
X124791439Y-76752290D01*
X124788848Y-76759236D01*
X124731443Y-77023117D01*
X124712177Y-77292498D01*
X124712177Y-77292501D01*
X124731443Y-77561882D01*
X124777220Y-77772309D01*
X124788850Y-77825770D01*
X124815803Y-77898034D01*
X124883228Y-78078808D01*
X124883230Y-78078812D01*
X125012652Y-78315831D01*
X125012657Y-78315839D01*
X125174493Y-78532027D01*
X125174509Y-78532045D01*
X125365454Y-78722990D01*
X125365472Y-78723006D01*
X125581660Y-78884842D01*
X125581668Y-78884847D01*
X125818687Y-79014269D01*
X125818691Y-79014271D01*
X125818693Y-79014272D01*
X126071730Y-79108650D01*
X126203676Y-79137353D01*
X126335617Y-79166056D01*
X126335619Y-79166056D01*
X126335623Y-79166057D01*
X126575007Y-79183177D01*
X126604999Y-79185323D01*
X126605000Y-79185323D01*
X126605001Y-79185323D01*
X126631987Y-79183392D01*
X126874377Y-79166057D01*
X127138270Y-79108650D01*
X127391307Y-79014272D01*
X127628337Y-78884844D01*
X127844535Y-78723000D01*
X128035500Y-78532035D01*
X128197344Y-78315837D01*
X128326772Y-78078807D01*
X128421150Y-77825770D01*
X128478557Y-77561877D01*
X128497823Y-77292500D01*
X128497083Y-77282159D01*
X128489419Y-77175000D01*
X128478557Y-77023123D01*
X128473528Y-77000007D01*
X128444409Y-76866150D01*
X128421150Y-76759230D01*
X128326772Y-76506193D01*
X128277677Y-76416283D01*
X128197347Y-76269168D01*
X128197342Y-76269160D01*
X128035506Y-76052972D01*
X128035490Y-76052954D01*
X127844545Y-75862009D01*
X127844527Y-75861993D01*
X127659878Y-75723767D01*
X127618006Y-75667834D01*
X127613022Y-75598142D01*
X127646507Y-75536819D01*
X127707830Y-75503334D01*
X127734188Y-75500500D01*
X131063293Y-75500500D01*
X131130332Y-75520185D01*
X131176087Y-75572989D01*
X131186031Y-75642147D01*
X131166395Y-75693391D01*
X131046828Y-75872335D01*
X130916349Y-76136919D01*
X130821521Y-76416269D01*
X130821518Y-76416283D01*
X130763968Y-76705609D01*
X130763964Y-76705636D01*
X130744671Y-76999992D01*
X130744671Y-77000007D01*
X130763964Y-77294363D01*
X130763965Y-77294373D01*
X130763966Y-77294380D01*
X130803849Y-77494890D01*
X130821518Y-77583716D01*
X130821521Y-77583730D01*
X130916349Y-77863080D01*
X131046825Y-78127660D01*
X131046829Y-78127667D01*
X131210725Y-78372955D01*
X131405241Y-78594758D01*
X131627044Y-78789274D01*
X131767601Y-78883191D01*
X131872335Y-78953172D01*
X132136923Y-79083652D01*
X132416278Y-79178481D01*
X132705620Y-79236034D01*
X132733888Y-79237886D01*
X132999993Y-79255329D01*
X133000000Y-79255329D01*
X133000007Y-79255329D01*
X133235675Y-79239881D01*
X133294380Y-79236034D01*
X133583722Y-79178481D01*
X133863077Y-79083652D01*
X134127665Y-78953172D01*
X134306609Y-78833604D01*
X134373287Y-78812727D01*
X134440667Y-78831212D01*
X134487357Y-78883191D01*
X134499500Y-78936707D01*
X134499500Y-121063292D01*
X134479815Y-121130331D01*
X134427011Y-121176086D01*
X134357853Y-121186030D01*
X134306610Y-121166395D01*
X134232397Y-121116808D01*
X134127665Y-121046828D01*
X134127659Y-121046825D01*
X134127658Y-121046824D01*
X133863080Y-120916349D01*
X133583730Y-120821521D01*
X133583724Y-120821519D01*
X133583722Y-120821519D01*
X133294380Y-120763966D01*
X133294373Y-120763965D01*
X133294363Y-120763964D01*
X133000007Y-120744671D01*
X132999993Y-120744671D01*
X132705636Y-120763964D01*
X132705624Y-120763965D01*
X132705620Y-120763966D01*
X132705612Y-120763967D01*
X132705609Y-120763968D01*
X132416283Y-120821518D01*
X132416269Y-120821521D01*
X132136919Y-120916349D01*
X131872334Y-121046828D01*
X131627041Y-121210728D01*
X131405241Y-121405241D01*
X131210728Y-121627041D01*
X131046828Y-121872334D01*
X130916349Y-122136919D01*
X130821521Y-122416269D01*
X130821519Y-122416275D01*
X130821519Y-122416278D01*
X130797638Y-122536337D01*
X130763968Y-122705609D01*
X130763964Y-122705636D01*
X130744671Y-122999992D01*
X130744671Y-123000007D01*
X130763964Y-123294363D01*
X130763965Y-123294373D01*
X130763966Y-123294380D01*
X130797636Y-123463655D01*
X130821518Y-123583716D01*
X130821521Y-123583730D01*
X130916349Y-123863080D01*
X131046825Y-124127660D01*
X131046827Y-124127663D01*
X131046828Y-124127665D01*
X131157833Y-124293796D01*
X131166395Y-124306609D01*
X131187273Y-124373287D01*
X131168788Y-124440667D01*
X131116809Y-124487357D01*
X131063293Y-124499500D01*
X83150103Y-124499500D01*
X83083064Y-124479815D01*
X83037309Y-124427011D01*
X83027365Y-124357853D01*
X83056390Y-124294297D01*
X83075792Y-124276234D01*
X83135240Y-124231730D01*
X83167546Y-124207546D01*
X83253796Y-124092331D01*
X83304091Y-123957483D01*
X83310500Y-123897873D01*
X83310499Y-122102128D01*
X83304091Y-122042517D01*
X83302810Y-122039083D01*
X83253797Y-121907671D01*
X83253793Y-121907664D01*
X83167547Y-121792455D01*
X83167544Y-121792452D01*
X83052335Y-121706206D01*
X83052328Y-121706202D01*
X82917482Y-121655908D01*
X82917483Y-121655908D01*
X82857883Y-121649501D01*
X82857881Y-121649500D01*
X82857873Y-121649500D01*
X82857864Y-121649500D01*
X81062129Y-121649500D01*
X81062123Y-121649501D01*
X81002516Y-121655908D01*
X80867671Y-121706202D01*
X80867664Y-121706206D01*
X80752455Y-121792452D01*
X80752452Y-121792455D01*
X80666206Y-121907664D01*
X80666203Y-121907669D01*
X80617189Y-122039083D01*
X80575317Y-122095016D01*
X80509853Y-122119433D01*
X80441580Y-122104581D01*
X80413328Y-122083432D01*
X80331818Y-122001922D01*
X80298334Y-121940598D01*
X80295500Y-121914241D01*
X80295500Y-121456379D01*
X115699500Y-121456379D01*
X115699500Y-122143620D01*
X115736025Y-122327243D01*
X115736027Y-122327251D01*
X115807676Y-122500228D01*
X115807681Y-122500237D01*
X115911697Y-122655907D01*
X115911700Y-122655911D01*
X116044088Y-122788299D01*
X116044092Y-122788302D01*
X116199762Y-122892318D01*
X116199768Y-122892321D01*
X116199769Y-122892322D01*
X116372749Y-122963973D01*
X116553830Y-122999992D01*
X116556379Y-123000499D01*
X116556383Y-123000500D01*
X116556384Y-123000500D01*
X116743617Y-123000500D01*
X116743618Y-123000499D01*
X116927251Y-122963973D01*
X117100231Y-122892322D01*
X117100237Y-122892318D01*
X117206109Y-122821577D01*
X117272787Y-122800699D01*
X117340167Y-122819183D01*
X117343891Y-122821577D01*
X117449762Y-122892318D01*
X117449768Y-122892321D01*
X117449769Y-122892322D01*
X117622749Y-122963973D01*
X117803830Y-122999992D01*
X117806379Y-123000499D01*
X117806383Y-123000500D01*
X117806384Y-123000500D01*
X117993617Y-123000500D01*
X117993618Y-123000499D01*
X118177251Y-122963973D01*
X118350231Y-122892322D01*
X118376964Y-122874459D01*
X118443638Y-122853580D01*
X118510952Y-122872021D01*
X118599550Y-122926670D01*
X118611716Y-122934174D01*
X118616303Y-122937003D01*
X118777292Y-122990349D01*
X118876655Y-123000500D01*
X119423344Y-123000499D01*
X119423352Y-123000498D01*
X119423355Y-123000498D01*
X119477760Y-122994940D01*
X119522708Y-122990349D01*
X119683697Y-122937003D01*
X119828044Y-122847968D01*
X119947968Y-122728044D01*
X120037003Y-122583697D01*
X120090349Y-122422708D01*
X120100500Y-122323345D01*
X120100499Y-121276656D01*
X120093764Y-121210728D01*
X120090349Y-121177292D01*
X120090348Y-121177289D01*
X120064661Y-121099771D01*
X120037003Y-121016303D01*
X120036999Y-121016297D01*
X120036998Y-121016294D01*
X119947970Y-120871959D01*
X119947967Y-120871955D01*
X119828044Y-120752032D01*
X119828040Y-120752029D01*
X119683705Y-120663001D01*
X119683699Y-120662998D01*
X119683697Y-120662997D01*
X119683694Y-120662996D01*
X119522709Y-120609651D01*
X119423346Y-120599500D01*
X118876662Y-120599500D01*
X118876644Y-120599501D01*
X118777292Y-120609650D01*
X118777289Y-120609651D01*
X118616305Y-120662996D01*
X118616300Y-120662998D01*
X118510953Y-120727978D01*
X118443560Y-120746418D01*
X118376965Y-120725541D01*
X118350230Y-120707677D01*
X118177251Y-120636027D01*
X118177243Y-120636025D01*
X117993620Y-120599500D01*
X117993616Y-120599500D01*
X117806384Y-120599500D01*
X117806379Y-120599500D01*
X117622756Y-120636025D01*
X117622748Y-120636027D01*
X117449771Y-120707676D01*
X117449764Y-120707680D01*
X117343890Y-120778423D01*
X117277213Y-120799300D01*
X117209833Y-120780815D01*
X117206110Y-120778423D01*
X117100235Y-120707680D01*
X117100228Y-120707676D01*
X116927251Y-120636027D01*
X116927243Y-120636025D01*
X116743620Y-120599500D01*
X116743616Y-120599500D01*
X116556384Y-120599500D01*
X116556379Y-120599500D01*
X116372756Y-120636025D01*
X116372748Y-120636027D01*
X116199771Y-120707676D01*
X116199762Y-120707681D01*
X116044092Y-120811697D01*
X116044088Y-120811700D01*
X115911700Y-120944088D01*
X115911697Y-120944092D01*
X115807681Y-121099762D01*
X115807676Y-121099771D01*
X115736027Y-121272748D01*
X115736025Y-121272756D01*
X115699500Y-121456379D01*
X80295500Y-121456379D01*
X80295500Y-119894006D01*
X80315185Y-119826967D01*
X80331819Y-119806325D01*
X86036009Y-114102135D01*
X94829500Y-114102135D01*
X94829500Y-115897870D01*
X94829501Y-115897876D01*
X94835908Y-115957483D01*
X94886202Y-116092328D01*
X94886206Y-116092335D01*
X94972452Y-116207544D01*
X94972455Y-116207547D01*
X95087664Y-116293793D01*
X95087671Y-116293797D01*
X95222517Y-116344091D01*
X95222516Y-116344091D01*
X95229444Y-116344835D01*
X95282127Y-116350500D01*
X97077872Y-116350499D01*
X97137483Y-116344091D01*
X97272331Y-116293796D01*
X97387546Y-116207546D01*
X97473796Y-116092331D01*
X97478687Y-116079219D01*
X97493874Y-116038498D01*
X97523002Y-115960401D01*
X97564872Y-115904468D01*
X97630337Y-115880050D01*
X97698610Y-115894901D01*
X97726865Y-115916053D01*
X97848917Y-116038105D01*
X98042421Y-116173600D01*
X98256507Y-116273429D01*
X98256516Y-116273433D01*
X98470000Y-116330634D01*
X98470000Y-115433012D01*
X98527007Y-115465925D01*
X98654174Y-115500000D01*
X98785826Y-115500000D01*
X98912993Y-115465925D01*
X98970000Y-115433012D01*
X98970000Y-116330633D01*
X99183483Y-116273433D01*
X99183492Y-116273429D01*
X99397578Y-116173600D01*
X99591082Y-116038105D01*
X99758105Y-115871082D01*
X99888119Y-115685405D01*
X99942696Y-115641781D01*
X100012195Y-115634588D01*
X100074549Y-115666110D01*
X100091269Y-115685405D01*
X100221505Y-115871401D01*
X100388599Y-116038495D01*
X100485384Y-116106265D01*
X100582165Y-116174032D01*
X100582167Y-116174033D01*
X100582170Y-116174035D01*
X100796337Y-116273903D01*
X101024592Y-116335063D01*
X101201034Y-116350500D01*
X101259999Y-116355659D01*
X101260000Y-116355659D01*
X101260001Y-116355659D01*
X101318966Y-116350500D01*
X101495408Y-116335063D01*
X101723663Y-116273903D01*
X101937830Y-116174035D01*
X102131401Y-116038495D01*
X102298495Y-115871401D01*
X102428425Y-115685842D01*
X102483002Y-115642217D01*
X102552500Y-115635023D01*
X102614855Y-115666546D01*
X102631575Y-115685842D01*
X102761500Y-115871395D01*
X102761505Y-115871401D01*
X102928599Y-116038495D01*
X103025384Y-116106265D01*
X103122165Y-116174032D01*
X103122167Y-116174033D01*
X103122170Y-116174035D01*
X103336337Y-116273903D01*
X103564592Y-116335063D01*
X103741034Y-116350500D01*
X103799999Y-116355659D01*
X103800000Y-116355659D01*
X103800001Y-116355659D01*
X103858966Y-116350500D01*
X104035408Y-116335063D01*
X104263663Y-116273903D01*
X104477830Y-116174035D01*
X104671401Y-116038495D01*
X104838495Y-115871401D01*
X104974035Y-115677830D01*
X105073903Y-115463663D01*
X105135063Y-115235408D01*
X105155659Y-115000000D01*
X105135063Y-114764592D01*
X105073903Y-114536337D01*
X104974035Y-114322171D01*
X104968731Y-114314595D01*
X104838494Y-114128597D01*
X104671402Y-113961506D01*
X104671395Y-113961501D01*
X104477834Y-113825967D01*
X104477830Y-113825965D01*
X104477828Y-113825964D01*
X104263663Y-113726097D01*
X104263659Y-113726096D01*
X104263655Y-113726094D01*
X104035413Y-113664938D01*
X104035403Y-113664936D01*
X103800001Y-113644341D01*
X103799999Y-113644341D01*
X103564596Y-113664936D01*
X103564586Y-113664938D01*
X103336344Y-113726094D01*
X103336335Y-113726098D01*
X103122171Y-113825964D01*
X103122169Y-113825965D01*
X102928597Y-113961505D01*
X102761505Y-114128597D01*
X102631575Y-114314158D01*
X102576998Y-114357783D01*
X102507500Y-114364977D01*
X102445145Y-114333454D01*
X102428425Y-114314158D01*
X102298494Y-114128597D01*
X102131402Y-113961506D01*
X102131395Y-113961501D01*
X101937834Y-113825967D01*
X101937830Y-113825965D01*
X101937828Y-113825964D01*
X101723663Y-113726097D01*
X101723659Y-113726096D01*
X101723655Y-113726094D01*
X101495413Y-113664938D01*
X101495403Y-113664936D01*
X101260001Y-113644341D01*
X101259999Y-113644341D01*
X101024596Y-113664936D01*
X101024586Y-113664938D01*
X100796344Y-113726094D01*
X100796335Y-113726098D01*
X100582171Y-113825964D01*
X100582169Y-113825965D01*
X100388597Y-113961505D01*
X100221508Y-114128594D01*
X100091269Y-114314595D01*
X100036692Y-114358219D01*
X99967193Y-114365412D01*
X99904839Y-114333890D01*
X99888119Y-114314594D01*
X99758113Y-114128926D01*
X99758108Y-114128920D01*
X99591082Y-113961894D01*
X99397578Y-113826399D01*
X99183492Y-113726570D01*
X99183486Y-113726567D01*
X98970000Y-113669364D01*
X98970000Y-114566988D01*
X98912993Y-114534075D01*
X98785826Y-114500000D01*
X98654174Y-114500000D01*
X98527007Y-114534075D01*
X98470000Y-114566988D01*
X98470000Y-113669364D01*
X98469999Y-113669364D01*
X98256513Y-113726567D01*
X98256507Y-113726570D01*
X98042422Y-113826399D01*
X98042420Y-113826400D01*
X97848926Y-113961886D01*
X97726865Y-114083947D01*
X97665542Y-114117431D01*
X97595850Y-114112447D01*
X97539917Y-114070575D01*
X97523002Y-114039598D01*
X97520157Y-114031971D01*
X97473796Y-113907669D01*
X97473795Y-113907668D01*
X97473793Y-113907664D01*
X97387547Y-113792455D01*
X97387544Y-113792452D01*
X97272335Y-113706206D01*
X97272328Y-113706202D01*
X97137482Y-113655908D01*
X97137483Y-113655908D01*
X97077883Y-113649501D01*
X97077881Y-113649500D01*
X97077873Y-113649500D01*
X97077864Y-113649500D01*
X95282129Y-113649500D01*
X95282123Y-113649501D01*
X95222516Y-113655908D01*
X95087671Y-113706202D01*
X95087664Y-113706206D01*
X94972455Y-113792452D01*
X94972452Y-113792455D01*
X94886206Y-113907664D01*
X94886202Y-113907671D01*
X94835908Y-114042517D01*
X94829501Y-114102116D01*
X94829500Y-114102135D01*
X86036009Y-114102135D01*
X89226325Y-110911819D01*
X89287648Y-110878334D01*
X89314006Y-110875500D01*
X109886231Y-110875500D01*
X109886232Y-110875499D01*
X110055374Y-110841855D01*
X110214705Y-110775858D01*
X110358099Y-110680045D01*
X113380045Y-107658099D01*
X113475858Y-107514705D01*
X113541855Y-107355374D01*
X113575500Y-107186229D01*
X113575500Y-107013771D01*
X113575500Y-105114006D01*
X113595185Y-105046967D01*
X113611819Y-105026325D01*
X114846325Y-103791819D01*
X114907648Y-103758334D01*
X114934006Y-103755500D01*
X116584953Y-103755500D01*
X116651992Y-103775185D01*
X116672634Y-103791819D01*
X116752786Y-103871971D01*
X116834508Y-103931344D01*
X116918390Y-103992287D01*
X117006843Y-104037356D01*
X117011080Y-104039515D01*
X117061876Y-104087490D01*
X117078671Y-104155311D01*
X117056134Y-104221446D01*
X117011080Y-104260485D01*
X116918386Y-104307715D01*
X116752786Y-104428028D01*
X116608028Y-104572786D01*
X116487715Y-104738386D01*
X116394781Y-104920776D01*
X116331522Y-105115465D01*
X116299500Y-105317648D01*
X116299500Y-105522351D01*
X116331522Y-105724534D01*
X116394781Y-105919223D01*
X116487715Y-106101613D01*
X116608028Y-106267213D01*
X116752786Y-106411971D01*
X116907749Y-106524556D01*
X116918390Y-106532287D01*
X117009840Y-106578883D01*
X117011080Y-106579515D01*
X117061876Y-106627490D01*
X117078671Y-106695311D01*
X117056134Y-106761446D01*
X117011080Y-106800485D01*
X116918386Y-106847715D01*
X116752786Y-106968028D01*
X116608028Y-107112786D01*
X116487715Y-107278386D01*
X116394781Y-107460776D01*
X116331522Y-107655465D01*
X116299500Y-107857648D01*
X116299500Y-108062351D01*
X116331522Y-108264534D01*
X116394781Y-108459223D01*
X116487715Y-108641613D01*
X116608028Y-108807213D01*
X116752786Y-108951971D01*
X116890482Y-109052011D01*
X116918390Y-109072287D01*
X116982230Y-109104815D01*
X117011080Y-109119515D01*
X117061876Y-109167490D01*
X117078671Y-109235311D01*
X117056134Y-109301446D01*
X117011080Y-109340485D01*
X116918386Y-109387715D01*
X116752786Y-109508028D01*
X116608028Y-109652786D01*
X116487715Y-109818386D01*
X116394781Y-110000776D01*
X116331522Y-110195465D01*
X116299500Y-110397648D01*
X116299500Y-110602351D01*
X116331522Y-110804534D01*
X116394781Y-110999223D01*
X116487715Y-111181613D01*
X116608028Y-111347213D01*
X116752786Y-111491971D01*
X116907749Y-111604556D01*
X116918390Y-111612287D01*
X117009840Y-111658883D01*
X117011080Y-111659515D01*
X117061876Y-111707490D01*
X117078671Y-111775311D01*
X117056134Y-111841446D01*
X117011080Y-111880485D01*
X116918386Y-111927715D01*
X116752786Y-112048028D01*
X116608028Y-112192786D01*
X116487715Y-112358386D01*
X116394781Y-112540776D01*
X116331522Y-112735465D01*
X116299500Y-112937648D01*
X116299500Y-113142351D01*
X116331522Y-113344534D01*
X116394781Y-113539223D01*
X116454236Y-113655908D01*
X116479864Y-113706206D01*
X116487715Y-113721613D01*
X116608028Y-113887213D01*
X116752786Y-114031971D01*
X116863554Y-114112447D01*
X116918390Y-114152287D01*
X117009840Y-114198883D01*
X117011080Y-114199515D01*
X117061876Y-114247490D01*
X117078671Y-114315311D01*
X117056134Y-114381446D01*
X117011080Y-114420485D01*
X116918386Y-114467715D01*
X116752786Y-114588028D01*
X116608028Y-114732786D01*
X116487715Y-114898386D01*
X116394781Y-115080776D01*
X116331522Y-115275465D01*
X116299500Y-115477648D01*
X116299500Y-115682351D01*
X116331522Y-115884534D01*
X116394781Y-116079223D01*
X116443091Y-116174035D01*
X116460166Y-116207547D01*
X116487715Y-116261613D01*
X116608028Y-116427213D01*
X116752786Y-116571971D01*
X116907749Y-116684556D01*
X116918390Y-116692287D01*
X117034607Y-116751503D01*
X117100776Y-116785218D01*
X117100778Y-116785218D01*
X117100781Y-116785220D01*
X117196248Y-116816239D01*
X117295465Y-116848477D01*
X117396557Y-116864488D01*
X117497648Y-116880500D01*
X117497649Y-116880500D01*
X118502351Y-116880500D01*
X118502352Y-116880500D01*
X118704534Y-116848477D01*
X118899219Y-116785220D01*
X119081610Y-116692287D01*
X119199981Y-116606286D01*
X119247213Y-116571971D01*
X119247215Y-116571968D01*
X119247219Y-116571966D01*
X119391966Y-116427219D01*
X119391968Y-116427215D01*
X119391971Y-116427213D01*
X119447707Y-116350498D01*
X119512287Y-116261610D01*
X119605220Y-116079219D01*
X119668477Y-115884534D01*
X119700500Y-115682352D01*
X119700500Y-115477648D01*
X119699791Y-115473171D01*
X119668477Y-115275465D01*
X119605218Y-115080776D01*
X119564059Y-114999999D01*
X119512287Y-114898390D01*
X119504556Y-114887749D01*
X119391971Y-114732786D01*
X119247213Y-114588028D01*
X119081614Y-114467715D01*
X119075006Y-114464348D01*
X118988917Y-114420483D01*
X118938123Y-114372511D01*
X118921328Y-114304690D01*
X118943865Y-114238555D01*
X118988917Y-114199516D01*
X119081610Y-114152287D01*
X119232697Y-114042517D01*
X119247213Y-114031971D01*
X119247215Y-114031968D01*
X119247219Y-114031966D01*
X119391966Y-113887219D01*
X119391968Y-113887215D01*
X119391971Y-113887213D01*
X119444732Y-113814590D01*
X119512287Y-113721610D01*
X119605220Y-113539219D01*
X119668477Y-113344534D01*
X119700500Y-113142352D01*
X119700500Y-112937648D01*
X119668477Y-112735466D01*
X119661887Y-112715185D01*
X119605218Y-112540776D01*
X119571503Y-112474607D01*
X119512287Y-112358390D01*
X119504556Y-112347749D01*
X119391971Y-112192786D01*
X119247213Y-112048028D01*
X119081614Y-111927715D01*
X119075006Y-111924348D01*
X118988917Y-111880483D01*
X118938123Y-111832511D01*
X118921328Y-111764690D01*
X118943865Y-111698555D01*
X118988917Y-111659516D01*
X119081610Y-111612287D01*
X119102770Y-111596913D01*
X119247213Y-111491971D01*
X119247215Y-111491968D01*
X119247219Y-111491966D01*
X119391966Y-111347219D01*
X119391968Y-111347215D01*
X119391971Y-111347213D01*
X119444732Y-111274590D01*
X119512287Y-111181610D01*
X119605220Y-110999219D01*
X119668477Y-110804534D01*
X119700500Y-110602352D01*
X119700500Y-110397648D01*
X119668477Y-110195466D01*
X119605220Y-110000781D01*
X119605218Y-110000778D01*
X119605218Y-110000776D01*
X119571503Y-109934607D01*
X119512287Y-109818390D01*
X119504556Y-109807749D01*
X119391971Y-109652786D01*
X119247213Y-109508028D01*
X119081614Y-109387715D01*
X119067852Y-109380703D01*
X118988917Y-109340483D01*
X118938123Y-109292511D01*
X118921328Y-109224690D01*
X118943865Y-109158555D01*
X118988917Y-109119516D01*
X119081610Y-109072287D01*
X119109518Y-109052011D01*
X119247213Y-108951971D01*
X119247215Y-108951968D01*
X119247219Y-108951966D01*
X119391966Y-108807219D01*
X119391968Y-108807215D01*
X119391971Y-108807213D01*
X119444732Y-108734590D01*
X119512287Y-108641610D01*
X119605220Y-108459219D01*
X119668477Y-108264534D01*
X119700500Y-108062352D01*
X119700500Y-107857648D01*
X119668477Y-107655466D01*
X119652497Y-107606286D01*
X119605218Y-107460776D01*
X119551508Y-107355366D01*
X119512287Y-107278390D01*
X119469354Y-107219297D01*
X119391971Y-107112786D01*
X119247213Y-106968028D01*
X119081614Y-106847715D01*
X119075006Y-106844348D01*
X118988917Y-106800483D01*
X118938123Y-106752511D01*
X118921328Y-106684690D01*
X118943865Y-106618555D01*
X118988917Y-106579516D01*
X119081610Y-106532287D01*
X119102770Y-106516913D01*
X119247213Y-106411971D01*
X119247215Y-106411968D01*
X119247219Y-106411966D01*
X119391966Y-106267219D01*
X119391968Y-106267215D01*
X119391971Y-106267213D01*
X119446098Y-106192712D01*
X119512287Y-106101610D01*
X119605220Y-105919219D01*
X119668477Y-105724534D01*
X119700500Y-105522352D01*
X119700500Y-105317648D01*
X119685376Y-105222159D01*
X119668477Y-105115465D01*
X119605218Y-104920776D01*
X119562374Y-104836691D01*
X119512287Y-104738390D01*
X119504556Y-104727749D01*
X119391971Y-104572786D01*
X119247213Y-104428028D01*
X119081614Y-104307715D01*
X119037612Y-104285295D01*
X118988917Y-104260483D01*
X118938123Y-104212511D01*
X118921328Y-104144690D01*
X118943865Y-104078555D01*
X118988917Y-104039516D01*
X119081610Y-103992287D01*
X119165492Y-103931344D01*
X119247213Y-103871971D01*
X119247215Y-103871968D01*
X119247219Y-103871966D01*
X119327366Y-103791819D01*
X119388689Y-103758334D01*
X119415047Y-103755500D01*
X120406231Y-103755500D01*
X120406232Y-103755499D01*
X120575374Y-103721855D01*
X120734705Y-103655858D01*
X120878099Y-103560045D01*
X121660496Y-102777648D01*
X123919500Y-102777648D01*
X123919500Y-102982351D01*
X123951522Y-103184534D01*
X124014781Y-103379223D01*
X124057978Y-103464000D01*
X124106914Y-103560042D01*
X124107715Y-103561613D01*
X124228028Y-103727213D01*
X124372786Y-103871971D01*
X124454508Y-103931344D01*
X124538390Y-103992287D01*
X124626843Y-104037356D01*
X124631080Y-104039515D01*
X124681876Y-104087490D01*
X124698671Y-104155311D01*
X124676134Y-104221446D01*
X124631080Y-104260485D01*
X124538386Y-104307715D01*
X124372786Y-104428028D01*
X124228028Y-104572786D01*
X124107715Y-104738386D01*
X124014781Y-104920776D01*
X123951522Y-105115465D01*
X123919500Y-105317648D01*
X123919500Y-105522351D01*
X123951522Y-105724534D01*
X124014781Y-105919223D01*
X124107715Y-106101613D01*
X124228028Y-106267213D01*
X124372786Y-106411971D01*
X124527749Y-106524556D01*
X124538390Y-106532287D01*
X124629840Y-106578883D01*
X124631080Y-106579515D01*
X124681876Y-106627490D01*
X124698671Y-106695311D01*
X124676134Y-106761446D01*
X124631080Y-106800485D01*
X124538386Y-106847715D01*
X124372786Y-106968028D01*
X124228028Y-107112786D01*
X124107715Y-107278386D01*
X124014781Y-107460776D01*
X123951522Y-107655465D01*
X123919500Y-107857648D01*
X123919500Y-108062351D01*
X123951522Y-108264534D01*
X124014781Y-108459223D01*
X124107715Y-108641613D01*
X124228028Y-108807213D01*
X124372786Y-108951971D01*
X124510482Y-109052011D01*
X124538390Y-109072287D01*
X124602230Y-109104815D01*
X124631080Y-109119515D01*
X124681876Y-109167490D01*
X124698671Y-109235311D01*
X124676134Y-109301446D01*
X124631080Y-109340485D01*
X124538386Y-109387715D01*
X124372786Y-109508028D01*
X124228028Y-109652786D01*
X124107715Y-109818386D01*
X124014781Y-110000776D01*
X123951522Y-110195465D01*
X123919500Y-110397648D01*
X123919500Y-110602351D01*
X123951522Y-110804534D01*
X124014781Y-110999223D01*
X124107715Y-111181613D01*
X124228028Y-111347213D01*
X124372786Y-111491971D01*
X124527749Y-111604556D01*
X124538390Y-111612287D01*
X124629840Y-111658883D01*
X124631080Y-111659515D01*
X124681876Y-111707490D01*
X124698671Y-111775311D01*
X124676134Y-111841446D01*
X124631080Y-111880485D01*
X124538386Y-111927715D01*
X124372786Y-112048028D01*
X124228028Y-112192786D01*
X124107715Y-112358386D01*
X124014781Y-112540776D01*
X123951522Y-112735465D01*
X123919500Y-112937648D01*
X123919500Y-113142351D01*
X123951522Y-113344534D01*
X124014781Y-113539223D01*
X124074236Y-113655908D01*
X124099864Y-113706206D01*
X124107715Y-113721613D01*
X124228028Y-113887213D01*
X124372786Y-114031971D01*
X124483554Y-114112447D01*
X124538390Y-114152287D01*
X124629840Y-114198883D01*
X124631080Y-114199515D01*
X124681876Y-114247490D01*
X124698671Y-114315311D01*
X124676134Y-114381446D01*
X124631080Y-114420485D01*
X124538386Y-114467715D01*
X124372786Y-114588028D01*
X124228028Y-114732786D01*
X124107715Y-114898386D01*
X124014781Y-115080776D01*
X123951522Y-115275465D01*
X123919500Y-115477648D01*
X123919500Y-115682351D01*
X123951522Y-115884534D01*
X124014781Y-116079223D01*
X124063091Y-116174035D01*
X124080166Y-116207547D01*
X124107715Y-116261613D01*
X124228028Y-116427213D01*
X124372786Y-116571971D01*
X124527749Y-116684556D01*
X124538390Y-116692287D01*
X124654607Y-116751503D01*
X124720776Y-116785218D01*
X124720778Y-116785218D01*
X124720781Y-116785220D01*
X124816248Y-116816239D01*
X124915465Y-116848477D01*
X125016557Y-116864488D01*
X125117648Y-116880500D01*
X125117649Y-116880500D01*
X126122351Y-116880500D01*
X126122352Y-116880500D01*
X126324534Y-116848477D01*
X126519219Y-116785220D01*
X126701610Y-116692287D01*
X126819981Y-116606286D01*
X126867213Y-116571971D01*
X126867215Y-116571968D01*
X126867219Y-116571966D01*
X127011966Y-116427219D01*
X127011968Y-116427215D01*
X127011971Y-116427213D01*
X127067707Y-116350498D01*
X127132287Y-116261610D01*
X127225220Y-116079219D01*
X127288477Y-115884534D01*
X127320500Y-115682352D01*
X127320500Y-115477648D01*
X127319791Y-115473171D01*
X127288477Y-115275465D01*
X127225218Y-115080776D01*
X127184059Y-114999999D01*
X127132287Y-114898390D01*
X127124556Y-114887749D01*
X127011971Y-114732786D01*
X126867213Y-114588028D01*
X126701614Y-114467715D01*
X126695006Y-114464348D01*
X126608917Y-114420483D01*
X126558123Y-114372511D01*
X126541328Y-114304690D01*
X126563865Y-114238555D01*
X126608917Y-114199516D01*
X126701610Y-114152287D01*
X126852697Y-114042517D01*
X126867213Y-114031971D01*
X126867215Y-114031968D01*
X126867219Y-114031966D01*
X127011966Y-113887219D01*
X127011968Y-113887215D01*
X127011971Y-113887213D01*
X127064732Y-113814590D01*
X127132287Y-113721610D01*
X127225220Y-113539219D01*
X127286707Y-113349983D01*
X130574500Y-113349983D01*
X130574500Y-114650001D01*
X130574501Y-114650018D01*
X130585000Y-114752796D01*
X130585001Y-114752799D01*
X130633246Y-114898390D01*
X130640186Y-114919334D01*
X130730542Y-115065826D01*
X130732289Y-115068657D01*
X130856344Y-115192712D01*
X131011120Y-115288178D01*
X131057845Y-115340126D01*
X131069068Y-115409088D01*
X131041224Y-115473171D01*
X131033706Y-115481398D01*
X130894889Y-115620215D01*
X130769951Y-115792179D01*
X130673444Y-115981585D01*
X130607753Y-116183760D01*
X130583789Y-116335063D01*
X130574500Y-116393713D01*
X130574500Y-116606287D01*
X130607754Y-116816243D01*
X130628632Y-116880500D01*
X130673444Y-117018414D01*
X130769951Y-117207820D01*
X130894890Y-117379786D01*
X131045213Y-117530109D01*
X131217179Y-117655048D01*
X131217181Y-117655049D01*
X131217184Y-117655051D01*
X131406588Y-117751557D01*
X131608757Y-117817246D01*
X131818713Y-117850500D01*
X131818714Y-117850500D01*
X132181286Y-117850500D01*
X132181287Y-117850500D01*
X132391243Y-117817246D01*
X132593412Y-117751557D01*
X132782816Y-117655051D01*
X132804789Y-117639086D01*
X132954786Y-117530109D01*
X132954788Y-117530106D01*
X132954792Y-117530104D01*
X133105104Y-117379792D01*
X133105106Y-117379788D01*
X133105109Y-117379786D01*
X133230048Y-117207820D01*
X133230047Y-117207820D01*
X133230051Y-117207816D01*
X133326557Y-117018412D01*
X133392246Y-116816243D01*
X133425500Y-116606287D01*
X133425500Y-116393713D01*
X133392246Y-116183757D01*
X133326557Y-115981588D01*
X133230051Y-115792184D01*
X133230049Y-115792181D01*
X133230048Y-115792179D01*
X133105109Y-115620213D01*
X132966294Y-115481398D01*
X132932809Y-115420075D01*
X132937793Y-115350383D01*
X132979665Y-115294450D01*
X132988879Y-115288178D01*
X132994331Y-115284814D01*
X132994334Y-115284814D01*
X133143656Y-115192712D01*
X133267712Y-115068656D01*
X133359814Y-114919334D01*
X133414999Y-114752797D01*
X133425500Y-114650009D01*
X133425499Y-113349992D01*
X133424941Y-113344534D01*
X133414999Y-113247203D01*
X133414998Y-113247200D01*
X133359814Y-113080666D01*
X133267712Y-112931344D01*
X133143656Y-112807288D01*
X132994334Y-112715186D01*
X132827797Y-112660001D01*
X132827795Y-112660000D01*
X132725010Y-112649500D01*
X131274998Y-112649500D01*
X131274981Y-112649501D01*
X131172203Y-112660000D01*
X131172200Y-112660001D01*
X131005668Y-112715185D01*
X131005663Y-112715187D01*
X130856342Y-112807289D01*
X130732289Y-112931342D01*
X130640187Y-113080663D01*
X130640185Y-113080668D01*
X130619745Y-113142352D01*
X130585001Y-113247203D01*
X130585001Y-113247204D01*
X130585000Y-113247204D01*
X130574500Y-113349983D01*
X127286707Y-113349983D01*
X127288477Y-113344534D01*
X127320500Y-113142352D01*
X127320500Y-112937648D01*
X127288477Y-112735466D01*
X127281887Y-112715185D01*
X127225218Y-112540776D01*
X127191503Y-112474607D01*
X127132287Y-112358390D01*
X127124556Y-112347749D01*
X127011971Y-112192786D01*
X126867213Y-112048028D01*
X126701614Y-111927715D01*
X126695006Y-111924348D01*
X126608917Y-111880483D01*
X126558123Y-111832511D01*
X126541328Y-111764690D01*
X126563865Y-111698555D01*
X126608917Y-111659516D01*
X126701610Y-111612287D01*
X126722770Y-111596913D01*
X126867213Y-111491971D01*
X126867215Y-111491968D01*
X126867219Y-111491966D01*
X127011966Y-111347219D01*
X127011968Y-111347215D01*
X127011971Y-111347213D01*
X127064732Y-111274590D01*
X127132287Y-111181610D01*
X127225220Y-110999219D01*
X127288477Y-110804534D01*
X127320500Y-110602352D01*
X127320500Y-110397648D01*
X127288477Y-110195466D01*
X127225220Y-110000781D01*
X127225218Y-110000778D01*
X127225218Y-110000776D01*
X127191503Y-109934607D01*
X127132287Y-109818390D01*
X127124556Y-109807749D01*
X127011971Y-109652786D01*
X126867213Y-109508028D01*
X126701614Y-109387715D01*
X126687852Y-109380703D01*
X126608917Y-109340483D01*
X126558123Y-109292511D01*
X126541328Y-109224690D01*
X126563865Y-109158555D01*
X126608917Y-109119516D01*
X126701610Y-109072287D01*
X126729518Y-109052011D01*
X126867213Y-108951971D01*
X126867215Y-108951968D01*
X126867219Y-108951966D01*
X127011966Y-108807219D01*
X127011968Y-108807215D01*
X127011971Y-108807213D01*
X127064732Y-108734590D01*
X127132287Y-108641610D01*
X127225220Y-108459219D01*
X127288477Y-108264534D01*
X127320500Y-108062352D01*
X127320500Y-107857648D01*
X127288477Y-107655466D01*
X127272497Y-107606286D01*
X127225218Y-107460776D01*
X127171508Y-107355366D01*
X127132287Y-107278390D01*
X127089354Y-107219297D01*
X127011971Y-107112786D01*
X126867213Y-106968028D01*
X126701614Y-106847715D01*
X126695006Y-106844348D01*
X126608917Y-106800483D01*
X126558123Y-106752511D01*
X126541328Y-106684690D01*
X126563865Y-106618555D01*
X126608917Y-106579516D01*
X126701610Y-106532287D01*
X126722770Y-106516913D01*
X126867213Y-106411971D01*
X126867215Y-106411968D01*
X126867219Y-106411966D01*
X127011966Y-106267219D01*
X127011968Y-106267215D01*
X127011971Y-106267213D01*
X127066098Y-106192712D01*
X127132287Y-106101610D01*
X127225220Y-105919219D01*
X127288477Y-105724534D01*
X127320500Y-105522352D01*
X127320500Y-105317648D01*
X127305376Y-105222159D01*
X127288477Y-105115465D01*
X127225218Y-104920776D01*
X127182374Y-104836691D01*
X127132287Y-104738390D01*
X127124556Y-104727749D01*
X127011971Y-104572786D01*
X126867213Y-104428028D01*
X126759792Y-104349983D01*
X130574500Y-104349983D01*
X130574500Y-105650001D01*
X130574501Y-105650018D01*
X130585000Y-105752796D01*
X130585001Y-105752799D01*
X130640148Y-105919219D01*
X130640186Y-105919334D01*
X130692407Y-106003999D01*
X130732289Y-106068657D01*
X130856344Y-106192712D01*
X131011120Y-106288178D01*
X131057845Y-106340126D01*
X131069068Y-106409088D01*
X131041224Y-106473171D01*
X131033706Y-106481398D01*
X130894889Y-106620215D01*
X130769951Y-106792179D01*
X130673444Y-106981585D01*
X130673443Y-106981587D01*
X130673443Y-106981588D01*
X130640598Y-107082672D01*
X130607753Y-107183760D01*
X130581532Y-107349312D01*
X130574500Y-107393713D01*
X130574500Y-107606287D01*
X130607754Y-107816243D01*
X130621207Y-107857648D01*
X130673444Y-108018414D01*
X130769951Y-108207820D01*
X130894890Y-108379786D01*
X131045213Y-108530109D01*
X131217179Y-108655048D01*
X131217181Y-108655049D01*
X131217184Y-108655051D01*
X131406588Y-108751557D01*
X131608757Y-108817246D01*
X131818713Y-108850500D01*
X131818714Y-108850500D01*
X132181286Y-108850500D01*
X132181287Y-108850500D01*
X132391243Y-108817246D01*
X132593412Y-108751557D01*
X132782816Y-108655051D01*
X132804789Y-108639086D01*
X132954786Y-108530109D01*
X132954788Y-108530106D01*
X132954792Y-108530104D01*
X133105104Y-108379792D01*
X133105106Y-108379788D01*
X133105109Y-108379786D01*
X133230048Y-108207820D01*
X133230047Y-108207820D01*
X133230051Y-108207816D01*
X133326557Y-108018412D01*
X133392246Y-107816243D01*
X133425500Y-107606287D01*
X133425500Y-107393713D01*
X133392246Y-107183757D01*
X133326557Y-106981588D01*
X133230051Y-106792184D01*
X133230049Y-106792181D01*
X133230048Y-106792179D01*
X133105109Y-106620213D01*
X132966294Y-106481398D01*
X132932809Y-106420075D01*
X132937793Y-106350383D01*
X132979665Y-106294450D01*
X132988879Y-106288178D01*
X132994331Y-106284814D01*
X132994334Y-106284814D01*
X133143656Y-106192712D01*
X133267712Y-106068656D01*
X133359814Y-105919334D01*
X133414999Y-105752797D01*
X133425500Y-105650009D01*
X133425499Y-104349992D01*
X133414999Y-104247203D01*
X133359814Y-104080666D01*
X133267712Y-103931344D01*
X133143656Y-103807288D01*
X133005148Y-103721856D01*
X132994336Y-103715187D01*
X132994331Y-103715185D01*
X132992862Y-103714698D01*
X132827797Y-103660001D01*
X132827795Y-103660000D01*
X132725010Y-103649500D01*
X131274998Y-103649500D01*
X131274981Y-103649501D01*
X131172203Y-103660000D01*
X131172200Y-103660001D01*
X131005668Y-103715185D01*
X131005663Y-103715187D01*
X130856342Y-103807289D01*
X130732289Y-103931342D01*
X130640187Y-104080663D01*
X130640185Y-104080668D01*
X130617716Y-104148477D01*
X130585001Y-104247203D01*
X130585001Y-104247204D01*
X130585000Y-104247204D01*
X130574500Y-104349983D01*
X126759792Y-104349983D01*
X126701614Y-104307715D01*
X126657612Y-104285295D01*
X126608917Y-104260483D01*
X126558123Y-104212511D01*
X126541328Y-104144690D01*
X126563865Y-104078555D01*
X126608917Y-104039516D01*
X126701610Y-103992287D01*
X126785492Y-103931344D01*
X126867213Y-103871971D01*
X126867215Y-103871968D01*
X126867219Y-103871966D01*
X127011966Y-103727219D01*
X127011968Y-103727215D01*
X127011971Y-103727213D01*
X127068432Y-103649500D01*
X127132287Y-103561610D01*
X127225220Y-103379219D01*
X127288477Y-103184534D01*
X127320500Y-102982352D01*
X127320500Y-102777648D01*
X127305376Y-102682159D01*
X127288477Y-102575465D01*
X127225218Y-102380776D01*
X127182374Y-102296691D01*
X127132287Y-102198390D01*
X127119314Y-102180534D01*
X127011971Y-102032786D01*
X126867213Y-101888028D01*
X126701611Y-101767713D01*
X126608369Y-101720203D01*
X126557574Y-101672229D01*
X126540779Y-101604407D01*
X126563317Y-101538273D01*
X126608371Y-101499234D01*
X126701347Y-101451861D01*
X126866894Y-101331582D01*
X126866895Y-101331582D01*
X127011582Y-101186895D01*
X127011582Y-101186894D01*
X127131859Y-101021349D01*
X127224755Y-100839029D01*
X127287990Y-100644413D01*
X127296609Y-100590000D01*
X125935686Y-100590000D01*
X125940080Y-100585606D01*
X125992741Y-100494394D01*
X126020000Y-100392661D01*
X126020000Y-100287339D01*
X125992741Y-100185606D01*
X125940080Y-100094394D01*
X125935686Y-100090000D01*
X127296609Y-100090000D01*
X127287990Y-100035586D01*
X127224755Y-99840970D01*
X127131859Y-99658650D01*
X127011582Y-99493105D01*
X127011582Y-99493104D01*
X126866895Y-99348417D01*
X126701349Y-99228140D01*
X126519031Y-99135244D01*
X126324417Y-99072009D01*
X126122317Y-99040000D01*
X125870000Y-99040000D01*
X125870000Y-100024314D01*
X125865606Y-100019920D01*
X125774394Y-99967259D01*
X125672661Y-99940000D01*
X125567339Y-99940000D01*
X125465606Y-99967259D01*
X125374394Y-100019920D01*
X125370000Y-100024314D01*
X125370000Y-99040000D01*
X125117683Y-99040000D01*
X124915582Y-99072009D01*
X124720968Y-99135244D01*
X124538650Y-99228140D01*
X124373105Y-99348417D01*
X124373104Y-99348417D01*
X124228417Y-99493104D01*
X124228417Y-99493105D01*
X124108140Y-99658650D01*
X124015244Y-99840970D01*
X123952009Y-100035586D01*
X123943391Y-100090000D01*
X125304314Y-100090000D01*
X125299920Y-100094394D01*
X125247259Y-100185606D01*
X125220000Y-100287339D01*
X125220000Y-100392661D01*
X125247259Y-100494394D01*
X125299920Y-100585606D01*
X125304314Y-100590000D01*
X123943391Y-100590000D01*
X123952009Y-100644413D01*
X124015244Y-100839029D01*
X124108140Y-101021349D01*
X124228417Y-101186894D01*
X124228417Y-101186895D01*
X124373104Y-101331582D01*
X124538652Y-101451861D01*
X124631628Y-101499234D01*
X124682425Y-101547208D01*
X124699220Y-101615029D01*
X124676683Y-101681164D01*
X124631630Y-101720203D01*
X124538388Y-101767713D01*
X124372786Y-101888028D01*
X124228028Y-102032786D01*
X124107715Y-102198386D01*
X124014781Y-102380776D01*
X123951522Y-102575465D01*
X123919500Y-102777648D01*
X121660496Y-102777648D01*
X122380045Y-102058099D01*
X122432563Y-101979500D01*
X122475858Y-101914705D01*
X122541855Y-101755374D01*
X122575500Y-101586229D01*
X122575500Y-94824499D01*
X122595185Y-94757460D01*
X122647989Y-94711705D01*
X122699500Y-94700499D01*
X123295220Y-94700499D01*
X123295221Y-94700499D01*
X123354832Y-94694091D01*
X123489680Y-94643796D01*
X123604895Y-94557546D01*
X123691145Y-94442331D01*
X123741440Y-94307483D01*
X123747849Y-94247873D01*
X123747848Y-93441655D01*
X123760080Y-93399997D01*
X124642383Y-93399997D01*
X124642383Y-93400002D01*
X124662207Y-93626599D01*
X124662209Y-93626610D01*
X124721079Y-93846317D01*
X124721084Y-93846331D01*
X124817212Y-94052478D01*
X124868323Y-94125472D01*
X125547349Y-93446446D01*
X125547349Y-93452661D01*
X125574608Y-93554394D01*
X125627269Y-93645606D01*
X125701743Y-93720080D01*
X125792955Y-93772741D01*
X125894688Y-93800000D01*
X125900902Y-93800000D01*
X125221875Y-94479025D01*
X125294862Y-94530132D01*
X125294870Y-94530136D01*
X125501017Y-94626264D01*
X125501031Y-94626269D01*
X125720738Y-94685139D01*
X125720749Y-94685141D01*
X125947347Y-94704966D01*
X125947351Y-94704966D01*
X126173948Y-94685141D01*
X126173959Y-94685139D01*
X126393666Y-94626269D01*
X126393680Y-94626264D01*
X126599827Y-94530136D01*
X126672820Y-94479024D01*
X125993796Y-93800000D01*
X126000010Y-93800000D01*
X126101743Y-93772741D01*
X126192955Y-93720080D01*
X126267429Y-93645606D01*
X126320090Y-93554394D01*
X126347349Y-93452661D01*
X126347349Y-93446447D01*
X127026373Y-94125471D01*
X127077485Y-94052478D01*
X127173613Y-93846331D01*
X127173618Y-93846317D01*
X127232488Y-93626610D01*
X127232490Y-93626599D01*
X127252315Y-93400002D01*
X127252315Y-93399997D01*
X127232490Y-93173400D01*
X127232488Y-93173389D01*
X127173618Y-92953682D01*
X127173613Y-92953668D01*
X127077485Y-92747521D01*
X127077481Y-92747513D01*
X127026374Y-92674526D01*
X126347349Y-93353551D01*
X126347349Y-93347339D01*
X126320090Y-93245606D01*
X126267429Y-93154394D01*
X126192955Y-93079920D01*
X126101743Y-93027259D01*
X126000010Y-93000000D01*
X125993797Y-93000000D01*
X126672821Y-92320974D01*
X126599827Y-92269863D01*
X126393680Y-92173735D01*
X126393666Y-92173730D01*
X126173959Y-92114860D01*
X126173948Y-92114858D01*
X125947351Y-92095034D01*
X125947347Y-92095034D01*
X125720749Y-92114858D01*
X125720738Y-92114860D01*
X125501031Y-92173730D01*
X125501022Y-92173734D01*
X125294865Y-92269866D01*
X125294861Y-92269868D01*
X125221875Y-92320973D01*
X125221875Y-92320974D01*
X125900902Y-93000000D01*
X125894688Y-93000000D01*
X125792955Y-93027259D01*
X125701743Y-93079920D01*
X125627269Y-93154394D01*
X125574608Y-93245606D01*
X125547349Y-93347339D01*
X125547349Y-93353552D01*
X124868323Y-92674526D01*
X124868322Y-92674526D01*
X124817217Y-92747512D01*
X124817215Y-92747516D01*
X124721083Y-92953673D01*
X124721079Y-92953682D01*
X124662209Y-93173389D01*
X124662207Y-93173400D01*
X124642383Y-93399997D01*
X123760080Y-93399997D01*
X123767532Y-93374617D01*
X123784162Y-93353980D01*
X125380045Y-91758099D01*
X125425142Y-91690606D01*
X125475858Y-91614705D01*
X125541855Y-91455374D01*
X125575500Y-91286229D01*
X125575500Y-88569141D01*
X125595185Y-88502102D01*
X125640071Y-88460310D01*
X125723337Y-88414844D01*
X125939535Y-88253000D01*
X126130500Y-88062035D01*
X126292344Y-87845837D01*
X126421772Y-87608807D01*
X126516150Y-87355770D01*
X126573557Y-87091877D01*
X126592823Y-86822500D01*
X126591794Y-86808119D01*
X126588567Y-86762996D01*
X126573557Y-86553123D01*
X126567727Y-86526325D01*
X126516151Y-86289236D01*
X126516150Y-86289230D01*
X126421772Y-86036193D01*
X126398576Y-85993713D01*
X130074500Y-85993713D01*
X130074500Y-86206287D01*
X130107754Y-86416243D01*
X130172011Y-86614006D01*
X130173444Y-86618414D01*
X130269951Y-86807820D01*
X130394890Y-86979786D01*
X130545213Y-87130109D01*
X130717179Y-87255048D01*
X130717181Y-87255049D01*
X130717184Y-87255051D01*
X130906588Y-87351557D01*
X131108757Y-87417246D01*
X131318713Y-87450500D01*
X131318714Y-87450500D01*
X131681286Y-87450500D01*
X131681287Y-87450500D01*
X131891243Y-87417246D01*
X132093412Y-87351557D01*
X132282816Y-87255051D01*
X132358906Y-87199769D01*
X132454786Y-87130109D01*
X132454788Y-87130106D01*
X132454792Y-87130104D01*
X132605104Y-86979792D01*
X132605106Y-86979788D01*
X132605109Y-86979786D01*
X132719382Y-86822501D01*
X132730051Y-86807816D01*
X132826557Y-86618412D01*
X132892246Y-86416243D01*
X132925500Y-86206287D01*
X132925500Y-85993713D01*
X132892246Y-85783757D01*
X132826557Y-85581588D01*
X132730051Y-85392184D01*
X132730049Y-85392181D01*
X132730048Y-85392179D01*
X132605109Y-85220213D01*
X132465931Y-85081035D01*
X132432446Y-85019712D01*
X132437430Y-84950020D01*
X132479302Y-84894087D01*
X132488516Y-84887815D01*
X132643343Y-84792317D01*
X132767315Y-84668345D01*
X132859356Y-84519124D01*
X132859358Y-84519119D01*
X132914505Y-84352697D01*
X132914506Y-84352690D01*
X132924999Y-84249986D01*
X132925000Y-84249973D01*
X132925000Y-83850000D01*
X131846410Y-83850000D01*
X131896037Y-83764044D01*
X131925000Y-83655952D01*
X131925000Y-83544048D01*
X131896037Y-83435956D01*
X131846410Y-83350000D01*
X132924999Y-83350000D01*
X132924999Y-82950028D01*
X132924998Y-82950013D01*
X132914505Y-82847302D01*
X132859358Y-82680880D01*
X132859356Y-82680875D01*
X132767315Y-82531654D01*
X132643345Y-82407684D01*
X132494124Y-82315643D01*
X132494119Y-82315641D01*
X132327697Y-82260494D01*
X132327690Y-82260493D01*
X132224986Y-82250000D01*
X131750000Y-82250000D01*
X131750000Y-83253590D01*
X131664044Y-83203963D01*
X131555952Y-83175000D01*
X131444048Y-83175000D01*
X131335956Y-83203963D01*
X131250000Y-83253590D01*
X131250000Y-82250000D01*
X130775028Y-82250000D01*
X130775012Y-82250001D01*
X130672302Y-82260494D01*
X130505880Y-82315641D01*
X130505875Y-82315643D01*
X130356654Y-82407684D01*
X130232684Y-82531654D01*
X130140643Y-82680875D01*
X130140641Y-82680880D01*
X130085494Y-82847302D01*
X130085493Y-82847309D01*
X130075000Y-82950013D01*
X130075000Y-83350000D01*
X131153590Y-83350000D01*
X131103963Y-83435956D01*
X131075000Y-83544048D01*
X131075000Y-83655952D01*
X131103963Y-83764044D01*
X131153590Y-83850000D01*
X130075001Y-83850000D01*
X130075001Y-84249986D01*
X130085494Y-84352697D01*
X130140641Y-84519119D01*
X130140643Y-84519124D01*
X130232684Y-84668345D01*
X130356654Y-84792315D01*
X130511484Y-84887815D01*
X130558208Y-84939763D01*
X130569431Y-85008726D01*
X130541587Y-85072808D01*
X130534069Y-85081035D01*
X130394889Y-85220215D01*
X130269951Y-85392179D01*
X130173444Y-85581585D01*
X130173443Y-85581587D01*
X130173443Y-85581588D01*
X130159269Y-85625211D01*
X130107753Y-85783760D01*
X130074500Y-85993713D01*
X126398576Y-85993713D01*
X126346175Y-85897748D01*
X126292347Y-85799168D01*
X126292342Y-85799160D01*
X126130506Y-85582972D01*
X126130490Y-85582954D01*
X125939545Y-85392009D01*
X125939527Y-85391993D01*
X125723339Y-85230157D01*
X125723331Y-85230152D01*
X125486312Y-85100730D01*
X125486308Y-85100728D01*
X125390377Y-85064948D01*
X125233270Y-85006350D01*
X125233266Y-85006349D01*
X125233263Y-85006348D01*
X124969382Y-84948943D01*
X124700001Y-84929677D01*
X124699999Y-84929677D01*
X124430617Y-84948943D01*
X124166736Y-85006348D01*
X124166731Y-85006349D01*
X124166730Y-85006350D01*
X124160360Y-85008726D01*
X123913691Y-85100728D01*
X123913687Y-85100730D01*
X123676668Y-85230152D01*
X123676660Y-85230157D01*
X123460472Y-85391993D01*
X123460454Y-85392009D01*
X123269509Y-85582954D01*
X123269493Y-85582972D01*
X123107657Y-85799160D01*
X123107652Y-85799168D01*
X122978230Y-86036187D01*
X122978228Y-86036191D01*
X122883848Y-86289236D01*
X122826443Y-86553117D01*
X122807177Y-86822498D01*
X122807177Y-86822501D01*
X122826443Y-87091882D01*
X122883848Y-87355763D01*
X122883850Y-87355770D01*
X122942448Y-87512877D01*
X122978228Y-87608808D01*
X122978230Y-87608812D01*
X123107652Y-87845831D01*
X123107657Y-87845839D01*
X123269493Y-88062027D01*
X123269509Y-88062045D01*
X123460454Y-88252990D01*
X123460472Y-88253006D01*
X123654023Y-88397896D01*
X123676663Y-88414844D01*
X123759928Y-88460310D01*
X123809332Y-88509713D01*
X123824500Y-88569141D01*
X123824500Y-90785993D01*
X123804815Y-90853032D01*
X123788181Y-90873674D01*
X122598673Y-92063181D01*
X122537350Y-92096666D01*
X122510992Y-92099500D01*
X121599478Y-92099500D01*
X121599472Y-92099501D01*
X121539865Y-92105908D01*
X121405020Y-92156202D01*
X121405013Y-92156206D01*
X121289804Y-92242452D01*
X121289801Y-92242455D01*
X121203555Y-92357664D01*
X121203551Y-92357671D01*
X121153257Y-92492517D01*
X121146850Y-92552116D01*
X121146849Y-92552135D01*
X121146849Y-93463644D01*
X121127164Y-93530683D01*
X121110530Y-93551325D01*
X121019957Y-93641897D01*
X121019954Y-93641901D01*
X120924145Y-93785288D01*
X120924138Y-93785301D01*
X120858146Y-93944621D01*
X120858143Y-93944633D01*
X120824500Y-94113766D01*
X120824500Y-101085994D01*
X120804815Y-101153033D01*
X120788181Y-101173675D01*
X119993675Y-101968181D01*
X119932352Y-102001666D01*
X119905994Y-102004500D01*
X119415047Y-102004500D01*
X119348008Y-101984815D01*
X119327366Y-101968181D01*
X119247217Y-101888032D01*
X119247212Y-101888028D01*
X119210325Y-101861228D01*
X119167659Y-101805898D01*
X119161680Y-101736285D01*
X119194286Y-101674490D01*
X119255124Y-101640133D01*
X119269956Y-101637620D01*
X119307379Y-101633596D01*
X119442086Y-101583354D01*
X119442093Y-101583350D01*
X119557187Y-101497190D01*
X119557190Y-101497187D01*
X119643350Y-101382093D01*
X119643354Y-101382086D01*
X119693596Y-101247379D01*
X119693598Y-101247372D01*
X119699999Y-101187844D01*
X119700000Y-101187827D01*
X119700000Y-100590000D01*
X118315686Y-100590000D01*
X118320080Y-100585606D01*
X118372741Y-100494394D01*
X118400000Y-100392661D01*
X118400000Y-100287339D01*
X118372741Y-100185606D01*
X118320080Y-100094394D01*
X118315686Y-100090000D01*
X119700000Y-100090000D01*
X119700000Y-99492172D01*
X119699999Y-99492155D01*
X119693598Y-99432627D01*
X119693596Y-99432620D01*
X119643354Y-99297913D01*
X119643350Y-99297906D01*
X119557190Y-99182812D01*
X119557187Y-99182809D01*
X119442093Y-99096649D01*
X119442086Y-99096645D01*
X119307379Y-99046403D01*
X119307372Y-99046401D01*
X119247844Y-99040000D01*
X118250000Y-99040000D01*
X118250000Y-100024314D01*
X118245606Y-100019920D01*
X118154394Y-99967259D01*
X118052661Y-99940000D01*
X117947339Y-99940000D01*
X117845606Y-99967259D01*
X117754394Y-100019920D01*
X117750000Y-100024314D01*
X117750000Y-99040000D01*
X116752155Y-99040000D01*
X116692627Y-99046401D01*
X116692620Y-99046403D01*
X116557913Y-99096645D01*
X116557906Y-99096649D01*
X116442812Y-99182809D01*
X116442809Y-99182812D01*
X116356649Y-99297906D01*
X116356645Y-99297913D01*
X116306403Y-99432620D01*
X116306401Y-99432627D01*
X116300000Y-99492155D01*
X116300000Y-100090000D01*
X117684314Y-100090000D01*
X117679920Y-100094394D01*
X117627259Y-100185606D01*
X117600000Y-100287339D01*
X117600000Y-100392661D01*
X117627259Y-100494394D01*
X117679920Y-100585606D01*
X117684314Y-100590000D01*
X116300000Y-100590000D01*
X116300000Y-101187844D01*
X116306401Y-101247372D01*
X116306403Y-101247379D01*
X116356645Y-101382086D01*
X116356649Y-101382093D01*
X116442809Y-101497187D01*
X116442812Y-101497190D01*
X116557906Y-101583350D01*
X116557913Y-101583354D01*
X116692620Y-101633596D01*
X116730043Y-101637620D01*
X116794595Y-101664358D01*
X116834443Y-101721750D01*
X116836937Y-101791576D01*
X116801285Y-101851665D01*
X116789675Y-101861227D01*
X116752789Y-101888026D01*
X116752782Y-101888032D01*
X116672634Y-101968181D01*
X116611311Y-102001666D01*
X116584953Y-102004500D01*
X114433768Y-102004500D01*
X114264633Y-102038143D01*
X114264621Y-102038146D01*
X114105299Y-102104139D01*
X114105297Y-102104140D01*
X113990965Y-102180534D01*
X113990964Y-102180536D01*
X113964249Y-102198386D01*
X113961895Y-102199959D01*
X112512356Y-103649500D01*
X112141901Y-104019955D01*
X112108823Y-104053033D01*
X112019953Y-104141902D01*
X111924145Y-104285288D01*
X111924138Y-104285301D01*
X111858146Y-104444621D01*
X111858143Y-104444633D01*
X111824500Y-104613766D01*
X111824500Y-106685994D01*
X111804815Y-106753033D01*
X111788181Y-106773675D01*
X109473675Y-109088181D01*
X109412352Y-109121666D01*
X109385994Y-109124500D01*
X98813007Y-109124500D01*
X98745968Y-109104815D01*
X98700213Y-109052011D01*
X98690269Y-108982853D01*
X98719294Y-108919297D01*
X98725326Y-108912819D01*
X102680042Y-104958102D01*
X102680045Y-104958099D01*
X102775858Y-104814705D01*
X102841855Y-104655374D01*
X102875500Y-104486229D01*
X102875500Y-104313771D01*
X102875500Y-86614006D01*
X102895185Y-86546967D01*
X102911819Y-86526325D01*
X105382325Y-84055819D01*
X105443648Y-84022334D01*
X105470006Y-84019500D01*
X106840536Y-84019500D01*
X106907575Y-84039185D01*
X106928217Y-84055819D01*
X106948157Y-84075759D01*
X106948163Y-84075764D01*
X107121831Y-84197368D01*
X107121833Y-84197369D01*
X107121836Y-84197371D01*
X107313991Y-84286974D01*
X107318496Y-84288181D01*
X107341051Y-84294225D01*
X107400711Y-84330591D01*
X107431240Y-84393438D01*
X107422945Y-84462813D01*
X107378459Y-84516691D01*
X107341051Y-84533775D01*
X107313996Y-84541024D01*
X107313989Y-84541027D01*
X107121835Y-84630629D01*
X107121831Y-84630631D01*
X106948163Y-84752235D01*
X106948157Y-84752240D01*
X106798240Y-84902157D01*
X106798235Y-84902163D01*
X106676631Y-85075831D01*
X106676629Y-85075835D01*
X106587027Y-85267989D01*
X106587023Y-85267998D01*
X106532152Y-85472781D01*
X106532150Y-85472791D01*
X106513672Y-85683999D01*
X106513672Y-85684000D01*
X106532150Y-85895208D01*
X106532152Y-85895218D01*
X106587023Y-86100001D01*
X106587025Y-86100005D01*
X106587026Y-86100009D01*
X106636584Y-86206286D01*
X106676629Y-86292164D01*
X106676631Y-86292168D01*
X106798235Y-86465836D01*
X106798240Y-86465842D01*
X106948157Y-86615759D01*
X106948163Y-86615764D01*
X107121831Y-86737368D01*
X107121833Y-86737369D01*
X107121836Y-86737371D01*
X107313991Y-86826974D01*
X107328717Y-86830919D01*
X107341051Y-86834225D01*
X107400711Y-86870591D01*
X107431240Y-86933438D01*
X107422945Y-87002813D01*
X107378459Y-87056691D01*
X107341051Y-87073775D01*
X107313996Y-87081024D01*
X107313989Y-87081027D01*
X107121835Y-87170629D01*
X107121831Y-87170631D01*
X106948163Y-87292235D01*
X106948157Y-87292240D01*
X106798240Y-87442157D01*
X106798235Y-87442163D01*
X106676631Y-87615831D01*
X106676629Y-87615835D01*
X106587027Y-87807989D01*
X106587023Y-87807998D01*
X106532152Y-88012781D01*
X106532150Y-88012791D01*
X106513672Y-88223999D01*
X106513672Y-88224000D01*
X106532150Y-88435208D01*
X106532152Y-88435218D01*
X106587023Y-88640001D01*
X106587025Y-88640005D01*
X106587026Y-88640009D01*
X106641072Y-88755911D01*
X106676629Y-88832164D01*
X106676631Y-88832168D01*
X106798235Y-89005836D01*
X106798240Y-89005842D01*
X106948157Y-89155759D01*
X106948163Y-89155764D01*
X107121831Y-89277368D01*
X107121833Y-89277369D01*
X107121836Y-89277371D01*
X107313991Y-89366974D01*
X107328717Y-89370919D01*
X107341051Y-89374225D01*
X107400711Y-89410591D01*
X107431240Y-89473438D01*
X107422945Y-89542813D01*
X107378459Y-89596691D01*
X107341051Y-89613775D01*
X107313996Y-89621024D01*
X107313989Y-89621027D01*
X107121835Y-89710629D01*
X107121831Y-89710631D01*
X106948163Y-89832235D01*
X106948157Y-89832240D01*
X106798240Y-89982157D01*
X106798235Y-89982163D01*
X106676631Y-90155831D01*
X106676629Y-90155835D01*
X106587027Y-90347989D01*
X106587023Y-90347998D01*
X106532152Y-90552781D01*
X106532150Y-90552791D01*
X106513672Y-90763999D01*
X106513672Y-90764000D01*
X106532150Y-90975208D01*
X106532152Y-90975218D01*
X106587023Y-91180001D01*
X106587025Y-91180005D01*
X106587026Y-91180009D01*
X106646765Y-91308120D01*
X106676629Y-91372164D01*
X106676631Y-91372168D01*
X106798235Y-91545836D01*
X106798240Y-91545842D01*
X106948157Y-91695759D01*
X106948163Y-91695764D01*
X107121831Y-91817368D01*
X107121833Y-91817369D01*
X107121836Y-91817371D01*
X107313991Y-91906974D01*
X107328717Y-91910919D01*
X107341051Y-91914225D01*
X107400711Y-91950591D01*
X107431240Y-92013438D01*
X107422945Y-92082813D01*
X107378459Y-92136691D01*
X107341051Y-92153775D01*
X107313996Y-92161024D01*
X107313989Y-92161027D01*
X107121835Y-92250629D01*
X107121831Y-92250631D01*
X106948163Y-92372235D01*
X106948157Y-92372240D01*
X106798240Y-92522157D01*
X106798235Y-92522163D01*
X106676631Y-92695831D01*
X106676629Y-92695835D01*
X106587027Y-92887989D01*
X106587023Y-92887998D01*
X106532152Y-93092781D01*
X106532150Y-93092791D01*
X106513672Y-93303999D01*
X106513672Y-93304000D01*
X106532150Y-93515208D01*
X106532152Y-93515218D01*
X106587023Y-93720001D01*
X106587025Y-93720005D01*
X106587026Y-93720009D01*
X106645924Y-93846317D01*
X106676629Y-93912164D01*
X106676631Y-93912168D01*
X106798235Y-94085836D01*
X106798240Y-94085842D01*
X106948157Y-94235759D01*
X106948163Y-94235764D01*
X107121831Y-94357368D01*
X107121833Y-94357369D01*
X107121836Y-94357371D01*
X107313991Y-94446974D01*
X107328717Y-94450919D01*
X107341051Y-94454225D01*
X107400711Y-94490591D01*
X107431240Y-94553438D01*
X107422945Y-94622813D01*
X107378459Y-94676691D01*
X107341051Y-94693775D01*
X107313996Y-94701024D01*
X107313989Y-94701027D01*
X107121835Y-94790629D01*
X107121831Y-94790631D01*
X106948163Y-94912235D01*
X106948157Y-94912240D01*
X106798240Y-95062157D01*
X106798235Y-95062163D01*
X106676631Y-95235831D01*
X106676629Y-95235835D01*
X106587027Y-95427989D01*
X106587023Y-95427998D01*
X106532152Y-95632781D01*
X106532150Y-95632791D01*
X106513672Y-95843999D01*
X106513672Y-95844000D01*
X106532150Y-96055208D01*
X106532152Y-96055218D01*
X106587023Y-96260001D01*
X106587025Y-96260005D01*
X106587026Y-96260009D01*
X106639601Y-96372756D01*
X106676629Y-96452164D01*
X106676631Y-96452168D01*
X106798235Y-96625836D01*
X106798240Y-96625842D01*
X106948157Y-96775759D01*
X106948163Y-96775764D01*
X107121831Y-96897368D01*
X107121833Y-96897369D01*
X107121836Y-96897371D01*
X107313991Y-96986974D01*
X107328717Y-96990919D01*
X107341051Y-96994225D01*
X107400711Y-97030591D01*
X107431240Y-97093438D01*
X107422945Y-97162813D01*
X107378459Y-97216691D01*
X107341051Y-97233775D01*
X107313996Y-97241024D01*
X107313989Y-97241027D01*
X107121835Y-97330629D01*
X107121831Y-97330631D01*
X106948163Y-97452235D01*
X106948157Y-97452240D01*
X106798240Y-97602157D01*
X106798235Y-97602163D01*
X106676631Y-97775831D01*
X106676629Y-97775835D01*
X106587027Y-97967989D01*
X106587023Y-97967998D01*
X106532152Y-98172781D01*
X106532150Y-98172791D01*
X106513672Y-98383999D01*
X106513672Y-98384000D01*
X106532150Y-98595208D01*
X106532152Y-98595218D01*
X106587023Y-98800001D01*
X106587025Y-98800005D01*
X106587026Y-98800009D01*
X106676629Y-98992164D01*
X106676631Y-98992168D01*
X106798235Y-99165836D01*
X106798240Y-99165842D01*
X106948157Y-99315759D01*
X106948163Y-99315764D01*
X107121831Y-99437368D01*
X107121833Y-99437369D01*
X107121836Y-99437371D01*
X107313991Y-99526974D01*
X107328717Y-99530919D01*
X107341051Y-99534225D01*
X107400711Y-99570591D01*
X107431240Y-99633438D01*
X107422945Y-99702813D01*
X107378459Y-99756691D01*
X107341051Y-99773775D01*
X107313996Y-99781024D01*
X107313989Y-99781027D01*
X107121835Y-99870629D01*
X107121831Y-99870631D01*
X106948163Y-99992235D01*
X106948157Y-99992240D01*
X106798240Y-100142157D01*
X106798235Y-100142163D01*
X106676631Y-100315831D01*
X106676629Y-100315835D01*
X106587027Y-100507989D01*
X106587023Y-100507998D01*
X106532152Y-100712781D01*
X106532150Y-100712791D01*
X106513672Y-100923999D01*
X106513672Y-100924000D01*
X106532150Y-101135208D01*
X106532152Y-101135218D01*
X106587023Y-101340001D01*
X106587025Y-101340005D01*
X106587026Y-101340009D01*
X106661274Y-101499234D01*
X106676629Y-101532164D01*
X106676631Y-101532168D01*
X106798235Y-101705836D01*
X106798240Y-101705842D01*
X106948157Y-101855759D01*
X106948163Y-101855764D01*
X107121831Y-101977368D01*
X107121833Y-101977369D01*
X107121836Y-101977371D01*
X107313991Y-102066974D01*
X107328717Y-102070919D01*
X107341051Y-102074225D01*
X107400711Y-102110591D01*
X107431240Y-102173438D01*
X107422945Y-102242813D01*
X107378459Y-102296691D01*
X107341051Y-102313775D01*
X107313996Y-102321024D01*
X107313989Y-102321027D01*
X107121835Y-102410629D01*
X107121831Y-102410631D01*
X106948163Y-102532235D01*
X106948157Y-102532240D01*
X106798240Y-102682157D01*
X106798235Y-102682163D01*
X106676631Y-102855831D01*
X106676629Y-102855835D01*
X106587027Y-103047989D01*
X106587023Y-103047998D01*
X106532152Y-103252781D01*
X106532150Y-103252791D01*
X106513672Y-103463999D01*
X106513672Y-103464000D01*
X106532150Y-103675208D01*
X106532152Y-103675218D01*
X106587023Y-103880001D01*
X106587025Y-103880005D01*
X106587026Y-103880009D01*
X106639382Y-103992287D01*
X106676629Y-104072164D01*
X106676631Y-104072168D01*
X106798235Y-104245836D01*
X106798240Y-104245842D01*
X106948157Y-104395759D01*
X106948163Y-104395764D01*
X107121831Y-104517368D01*
X107121833Y-104517369D01*
X107121836Y-104517371D01*
X107313991Y-104606974D01*
X107313997Y-104606975D01*
X107313998Y-104606976D01*
X107341052Y-104614225D01*
X107518787Y-104661849D01*
X107687757Y-104676632D01*
X107729999Y-104680328D01*
X107730000Y-104680328D01*
X107730001Y-104680328D01*
X107765202Y-104677248D01*
X107941213Y-104661849D01*
X108146009Y-104606974D01*
X108338164Y-104517371D01*
X108511841Y-104395761D01*
X108661761Y-104245841D01*
X108783371Y-104072164D01*
X108872974Y-103880009D01*
X108927849Y-103675213D01*
X108946328Y-103464000D01*
X108927849Y-103252787D01*
X108872974Y-103047991D01*
X108783371Y-102855836D01*
X108783369Y-102855833D01*
X108783368Y-102855831D01*
X108661764Y-102682163D01*
X108661759Y-102682157D01*
X108511842Y-102532240D01*
X108511836Y-102532235D01*
X108338168Y-102410631D01*
X108338164Y-102410629D01*
X108146009Y-102321026D01*
X108146005Y-102321025D01*
X108146001Y-102321023D01*
X108118949Y-102313775D01*
X108059288Y-102277410D01*
X108028759Y-102214563D01*
X108037054Y-102145188D01*
X108081539Y-102091310D01*
X108118949Y-102074225D01*
X108136930Y-102069406D01*
X108146009Y-102066974D01*
X108338164Y-101977371D01*
X108511841Y-101855761D01*
X108661761Y-101705841D01*
X108783371Y-101532164D01*
X108872974Y-101340009D01*
X108927849Y-101135213D01*
X108946328Y-100924000D01*
X108927849Y-100712787D01*
X108872974Y-100507991D01*
X108783371Y-100315836D01*
X108783369Y-100315833D01*
X108783368Y-100315831D01*
X108661764Y-100142163D01*
X108661759Y-100142157D01*
X108511842Y-99992240D01*
X108511836Y-99992235D01*
X108338168Y-99870631D01*
X108338164Y-99870629D01*
X108284585Y-99845645D01*
X108146009Y-99781026D01*
X108146005Y-99781025D01*
X108146001Y-99781023D01*
X108118949Y-99773775D01*
X108059288Y-99737410D01*
X108028759Y-99674563D01*
X108037054Y-99605188D01*
X108081539Y-99551310D01*
X108118949Y-99534225D01*
X108136930Y-99529406D01*
X108146009Y-99526974D01*
X108338164Y-99437371D01*
X108511841Y-99315761D01*
X108661761Y-99165841D01*
X108783371Y-98992164D01*
X108872974Y-98800009D01*
X108927849Y-98595213D01*
X108946328Y-98384000D01*
X108927849Y-98172787D01*
X108879494Y-97992323D01*
X108872976Y-97967998D01*
X108872975Y-97967997D01*
X108872974Y-97967991D01*
X108783371Y-97775836D01*
X108783369Y-97775833D01*
X108783368Y-97775831D01*
X108661764Y-97602163D01*
X108661759Y-97602157D01*
X108511842Y-97452240D01*
X108511836Y-97452235D01*
X108338168Y-97330631D01*
X108338164Y-97330629D01*
X108283955Y-97305351D01*
X108146009Y-97241026D01*
X108146005Y-97241025D01*
X108146001Y-97241023D01*
X108118949Y-97233775D01*
X108059288Y-97197410D01*
X108028759Y-97134563D01*
X108037054Y-97065188D01*
X108081539Y-97011310D01*
X108118949Y-96994225D01*
X108136930Y-96989406D01*
X108146009Y-96986974D01*
X108338164Y-96897371D01*
X108511841Y-96775761D01*
X108661761Y-96625841D01*
X108783371Y-96452164D01*
X108872974Y-96260009D01*
X108927849Y-96055213D01*
X108946328Y-95844000D01*
X108927849Y-95632787D01*
X108872974Y-95427991D01*
X108783371Y-95235836D01*
X108783369Y-95235833D01*
X108783368Y-95235831D01*
X108661764Y-95062163D01*
X108661759Y-95062157D01*
X108511842Y-94912240D01*
X108511836Y-94912235D01*
X108338168Y-94790631D01*
X108338164Y-94790629D01*
X108146009Y-94701026D01*
X108146005Y-94701025D01*
X108146001Y-94701023D01*
X108118949Y-94693775D01*
X108059288Y-94657410D01*
X108028759Y-94594563D01*
X108037054Y-94525188D01*
X108081539Y-94471310D01*
X108118949Y-94454225D01*
X108136930Y-94449406D01*
X108146009Y-94446974D01*
X108338164Y-94357371D01*
X108511841Y-94235761D01*
X108661761Y-94085841D01*
X108783371Y-93912164D01*
X108872974Y-93720009D01*
X108927849Y-93515213D01*
X108946328Y-93304000D01*
X108927849Y-93092787D01*
X108872974Y-92887991D01*
X108783371Y-92695836D01*
X108783369Y-92695833D01*
X108783368Y-92695831D01*
X108661764Y-92522163D01*
X108661759Y-92522157D01*
X108511842Y-92372240D01*
X108511836Y-92372235D01*
X108338168Y-92250631D01*
X108338164Y-92250629D01*
X108320635Y-92242455D01*
X108146009Y-92161026D01*
X108146005Y-92161025D01*
X108146001Y-92161023D01*
X108118949Y-92153775D01*
X108059288Y-92117410D01*
X108028759Y-92054563D01*
X108037054Y-91985188D01*
X108081539Y-91931310D01*
X108118949Y-91914225D01*
X108136930Y-91909406D01*
X108146009Y-91906974D01*
X108338164Y-91817371D01*
X108511841Y-91695761D01*
X108661761Y-91545841D01*
X108783371Y-91372164D01*
X108872974Y-91180009D01*
X108927849Y-90975213D01*
X108946328Y-90764000D01*
X108927849Y-90552787D01*
X108872974Y-90347991D01*
X108783371Y-90155836D01*
X108783369Y-90155833D01*
X108783368Y-90155831D01*
X108661764Y-89982163D01*
X108661759Y-89982157D01*
X108511842Y-89832240D01*
X108511836Y-89832235D01*
X108338168Y-89710631D01*
X108338164Y-89710629D01*
X108146009Y-89621026D01*
X108146005Y-89621025D01*
X108146001Y-89621023D01*
X108118949Y-89613775D01*
X108059288Y-89577410D01*
X108028759Y-89514563D01*
X108037054Y-89445188D01*
X108081539Y-89391310D01*
X108118949Y-89374225D01*
X108136930Y-89369406D01*
X108146009Y-89366974D01*
X108338164Y-89277371D01*
X108511841Y-89155761D01*
X108661761Y-89005841D01*
X108783371Y-88832164D01*
X108872974Y-88640009D01*
X108927849Y-88435213D01*
X108946328Y-88224000D01*
X108927849Y-88012787D01*
X108872974Y-87807991D01*
X108783371Y-87615836D01*
X108783369Y-87615833D01*
X108783368Y-87615831D01*
X108661764Y-87442163D01*
X108661759Y-87442157D01*
X108511842Y-87292240D01*
X108511836Y-87292235D01*
X108338168Y-87170631D01*
X108338164Y-87170629D01*
X108146009Y-87081026D01*
X108146005Y-87081025D01*
X108146001Y-87081023D01*
X108118949Y-87073775D01*
X108059288Y-87037410D01*
X108028759Y-86974563D01*
X108037054Y-86905188D01*
X108081539Y-86851310D01*
X108118949Y-86834225D01*
X108141187Y-86828266D01*
X108146009Y-86826974D01*
X108338164Y-86737371D01*
X108511841Y-86615761D01*
X108661761Y-86465841D01*
X108783371Y-86292164D01*
X108872974Y-86100009D01*
X108927849Y-85895213D01*
X108946328Y-85684000D01*
X108927849Y-85472787D01*
X108904899Y-85387135D01*
X113412000Y-85387135D01*
X113412000Y-88257870D01*
X113412001Y-88257876D01*
X113418408Y-88317483D01*
X113468702Y-88452328D01*
X113468706Y-88452335D01*
X113554952Y-88567544D01*
X113554955Y-88567547D01*
X113670164Y-88653793D01*
X113670171Y-88653797D01*
X113805017Y-88704091D01*
X113805016Y-88704091D01*
X113811944Y-88704835D01*
X113864627Y-88710500D01*
X116735372Y-88710499D01*
X116794983Y-88704091D01*
X116929831Y-88653796D01*
X117045046Y-88567546D01*
X117131296Y-88452331D01*
X117181591Y-88317483D01*
X117188000Y-88257873D01*
X117187999Y-86822498D01*
X118107177Y-86822498D01*
X118107177Y-86822501D01*
X118126443Y-87091882D01*
X118183848Y-87355763D01*
X118183850Y-87355770D01*
X118242448Y-87512877D01*
X118278228Y-87608808D01*
X118278230Y-87608812D01*
X118407652Y-87845831D01*
X118407657Y-87845839D01*
X118569493Y-88062027D01*
X118569509Y-88062045D01*
X118760454Y-88252990D01*
X118760472Y-88253006D01*
X118976660Y-88414842D01*
X118976668Y-88414847D01*
X119213687Y-88544269D01*
X119213691Y-88544271D01*
X119213693Y-88544272D01*
X119466730Y-88638650D01*
X119598676Y-88667353D01*
X119730617Y-88696056D01*
X119730619Y-88696056D01*
X119730623Y-88696057D01*
X119970007Y-88713177D01*
X119999999Y-88715323D01*
X120000000Y-88715323D01*
X120000001Y-88715323D01*
X120026987Y-88713392D01*
X120269377Y-88696057D01*
X120533270Y-88638650D01*
X120786307Y-88544272D01*
X121023337Y-88414844D01*
X121239535Y-88253000D01*
X121430500Y-88062035D01*
X121592344Y-87845837D01*
X121721772Y-87608807D01*
X121816150Y-87355770D01*
X121873557Y-87091877D01*
X121892823Y-86822500D01*
X121891794Y-86808119D01*
X121888567Y-86762996D01*
X121873557Y-86553123D01*
X121867727Y-86526325D01*
X121816151Y-86289236D01*
X121816150Y-86289230D01*
X121721772Y-86036193D01*
X121646175Y-85897748D01*
X121592347Y-85799168D01*
X121592342Y-85799160D01*
X121430506Y-85582972D01*
X121430490Y-85582954D01*
X121239545Y-85392009D01*
X121239527Y-85391993D01*
X121023339Y-85230157D01*
X121023331Y-85230152D01*
X120786312Y-85100730D01*
X120786308Y-85100728D01*
X120690377Y-85064948D01*
X120533270Y-85006350D01*
X120533266Y-85006349D01*
X120533263Y-85006348D01*
X120269382Y-84948943D01*
X120000001Y-84929677D01*
X119999999Y-84929677D01*
X119730617Y-84948943D01*
X119466736Y-85006348D01*
X119466731Y-85006349D01*
X119466730Y-85006350D01*
X119460360Y-85008726D01*
X119213691Y-85100728D01*
X119213687Y-85100730D01*
X118976668Y-85230152D01*
X118976660Y-85230157D01*
X118760472Y-85391993D01*
X118760454Y-85392009D01*
X118569509Y-85582954D01*
X118569493Y-85582972D01*
X118407657Y-85799160D01*
X118407652Y-85799168D01*
X118278230Y-86036187D01*
X118278228Y-86036191D01*
X118183848Y-86289236D01*
X118126443Y-86553117D01*
X118107177Y-86822498D01*
X117187999Y-86822498D01*
X117187999Y-85387128D01*
X117181591Y-85327517D01*
X117165177Y-85283510D01*
X117131297Y-85192671D01*
X117131293Y-85192664D01*
X117045047Y-85077455D01*
X117045044Y-85077452D01*
X116929835Y-84991206D01*
X116929828Y-84991202D01*
X116794982Y-84940908D01*
X116794983Y-84940908D01*
X116735383Y-84934501D01*
X116735381Y-84934500D01*
X116735373Y-84934500D01*
X116735364Y-84934500D01*
X113864629Y-84934500D01*
X113864623Y-84934501D01*
X113805016Y-84940908D01*
X113670171Y-84991202D01*
X113670164Y-84991206D01*
X113554955Y-85077452D01*
X113554952Y-85077455D01*
X113468706Y-85192664D01*
X113468702Y-85192671D01*
X113418408Y-85327517D01*
X113412001Y-85387116D01*
X113412001Y-85387123D01*
X113412000Y-85387135D01*
X108904899Y-85387135D01*
X108872974Y-85267991D01*
X108783371Y-85075836D01*
X108783369Y-85075833D01*
X108783368Y-85075831D01*
X108661764Y-84902163D01*
X108661759Y-84902157D01*
X108511842Y-84752240D01*
X108511836Y-84752235D01*
X108338168Y-84630631D01*
X108338164Y-84630629D01*
X108146009Y-84541026D01*
X108146005Y-84541025D01*
X108146001Y-84541023D01*
X108118949Y-84533775D01*
X108059288Y-84497410D01*
X108028759Y-84434563D01*
X108037054Y-84365188D01*
X108081539Y-84311310D01*
X108118949Y-84294225D01*
X108141504Y-84288181D01*
X108146009Y-84286974D01*
X108338164Y-84197371D01*
X108511841Y-84075761D01*
X108661761Y-83925841D01*
X108783371Y-83752164D01*
X108872974Y-83560009D01*
X108927849Y-83355213D01*
X108946328Y-83144000D01*
X108927849Y-82932787D01*
X108872974Y-82727991D01*
X108783371Y-82535836D01*
X108783369Y-82535833D01*
X108783368Y-82535831D01*
X108661764Y-82362163D01*
X108661759Y-82362157D01*
X108511842Y-82212240D01*
X108511836Y-82212235D01*
X108338168Y-82090631D01*
X108338164Y-82090629D01*
X108146009Y-82001026D01*
X108146005Y-82001025D01*
X108146001Y-82001023D01*
X108077896Y-81982775D01*
X108018235Y-81946410D01*
X107987706Y-81883563D01*
X107996001Y-81814188D01*
X108040486Y-81760310D01*
X108107038Y-81739035D01*
X108109989Y-81739000D01*
X108412828Y-81739000D01*
X108412844Y-81738999D01*
X108472372Y-81732598D01*
X108472379Y-81732596D01*
X108607086Y-81682354D01*
X108607093Y-81682350D01*
X108722187Y-81596190D01*
X108722190Y-81596187D01*
X108808350Y-81481093D01*
X108808354Y-81481086D01*
X108858596Y-81346379D01*
X108858598Y-81346372D01*
X108864999Y-81286844D01*
X108865000Y-81286827D01*
X108865000Y-80854000D01*
X108113591Y-80854000D01*
X108156042Y-80780473D01*
X108187200Y-80664192D01*
X108187200Y-80543808D01*
X108156042Y-80427527D01*
X108113591Y-80354000D01*
X108865000Y-80354000D01*
X108865000Y-79921172D01*
X108864999Y-79921155D01*
X108858598Y-79861627D01*
X108858596Y-79861620D01*
X108808354Y-79726913D01*
X108808350Y-79726906D01*
X108722190Y-79611812D01*
X108722187Y-79611809D01*
X108607093Y-79525649D01*
X108607086Y-79525645D01*
X108472379Y-79475403D01*
X108472372Y-79475401D01*
X108412844Y-79469000D01*
X108109989Y-79469000D01*
X108042950Y-79449315D01*
X107997195Y-79396511D01*
X107987251Y-79327353D01*
X108016276Y-79263797D01*
X108075054Y-79226023D01*
X108077896Y-79225225D01*
X108118948Y-79214225D01*
X108146009Y-79206974D01*
X108338164Y-79117371D01*
X108511841Y-78995761D01*
X108661761Y-78845841D01*
X108783371Y-78672164D01*
X108872974Y-78480009D01*
X108927849Y-78275213D01*
X108946328Y-78064000D01*
X108927849Y-77852787D01*
X108872974Y-77647991D01*
X108783371Y-77455836D01*
X108783369Y-77455833D01*
X108783368Y-77455831D01*
X108661764Y-77282163D01*
X108661759Y-77282157D01*
X108511842Y-77132240D01*
X108511836Y-77132235D01*
X108338168Y-77010631D01*
X108338164Y-77010629D01*
X108315353Y-76999992D01*
X108146009Y-76921026D01*
X108146005Y-76921025D01*
X108146001Y-76921023D01*
X107941218Y-76866152D01*
X107941208Y-76866150D01*
X107730001Y-76847672D01*
X107729999Y-76847672D01*
X107518791Y-76866150D01*
X107518781Y-76866152D01*
X107313998Y-76921023D01*
X107313989Y-76921027D01*
X107121835Y-77010629D01*
X107121831Y-77010631D01*
X106948163Y-77132235D01*
X106948157Y-77132240D01*
X106798240Y-77282157D01*
X106798235Y-77282163D01*
X106676631Y-77455831D01*
X106676629Y-77455835D01*
X106587027Y-77647989D01*
X106587023Y-77647998D01*
X106532152Y-77852781D01*
X106532150Y-77852791D01*
X106513672Y-78063999D01*
X106513672Y-78064000D01*
X106532150Y-78275208D01*
X106532152Y-78275218D01*
X106587023Y-78480001D01*
X106587025Y-78480005D01*
X106587026Y-78480009D01*
X106669069Y-78655952D01*
X106676629Y-78672164D01*
X106676631Y-78672168D01*
X106798235Y-78845836D01*
X106798240Y-78845842D01*
X106948157Y-78995759D01*
X106948163Y-78995764D01*
X107121831Y-79117368D01*
X107121833Y-79117369D01*
X107121836Y-79117371D01*
X107313991Y-79206974D01*
X107313997Y-79206975D01*
X107313998Y-79206976D01*
X107382104Y-79225225D01*
X107441765Y-79261590D01*
X107472294Y-79324437D01*
X107463999Y-79393812D01*
X107419514Y-79447690D01*
X107352962Y-79468965D01*
X107350011Y-79469000D01*
X107047155Y-79469000D01*
X106987627Y-79475401D01*
X106987620Y-79475403D01*
X106852913Y-79525645D01*
X106852906Y-79525649D01*
X106737812Y-79611809D01*
X106737809Y-79611812D01*
X106651649Y-79726906D01*
X106651645Y-79726913D01*
X106601403Y-79861620D01*
X106601401Y-79861627D01*
X106595000Y-79921155D01*
X106595000Y-80354000D01*
X107346409Y-80354000D01*
X107303958Y-80427527D01*
X107272800Y-80543808D01*
X107272800Y-80664192D01*
X107303958Y-80780473D01*
X107346409Y-80854000D01*
X106595000Y-80854000D01*
X106595000Y-81286844D01*
X106601401Y-81346372D01*
X106601403Y-81346379D01*
X106651645Y-81481086D01*
X106651649Y-81481093D01*
X106737809Y-81596187D01*
X106737812Y-81596190D01*
X106852906Y-81682350D01*
X106852913Y-81682354D01*
X106987620Y-81732596D01*
X106987627Y-81732598D01*
X107047155Y-81738999D01*
X107047172Y-81739000D01*
X107350011Y-81739000D01*
X107417050Y-81758685D01*
X107462805Y-81811489D01*
X107472749Y-81880647D01*
X107443724Y-81944203D01*
X107384946Y-81981977D01*
X107382104Y-81982775D01*
X107313998Y-82001023D01*
X107313989Y-82001027D01*
X107121835Y-82090629D01*
X107121831Y-82090631D01*
X106948163Y-82212235D01*
X106948157Y-82212240D01*
X106928217Y-82232181D01*
X106866894Y-82265666D01*
X106840536Y-82268500D01*
X104969768Y-82268500D01*
X104800633Y-82302143D01*
X104800621Y-82302146D01*
X104641299Y-82368139D01*
X104641297Y-82368140D01*
X104593458Y-82400106D01*
X104593457Y-82400106D01*
X104497905Y-82463951D01*
X104497897Y-82463957D01*
X102179102Y-84782754D01*
X101441901Y-85519955D01*
X101397810Y-85564046D01*
X101319953Y-85641902D01*
X101224145Y-85785288D01*
X101224138Y-85785301D01*
X101158146Y-85944621D01*
X101158143Y-85944633D01*
X101124500Y-86113766D01*
X101124500Y-103985994D01*
X101104815Y-104053033D01*
X101088181Y-104073675D01*
X97773675Y-107388181D01*
X97712352Y-107421666D01*
X97685994Y-107424500D01*
X92812142Y-107424500D01*
X92745103Y-107404815D01*
X92699348Y-107352011D01*
X92689404Y-107282853D01*
X92718429Y-107219297D01*
X92777207Y-107181523D01*
X92780049Y-107180725D01*
X92822207Y-107169428D01*
X92906009Y-107146974D01*
X93098164Y-107057371D01*
X93271841Y-106935761D01*
X93421761Y-106785841D01*
X93543371Y-106612164D01*
X93632974Y-106420009D01*
X93687849Y-106215213D01*
X93706328Y-106004000D01*
X93687849Y-105792787D01*
X93632974Y-105587991D01*
X93543371Y-105395836D01*
X93543369Y-105395833D01*
X93543368Y-105395831D01*
X93421764Y-105222163D01*
X93421759Y-105222157D01*
X93271842Y-105072240D01*
X93271836Y-105072235D01*
X93098168Y-104950631D01*
X93098164Y-104950629D01*
X92906009Y-104861026D01*
X92906005Y-104861025D01*
X92906001Y-104861023D01*
X92878949Y-104853775D01*
X92819288Y-104817410D01*
X92788759Y-104754563D01*
X92797054Y-104685188D01*
X92841539Y-104631310D01*
X92878949Y-104614225D01*
X92896930Y-104609406D01*
X92906009Y-104606974D01*
X93098164Y-104517371D01*
X93271841Y-104395761D01*
X93421761Y-104245841D01*
X93543371Y-104072164D01*
X93632974Y-103880009D01*
X93687849Y-103675213D01*
X93706328Y-103464000D01*
X93687849Y-103252787D01*
X93632974Y-103047991D01*
X93543371Y-102855836D01*
X93543369Y-102855833D01*
X93543368Y-102855831D01*
X93421764Y-102682163D01*
X93421759Y-102682157D01*
X93271842Y-102532240D01*
X93271836Y-102532235D01*
X93098168Y-102410631D01*
X93098164Y-102410629D01*
X92906009Y-102321026D01*
X92906005Y-102321025D01*
X92906001Y-102321023D01*
X92837896Y-102302775D01*
X92778235Y-102266410D01*
X92747706Y-102203563D01*
X92756001Y-102134188D01*
X92800486Y-102080310D01*
X92867038Y-102059035D01*
X92869989Y-102059000D01*
X93172828Y-102059000D01*
X93172844Y-102058999D01*
X93232372Y-102052598D01*
X93232379Y-102052596D01*
X93367086Y-102002354D01*
X93367093Y-102002350D01*
X93482187Y-101916190D01*
X93482190Y-101916187D01*
X93568350Y-101801093D01*
X93568354Y-101801086D01*
X93618596Y-101666379D01*
X93618598Y-101666372D01*
X93624999Y-101606844D01*
X93625000Y-101606827D01*
X93625000Y-101174000D01*
X92865278Y-101174000D01*
X92909333Y-101097694D01*
X92940000Y-100983244D01*
X92940000Y-100864756D01*
X92909333Y-100750306D01*
X92865278Y-100674000D01*
X93625000Y-100674000D01*
X93625000Y-100241172D01*
X93624999Y-100241155D01*
X93618598Y-100181627D01*
X93618596Y-100181620D01*
X93568354Y-100046913D01*
X93568350Y-100046906D01*
X93482190Y-99931812D01*
X93482187Y-99931809D01*
X93367093Y-99845649D01*
X93367086Y-99845645D01*
X93232379Y-99795403D01*
X93232372Y-99795401D01*
X93172844Y-99789000D01*
X92869989Y-99789000D01*
X92802950Y-99769315D01*
X92757195Y-99716511D01*
X92747251Y-99647353D01*
X92776276Y-99583797D01*
X92835054Y-99546023D01*
X92837896Y-99545225D01*
X92879657Y-99534035D01*
X92906009Y-99526974D01*
X93098164Y-99437371D01*
X93271841Y-99315761D01*
X93421761Y-99165841D01*
X93543371Y-98992164D01*
X93632974Y-98800009D01*
X93687849Y-98595213D01*
X93706328Y-98384000D01*
X93687849Y-98172787D01*
X93639494Y-97992323D01*
X93632976Y-97967998D01*
X93632975Y-97967997D01*
X93632974Y-97967991D01*
X93543371Y-97775836D01*
X93543369Y-97775833D01*
X93543368Y-97775831D01*
X93421764Y-97602163D01*
X93421759Y-97602157D01*
X93271842Y-97452240D01*
X93271836Y-97452235D01*
X93098168Y-97330631D01*
X93098164Y-97330629D01*
X93043955Y-97305351D01*
X92906009Y-97241026D01*
X92906005Y-97241025D01*
X92906001Y-97241023D01*
X92878949Y-97233775D01*
X92819288Y-97197410D01*
X92788759Y-97134563D01*
X92797054Y-97065188D01*
X92841539Y-97011310D01*
X92878949Y-96994225D01*
X92896930Y-96989406D01*
X92906009Y-96986974D01*
X93098164Y-96897371D01*
X93271841Y-96775761D01*
X93421761Y-96625841D01*
X93543371Y-96452164D01*
X93632974Y-96260009D01*
X93687849Y-96055213D01*
X93706328Y-95844000D01*
X93687849Y-95632787D01*
X93632974Y-95427991D01*
X93543371Y-95235836D01*
X93543369Y-95235833D01*
X93543368Y-95235831D01*
X93421764Y-95062163D01*
X93421759Y-95062157D01*
X93271842Y-94912240D01*
X93271836Y-94912235D01*
X93098168Y-94790631D01*
X93098164Y-94790629D01*
X92906009Y-94701026D01*
X92906005Y-94701025D01*
X92906001Y-94701023D01*
X92878949Y-94693775D01*
X92819288Y-94657410D01*
X92788759Y-94594563D01*
X92797054Y-94525188D01*
X92841539Y-94471310D01*
X92878949Y-94454225D01*
X92896930Y-94449406D01*
X92906009Y-94446974D01*
X93098164Y-94357371D01*
X93271841Y-94235761D01*
X93421761Y-94085841D01*
X93543371Y-93912164D01*
X93632974Y-93720009D01*
X93687849Y-93515213D01*
X93706328Y-93304000D01*
X93687849Y-93092787D01*
X93632974Y-92887991D01*
X93543371Y-92695836D01*
X93543369Y-92695833D01*
X93543368Y-92695831D01*
X93421764Y-92522163D01*
X93421759Y-92522157D01*
X93271842Y-92372240D01*
X93271836Y-92372235D01*
X93098168Y-92250631D01*
X93098164Y-92250629D01*
X93080635Y-92242455D01*
X92906009Y-92161026D01*
X92906005Y-92161025D01*
X92906001Y-92161023D01*
X92878949Y-92153775D01*
X92819288Y-92117410D01*
X92788759Y-92054563D01*
X92797054Y-91985188D01*
X92841539Y-91931310D01*
X92878949Y-91914225D01*
X92896930Y-91909406D01*
X92906009Y-91906974D01*
X93098164Y-91817371D01*
X93271841Y-91695761D01*
X93421761Y-91545841D01*
X93543371Y-91372164D01*
X93632974Y-91180009D01*
X93687849Y-90975213D01*
X93706328Y-90764000D01*
X93687849Y-90552787D01*
X93632974Y-90347991D01*
X93543371Y-90155836D01*
X93543369Y-90155833D01*
X93543368Y-90155831D01*
X93421764Y-89982163D01*
X93421759Y-89982157D01*
X93271842Y-89832240D01*
X93271836Y-89832235D01*
X93098168Y-89710631D01*
X93098164Y-89710629D01*
X92906009Y-89621026D01*
X92906005Y-89621025D01*
X92906001Y-89621023D01*
X92878949Y-89613775D01*
X92819288Y-89577410D01*
X92788759Y-89514563D01*
X92797054Y-89445188D01*
X92841539Y-89391310D01*
X92878949Y-89374225D01*
X92896930Y-89369406D01*
X92906009Y-89366974D01*
X93098164Y-89277371D01*
X93271841Y-89155761D01*
X93421761Y-89005841D01*
X93543371Y-88832164D01*
X93632974Y-88640009D01*
X93687849Y-88435213D01*
X93706328Y-88224000D01*
X93687849Y-88012787D01*
X93632974Y-87807991D01*
X93543371Y-87615836D01*
X93543369Y-87615833D01*
X93543368Y-87615831D01*
X93421764Y-87442163D01*
X93421759Y-87442157D01*
X93271842Y-87292240D01*
X93271836Y-87292235D01*
X93098168Y-87170631D01*
X93098164Y-87170629D01*
X92906009Y-87081026D01*
X92906005Y-87081025D01*
X92906001Y-87081023D01*
X92878949Y-87073775D01*
X92819288Y-87037410D01*
X92788759Y-86974563D01*
X92797054Y-86905188D01*
X92841539Y-86851310D01*
X92878949Y-86834225D01*
X92901187Y-86828266D01*
X92906009Y-86826974D01*
X93098164Y-86737371D01*
X93271841Y-86615761D01*
X93421761Y-86465841D01*
X93543371Y-86292164D01*
X93632974Y-86100009D01*
X93687849Y-85895213D01*
X93706328Y-85684000D01*
X93687849Y-85472787D01*
X93632974Y-85267991D01*
X93626772Y-85254690D01*
X93616280Y-85185613D01*
X93644800Y-85121829D01*
X93703277Y-85083590D01*
X93773144Y-85083036D01*
X93805127Y-85097293D01*
X93850475Y-85125788D01*
X94020745Y-85185368D01*
X94020750Y-85185369D01*
X94199996Y-85205565D01*
X94200000Y-85205565D01*
X94200004Y-85205565D01*
X94379249Y-85185369D01*
X94379252Y-85185368D01*
X94379255Y-85185368D01*
X94549522Y-85125789D01*
X94702262Y-85029816D01*
X94829816Y-84902262D01*
X94925789Y-84749522D01*
X94985368Y-84579255D01*
X94988406Y-84552292D01*
X95005565Y-84400003D01*
X95005565Y-84399996D01*
X94985369Y-84220750D01*
X94985368Y-84220745D01*
X94925788Y-84050476D01*
X94829815Y-83897737D01*
X94702262Y-83770184D01*
X94549523Y-83674211D01*
X94379254Y-83614631D01*
X94379249Y-83614630D01*
X94200004Y-83594435D01*
X94199996Y-83594435D01*
X94020750Y-83614630D01*
X94020745Y-83614631D01*
X93850475Y-83674211D01*
X93819663Y-83693572D01*
X93752426Y-83712571D01*
X93685591Y-83692202D01*
X93640378Y-83638934D01*
X93631142Y-83569677D01*
X93633915Y-83556496D01*
X93687849Y-83355213D01*
X93706328Y-83144000D01*
X93687849Y-82932787D01*
X93632974Y-82727991D01*
X93543371Y-82535836D01*
X93543369Y-82535833D01*
X93543368Y-82535831D01*
X93421764Y-82362163D01*
X93421759Y-82362157D01*
X93271842Y-82212240D01*
X93271836Y-82212235D01*
X93098168Y-82090631D01*
X93098164Y-82090629D01*
X92906009Y-82001026D01*
X92906005Y-82001025D01*
X92906001Y-82001023D01*
X92878949Y-81993775D01*
X92819288Y-81957410D01*
X92788759Y-81894563D01*
X92797054Y-81825188D01*
X92841539Y-81771310D01*
X92878949Y-81754225D01*
X92896930Y-81749406D01*
X92906009Y-81746974D01*
X93098164Y-81657371D01*
X93271841Y-81535761D01*
X93421761Y-81385841D01*
X93543371Y-81212164D01*
X93632974Y-81020009D01*
X93687849Y-80815213D01*
X93706328Y-80604000D01*
X93705579Y-80595444D01*
X93687849Y-80392791D01*
X93687849Y-80392787D01*
X93632974Y-80187991D01*
X93543371Y-79995836D01*
X93543369Y-79995833D01*
X93543368Y-79995831D01*
X93421764Y-79822163D01*
X93421759Y-79822157D01*
X93271842Y-79672240D01*
X93271836Y-79672235D01*
X93098168Y-79550631D01*
X93098164Y-79550629D01*
X93056893Y-79531384D01*
X92906009Y-79461026D01*
X92906005Y-79461025D01*
X92906001Y-79461023D01*
X92878949Y-79453775D01*
X92819288Y-79417410D01*
X92788759Y-79354563D01*
X92797054Y-79285188D01*
X92841539Y-79231310D01*
X92878949Y-79214225D01*
X92896930Y-79209406D01*
X92906009Y-79206974D01*
X93098164Y-79117371D01*
X93271841Y-78995761D01*
X93421761Y-78845841D01*
X93543371Y-78672164D01*
X93632974Y-78480009D01*
X93687849Y-78275213D01*
X93706328Y-78064000D01*
X93687849Y-77852787D01*
X93632974Y-77647991D01*
X93543371Y-77455836D01*
X93543369Y-77455833D01*
X93543368Y-77455831D01*
X93421764Y-77282163D01*
X93421759Y-77282157D01*
X93271842Y-77132240D01*
X93271836Y-77132235D01*
X93098168Y-77010631D01*
X93098164Y-77010629D01*
X93075353Y-76999992D01*
X92906009Y-76921026D01*
X92906005Y-76921025D01*
X92906001Y-76921023D01*
X92701218Y-76866152D01*
X92701208Y-76866150D01*
X92490001Y-76847672D01*
X92489999Y-76847672D01*
X92278791Y-76866150D01*
X92278781Y-76866152D01*
X92073998Y-76921023D01*
X92073989Y-76921027D01*
X91881835Y-77010629D01*
X91881831Y-77010631D01*
X91708163Y-77132235D01*
X91708157Y-77132240D01*
X91558240Y-77282157D01*
X91558235Y-77282163D01*
X91436631Y-77455831D01*
X91436629Y-77455835D01*
X91347027Y-77647989D01*
X91347023Y-77647998D01*
X91292152Y-77852781D01*
X91292150Y-77852791D01*
X91273672Y-78063999D01*
X91273672Y-78064000D01*
X91292150Y-78275208D01*
X91292152Y-78275218D01*
X91347023Y-78480001D01*
X91347025Y-78480005D01*
X91347026Y-78480009D01*
X91429069Y-78655952D01*
X91436629Y-78672164D01*
X91436631Y-78672168D01*
X91558235Y-78845836D01*
X91558240Y-78845842D01*
X91708157Y-78995759D01*
X91708163Y-78995764D01*
X91881831Y-79117368D01*
X91881833Y-79117369D01*
X91881836Y-79117371D01*
X92073991Y-79206974D01*
X92088717Y-79210919D01*
X92101051Y-79214225D01*
X92160711Y-79250591D01*
X92191240Y-79313438D01*
X92182945Y-79382813D01*
X92138459Y-79436691D01*
X92101051Y-79453775D01*
X92073996Y-79461024D01*
X92073989Y-79461027D01*
X91881835Y-79550629D01*
X91881831Y-79550631D01*
X91708163Y-79672235D01*
X91708157Y-79672240D01*
X91558240Y-79822157D01*
X91558235Y-79822163D01*
X91436631Y-79995831D01*
X91436629Y-79995835D01*
X91347027Y-80187989D01*
X91347023Y-80187998D01*
X91292152Y-80392781D01*
X91292150Y-80392791D01*
X91273672Y-80603999D01*
X91273672Y-80604000D01*
X91292150Y-80815208D01*
X91292152Y-80815218D01*
X91347023Y-81020001D01*
X91347025Y-81020005D01*
X91347026Y-81020009D01*
X91366234Y-81061200D01*
X91436629Y-81212164D01*
X91436631Y-81212168D01*
X91558235Y-81385836D01*
X91558240Y-81385842D01*
X91708157Y-81535759D01*
X91708163Y-81535764D01*
X91881831Y-81657368D01*
X91881833Y-81657369D01*
X91881836Y-81657371D01*
X92073991Y-81746974D01*
X92088717Y-81750919D01*
X92101051Y-81754225D01*
X92160711Y-81790591D01*
X92191240Y-81853438D01*
X92182945Y-81922813D01*
X92138459Y-81976691D01*
X92101051Y-81993775D01*
X92073996Y-82001024D01*
X92073989Y-82001027D01*
X91881835Y-82090629D01*
X91881831Y-82090631D01*
X91708163Y-82212235D01*
X91708157Y-82212240D01*
X91558240Y-82362157D01*
X91558235Y-82362163D01*
X91436631Y-82535831D01*
X91436629Y-82535835D01*
X91347027Y-82727989D01*
X91347023Y-82727998D01*
X91292152Y-82932781D01*
X91292150Y-82932791D01*
X91273672Y-83143999D01*
X91273672Y-83144000D01*
X91292150Y-83355208D01*
X91292152Y-83355218D01*
X91347023Y-83560001D01*
X91347026Y-83560009D01*
X91376444Y-83623097D01*
X91386936Y-83692172D01*
X91358417Y-83755956D01*
X91299940Y-83794196D01*
X91264062Y-83799500D01*
X90779057Y-83799500D01*
X90620943Y-83799500D01*
X90468215Y-83840423D01*
X90468214Y-83840423D01*
X90468212Y-83840424D01*
X90468209Y-83840425D01*
X90433066Y-83860716D01*
X90433064Y-83860717D01*
X90331290Y-83919475D01*
X90331282Y-83919481D01*
X90219478Y-84031286D01*
X89962584Y-84288181D01*
X89901261Y-84321666D01*
X89874903Y-84324500D01*
X84465004Y-84324500D01*
X84397965Y-84304815D01*
X84359465Y-84265596D01*
X84347968Y-84246956D01*
X84228044Y-84127032D01*
X84228040Y-84127029D01*
X84083705Y-84038001D01*
X84083699Y-84037998D01*
X84083697Y-84037997D01*
X84083694Y-84037996D01*
X83922709Y-83984651D01*
X83823346Y-83974500D01*
X82776662Y-83974500D01*
X82776644Y-83974501D01*
X82677292Y-83984650D01*
X82677289Y-83984651D01*
X82516305Y-84037996D01*
X82516294Y-84038001D01*
X82371959Y-84127029D01*
X82371955Y-84127032D01*
X82252032Y-84246955D01*
X82252029Y-84246959D01*
X82163001Y-84391294D01*
X82162996Y-84391305D01*
X82109651Y-84552290D01*
X82099500Y-84651647D01*
X82099500Y-85198337D01*
X82099501Y-85198355D01*
X82109650Y-85297707D01*
X82109651Y-85297710D01*
X82162996Y-85458694D01*
X82163001Y-85458705D01*
X82227977Y-85564046D01*
X82246418Y-85631438D01*
X82225542Y-85698032D01*
X82207678Y-85724767D01*
X82136027Y-85897748D01*
X82136025Y-85897756D01*
X82099500Y-86081379D01*
X82099500Y-86268620D01*
X82136025Y-86452243D01*
X82136027Y-86452251D01*
X82207676Y-86625228D01*
X82207680Y-86625235D01*
X82278423Y-86731110D01*
X82299300Y-86797787D01*
X82280815Y-86865167D01*
X82278423Y-86868890D01*
X82207680Y-86974764D01*
X82207676Y-86974771D01*
X82136027Y-87147748D01*
X82136025Y-87147756D01*
X82099500Y-87331379D01*
X82099500Y-87518620D01*
X82136025Y-87702243D01*
X82136027Y-87702251D01*
X82207676Y-87875228D01*
X82207684Y-87875242D01*
X82278723Y-87981560D01*
X82299601Y-88048237D01*
X82281116Y-88115617D01*
X82278723Y-88119340D01*
X82208127Y-88224994D01*
X82208119Y-88225008D01*
X82136507Y-88397896D01*
X82136506Y-88397899D01*
X82131115Y-88424999D01*
X82131116Y-88425000D01*
X83133012Y-88425000D01*
X83115795Y-88434940D01*
X83059940Y-88490795D01*
X83020444Y-88559204D01*
X83000000Y-88635504D01*
X83000000Y-88714496D01*
X83020444Y-88790796D01*
X83059940Y-88859205D01*
X83115795Y-88915060D01*
X83184204Y-88954556D01*
X83260504Y-88975000D01*
X83339496Y-88975000D01*
X83415796Y-88954556D01*
X83484205Y-88915060D01*
X83540060Y-88859205D01*
X83579556Y-88790796D01*
X83600000Y-88714496D01*
X83600000Y-88635504D01*
X83579556Y-88559204D01*
X83540060Y-88490795D01*
X83484205Y-88434940D01*
X83466988Y-88425000D01*
X84468884Y-88425000D01*
X84468884Y-88424999D01*
X84463493Y-88397899D01*
X84463492Y-88397896D01*
X84391880Y-88225008D01*
X84391875Y-88225000D01*
X84321275Y-88119340D01*
X84300397Y-88052663D01*
X84318881Y-87985283D01*
X84321243Y-87981606D01*
X84392322Y-87875231D01*
X84463973Y-87702251D01*
X84500500Y-87518616D01*
X84500500Y-87331384D01*
X84463973Y-87147749D01*
X84392322Y-86974769D01*
X84392319Y-86974764D01*
X84392318Y-86974762D01*
X84321577Y-86868891D01*
X84300699Y-86802213D01*
X84319183Y-86734833D01*
X84321577Y-86731109D01*
X84392318Y-86625237D01*
X84392319Y-86625235D01*
X84392322Y-86625231D01*
X84463973Y-86452251D01*
X84500500Y-86268616D01*
X84500500Y-86081384D01*
X84463973Y-85897749D01*
X84392322Y-85724769D01*
X84388060Y-85718390D01*
X84367182Y-85651716D01*
X84385665Y-85584335D01*
X84437643Y-85537644D01*
X84491162Y-85525500D01*
X90088331Y-85525500D01*
X90088347Y-85525501D01*
X90095943Y-85525501D01*
X90254054Y-85525501D01*
X90254057Y-85525501D01*
X90406785Y-85484577D01*
X90456904Y-85455639D01*
X90543716Y-85405520D01*
X90655520Y-85293716D01*
X90655521Y-85293713D01*
X90912417Y-85036816D01*
X90973739Y-85003334D01*
X91000097Y-85000500D01*
X91277118Y-85000500D01*
X91344157Y-85020185D01*
X91389912Y-85072989D01*
X91399856Y-85142147D01*
X91389500Y-85176904D01*
X91347028Y-85267984D01*
X91347023Y-85267998D01*
X91292152Y-85472781D01*
X91292150Y-85472791D01*
X91273672Y-85683999D01*
X91273672Y-85684000D01*
X91292150Y-85895208D01*
X91292152Y-85895218D01*
X91347023Y-86100001D01*
X91347025Y-86100005D01*
X91347026Y-86100009D01*
X91396584Y-86206286D01*
X91436629Y-86292164D01*
X91436631Y-86292168D01*
X91558235Y-86465836D01*
X91558240Y-86465842D01*
X91708157Y-86615759D01*
X91708163Y-86615764D01*
X91881831Y-86737368D01*
X91881833Y-86737369D01*
X91881836Y-86737371D01*
X92073991Y-86826974D01*
X92088717Y-86830919D01*
X92101051Y-86834225D01*
X92160711Y-86870591D01*
X92191240Y-86933438D01*
X92182945Y-87002813D01*
X92138459Y-87056691D01*
X92101051Y-87073775D01*
X92073996Y-87081024D01*
X92073989Y-87081027D01*
X91881835Y-87170629D01*
X91881831Y-87170631D01*
X91708163Y-87292235D01*
X91708157Y-87292240D01*
X91558240Y-87442157D01*
X91558235Y-87442163D01*
X91436631Y-87615831D01*
X91436629Y-87615835D01*
X91347027Y-87807989D01*
X91347023Y-87807998D01*
X91292152Y-88012781D01*
X91292150Y-88012791D01*
X91273672Y-88223999D01*
X91273672Y-88224000D01*
X91292150Y-88435208D01*
X91292152Y-88435218D01*
X91347023Y-88640001D01*
X91347025Y-88640005D01*
X91347026Y-88640009D01*
X91401072Y-88755911D01*
X91436629Y-88832164D01*
X91436631Y-88832168D01*
X91558235Y-89005836D01*
X91558240Y-89005842D01*
X91708157Y-89155759D01*
X91708163Y-89155764D01*
X91881831Y-89277368D01*
X91881833Y-89277369D01*
X91881836Y-89277371D01*
X92073991Y-89366974D01*
X92088717Y-89370919D01*
X92101051Y-89374225D01*
X92160711Y-89410591D01*
X92191240Y-89473438D01*
X92182945Y-89542813D01*
X92138459Y-89596691D01*
X92101051Y-89613775D01*
X92073996Y-89621024D01*
X92073989Y-89621027D01*
X91881835Y-89710629D01*
X91881831Y-89710631D01*
X91708163Y-89832235D01*
X91708157Y-89832240D01*
X91558240Y-89982157D01*
X91558235Y-89982163D01*
X91436631Y-90155831D01*
X91436629Y-90155835D01*
X91347027Y-90347989D01*
X91347023Y-90347998D01*
X91292152Y-90552781D01*
X91292150Y-90552791D01*
X91273672Y-90763999D01*
X91273672Y-90764000D01*
X91292150Y-90975208D01*
X91292152Y-90975218D01*
X91347023Y-91180001D01*
X91347025Y-91180005D01*
X91347026Y-91180009D01*
X91406765Y-91308120D01*
X91436629Y-91372164D01*
X91436631Y-91372168D01*
X91558235Y-91545836D01*
X91558240Y-91545842D01*
X91708157Y-91695759D01*
X91708163Y-91695764D01*
X91881831Y-91817368D01*
X91881833Y-91817369D01*
X91881836Y-91817371D01*
X92073991Y-91906974D01*
X92088717Y-91910919D01*
X92101051Y-91914225D01*
X92160711Y-91950591D01*
X92191240Y-92013438D01*
X92182945Y-92082813D01*
X92138459Y-92136691D01*
X92101051Y-92153775D01*
X92073996Y-92161024D01*
X92073989Y-92161027D01*
X91881835Y-92250629D01*
X91881831Y-92250631D01*
X91708163Y-92372235D01*
X91708157Y-92372240D01*
X91558240Y-92522157D01*
X91558235Y-92522163D01*
X91436631Y-92695831D01*
X91436629Y-92695835D01*
X91347027Y-92887989D01*
X91347023Y-92887998D01*
X91292152Y-93092781D01*
X91292150Y-93092791D01*
X91273672Y-93303999D01*
X91273672Y-93304000D01*
X91292150Y-93515208D01*
X91292152Y-93515218D01*
X91347023Y-93720001D01*
X91347025Y-93720005D01*
X91347026Y-93720009D01*
X91405924Y-93846317D01*
X91436629Y-93912164D01*
X91436631Y-93912168D01*
X91558235Y-94085836D01*
X91558240Y-94085842D01*
X91708157Y-94235759D01*
X91708163Y-94235764D01*
X91881831Y-94357368D01*
X91881833Y-94357369D01*
X91881836Y-94357371D01*
X92073991Y-94446974D01*
X92088717Y-94450919D01*
X92101051Y-94454225D01*
X92160711Y-94490591D01*
X92191240Y-94553438D01*
X92182945Y-94622813D01*
X92138459Y-94676691D01*
X92101051Y-94693775D01*
X92073996Y-94701024D01*
X92073989Y-94701027D01*
X91881835Y-94790629D01*
X91881831Y-94790631D01*
X91708163Y-94912235D01*
X91708157Y-94912240D01*
X91558240Y-95062157D01*
X91558235Y-95062163D01*
X91436631Y-95235831D01*
X91436629Y-95235835D01*
X91347027Y-95427989D01*
X91347023Y-95427998D01*
X91292152Y-95632781D01*
X91292150Y-95632791D01*
X91273672Y-95843999D01*
X91273672Y-95844000D01*
X91292150Y-96055208D01*
X91292152Y-96055218D01*
X91347023Y-96260001D01*
X91347025Y-96260005D01*
X91347026Y-96260009D01*
X91399601Y-96372756D01*
X91436629Y-96452164D01*
X91436631Y-96452168D01*
X91558235Y-96625836D01*
X91558240Y-96625842D01*
X91708157Y-96775759D01*
X91708163Y-96775764D01*
X91881831Y-96897368D01*
X91881833Y-96897369D01*
X91881836Y-96897371D01*
X92073991Y-96986974D01*
X92088717Y-96990919D01*
X92101051Y-96994225D01*
X92160711Y-97030591D01*
X92191240Y-97093438D01*
X92182945Y-97162813D01*
X92138459Y-97216691D01*
X92101051Y-97233775D01*
X92073996Y-97241024D01*
X92073989Y-97241027D01*
X91881835Y-97330629D01*
X91881831Y-97330631D01*
X91708163Y-97452235D01*
X91708157Y-97452240D01*
X91558240Y-97602157D01*
X91558235Y-97602163D01*
X91436631Y-97775831D01*
X91436629Y-97775835D01*
X91347027Y-97967989D01*
X91347023Y-97967998D01*
X91292152Y-98172781D01*
X91292150Y-98172791D01*
X91273672Y-98383999D01*
X91273672Y-98384000D01*
X91292150Y-98595208D01*
X91292152Y-98595218D01*
X91347023Y-98800001D01*
X91347025Y-98800005D01*
X91347026Y-98800009D01*
X91436629Y-98992164D01*
X91436631Y-98992168D01*
X91558235Y-99165836D01*
X91558240Y-99165842D01*
X91708157Y-99315759D01*
X91708163Y-99315764D01*
X91881831Y-99437368D01*
X91881833Y-99437369D01*
X91881836Y-99437371D01*
X92073991Y-99526974D01*
X92073997Y-99526975D01*
X92073998Y-99526976D01*
X92142104Y-99545225D01*
X92201765Y-99581590D01*
X92232294Y-99644437D01*
X92223999Y-99713812D01*
X92179514Y-99767690D01*
X92112962Y-99788965D01*
X92110011Y-99789000D01*
X91807155Y-99789000D01*
X91747627Y-99795401D01*
X91747620Y-99795403D01*
X91612913Y-99845645D01*
X91612906Y-99845649D01*
X91497812Y-99931809D01*
X91497809Y-99931812D01*
X91411649Y-100046906D01*
X91411645Y-100046913D01*
X91361403Y-100181620D01*
X91361401Y-100181627D01*
X91355000Y-100241155D01*
X91355000Y-100674000D01*
X92114722Y-100674000D01*
X92070667Y-100750306D01*
X92040000Y-100864756D01*
X92040000Y-100983244D01*
X92070667Y-101097694D01*
X92114722Y-101174000D01*
X91355000Y-101174000D01*
X91355000Y-101606844D01*
X91361401Y-101666372D01*
X91361403Y-101666379D01*
X91411645Y-101801086D01*
X91411649Y-101801093D01*
X91497809Y-101916187D01*
X91497812Y-101916190D01*
X91612906Y-102002350D01*
X91612913Y-102002354D01*
X91747620Y-102052596D01*
X91747627Y-102052598D01*
X91807155Y-102058999D01*
X91807172Y-102059000D01*
X92110011Y-102059000D01*
X92177050Y-102078685D01*
X92222805Y-102131489D01*
X92232749Y-102200647D01*
X92203724Y-102264203D01*
X92144946Y-102301977D01*
X92142104Y-102302775D01*
X92073998Y-102321023D01*
X92073989Y-102321027D01*
X91881835Y-102410629D01*
X91881831Y-102410631D01*
X91708163Y-102532235D01*
X91708157Y-102532240D01*
X91558240Y-102682157D01*
X91558235Y-102682163D01*
X91436631Y-102855831D01*
X91436629Y-102855835D01*
X91347027Y-103047989D01*
X91347023Y-103047998D01*
X91292152Y-103252781D01*
X91292150Y-103252791D01*
X91273672Y-103463999D01*
X91273672Y-103464000D01*
X91292150Y-103675208D01*
X91292152Y-103675218D01*
X91347023Y-103880001D01*
X91347025Y-103880005D01*
X91347026Y-103880009D01*
X91399382Y-103992287D01*
X91436629Y-104072164D01*
X91436631Y-104072168D01*
X91558235Y-104245836D01*
X91558240Y-104245842D01*
X91708157Y-104395759D01*
X91708163Y-104395764D01*
X91881831Y-104517368D01*
X91881833Y-104517369D01*
X91881836Y-104517371D01*
X92073991Y-104606974D01*
X92088717Y-104610919D01*
X92101051Y-104614225D01*
X92160711Y-104650591D01*
X92191240Y-104713438D01*
X92182945Y-104782813D01*
X92138459Y-104836691D01*
X92101051Y-104853775D01*
X92073996Y-104861024D01*
X92073989Y-104861027D01*
X91881835Y-104950629D01*
X91881831Y-104950631D01*
X91708163Y-105072235D01*
X91708157Y-105072240D01*
X91558240Y-105222157D01*
X91558235Y-105222163D01*
X91436631Y-105395831D01*
X91436629Y-105395835D01*
X91347027Y-105587989D01*
X91347023Y-105587998D01*
X91292152Y-105792781D01*
X91292150Y-105792791D01*
X91273672Y-106003999D01*
X91273672Y-106004000D01*
X91292150Y-106215208D01*
X91292152Y-106215218D01*
X91347023Y-106420001D01*
X91347025Y-106420005D01*
X91347026Y-106420009D01*
X91399382Y-106532287D01*
X91436629Y-106612164D01*
X91436631Y-106612168D01*
X91558235Y-106785836D01*
X91558240Y-106785842D01*
X91708157Y-106935759D01*
X91708163Y-106935764D01*
X91881831Y-107057368D01*
X91881833Y-107057369D01*
X91881836Y-107057371D01*
X92073991Y-107146974D01*
X92073997Y-107146975D01*
X92073998Y-107146976D01*
X92199951Y-107180725D01*
X92259612Y-107217090D01*
X92290141Y-107279937D01*
X92281846Y-107349312D01*
X92237361Y-107403190D01*
X92170809Y-107424465D01*
X92167858Y-107424500D01*
X79014006Y-107424500D01*
X78946967Y-107404815D01*
X78926325Y-107388181D01*
X77925825Y-106387681D01*
X77892340Y-106326358D01*
X77897324Y-106256666D01*
X77925825Y-106212319D01*
X84866325Y-99271819D01*
X84927648Y-99238334D01*
X84954006Y-99235500D01*
X86214242Y-99235500D01*
X86281281Y-99255185D01*
X86301923Y-99271819D01*
X86428597Y-99398493D01*
X86428603Y-99398498D01*
X86484115Y-99437368D01*
X86612087Y-99526975D01*
X86614594Y-99528730D01*
X86658219Y-99583307D01*
X86665413Y-99652805D01*
X86633890Y-99715160D01*
X86614595Y-99731880D01*
X86428922Y-99861890D01*
X86428920Y-99861891D01*
X86261891Y-100028920D01*
X86261886Y-100028926D01*
X86126400Y-100222420D01*
X86126399Y-100222422D01*
X86026570Y-100436507D01*
X86026567Y-100436513D01*
X85969364Y-100649999D01*
X85969364Y-100650000D01*
X86866988Y-100650000D01*
X86834075Y-100707007D01*
X86800000Y-100834174D01*
X86800000Y-100965826D01*
X86834075Y-101092993D01*
X86866988Y-101150000D01*
X85969364Y-101150000D01*
X86026567Y-101363486D01*
X86026570Y-101363492D01*
X86126399Y-101577578D01*
X86261894Y-101771082D01*
X86428917Y-101938105D01*
X86622421Y-102073600D01*
X86836507Y-102173429D01*
X86836516Y-102173433D01*
X87050000Y-102230634D01*
X87050000Y-101333012D01*
X87107007Y-101365925D01*
X87234174Y-101400000D01*
X87365826Y-101400000D01*
X87492993Y-101365925D01*
X87550000Y-101333012D01*
X87550000Y-102230633D01*
X87763483Y-102173433D01*
X87763492Y-102173429D01*
X87977578Y-102073600D01*
X88171082Y-101938105D01*
X88338105Y-101771082D01*
X88473600Y-101577578D01*
X88573429Y-101363492D01*
X88573432Y-101363486D01*
X88630636Y-101150000D01*
X87733012Y-101150000D01*
X87765925Y-101092993D01*
X87800000Y-100965826D01*
X87800000Y-100834174D01*
X87765925Y-100707007D01*
X87733012Y-100650000D01*
X88630636Y-100650000D01*
X88630635Y-100649999D01*
X88573432Y-100436513D01*
X88573429Y-100436507D01*
X88473600Y-100222422D01*
X88473599Y-100222420D01*
X88338113Y-100028926D01*
X88338108Y-100028920D01*
X88171078Y-99861890D01*
X87985405Y-99731879D01*
X87941780Y-99677302D01*
X87934588Y-99607804D01*
X87966110Y-99545449D01*
X87985406Y-99528730D01*
X87987911Y-99526976D01*
X88171401Y-99398495D01*
X88338495Y-99231401D01*
X88474035Y-99037830D01*
X88573903Y-98823663D01*
X88635063Y-98595408D01*
X88655659Y-98360000D01*
X88635063Y-98124592D01*
X88580585Y-97921275D01*
X88573905Y-97896344D01*
X88573904Y-97896343D01*
X88573903Y-97896337D01*
X88474035Y-97682171D01*
X88418010Y-97602159D01*
X88338496Y-97488600D01*
X88298077Y-97448181D01*
X88216567Y-97366671D01*
X88183084Y-97305351D01*
X88188068Y-97235659D01*
X88229939Y-97179725D01*
X88260915Y-97162810D01*
X88392331Y-97113796D01*
X88507546Y-97027546D01*
X88593796Y-96912331D01*
X88644091Y-96777483D01*
X88650500Y-96717873D01*
X88650499Y-94922128D01*
X88644091Y-94862517D01*
X88629911Y-94824499D01*
X88593797Y-94727671D01*
X88593793Y-94727664D01*
X88507547Y-94612455D01*
X88507544Y-94612452D01*
X88392335Y-94526206D01*
X88392328Y-94526202D01*
X88257482Y-94475908D01*
X88257483Y-94475908D01*
X88197883Y-94469501D01*
X88197881Y-94469500D01*
X88197873Y-94469500D01*
X88197864Y-94469500D01*
X86402129Y-94469500D01*
X86402123Y-94469501D01*
X86342516Y-94475908D01*
X86207671Y-94526202D01*
X86207664Y-94526206D01*
X86092455Y-94612452D01*
X86092452Y-94612455D01*
X86006206Y-94727664D01*
X86006202Y-94727671D01*
X85955908Y-94862517D01*
X85950563Y-94912239D01*
X85949501Y-94922123D01*
X85949500Y-94922135D01*
X85949500Y-96717870D01*
X85949501Y-96717876D01*
X85955908Y-96777483D01*
X86006202Y-96912328D01*
X86006206Y-96912335D01*
X86092452Y-97027544D01*
X86092455Y-97027547D01*
X86207664Y-97113793D01*
X86207671Y-97113797D01*
X86339082Y-97162810D01*
X86395016Y-97204681D01*
X86419433Y-97270145D01*
X86404582Y-97338418D01*
X86383431Y-97366673D01*
X86301921Y-97448182D01*
X86240601Y-97481666D01*
X86214242Y-97484500D01*
X84954006Y-97484500D01*
X84886967Y-97464815D01*
X84866325Y-97448181D01*
X76911819Y-89493675D01*
X76878334Y-89432352D01*
X76875500Y-89405994D01*
X76875500Y-88925000D01*
X82131116Y-88925000D01*
X82136506Y-88952100D01*
X82136507Y-88952103D01*
X82208119Y-89124991D01*
X82208124Y-89125000D01*
X82312086Y-89280589D01*
X82312089Y-89280593D01*
X82444406Y-89412910D01*
X82444410Y-89412913D01*
X82599999Y-89516875D01*
X82600008Y-89516880D01*
X82772894Y-89588491D01*
X82772902Y-89588493D01*
X82956428Y-89624999D01*
X82956431Y-89625000D01*
X83050000Y-89625000D01*
X83550000Y-89625000D01*
X83643569Y-89625000D01*
X83643571Y-89624999D01*
X83827097Y-89588493D01*
X83827105Y-89588491D01*
X83999991Y-89516880D01*
X84000000Y-89516875D01*
X84155589Y-89412913D01*
X84155593Y-89412910D01*
X84287910Y-89280593D01*
X84287913Y-89280589D01*
X84391875Y-89125000D01*
X84391880Y-89124991D01*
X84463492Y-88952103D01*
X84463493Y-88952100D01*
X84468884Y-88925000D01*
X83550000Y-88925000D01*
X83550000Y-89625000D01*
X83050000Y-89625000D01*
X83050000Y-88925000D01*
X82131116Y-88925000D01*
X76875500Y-88925000D01*
X76875500Y-81125000D01*
X82131116Y-81125000D01*
X82136506Y-81152100D01*
X82136507Y-81152103D01*
X82208119Y-81324991D01*
X82208124Y-81325000D01*
X82312086Y-81480589D01*
X82312089Y-81480593D01*
X82444406Y-81612910D01*
X82444410Y-81612913D01*
X82599999Y-81716875D01*
X82600008Y-81716880D01*
X82772894Y-81788491D01*
X82772902Y-81788493D01*
X82956428Y-81824999D01*
X82956431Y-81825000D01*
X83050000Y-81825000D01*
X83550000Y-81825000D01*
X83643569Y-81825000D01*
X83643571Y-81824999D01*
X83827097Y-81788493D01*
X83827105Y-81788491D01*
X83999991Y-81716880D01*
X84000000Y-81716875D01*
X84155589Y-81612913D01*
X84155593Y-81612910D01*
X84287910Y-81480593D01*
X84287913Y-81480589D01*
X84391875Y-81325000D01*
X84391880Y-81324991D01*
X84463492Y-81152103D01*
X84463493Y-81152100D01*
X84468884Y-81125000D01*
X83550000Y-81125000D01*
X83550000Y-81825000D01*
X83050000Y-81825000D01*
X83050000Y-81125000D01*
X82131116Y-81125000D01*
X76875500Y-81125000D01*
X76875500Y-79760758D01*
X76895185Y-79693719D01*
X76911819Y-79673077D01*
X76912661Y-79672235D01*
X77030104Y-79554792D01*
X77030106Y-79554788D01*
X77030109Y-79554786D01*
X77155048Y-79382820D01*
X77155047Y-79382820D01*
X77155051Y-79382816D01*
X77251557Y-79193412D01*
X77317246Y-78991243D01*
X77350500Y-78781287D01*
X77350500Y-78418713D01*
X77317246Y-78208757D01*
X77251557Y-78006588D01*
X77155051Y-77817184D01*
X77155049Y-77817181D01*
X77155048Y-77817179D01*
X77030109Y-77645213D01*
X76879786Y-77494890D01*
X76707820Y-77369951D01*
X76518414Y-77273444D01*
X76518413Y-77273443D01*
X76518412Y-77273443D01*
X76316243Y-77207754D01*
X76316241Y-77207753D01*
X76316240Y-77207753D01*
X76154957Y-77182208D01*
X76106287Y-77174500D01*
X75893713Y-77174500D01*
X75845042Y-77182208D01*
X75683760Y-77207753D01*
X75481585Y-77273444D01*
X75292179Y-77369951D01*
X75120215Y-77494889D01*
X74981035Y-77634069D01*
X74919712Y-77667553D01*
X74850020Y-77662569D01*
X74794087Y-77620697D01*
X74787815Y-77611484D01*
X74692315Y-77456654D01*
X74568345Y-77332684D01*
X74419124Y-77240643D01*
X74419119Y-77240641D01*
X74252697Y-77185494D01*
X74252690Y-77185493D01*
X74149986Y-77175000D01*
X73750000Y-77175000D01*
X73750000Y-78253590D01*
X73664044Y-78203963D01*
X73555952Y-78175000D01*
X73444048Y-78175000D01*
X73335956Y-78203963D01*
X73250000Y-78253590D01*
X73250000Y-77175000D01*
X72850028Y-77175000D01*
X72850012Y-77175001D01*
X72747302Y-77185494D01*
X72580880Y-77240641D01*
X72580875Y-77240643D01*
X72431654Y-77332684D01*
X72307684Y-77456654D01*
X72215643Y-77605875D01*
X72215641Y-77605880D01*
X72160494Y-77772302D01*
X72160493Y-77772309D01*
X72150000Y-77875013D01*
X72150000Y-78350000D01*
X73153590Y-78350000D01*
X73103963Y-78435956D01*
X73075000Y-78544048D01*
X73075000Y-78655952D01*
X73103963Y-78764044D01*
X73153590Y-78850000D01*
X72150001Y-78850000D01*
X72150001Y-79324986D01*
X72160494Y-79427697D01*
X72215641Y-79594119D01*
X72215643Y-79594124D01*
X72307684Y-79743345D01*
X72431654Y-79867315D01*
X72580875Y-79959356D01*
X72580880Y-79959358D01*
X72747302Y-80014505D01*
X72747309Y-80014506D01*
X72850019Y-80024999D01*
X73249999Y-80024999D01*
X73250000Y-80024998D01*
X73250000Y-78946409D01*
X73335956Y-78996037D01*
X73444048Y-79025000D01*
X73555952Y-79025000D01*
X73664044Y-78996037D01*
X73750000Y-78946409D01*
X73750000Y-80024999D01*
X74149972Y-80024999D01*
X74149986Y-80024998D01*
X74252697Y-80014505D01*
X74419119Y-79959358D01*
X74419124Y-79959356D01*
X74568345Y-79867315D01*
X74692317Y-79743343D01*
X74787815Y-79588516D01*
X74839763Y-79541791D01*
X74908725Y-79530568D01*
X74972808Y-79558412D01*
X74981035Y-79565931D01*
X75088181Y-79673077D01*
X75121666Y-79734400D01*
X75124500Y-79760758D01*
X75124500Y-89906233D01*
X75158143Y-90075366D01*
X75158146Y-90075378D01*
X75224138Y-90234698D01*
X75224145Y-90234711D01*
X75319954Y-90378098D01*
X75319957Y-90378102D01*
X83214174Y-98272319D01*
X83247659Y-98333642D01*
X83242675Y-98403334D01*
X83214174Y-98447681D01*
X79623713Y-102038143D01*
X76041901Y-105619955D01*
X71241901Y-110419955D01*
X71180927Y-110480929D01*
X71119953Y-110541902D01*
X71024145Y-110685288D01*
X71024138Y-110685301D01*
X70958146Y-110844621D01*
X70958143Y-110844633D01*
X70924500Y-111013766D01*
X70924500Y-121914241D01*
X70904815Y-121981280D01*
X70888181Y-122001922D01*
X70761505Y-122128597D01*
X70625965Y-122322169D01*
X70625964Y-122322171D01*
X70526098Y-122536335D01*
X70526094Y-122536344D01*
X70464938Y-122764586D01*
X70464936Y-122764596D01*
X70444341Y-122999999D01*
X70444341Y-123000000D01*
X70464936Y-123235403D01*
X70464938Y-123235413D01*
X70526094Y-123463655D01*
X70526096Y-123463659D01*
X70526097Y-123463663D01*
X70605801Y-123634588D01*
X70625965Y-123677830D01*
X70625967Y-123677834D01*
X70673184Y-123745266D01*
X70761505Y-123871401D01*
X70928599Y-124038495D01*
X71025384Y-124106265D01*
X71122165Y-124174032D01*
X71122167Y-124174033D01*
X71122170Y-124174035D01*
X71194037Y-124207547D01*
X71313209Y-124263118D01*
X71365648Y-124309290D01*
X71384800Y-124376484D01*
X71364584Y-124443365D01*
X71311419Y-124488700D01*
X71260804Y-124499500D01*
X68936707Y-124499500D01*
X68869668Y-124479815D01*
X68823913Y-124427011D01*
X68813969Y-124357853D01*
X68833605Y-124306609D01*
X68841832Y-124294297D01*
X68953172Y-124127665D01*
X69083652Y-123863077D01*
X69178481Y-123583722D01*
X69236034Y-123294380D01*
X69245415Y-123151252D01*
X69255329Y-123000007D01*
X69255329Y-122999992D01*
X69236035Y-122705636D01*
X69236034Y-122705620D01*
X69178481Y-122416278D01*
X69083652Y-122136923D01*
X68953172Y-121872336D01*
X68789273Y-121627043D01*
X68639609Y-121456384D01*
X68594758Y-121405241D01*
X68372955Y-121210725D01*
X68127667Y-121046829D01*
X68127660Y-121046825D01*
X67863080Y-120916349D01*
X67583730Y-120821521D01*
X67583724Y-120821519D01*
X67583722Y-120821519D01*
X67294380Y-120763966D01*
X67294373Y-120763965D01*
X67294363Y-120763964D01*
X67000007Y-120744671D01*
X66999993Y-120744671D01*
X66705636Y-120763964D01*
X66705624Y-120763965D01*
X66705620Y-120763966D01*
X66705612Y-120763967D01*
X66705609Y-120763968D01*
X66416283Y-120821518D01*
X66416269Y-120821521D01*
X66136919Y-120916349D01*
X65872331Y-121046830D01*
X65693390Y-121166394D01*
X65626713Y-121187272D01*
X65559333Y-121168787D01*
X65512643Y-121116808D01*
X65500500Y-121063292D01*
X65500500Y-96376647D01*
X68149500Y-96376647D01*
X68149500Y-97423337D01*
X68149501Y-97423355D01*
X68159650Y-97522707D01*
X68159651Y-97522710D01*
X68212996Y-97683694D01*
X68213001Y-97683705D01*
X68302029Y-97828040D01*
X68302032Y-97828044D01*
X68421955Y-97947967D01*
X68421959Y-97947970D01*
X68566294Y-98036998D01*
X68566297Y-98036999D01*
X68566303Y-98037003D01*
X68727292Y-98090349D01*
X68826655Y-98100500D01*
X69373344Y-98100499D01*
X69373352Y-98100498D01*
X69373355Y-98100498D01*
X69427760Y-98094940D01*
X69472708Y-98090349D01*
X69633697Y-98037003D01*
X69706862Y-97991874D01*
X69739514Y-97971734D01*
X69806906Y-97953293D01*
X69873502Y-97974170D01*
X69900000Y-97991875D01*
X69900012Y-97991882D01*
X70072889Y-98063489D01*
X70072896Y-98063491D01*
X70100000Y-98068882D01*
X70100000Y-97066988D01*
X70109940Y-97084205D01*
X70165795Y-97140060D01*
X70234204Y-97179556D01*
X70310504Y-97200000D01*
X70389496Y-97200000D01*
X70465796Y-97179556D01*
X70534205Y-97140060D01*
X70590060Y-97084205D01*
X70600000Y-97066988D01*
X70600000Y-98068881D01*
X70627103Y-98063491D01*
X70627110Y-98063489D01*
X70799987Y-97991882D01*
X70800001Y-97991874D01*
X70905657Y-97921276D01*
X70972334Y-97900397D01*
X71039714Y-97918881D01*
X71043429Y-97921268D01*
X71149769Y-97992322D01*
X71322749Y-98063973D01*
X71506374Y-98100498D01*
X71506379Y-98100499D01*
X71506383Y-98100500D01*
X71506384Y-98100500D01*
X71693617Y-98100500D01*
X71693618Y-98100499D01*
X71877251Y-98063973D01*
X72050231Y-97992322D01*
X72050901Y-97991874D01*
X72156109Y-97921577D01*
X72222787Y-97900699D01*
X72290167Y-97919183D01*
X72293891Y-97921577D01*
X72399762Y-97992318D01*
X72399768Y-97992321D01*
X72399769Y-97992322D01*
X72572749Y-98063973D01*
X72756374Y-98100498D01*
X72756379Y-98100499D01*
X72756383Y-98100500D01*
X72756384Y-98100500D01*
X72943617Y-98100500D01*
X72943618Y-98100499D01*
X73127251Y-98063973D01*
X73300231Y-97992322D01*
X73455908Y-97888302D01*
X73588302Y-97755908D01*
X73692322Y-97600231D01*
X73763973Y-97427251D01*
X73800500Y-97243616D01*
X73800500Y-96556384D01*
X73763973Y-96372749D01*
X73692322Y-96199769D01*
X73692321Y-96199768D01*
X73692318Y-96199762D01*
X73588302Y-96044092D01*
X73588299Y-96044088D01*
X73455911Y-95911700D01*
X73455907Y-95911697D01*
X73300237Y-95807681D01*
X73300228Y-95807676D01*
X73127251Y-95736027D01*
X73127243Y-95736025D01*
X72943620Y-95699500D01*
X72943616Y-95699500D01*
X72756384Y-95699500D01*
X72756379Y-95699500D01*
X72572756Y-95736025D01*
X72572748Y-95736027D01*
X72399771Y-95807676D01*
X72399764Y-95807680D01*
X72293890Y-95878423D01*
X72227213Y-95899300D01*
X72159833Y-95880815D01*
X72156110Y-95878423D01*
X72050235Y-95807680D01*
X72050228Y-95807676D01*
X71877251Y-95736027D01*
X71877243Y-95736025D01*
X71693620Y-95699500D01*
X71693616Y-95699500D01*
X71506384Y-95699500D01*
X71506379Y-95699500D01*
X71322756Y-95736025D01*
X71322748Y-95736027D01*
X71149771Y-95807676D01*
X71149757Y-95807684D01*
X71043440Y-95878723D01*
X70976763Y-95899601D01*
X70909383Y-95881116D01*
X70905660Y-95878723D01*
X70800005Y-95808127D01*
X70799991Y-95808119D01*
X70627103Y-95736507D01*
X70627100Y-95736506D01*
X70600000Y-95731115D01*
X70600000Y-96733011D01*
X70590060Y-96715795D01*
X70534205Y-96659940D01*
X70465796Y-96620444D01*
X70389496Y-96600000D01*
X70310504Y-96600000D01*
X70234204Y-96620444D01*
X70165795Y-96659940D01*
X70109940Y-96715795D01*
X70100000Y-96733011D01*
X70100000Y-95731116D01*
X70099999Y-95731115D01*
X70072899Y-95736506D01*
X70072896Y-95736507D01*
X69900005Y-95808120D01*
X69873499Y-95825831D01*
X69806820Y-95846707D01*
X69739514Y-95828266D01*
X69633699Y-95762998D01*
X69633694Y-95762996D01*
X69472709Y-95709651D01*
X69373346Y-95699500D01*
X68826662Y-95699500D01*
X68826644Y-95699501D01*
X68727292Y-95709650D01*
X68727289Y-95709651D01*
X68566305Y-95762996D01*
X68566294Y-95763001D01*
X68421959Y-95852029D01*
X68421955Y-95852032D01*
X68302032Y-95971955D01*
X68302029Y-95971959D01*
X68213001Y-96116294D01*
X68212996Y-96116305D01*
X68159651Y-96277290D01*
X68149500Y-96376647D01*
X65500500Y-96376647D01*
X65500500Y-91876647D01*
X68149500Y-91876647D01*
X68149500Y-92923337D01*
X68149501Y-92923355D01*
X68159650Y-93022707D01*
X68159651Y-93022710D01*
X68212996Y-93183694D01*
X68213001Y-93183705D01*
X68302029Y-93328040D01*
X68302032Y-93328044D01*
X68421955Y-93447967D01*
X68421959Y-93447970D01*
X68566294Y-93536998D01*
X68566297Y-93536999D01*
X68566303Y-93537003D01*
X68727292Y-93590349D01*
X68826655Y-93600500D01*
X69373344Y-93600499D01*
X69373352Y-93600498D01*
X69373355Y-93600498D01*
X69427760Y-93594940D01*
X69472708Y-93590349D01*
X69633697Y-93537003D01*
X69706862Y-93491874D01*
X69739514Y-93471734D01*
X69806906Y-93453293D01*
X69873502Y-93474170D01*
X69900000Y-93491875D01*
X69900012Y-93491882D01*
X70072889Y-93563489D01*
X70072896Y-93563491D01*
X70100000Y-93568882D01*
X70100000Y-92566988D01*
X70109940Y-92584205D01*
X70165795Y-92640060D01*
X70234204Y-92679556D01*
X70310504Y-92700000D01*
X70389496Y-92700000D01*
X70465796Y-92679556D01*
X70534205Y-92640060D01*
X70590060Y-92584205D01*
X70600000Y-92566988D01*
X70600000Y-93568881D01*
X70627103Y-93563491D01*
X70627110Y-93563489D01*
X70799987Y-93491882D01*
X70800001Y-93491874D01*
X70905657Y-93421276D01*
X70972334Y-93400397D01*
X71039714Y-93418881D01*
X71043429Y-93421268D01*
X71149769Y-93492322D01*
X71322749Y-93563973D01*
X71506374Y-93600498D01*
X71506379Y-93600499D01*
X71506383Y-93600500D01*
X71506384Y-93600500D01*
X71693617Y-93600500D01*
X71693618Y-93600499D01*
X71877251Y-93563973D01*
X72050231Y-93492322D01*
X72050901Y-93491874D01*
X72156109Y-93421577D01*
X72222787Y-93400699D01*
X72290167Y-93419183D01*
X72293891Y-93421577D01*
X72399762Y-93492318D01*
X72399768Y-93492321D01*
X72399769Y-93492322D01*
X72572749Y-93563973D01*
X72756374Y-93600498D01*
X72756379Y-93600499D01*
X72756383Y-93600500D01*
X72756384Y-93600500D01*
X72943617Y-93600500D01*
X72943618Y-93600499D01*
X73127251Y-93563973D01*
X73300231Y-93492322D01*
X73455908Y-93388302D01*
X73588302Y-93255908D01*
X73692322Y-93100231D01*
X73763973Y-92927251D01*
X73800500Y-92743616D01*
X73800500Y-92056384D01*
X73763973Y-91872749D01*
X73692322Y-91699769D01*
X73692321Y-91699768D01*
X73692318Y-91699762D01*
X73588302Y-91544092D01*
X73588299Y-91544088D01*
X73455911Y-91411700D01*
X73455907Y-91411697D01*
X73300237Y-91307681D01*
X73300228Y-91307676D01*
X73127251Y-91236027D01*
X73127243Y-91236025D01*
X72943620Y-91199500D01*
X72943616Y-91199500D01*
X72756384Y-91199500D01*
X72756379Y-91199500D01*
X72572756Y-91236025D01*
X72572748Y-91236027D01*
X72399771Y-91307676D01*
X72399764Y-91307680D01*
X72293890Y-91378423D01*
X72227213Y-91399300D01*
X72159833Y-91380815D01*
X72156110Y-91378423D01*
X72050235Y-91307680D01*
X72050228Y-91307676D01*
X71877251Y-91236027D01*
X71877243Y-91236025D01*
X71693620Y-91199500D01*
X71693616Y-91199500D01*
X71506384Y-91199500D01*
X71506379Y-91199500D01*
X71322756Y-91236025D01*
X71322748Y-91236027D01*
X71149771Y-91307676D01*
X71149757Y-91307684D01*
X71043440Y-91378723D01*
X70976763Y-91399601D01*
X70909383Y-91381116D01*
X70905660Y-91378723D01*
X70800005Y-91308127D01*
X70799991Y-91308119D01*
X70627103Y-91236507D01*
X70627100Y-91236506D01*
X70600000Y-91231115D01*
X70600000Y-92233011D01*
X70590060Y-92215795D01*
X70534205Y-92159940D01*
X70465796Y-92120444D01*
X70389496Y-92100000D01*
X70310504Y-92100000D01*
X70234204Y-92120444D01*
X70165795Y-92159940D01*
X70109940Y-92215795D01*
X70100000Y-92233011D01*
X70100000Y-91231116D01*
X70099999Y-91231115D01*
X70072899Y-91236506D01*
X70072896Y-91236507D01*
X69900005Y-91308120D01*
X69873499Y-91325831D01*
X69806820Y-91346707D01*
X69739514Y-91328266D01*
X69633699Y-91262998D01*
X69633694Y-91262996D01*
X69472709Y-91209651D01*
X69373346Y-91199500D01*
X68826662Y-91199500D01*
X68826644Y-91199501D01*
X68727292Y-91209650D01*
X68727289Y-91209651D01*
X68566305Y-91262996D01*
X68566294Y-91263001D01*
X68421959Y-91352029D01*
X68421955Y-91352032D01*
X68302032Y-91471955D01*
X68302029Y-91471959D01*
X68213001Y-91616294D01*
X68212996Y-91616305D01*
X68159651Y-91777290D01*
X68149500Y-91876647D01*
X65500500Y-91876647D01*
X65500500Y-87376647D01*
X68149500Y-87376647D01*
X68149500Y-88423337D01*
X68149501Y-88423355D01*
X68159650Y-88522707D01*
X68159651Y-88522710D01*
X68212996Y-88683694D01*
X68213001Y-88683705D01*
X68302029Y-88828040D01*
X68302032Y-88828044D01*
X68421955Y-88947967D01*
X68421959Y-88947970D01*
X68566294Y-89036998D01*
X68566297Y-89036999D01*
X68566303Y-89037003D01*
X68727292Y-89090349D01*
X68826655Y-89100500D01*
X69373344Y-89100499D01*
X69373352Y-89100498D01*
X69373355Y-89100498D01*
X69427760Y-89094940D01*
X69472708Y-89090349D01*
X69633697Y-89037003D01*
X69657691Y-89022202D01*
X69739514Y-88971734D01*
X69806906Y-88953293D01*
X69873502Y-88974170D01*
X69900000Y-88991875D01*
X69900012Y-88991882D01*
X70072889Y-89063489D01*
X70072896Y-89063491D01*
X70100000Y-89068882D01*
X70100000Y-88066988D01*
X70109940Y-88084205D01*
X70165795Y-88140060D01*
X70234204Y-88179556D01*
X70310504Y-88200000D01*
X70389496Y-88200000D01*
X70465796Y-88179556D01*
X70534205Y-88140060D01*
X70590060Y-88084205D01*
X70600000Y-88066988D01*
X70600000Y-89068881D01*
X70627103Y-89063491D01*
X70627110Y-89063489D01*
X70799987Y-88991882D01*
X70800001Y-88991874D01*
X70905657Y-88921276D01*
X70972334Y-88900397D01*
X71039714Y-88918881D01*
X71043429Y-88921268D01*
X71089577Y-88952103D01*
X71149763Y-88992318D01*
X71149771Y-88992323D01*
X71182407Y-89005841D01*
X71322749Y-89063973D01*
X71506374Y-89100498D01*
X71506379Y-89100499D01*
X71506383Y-89100500D01*
X71506384Y-89100500D01*
X71693617Y-89100500D01*
X71693618Y-89100499D01*
X71877251Y-89063973D01*
X72050231Y-88992322D01*
X72076155Y-88975000D01*
X72156109Y-88921577D01*
X72222787Y-88900699D01*
X72290167Y-88919183D01*
X72293891Y-88921577D01*
X72399762Y-88992318D01*
X72399771Y-88992323D01*
X72432407Y-89005841D01*
X72572749Y-89063973D01*
X72756374Y-89100498D01*
X72756379Y-89100499D01*
X72756383Y-89100500D01*
X72756384Y-89100500D01*
X72943617Y-89100500D01*
X72943618Y-89100499D01*
X73127251Y-89063973D01*
X73300231Y-88992322D01*
X73455908Y-88888302D01*
X73588302Y-88755908D01*
X73692322Y-88600231D01*
X73763973Y-88427251D01*
X73800500Y-88243616D01*
X73800500Y-87556384D01*
X73763973Y-87372749D01*
X73692322Y-87199769D01*
X73692321Y-87199768D01*
X73692318Y-87199762D01*
X73588302Y-87044092D01*
X73588299Y-87044088D01*
X73455911Y-86911700D01*
X73455907Y-86911697D01*
X73300237Y-86807681D01*
X73300228Y-86807676D01*
X73127251Y-86736027D01*
X73127243Y-86736025D01*
X72943620Y-86699500D01*
X72943616Y-86699500D01*
X72756384Y-86699500D01*
X72756379Y-86699500D01*
X72572756Y-86736025D01*
X72572748Y-86736027D01*
X72399771Y-86807676D01*
X72399764Y-86807680D01*
X72293890Y-86878423D01*
X72227213Y-86899300D01*
X72159833Y-86880815D01*
X72156110Y-86878423D01*
X72050235Y-86807680D01*
X72050228Y-86807676D01*
X71877251Y-86736027D01*
X71877243Y-86736025D01*
X71693620Y-86699500D01*
X71693616Y-86699500D01*
X71506384Y-86699500D01*
X71506379Y-86699500D01*
X71322756Y-86736025D01*
X71322748Y-86736027D01*
X71149771Y-86807676D01*
X71149757Y-86807684D01*
X71043440Y-86878723D01*
X70976763Y-86899601D01*
X70909383Y-86881116D01*
X70905660Y-86878723D01*
X70800005Y-86808127D01*
X70799991Y-86808119D01*
X70627103Y-86736507D01*
X70627100Y-86736506D01*
X70600000Y-86731115D01*
X70600000Y-87733011D01*
X70590060Y-87715795D01*
X70534205Y-87659940D01*
X70465796Y-87620444D01*
X70389496Y-87600000D01*
X70310504Y-87600000D01*
X70234204Y-87620444D01*
X70165795Y-87659940D01*
X70109940Y-87715795D01*
X70100000Y-87733011D01*
X70100000Y-86731116D01*
X70099999Y-86731115D01*
X70072899Y-86736506D01*
X70072896Y-86736507D01*
X69900005Y-86808120D01*
X69873499Y-86825831D01*
X69806820Y-86846707D01*
X69739514Y-86828266D01*
X69633699Y-86762998D01*
X69633694Y-86762996D01*
X69472709Y-86709651D01*
X69373346Y-86699500D01*
X68826662Y-86699500D01*
X68826644Y-86699501D01*
X68727292Y-86709650D01*
X68727289Y-86709651D01*
X68566305Y-86762996D01*
X68566294Y-86763001D01*
X68421959Y-86852029D01*
X68421955Y-86852032D01*
X68302032Y-86971955D01*
X68302029Y-86971959D01*
X68213001Y-87116294D01*
X68212996Y-87116305D01*
X68159651Y-87277290D01*
X68149500Y-87376647D01*
X65500500Y-87376647D01*
X65500500Y-78936707D01*
X65520185Y-78869668D01*
X65572989Y-78823913D01*
X65642147Y-78813969D01*
X65693389Y-78833604D01*
X65872335Y-78953172D01*
X66136923Y-79083652D01*
X66416278Y-79178481D01*
X66705620Y-79236034D01*
X66733888Y-79237886D01*
X66999993Y-79255329D01*
X67000000Y-79255329D01*
X67000007Y-79255329D01*
X67235675Y-79239881D01*
X67294380Y-79236034D01*
X67583722Y-79178481D01*
X67863077Y-79083652D01*
X68127665Y-78953172D01*
X68372957Y-78789273D01*
X68594758Y-78594758D01*
X68789273Y-78372957D01*
X68953172Y-78127665D01*
X69083652Y-77863077D01*
X69178481Y-77583722D01*
X69236034Y-77294380D01*
X69243859Y-77175000D01*
X69255329Y-77000007D01*
X69255329Y-76999992D01*
X69245606Y-76851647D01*
X82099500Y-76851647D01*
X82099500Y-77398337D01*
X82099501Y-77398355D01*
X82109650Y-77497707D01*
X82109651Y-77497710D01*
X82162996Y-77658694D01*
X82163001Y-77658705D01*
X82227977Y-77764046D01*
X82246418Y-77831438D01*
X82225542Y-77898032D01*
X82207678Y-77924767D01*
X82136027Y-78097748D01*
X82136025Y-78097756D01*
X82099500Y-78281379D01*
X82099500Y-78468620D01*
X82136025Y-78652243D01*
X82136027Y-78652251D01*
X82207676Y-78825228D01*
X82207680Y-78825235D01*
X82278423Y-78931110D01*
X82299300Y-78997787D01*
X82280815Y-79065167D01*
X82278423Y-79068890D01*
X82207680Y-79174764D01*
X82207676Y-79174771D01*
X82136027Y-79347748D01*
X82136025Y-79347756D01*
X82099500Y-79531379D01*
X82099500Y-79718620D01*
X82136025Y-79902243D01*
X82136027Y-79902251D01*
X82207676Y-80075228D01*
X82207684Y-80075242D01*
X82278723Y-80181560D01*
X82299601Y-80248237D01*
X82281116Y-80315617D01*
X82278723Y-80319340D01*
X82208127Y-80424994D01*
X82208119Y-80425008D01*
X82136507Y-80597896D01*
X82136506Y-80597899D01*
X82131115Y-80624999D01*
X82131116Y-80625000D01*
X83133012Y-80625000D01*
X83115795Y-80634940D01*
X83059940Y-80690795D01*
X83020444Y-80759204D01*
X83000000Y-80835504D01*
X83000000Y-80914496D01*
X83020444Y-80990796D01*
X83059940Y-81059205D01*
X83115795Y-81115060D01*
X83184204Y-81154556D01*
X83260504Y-81175000D01*
X83339496Y-81175000D01*
X83415796Y-81154556D01*
X83484205Y-81115060D01*
X83540060Y-81059205D01*
X83579556Y-80990796D01*
X83600000Y-80914496D01*
X83600000Y-80835504D01*
X83579556Y-80759204D01*
X83540060Y-80690795D01*
X83484205Y-80634940D01*
X83466988Y-80625000D01*
X84468884Y-80625000D01*
X84468884Y-80624999D01*
X84463493Y-80597899D01*
X84463492Y-80597896D01*
X84391880Y-80425008D01*
X84391875Y-80425000D01*
X84321275Y-80319340D01*
X84300397Y-80252663D01*
X84318881Y-80185283D01*
X84321243Y-80181606D01*
X84392322Y-80075231D01*
X84463973Y-79902251D01*
X84500500Y-79718616D01*
X84500500Y-79531384D01*
X84463973Y-79347749D01*
X84392322Y-79174769D01*
X84392319Y-79174764D01*
X84392318Y-79174762D01*
X84321577Y-79068891D01*
X84300699Y-79002213D01*
X84319183Y-78934833D01*
X84321577Y-78931109D01*
X84392318Y-78825237D01*
X84392319Y-78825235D01*
X84392322Y-78825231D01*
X84463973Y-78652251D01*
X84500500Y-78468616D01*
X84500500Y-78281384D01*
X84463973Y-78097749D01*
X84392322Y-77924769D01*
X84374457Y-77898032D01*
X84353580Y-77831357D01*
X84372022Y-77764046D01*
X84437003Y-77658697D01*
X84490349Y-77497708D01*
X84500500Y-77398345D01*
X84500499Y-76851656D01*
X84490349Y-76752292D01*
X84437003Y-76591303D01*
X84436999Y-76591297D01*
X84436998Y-76591294D01*
X84347970Y-76446959D01*
X84347967Y-76446955D01*
X84228044Y-76327032D01*
X84228040Y-76327029D01*
X84083705Y-76238001D01*
X84083699Y-76237998D01*
X84083697Y-76237997D01*
X84083694Y-76237996D01*
X83922709Y-76184651D01*
X83823346Y-76174500D01*
X82776662Y-76174500D01*
X82776644Y-76174501D01*
X82677292Y-76184650D01*
X82677289Y-76184651D01*
X82516305Y-76237996D01*
X82516294Y-76238001D01*
X82371959Y-76327029D01*
X82371955Y-76327032D01*
X82252032Y-76446955D01*
X82252029Y-76446959D01*
X82163001Y-76591294D01*
X82162996Y-76591305D01*
X82109651Y-76752290D01*
X82099500Y-76851647D01*
X69245606Y-76851647D01*
X69236035Y-76705636D01*
X69236034Y-76705620D01*
X69178481Y-76416278D01*
X69083652Y-76136923D01*
X68953172Y-75872336D01*
X68833604Y-75693390D01*
X68812727Y-75626713D01*
X68831212Y-75559333D01*
X68883190Y-75512643D01*
X68936707Y-75500500D01*
X112265812Y-75500500D01*
X112332851Y-75520185D01*
G37*
%TD.AperFunction*%
%TA.AperFunction,Conductor*%
G36*
X76414075Y-122807007D02*
G01*
X76380000Y-122934174D01*
X76380000Y-123065826D01*
X76414075Y-123192993D01*
X76446988Y-123250000D01*
X74773012Y-123250000D01*
X74805925Y-123192993D01*
X74840000Y-123065826D01*
X74840000Y-122934174D01*
X74805925Y-122807007D01*
X74773012Y-122750000D01*
X76446988Y-122750000D01*
X76414075Y-122807007D01*
G37*
%TD.AperFunction*%
%TA.AperFunction,Conductor*%
G36*
X76643333Y-107597324D02*
G01*
X76687680Y-107625825D01*
X78041897Y-108980042D01*
X78041901Y-108980045D01*
X78185288Y-109075854D01*
X78185301Y-109075861D01*
X78255203Y-109104815D01*
X78344626Y-109141855D01*
X78473502Y-109167490D01*
X78513766Y-109175499D01*
X78513769Y-109175500D01*
X78513771Y-109175500D01*
X78686229Y-109175500D01*
X88186993Y-109175500D01*
X88254032Y-109195185D01*
X88299787Y-109247989D01*
X88309731Y-109317147D01*
X88280706Y-109380703D01*
X88274674Y-109387181D01*
X83559740Y-114102116D01*
X78861901Y-118799955D01*
X78800927Y-118860929D01*
X78739953Y-118921902D01*
X78644145Y-119065288D01*
X78644138Y-119065301D01*
X78578146Y-119224621D01*
X78578143Y-119224633D01*
X78544500Y-119393766D01*
X78544500Y-121914241D01*
X78524815Y-121981280D01*
X78508181Y-122001922D01*
X78381508Y-122128594D01*
X78251269Y-122314595D01*
X78196692Y-122358219D01*
X78127193Y-122365412D01*
X78064839Y-122333890D01*
X78048119Y-122314594D01*
X77918113Y-122128926D01*
X77918108Y-122128920D01*
X77751082Y-121961894D01*
X77557578Y-121826399D01*
X77343492Y-121726570D01*
X77343486Y-121726567D01*
X77130000Y-121669364D01*
X77130000Y-122566988D01*
X77072993Y-122534075D01*
X76945826Y-122500000D01*
X76814174Y-122500000D01*
X76687007Y-122534075D01*
X76630000Y-122566988D01*
X76630000Y-121669364D01*
X76629999Y-121669364D01*
X76416513Y-121726567D01*
X76416507Y-121726570D01*
X76202422Y-121826399D01*
X76202420Y-121826400D01*
X76008926Y-121961886D01*
X76008920Y-121961891D01*
X75841891Y-122128920D01*
X75841890Y-122128922D01*
X75711575Y-122315031D01*
X75656998Y-122358655D01*
X75587499Y-122365848D01*
X75525145Y-122334326D01*
X75508425Y-122315031D01*
X75378109Y-122128922D01*
X75378108Y-122128920D01*
X75211082Y-121961894D01*
X75017578Y-121826399D01*
X74803492Y-121726570D01*
X74803486Y-121726567D01*
X74590000Y-121669364D01*
X74590000Y-122566988D01*
X74532993Y-122534075D01*
X74405826Y-122500000D01*
X74274174Y-122500000D01*
X74147007Y-122534075D01*
X74090000Y-122566988D01*
X74090000Y-121669364D01*
X74089999Y-121669364D01*
X73876513Y-121726567D01*
X73876507Y-121726570D01*
X73662422Y-121826399D01*
X73662420Y-121826400D01*
X73468926Y-121961886D01*
X73468920Y-121961891D01*
X73301891Y-122128920D01*
X73301890Y-122128922D01*
X73171880Y-122314595D01*
X73117303Y-122358219D01*
X73047804Y-122365412D01*
X72985450Y-122333890D01*
X72968730Y-122314594D01*
X72838494Y-122128597D01*
X72711819Y-122001922D01*
X72678334Y-121940599D01*
X72675500Y-121914241D01*
X72675500Y-111514006D01*
X72695185Y-111446967D01*
X72711819Y-111426325D01*
X74485363Y-109652781D01*
X76512320Y-107625823D01*
X76573641Y-107592340D01*
X76643333Y-107597324D01*
G37*
%TD.AperFunction*%
%TD*%
M02*
