M48
; DRILL file {KiCad 8.0.3-8.0.3-0~ubuntu22.04.1} date 2024-06-15T19:30:16-0400
; FORMAT={-:-/ absolute / inch / decimal}
; #@! TF.CreationDate,2024-06-15T19:30:16-04:00
; #@! TF.GenerationSoftware,Kicad,Pcbnew,8.0.3-8.0.3-0~ubuntu22.04.1
; #@! TF.FileFunction,Plated,1,2,PTH
FMAT,2
INCH
; #@! TA.AperFunction,Plated,PTH,ComponentDrill
T1C0.0236
; #@! TA.AperFunction,Plated,PTH,ViaDrill
T2C0.0866
%
G90
G05
T1
X2.8445Y-3.0413
X2.8445Y-3.0906
X2.8445Y-3.1398
X3.063Y-2.8858
X3.063Y-2.935
X3.063Y-2.9843
X3.063Y-3.0335
X3.063Y-3.0827
X3.2402Y-2.8858
X3.2402Y-2.935
X3.2402Y-2.9843
X3.2402Y-3.0335
X3.2402Y-3.0827
X3.4173Y-2.8858
X3.4173Y-2.935
X3.4173Y-2.9843
X3.4173Y-3.0335
X3.4173Y-3.0827
X3.5945Y-3.0049
X3.5945Y-3.0541
X3.5945Y-3.1033
X3.5945Y-3.1526
T2
X2.8346Y-2.8346
X3.622Y-2.8346
M30
