%TF.GenerationSoftware,KiCad,Pcbnew,8.0.3-8.0.3-0~ubuntu22.04.1*%
%TF.CreationDate,2024-06-15T19:30:21-04:00*%
%TF.ProjectId,head_board,68656164-5f62-46f6-9172-642e6b696361,rev?*%
%TF.SameCoordinates,Original*%
%TF.FileFunction,Copper,L2,Bot*%
%TF.FilePolarity,Positive*%
%FSLAX46Y46*%
G04 Gerber Fmt 4.6, Leading zero omitted, Abs format (unit mm)*
G04 Created by KiCad (PCBNEW 8.0.3-8.0.3-0~ubuntu22.04.1) date 2024-06-15 19:30:21*
%MOMM*%
%LPD*%
G01*
G04 APERTURE LIST*
G04 Aperture macros list*
%AMRoundRect*
0 Rectangle with rounded corners*
0 $1 Rounding radius*
0 $2 $3 $4 $5 $6 $7 $8 $9 X,Y pos of 4 corners*
0 Add a 4 corners polygon primitive as box body*
4,1,4,$2,$3,$4,$5,$6,$7,$8,$9,$2,$3,0*
0 Add four circle primitives for the rounded corners*
1,1,$1+$1,$2,$3*
1,1,$1+$1,$4,$5*
1,1,$1+$1,$6,$7*
1,1,$1+$1,$8,$9*
0 Add four rect primitives between the rounded corners*
20,1,$1+$1,$2,$3,$4,$5,0*
20,1,$1+$1,$4,$5,$6,$7,0*
20,1,$1+$1,$6,$7,$8,$9,0*
20,1,$1+$1,$8,$9,$2,$3,0*%
G04 Aperture macros list end*
%TA.AperFunction,ComponentPad*%
%ADD10RoundRect,0.225000X-0.475000X0.225000X-0.475000X-0.225000X0.475000X-0.225000X0.475000X0.225000X0*%
%TD*%
%TA.AperFunction,ComponentPad*%
%ADD11O,1.400000X0.900000*%
%TD*%
%TA.AperFunction,ComponentPad*%
%ADD12RoundRect,0.225000X0.475000X-0.225000X0.475000X0.225000X-0.475000X0.225000X-0.475000X-0.225000X0*%
%TD*%
%TA.AperFunction,ViaPad*%
%ADD13C,2.500000*%
%TD*%
G04 APERTURE END LIST*
D10*
%TO.P,J2,1,Pin_1*%
%TO.N,SDA*%
X91300000Y-76325000D03*
D11*
%TO.P,J2,2,Pin_2*%
%TO.N,SCL*%
X91300000Y-77575000D03*
%TO.P,J2,3,Pin_3*%
%TO.N,GND*%
X91300000Y-78825000D03*
%TO.P,J2,4,Pin_4*%
%TO.N,3V3*%
X91300000Y-80075000D03*
%TD*%
D12*
%TO.P,J3,1,Pin_1*%
%TO.N,3V3*%
X77800000Y-78300000D03*
D11*
%TO.P,J3,2,Pin_2*%
%TO.N,GND*%
X77800000Y-77050000D03*
%TO.P,J3,3,Pin_3*%
%TO.N,SDA*%
X77800000Y-75800000D03*
%TO.P,J3,4,Pin_4*%
%TO.N,SCL*%
X77800000Y-74550000D03*
%TO.P,J3,5,Pin_5*%
%TO.N,Left Shut*%
X77800000Y-73300000D03*
%TD*%
D12*
%TO.P,J4,1,Pin_1*%
%TO.N,3V3*%
X82300000Y-78300000D03*
D11*
%TO.P,J4,2,Pin_2*%
%TO.N,GND*%
X82300000Y-77050000D03*
%TO.P,J4,3,Pin_3*%
%TO.N,SDA*%
X82300000Y-75800000D03*
%TO.P,J4,4,Pin_4*%
%TO.N,SCL*%
X82300000Y-74550000D03*
%TO.P,J4,5,Pin_5*%
%TO.N,Center Shut*%
X82300000Y-73300000D03*
%TD*%
D10*
%TO.P,J1,1,Pin_1*%
%TO.N,Right Shut*%
X72250000Y-77250000D03*
D11*
%TO.P,J1,2,Pin_2*%
%TO.N,Center Shut*%
X72250000Y-78500000D03*
%TO.P,J1,3,Pin_3*%
%TO.N,Left Shut*%
X72250000Y-79750000D03*
%TD*%
D12*
%TO.P,J5,1,Pin_1*%
%TO.N,3V3*%
X86800000Y-78300000D03*
D11*
%TO.P,J5,2,Pin_2*%
%TO.N,GND*%
X86800000Y-77050000D03*
%TO.P,J5,3,Pin_3*%
%TO.N,SDA*%
X86800000Y-75800000D03*
%TO.P,J5,4,Pin_4*%
%TO.N,SCL*%
X86800000Y-74550000D03*
%TO.P,J5,5,Pin_5*%
%TO.N,Right Shut*%
X86800000Y-73300000D03*
%TD*%
D13*
%TO.N,*%
X72000000Y-72000000D03*
X92000000Y-72000000D03*
%TD*%
%TA.AperFunction,Conductor*%
%TO.N,GND*%
G36*
X90793558Y-70520185D02*
G01*
X90839313Y-70572989D01*
X90849257Y-70642147D01*
X90820232Y-70705703D01*
X90810860Y-70715399D01*
X90713198Y-70806014D01*
X90549614Y-71011143D01*
X90418432Y-71238356D01*
X90322582Y-71482578D01*
X90322576Y-71482597D01*
X90264197Y-71738374D01*
X90264196Y-71738379D01*
X90244592Y-71999995D01*
X90244592Y-72000004D01*
X90264196Y-72261620D01*
X90264197Y-72261625D01*
X90322576Y-72517402D01*
X90322578Y-72517411D01*
X90322580Y-72517416D01*
X90418432Y-72761643D01*
X90549614Y-72988857D01*
X90576648Y-73022756D01*
X90713198Y-73193985D01*
X90894753Y-73362441D01*
X90905521Y-73372433D01*
X91122296Y-73520228D01*
X91122301Y-73520230D01*
X91122302Y-73520231D01*
X91122303Y-73520232D01*
X91247843Y-73580688D01*
X91358673Y-73634061D01*
X91358674Y-73634061D01*
X91358677Y-73634063D01*
X91609385Y-73711396D01*
X91868818Y-73750500D01*
X92131182Y-73750500D01*
X92390615Y-73711396D01*
X92641323Y-73634063D01*
X92877704Y-73520228D01*
X93094479Y-73372433D01*
X93217830Y-73257980D01*
X93290207Y-73190825D01*
X93291525Y-73192246D01*
X93344572Y-73160616D01*
X93414403Y-73162958D01*
X93471882Y-73202681D01*
X93498760Y-73267173D01*
X93499500Y-73280697D01*
X93499500Y-82125500D01*
X93479815Y-82192539D01*
X93427011Y-82238294D01*
X93375500Y-82249500D01*
X70624500Y-82249500D01*
X70557461Y-82229815D01*
X70511706Y-82177011D01*
X70500500Y-82125500D01*
X70500500Y-76976647D01*
X71049500Y-76976647D01*
X71049500Y-77523337D01*
X71049501Y-77523355D01*
X71059650Y-77622707D01*
X71059651Y-77622710D01*
X71112996Y-77783694D01*
X71113001Y-77783705D01*
X71177977Y-77889046D01*
X71196418Y-77956438D01*
X71175542Y-78023032D01*
X71157678Y-78049767D01*
X71086027Y-78222748D01*
X71086025Y-78222756D01*
X71049500Y-78406379D01*
X71049500Y-78593620D01*
X71086025Y-78777243D01*
X71086027Y-78777251D01*
X71157676Y-78950228D01*
X71157680Y-78950235D01*
X71228423Y-79056110D01*
X71249300Y-79122787D01*
X71230815Y-79190167D01*
X71228423Y-79193890D01*
X71157680Y-79299764D01*
X71157676Y-79299771D01*
X71086027Y-79472748D01*
X71086025Y-79472756D01*
X71049500Y-79656379D01*
X71049500Y-79843620D01*
X71086025Y-80027243D01*
X71086027Y-80027251D01*
X71157676Y-80200228D01*
X71157681Y-80200237D01*
X71261697Y-80355907D01*
X71261700Y-80355911D01*
X71394088Y-80488299D01*
X71394092Y-80488302D01*
X71549762Y-80592318D01*
X71549768Y-80592321D01*
X71549769Y-80592322D01*
X71722749Y-80663973D01*
X71906379Y-80700499D01*
X71906383Y-80700500D01*
X71906384Y-80700500D01*
X72593617Y-80700500D01*
X72593618Y-80700499D01*
X72777251Y-80663973D01*
X72950231Y-80592322D01*
X73105908Y-80488302D01*
X73238302Y-80355908D01*
X73342322Y-80200231D01*
X73413973Y-80027251D01*
X73450500Y-79843616D01*
X73450500Y-79656384D01*
X73413973Y-79472749D01*
X73342322Y-79299769D01*
X73342319Y-79299764D01*
X73342318Y-79299762D01*
X73271577Y-79193891D01*
X73250699Y-79127213D01*
X73269183Y-79059833D01*
X73271577Y-79056109D01*
X73342318Y-78950237D01*
X73342319Y-78950235D01*
X73342322Y-78950231D01*
X73413973Y-78777251D01*
X73450500Y-78593616D01*
X73450500Y-78406384D01*
X73413973Y-78222749D01*
X73342322Y-78049769D01*
X73324457Y-78023032D01*
X73303580Y-77956357D01*
X73322022Y-77889046D01*
X73387003Y-77783697D01*
X73440349Y-77622708D01*
X73450500Y-77523345D01*
X73450499Y-76976656D01*
X73440349Y-76877292D01*
X73387003Y-76716303D01*
X73386999Y-76716297D01*
X73386998Y-76716294D01*
X73297970Y-76571959D01*
X73297967Y-76571955D01*
X73178044Y-76452032D01*
X73178040Y-76452029D01*
X73033705Y-76363001D01*
X73033699Y-76362998D01*
X73033697Y-76362997D01*
X73014262Y-76356557D01*
X72872709Y-76309651D01*
X72773346Y-76299500D01*
X71726662Y-76299500D01*
X71726644Y-76299501D01*
X71627292Y-76309650D01*
X71627289Y-76309651D01*
X71466305Y-76362996D01*
X71466294Y-76363001D01*
X71321959Y-76452029D01*
X71321955Y-76452032D01*
X71202032Y-76571955D01*
X71202029Y-76571959D01*
X71113001Y-76716294D01*
X71112996Y-76716305D01*
X71059651Y-76877290D01*
X71049500Y-76976647D01*
X70500500Y-76976647D01*
X70500500Y-73280697D01*
X70520185Y-73213658D01*
X70572989Y-73167903D01*
X70642147Y-73157959D01*
X70705703Y-73186984D01*
X70709737Y-73190885D01*
X70709793Y-73190825D01*
X70792077Y-73267173D01*
X70905521Y-73372433D01*
X71122296Y-73520228D01*
X71122301Y-73520230D01*
X71122302Y-73520231D01*
X71122303Y-73520232D01*
X71247843Y-73580688D01*
X71358673Y-73634061D01*
X71358674Y-73634061D01*
X71358677Y-73634063D01*
X71609385Y-73711396D01*
X71868818Y-73750500D01*
X72131182Y-73750500D01*
X72390615Y-73711396D01*
X72641323Y-73634063D01*
X72877704Y-73520228D01*
X73094479Y-73372433D01*
X73273443Y-73206379D01*
X76599500Y-73206379D01*
X76599500Y-73393620D01*
X76636025Y-73577243D01*
X76636027Y-73577251D01*
X76707676Y-73750228D01*
X76707680Y-73750235D01*
X76778423Y-73856110D01*
X76799300Y-73922787D01*
X76780815Y-73990167D01*
X76778423Y-73993890D01*
X76707680Y-74099764D01*
X76707676Y-74099771D01*
X76636027Y-74272748D01*
X76636025Y-74272756D01*
X76599500Y-74456379D01*
X76599500Y-74643620D01*
X76636025Y-74827243D01*
X76636027Y-74827251D01*
X76707676Y-75000228D01*
X76707680Y-75000235D01*
X76778423Y-75106110D01*
X76799300Y-75172787D01*
X76780815Y-75240167D01*
X76778423Y-75243890D01*
X76707680Y-75349764D01*
X76707676Y-75349771D01*
X76636027Y-75522748D01*
X76636025Y-75522756D01*
X76599500Y-75706379D01*
X76599500Y-75893620D01*
X76636025Y-76077243D01*
X76636027Y-76077251D01*
X76707676Y-76250228D01*
X76707684Y-76250242D01*
X76778723Y-76356560D01*
X76799601Y-76423237D01*
X76781116Y-76490617D01*
X76778723Y-76494340D01*
X76708127Y-76599994D01*
X76708119Y-76600008D01*
X76636507Y-76772896D01*
X76636506Y-76772899D01*
X76631115Y-76799999D01*
X76631116Y-76800000D01*
X77633012Y-76800000D01*
X77615795Y-76809940D01*
X77559940Y-76865795D01*
X77520444Y-76934204D01*
X77500000Y-77010504D01*
X77500000Y-77089496D01*
X77520444Y-77165796D01*
X77559940Y-77234205D01*
X77615795Y-77290060D01*
X77633012Y-77300000D01*
X76631116Y-77300000D01*
X76636506Y-77327100D01*
X76636507Y-77327103D01*
X76708119Y-77499991D01*
X76708124Y-77500000D01*
X76725829Y-77526497D01*
X76746707Y-77593175D01*
X76728266Y-77660484D01*
X76663000Y-77766296D01*
X76662996Y-77766305D01*
X76609651Y-77927290D01*
X76599500Y-78026647D01*
X76599500Y-78573337D01*
X76599501Y-78573355D01*
X76609650Y-78672707D01*
X76609651Y-78672710D01*
X76662996Y-78833694D01*
X76663001Y-78833705D01*
X76752029Y-78978040D01*
X76752032Y-78978044D01*
X76871955Y-79097967D01*
X76871959Y-79097970D01*
X77016294Y-79186998D01*
X77016297Y-79186999D01*
X77016303Y-79187003D01*
X77177292Y-79240349D01*
X77276655Y-79250500D01*
X78323344Y-79250499D01*
X78323352Y-79250498D01*
X78323355Y-79250498D01*
X78377760Y-79244940D01*
X78422708Y-79240349D01*
X78583697Y-79187003D01*
X78728044Y-79097968D01*
X78847968Y-78978044D01*
X78937003Y-78833697D01*
X78990349Y-78672708D01*
X79000500Y-78573345D01*
X79000499Y-78026656D01*
X79000353Y-78025231D01*
X78990349Y-77927292D01*
X78990348Y-77927289D01*
X78937003Y-77766303D01*
X78871732Y-77660483D01*
X78853292Y-77593094D01*
X78874170Y-77526495D01*
X78891880Y-77499990D01*
X78963492Y-77327103D01*
X78963493Y-77327100D01*
X78968884Y-77300000D01*
X77966988Y-77300000D01*
X77984205Y-77290060D01*
X78040060Y-77234205D01*
X78079556Y-77165796D01*
X78100000Y-77089496D01*
X78100000Y-77010504D01*
X78079556Y-76934204D01*
X78040060Y-76865795D01*
X77984205Y-76809940D01*
X77966988Y-76800000D01*
X78968884Y-76800000D01*
X78968884Y-76799999D01*
X78963493Y-76772899D01*
X78963492Y-76772896D01*
X78891880Y-76600008D01*
X78891875Y-76600000D01*
X78821275Y-76494340D01*
X78800397Y-76427663D01*
X78818881Y-76360283D01*
X78821243Y-76356606D01*
X78892322Y-76250231D01*
X78963973Y-76077251D01*
X79000500Y-75893616D01*
X79000500Y-75706384D01*
X78963973Y-75522749D01*
X78892322Y-75349769D01*
X78892319Y-75349764D01*
X78892318Y-75349762D01*
X78821577Y-75243891D01*
X78800699Y-75177213D01*
X78819183Y-75109833D01*
X78821577Y-75106109D01*
X78892318Y-75000237D01*
X78892319Y-75000235D01*
X78892322Y-75000231D01*
X78963973Y-74827251D01*
X79000500Y-74643616D01*
X79000500Y-74456384D01*
X78963973Y-74272749D01*
X78892322Y-74099769D01*
X78892319Y-74099764D01*
X78892318Y-74099762D01*
X78821577Y-73993891D01*
X78800699Y-73927213D01*
X78819183Y-73859833D01*
X78821577Y-73856109D01*
X78892318Y-73750237D01*
X78892319Y-73750235D01*
X78892322Y-73750231D01*
X78963973Y-73577251D01*
X79000500Y-73393616D01*
X79000500Y-73206384D01*
X79000499Y-73206379D01*
X81099500Y-73206379D01*
X81099500Y-73393620D01*
X81136025Y-73577243D01*
X81136027Y-73577251D01*
X81207676Y-73750228D01*
X81207680Y-73750235D01*
X81278423Y-73856110D01*
X81299300Y-73922787D01*
X81280815Y-73990167D01*
X81278423Y-73993890D01*
X81207680Y-74099764D01*
X81207676Y-74099771D01*
X81136027Y-74272748D01*
X81136025Y-74272756D01*
X81099500Y-74456379D01*
X81099500Y-74643620D01*
X81136025Y-74827243D01*
X81136027Y-74827251D01*
X81207676Y-75000228D01*
X81207680Y-75000235D01*
X81278423Y-75106110D01*
X81299300Y-75172787D01*
X81280815Y-75240167D01*
X81278423Y-75243890D01*
X81207680Y-75349764D01*
X81207676Y-75349771D01*
X81136027Y-75522748D01*
X81136025Y-75522756D01*
X81099500Y-75706379D01*
X81099500Y-75893620D01*
X81136025Y-76077243D01*
X81136027Y-76077251D01*
X81207676Y-76250228D01*
X81207684Y-76250242D01*
X81278723Y-76356560D01*
X81299601Y-76423237D01*
X81281116Y-76490617D01*
X81278723Y-76494340D01*
X81208127Y-76599994D01*
X81208119Y-76600008D01*
X81136507Y-76772896D01*
X81136506Y-76772899D01*
X81131115Y-76799999D01*
X81131116Y-76800000D01*
X82133012Y-76800000D01*
X82115795Y-76809940D01*
X82059940Y-76865795D01*
X82020444Y-76934204D01*
X82000000Y-77010504D01*
X82000000Y-77089496D01*
X82020444Y-77165796D01*
X82059940Y-77234205D01*
X82115795Y-77290060D01*
X82133012Y-77300000D01*
X81131116Y-77300000D01*
X81136506Y-77327100D01*
X81136507Y-77327103D01*
X81208119Y-77499991D01*
X81208124Y-77500000D01*
X81225829Y-77526497D01*
X81246707Y-77593175D01*
X81228266Y-77660484D01*
X81163000Y-77766296D01*
X81162996Y-77766305D01*
X81109651Y-77927290D01*
X81099500Y-78026647D01*
X81099500Y-78573337D01*
X81099501Y-78573355D01*
X81109650Y-78672707D01*
X81109651Y-78672710D01*
X81162996Y-78833694D01*
X81163001Y-78833705D01*
X81252029Y-78978040D01*
X81252032Y-78978044D01*
X81371955Y-79097967D01*
X81371959Y-79097970D01*
X81516294Y-79186998D01*
X81516297Y-79186999D01*
X81516303Y-79187003D01*
X81677292Y-79240349D01*
X81776655Y-79250500D01*
X82823344Y-79250499D01*
X82823352Y-79250498D01*
X82823355Y-79250498D01*
X82877760Y-79244940D01*
X82922708Y-79240349D01*
X83083697Y-79187003D01*
X83228044Y-79097968D01*
X83347968Y-78978044D01*
X83437003Y-78833697D01*
X83490349Y-78672708D01*
X83500500Y-78573345D01*
X83500499Y-78026656D01*
X83500353Y-78025231D01*
X83490349Y-77927292D01*
X83490348Y-77927289D01*
X83437003Y-77766303D01*
X83371732Y-77660483D01*
X83353292Y-77593094D01*
X83374170Y-77526495D01*
X83391880Y-77499990D01*
X83463492Y-77327103D01*
X83463493Y-77327100D01*
X83468884Y-77300000D01*
X82466988Y-77300000D01*
X82484205Y-77290060D01*
X82540060Y-77234205D01*
X82579556Y-77165796D01*
X82600000Y-77089496D01*
X82600000Y-77010504D01*
X82579556Y-76934204D01*
X82540060Y-76865795D01*
X82484205Y-76809940D01*
X82466988Y-76800000D01*
X83468884Y-76800000D01*
X83468884Y-76799999D01*
X83463493Y-76772899D01*
X83463492Y-76772896D01*
X83391880Y-76600008D01*
X83391875Y-76600000D01*
X83321275Y-76494340D01*
X83300397Y-76427663D01*
X83318881Y-76360283D01*
X83321243Y-76356606D01*
X83392322Y-76250231D01*
X83463973Y-76077251D01*
X83500500Y-75893616D01*
X83500500Y-75706384D01*
X83463973Y-75522749D01*
X83392322Y-75349769D01*
X83392319Y-75349764D01*
X83392318Y-75349762D01*
X83321577Y-75243891D01*
X83300699Y-75177213D01*
X83319183Y-75109833D01*
X83321577Y-75106109D01*
X83392318Y-75000237D01*
X83392319Y-75000235D01*
X83392322Y-75000231D01*
X83463973Y-74827251D01*
X83500500Y-74643616D01*
X83500500Y-74456384D01*
X83463973Y-74272749D01*
X83392322Y-74099769D01*
X83392319Y-74099764D01*
X83392318Y-74099762D01*
X83321577Y-73993891D01*
X83300699Y-73927213D01*
X83319183Y-73859833D01*
X83321577Y-73856109D01*
X83392318Y-73750237D01*
X83392319Y-73750235D01*
X83392322Y-73750231D01*
X83463973Y-73577251D01*
X83500500Y-73393616D01*
X83500500Y-73206384D01*
X83500499Y-73206379D01*
X85599500Y-73206379D01*
X85599500Y-73393620D01*
X85636025Y-73577243D01*
X85636027Y-73577251D01*
X85707676Y-73750228D01*
X85707680Y-73750235D01*
X85778423Y-73856110D01*
X85799300Y-73922787D01*
X85780815Y-73990167D01*
X85778423Y-73993890D01*
X85707680Y-74099764D01*
X85707676Y-74099771D01*
X85636027Y-74272748D01*
X85636025Y-74272756D01*
X85599500Y-74456379D01*
X85599500Y-74643620D01*
X85636025Y-74827243D01*
X85636027Y-74827251D01*
X85707676Y-75000228D01*
X85707680Y-75000235D01*
X85778423Y-75106110D01*
X85799300Y-75172787D01*
X85780815Y-75240167D01*
X85778423Y-75243890D01*
X85707680Y-75349764D01*
X85707676Y-75349771D01*
X85636027Y-75522748D01*
X85636025Y-75522756D01*
X85599500Y-75706379D01*
X85599500Y-75893620D01*
X85636025Y-76077243D01*
X85636027Y-76077251D01*
X85707676Y-76250228D01*
X85707684Y-76250242D01*
X85778723Y-76356560D01*
X85799601Y-76423237D01*
X85781116Y-76490617D01*
X85778723Y-76494340D01*
X85708127Y-76599994D01*
X85708119Y-76600008D01*
X85636507Y-76772896D01*
X85636506Y-76772899D01*
X85631115Y-76799999D01*
X85631116Y-76800000D01*
X86633012Y-76800000D01*
X86615795Y-76809940D01*
X86559940Y-76865795D01*
X86520444Y-76934204D01*
X86500000Y-77010504D01*
X86500000Y-77089496D01*
X86520444Y-77165796D01*
X86559940Y-77234205D01*
X86615795Y-77290060D01*
X86633012Y-77300000D01*
X85631116Y-77300000D01*
X85636506Y-77327100D01*
X85636507Y-77327103D01*
X85708119Y-77499991D01*
X85708124Y-77500000D01*
X85725829Y-77526497D01*
X85746707Y-77593175D01*
X85728266Y-77660484D01*
X85663000Y-77766296D01*
X85662996Y-77766305D01*
X85609651Y-77927290D01*
X85599500Y-78026647D01*
X85599500Y-78573337D01*
X85599501Y-78573355D01*
X85609650Y-78672707D01*
X85609651Y-78672710D01*
X85662996Y-78833694D01*
X85663001Y-78833705D01*
X85752029Y-78978040D01*
X85752032Y-78978044D01*
X85871955Y-79097967D01*
X85871959Y-79097970D01*
X86016294Y-79186998D01*
X86016297Y-79186999D01*
X86016303Y-79187003D01*
X86177292Y-79240349D01*
X86276655Y-79250500D01*
X87323344Y-79250499D01*
X87323352Y-79250498D01*
X87323355Y-79250498D01*
X87377760Y-79244940D01*
X87422708Y-79240349D01*
X87583697Y-79187003D01*
X87728044Y-79097968D01*
X87847968Y-78978044D01*
X87937003Y-78833697D01*
X87990349Y-78672708D01*
X88000500Y-78573345D01*
X88000499Y-78026656D01*
X88000353Y-78025231D01*
X87990349Y-77927292D01*
X87990348Y-77927289D01*
X87937003Y-77766303D01*
X87871732Y-77660483D01*
X87853292Y-77593094D01*
X87874170Y-77526495D01*
X87891880Y-77499990D01*
X87963492Y-77327103D01*
X87963493Y-77327100D01*
X87968884Y-77300000D01*
X86966988Y-77300000D01*
X86984205Y-77290060D01*
X87040060Y-77234205D01*
X87079556Y-77165796D01*
X87100000Y-77089496D01*
X87100000Y-77010504D01*
X87079556Y-76934204D01*
X87040060Y-76865795D01*
X86984205Y-76809940D01*
X86966988Y-76800000D01*
X87968884Y-76800000D01*
X87968884Y-76799999D01*
X87963493Y-76772899D01*
X87963492Y-76772896D01*
X87891880Y-76600008D01*
X87891875Y-76600000D01*
X87821275Y-76494340D01*
X87800397Y-76427663D01*
X87818881Y-76360283D01*
X87821243Y-76356606D01*
X87892322Y-76250231D01*
X87963973Y-76077251D01*
X87969066Y-76051647D01*
X90099500Y-76051647D01*
X90099500Y-76598337D01*
X90099501Y-76598355D01*
X90109650Y-76697707D01*
X90109651Y-76697710D01*
X90162996Y-76858694D01*
X90163001Y-76858705D01*
X90227977Y-76964046D01*
X90246418Y-77031438D01*
X90225542Y-77098032D01*
X90207678Y-77124767D01*
X90136027Y-77297748D01*
X90136025Y-77297756D01*
X90099500Y-77481379D01*
X90099500Y-77668620D01*
X90136025Y-77852243D01*
X90136027Y-77852251D01*
X90207676Y-78025228D01*
X90207684Y-78025242D01*
X90278723Y-78131560D01*
X90299601Y-78198237D01*
X90281116Y-78265617D01*
X90278723Y-78269340D01*
X90208127Y-78374994D01*
X90208119Y-78375008D01*
X90136507Y-78547896D01*
X90136506Y-78547899D01*
X90131115Y-78574999D01*
X90131116Y-78575000D01*
X91133012Y-78575000D01*
X91115795Y-78584940D01*
X91059940Y-78640795D01*
X91020444Y-78709204D01*
X91000000Y-78785504D01*
X91000000Y-78864496D01*
X91020444Y-78940796D01*
X91059940Y-79009205D01*
X91115795Y-79065060D01*
X91133012Y-79075000D01*
X90131116Y-79075000D01*
X90136506Y-79102100D01*
X90136507Y-79102103D01*
X90208119Y-79274991D01*
X90208127Y-79275005D01*
X90278723Y-79380660D01*
X90299601Y-79447337D01*
X90281116Y-79514717D01*
X90278723Y-79518440D01*
X90207684Y-79624757D01*
X90207676Y-79624771D01*
X90136027Y-79797748D01*
X90136025Y-79797756D01*
X90099500Y-79981379D01*
X90099500Y-80168620D01*
X90136025Y-80352243D01*
X90136027Y-80352251D01*
X90207676Y-80525228D01*
X90207681Y-80525237D01*
X90311697Y-80680907D01*
X90311700Y-80680911D01*
X90444088Y-80813299D01*
X90444092Y-80813302D01*
X90599762Y-80917318D01*
X90599768Y-80917321D01*
X90599769Y-80917322D01*
X90772749Y-80988973D01*
X90956379Y-81025499D01*
X90956383Y-81025500D01*
X90956384Y-81025500D01*
X91643617Y-81025500D01*
X91643618Y-81025499D01*
X91827251Y-80988973D01*
X92000231Y-80917322D01*
X92155908Y-80813302D01*
X92288302Y-80680908D01*
X92392322Y-80525231D01*
X92463973Y-80352251D01*
X92500500Y-80168616D01*
X92500500Y-79981384D01*
X92463973Y-79797749D01*
X92392322Y-79624769D01*
X92321274Y-79518439D01*
X92300397Y-79451763D01*
X92318881Y-79384383D01*
X92321276Y-79380657D01*
X92391874Y-79275001D01*
X92391880Y-79274991D01*
X92463492Y-79102103D01*
X92463493Y-79102100D01*
X92468884Y-79075000D01*
X91466988Y-79075000D01*
X91484205Y-79065060D01*
X91540060Y-79009205D01*
X91579556Y-78940796D01*
X91600000Y-78864496D01*
X91600000Y-78785504D01*
X91579556Y-78709204D01*
X91540060Y-78640795D01*
X91484205Y-78584940D01*
X91466988Y-78575000D01*
X92468884Y-78575000D01*
X92468884Y-78574999D01*
X92463493Y-78547899D01*
X92463492Y-78547896D01*
X92391880Y-78375008D01*
X92391875Y-78375000D01*
X92321275Y-78269340D01*
X92300397Y-78202663D01*
X92318881Y-78135283D01*
X92321243Y-78131606D01*
X92392322Y-78025231D01*
X92463973Y-77852251D01*
X92500500Y-77668616D01*
X92500500Y-77481384D01*
X92463973Y-77297749D01*
X92392322Y-77124769D01*
X92374457Y-77098032D01*
X92353580Y-77031357D01*
X92372022Y-76964046D01*
X92437003Y-76858697D01*
X92490349Y-76697708D01*
X92500500Y-76598345D01*
X92500499Y-76051656D01*
X92490349Y-75952292D01*
X92437003Y-75791303D01*
X92436999Y-75791297D01*
X92436998Y-75791294D01*
X92347970Y-75646959D01*
X92347967Y-75646955D01*
X92228044Y-75527032D01*
X92228040Y-75527029D01*
X92083705Y-75438001D01*
X92083699Y-75437998D01*
X92083697Y-75437997D01*
X92083694Y-75437996D01*
X91922709Y-75384651D01*
X91823346Y-75374500D01*
X90776662Y-75374500D01*
X90776644Y-75374501D01*
X90677292Y-75384650D01*
X90677289Y-75384651D01*
X90516305Y-75437996D01*
X90516294Y-75438001D01*
X90371959Y-75527029D01*
X90371955Y-75527032D01*
X90252032Y-75646955D01*
X90252029Y-75646959D01*
X90163001Y-75791294D01*
X90162996Y-75791305D01*
X90109651Y-75952290D01*
X90099500Y-76051647D01*
X87969066Y-76051647D01*
X88000500Y-75893616D01*
X88000500Y-75706384D01*
X87963973Y-75522749D01*
X87892322Y-75349769D01*
X87892319Y-75349764D01*
X87892318Y-75349762D01*
X87821577Y-75243891D01*
X87800699Y-75177213D01*
X87819183Y-75109833D01*
X87821577Y-75106109D01*
X87892318Y-75000237D01*
X87892319Y-75000235D01*
X87892322Y-75000231D01*
X87963973Y-74827251D01*
X88000500Y-74643616D01*
X88000500Y-74456384D01*
X87963973Y-74272749D01*
X87892322Y-74099769D01*
X87892319Y-74099764D01*
X87892318Y-74099762D01*
X87821577Y-73993891D01*
X87800699Y-73927213D01*
X87819183Y-73859833D01*
X87821577Y-73856109D01*
X87892318Y-73750237D01*
X87892319Y-73750235D01*
X87892322Y-73750231D01*
X87963973Y-73577251D01*
X88000500Y-73393616D01*
X88000500Y-73206384D01*
X87963973Y-73022749D01*
X87892322Y-72849769D01*
X87892321Y-72849768D01*
X87892318Y-72849762D01*
X87788302Y-72694092D01*
X87788299Y-72694088D01*
X87655911Y-72561700D01*
X87655907Y-72561697D01*
X87500237Y-72457681D01*
X87500228Y-72457676D01*
X87327251Y-72386027D01*
X87327243Y-72386025D01*
X87143620Y-72349500D01*
X87143616Y-72349500D01*
X86456384Y-72349500D01*
X86456379Y-72349500D01*
X86272756Y-72386025D01*
X86272748Y-72386027D01*
X86099771Y-72457676D01*
X86099762Y-72457681D01*
X85944092Y-72561697D01*
X85944088Y-72561700D01*
X85811700Y-72694088D01*
X85811697Y-72694092D01*
X85707681Y-72849762D01*
X85707676Y-72849771D01*
X85636027Y-73022748D01*
X85636025Y-73022756D01*
X85599500Y-73206379D01*
X83500499Y-73206379D01*
X83463973Y-73022749D01*
X83392322Y-72849769D01*
X83392321Y-72849768D01*
X83392318Y-72849762D01*
X83288302Y-72694092D01*
X83288299Y-72694088D01*
X83155911Y-72561700D01*
X83155907Y-72561697D01*
X83000237Y-72457681D01*
X83000228Y-72457676D01*
X82827251Y-72386027D01*
X82827243Y-72386025D01*
X82643620Y-72349500D01*
X82643616Y-72349500D01*
X81956384Y-72349500D01*
X81956379Y-72349500D01*
X81772756Y-72386025D01*
X81772748Y-72386027D01*
X81599771Y-72457676D01*
X81599762Y-72457681D01*
X81444092Y-72561697D01*
X81444088Y-72561700D01*
X81311700Y-72694088D01*
X81311697Y-72694092D01*
X81207681Y-72849762D01*
X81207676Y-72849771D01*
X81136027Y-73022748D01*
X81136025Y-73022756D01*
X81099500Y-73206379D01*
X79000499Y-73206379D01*
X78963973Y-73022749D01*
X78892322Y-72849769D01*
X78892321Y-72849768D01*
X78892318Y-72849762D01*
X78788302Y-72694092D01*
X78788299Y-72694088D01*
X78655911Y-72561700D01*
X78655907Y-72561697D01*
X78500237Y-72457681D01*
X78500228Y-72457676D01*
X78327251Y-72386027D01*
X78327243Y-72386025D01*
X78143620Y-72349500D01*
X78143616Y-72349500D01*
X77456384Y-72349500D01*
X77456379Y-72349500D01*
X77272756Y-72386025D01*
X77272748Y-72386027D01*
X77099771Y-72457676D01*
X77099762Y-72457681D01*
X76944092Y-72561697D01*
X76944088Y-72561700D01*
X76811700Y-72694088D01*
X76811697Y-72694092D01*
X76707681Y-72849762D01*
X76707676Y-72849771D01*
X76636027Y-73022748D01*
X76636025Y-73022756D01*
X76599500Y-73206379D01*
X73273443Y-73206379D01*
X73286805Y-73193981D01*
X73450386Y-72988857D01*
X73581568Y-72761643D01*
X73677420Y-72517416D01*
X73735802Y-72261630D01*
X73755408Y-72000000D01*
X73735802Y-71738370D01*
X73677420Y-71482584D01*
X73581568Y-71238357D01*
X73450386Y-71011143D01*
X73286805Y-70806019D01*
X73286804Y-70806018D01*
X73286801Y-70806014D01*
X73189140Y-70715399D01*
X73153385Y-70655371D01*
X73155760Y-70585541D01*
X73195511Y-70528081D01*
X73260016Y-70501233D01*
X73273481Y-70500500D01*
X90726519Y-70500500D01*
X90793558Y-70520185D01*
G37*
%TD.AperFunction*%
%TD*%
M02*
