%TF.GenerationSoftware,KiCad,Pcbnew,8.0.3-8.0.3-0~ubuntu22.04.1*%
%TF.CreationDate,2024-06-15T19:30:14-04:00*%
%TF.ProjectId,head_board,68656164-5f62-46f6-9172-642e6b696361,rev?*%
%TF.SameCoordinates,Original*%
%TF.FileFunction,Drillmap*%
%TF.FilePolarity,Positive*%
%FSLAX45Y45*%
G04 Gerber Fmt 4.5, Leading zero omitted, Abs format (unit mm)*
G04 Created by KiCad (PCBNEW 8.0.3-8.0.3-0~ubuntu22.04.1) date 2024-06-15 19:30:14*
%MOMM*%
%LPD*%
G01*
G04 APERTURE LIST*
%ADD10C,0.050000*%
%ADD11C,0.200000*%
G04 APERTURE END LIST*
D10*
X7000000Y-8275000D02*
X7000000Y-7000000D01*
X9400000Y-7000000D02*
X9400000Y-8275000D01*
X9400000Y-8275000D02*
X7000000Y-8275000D01*
X7000000Y-7000000D02*
X9400000Y-7000000D01*
D11*
X7258277Y-8588984D02*
X7258277Y-8388984D01*
X7258277Y-8388984D02*
X7305896Y-8388984D01*
X7305896Y-8388984D02*
X7334467Y-8398508D01*
X7334467Y-8398508D02*
X7353515Y-8417555D01*
X7353515Y-8417555D02*
X7363039Y-8436603D01*
X7363039Y-8436603D02*
X7372562Y-8474698D01*
X7372562Y-8474698D02*
X7372562Y-8503270D01*
X7372562Y-8503270D02*
X7363039Y-8541365D01*
X7363039Y-8541365D02*
X7353515Y-8560412D01*
X7353515Y-8560412D02*
X7334467Y-8579460D01*
X7334467Y-8579460D02*
X7305896Y-8588984D01*
X7305896Y-8588984D02*
X7258277Y-8588984D01*
X7458277Y-8588984D02*
X7458277Y-8455650D01*
X7458277Y-8493746D02*
X7467801Y-8474698D01*
X7467801Y-8474698D02*
X7477324Y-8465174D01*
X7477324Y-8465174D02*
X7496372Y-8455650D01*
X7496372Y-8455650D02*
X7515420Y-8455650D01*
X7582086Y-8588984D02*
X7582086Y-8455650D01*
X7582086Y-8388984D02*
X7572562Y-8398508D01*
X7572562Y-8398508D02*
X7582086Y-8408031D01*
X7582086Y-8408031D02*
X7591610Y-8398508D01*
X7591610Y-8398508D02*
X7582086Y-8388984D01*
X7582086Y-8388984D02*
X7582086Y-8408031D01*
X7705896Y-8588984D02*
X7686848Y-8579460D01*
X7686848Y-8579460D02*
X7677324Y-8560412D01*
X7677324Y-8560412D02*
X7677324Y-8388984D01*
X7810658Y-8588984D02*
X7791610Y-8579460D01*
X7791610Y-8579460D02*
X7782086Y-8560412D01*
X7782086Y-8560412D02*
X7782086Y-8388984D01*
X8039229Y-8588984D02*
X8039229Y-8388984D01*
X8039229Y-8388984D02*
X8105896Y-8531841D01*
X8105896Y-8531841D02*
X8172562Y-8388984D01*
X8172562Y-8388984D02*
X8172562Y-8588984D01*
X8353515Y-8588984D02*
X8353515Y-8484222D01*
X8353515Y-8484222D02*
X8343991Y-8465174D01*
X8343991Y-8465174D02*
X8324943Y-8455650D01*
X8324943Y-8455650D02*
X8286848Y-8455650D01*
X8286848Y-8455650D02*
X8267801Y-8465174D01*
X8353515Y-8579460D02*
X8334467Y-8588984D01*
X8334467Y-8588984D02*
X8286848Y-8588984D01*
X8286848Y-8588984D02*
X8267801Y-8579460D01*
X8267801Y-8579460D02*
X8258277Y-8560412D01*
X8258277Y-8560412D02*
X8258277Y-8541365D01*
X8258277Y-8541365D02*
X8267801Y-8522317D01*
X8267801Y-8522317D02*
X8286848Y-8512793D01*
X8286848Y-8512793D02*
X8334467Y-8512793D01*
X8334467Y-8512793D02*
X8353515Y-8503270D01*
X8448753Y-8455650D02*
X8448753Y-8655650D01*
X8448753Y-8465174D02*
X8467801Y-8455650D01*
X8467801Y-8455650D02*
X8505896Y-8455650D01*
X8505896Y-8455650D02*
X8524944Y-8465174D01*
X8524944Y-8465174D02*
X8534467Y-8474698D01*
X8534467Y-8474698D02*
X8543991Y-8493746D01*
X8543991Y-8493746D02*
X8543991Y-8550889D01*
X8543991Y-8550889D02*
X8534467Y-8569936D01*
X8534467Y-8569936D02*
X8524944Y-8579460D01*
X8524944Y-8579460D02*
X8505896Y-8588984D01*
X8505896Y-8588984D02*
X8467801Y-8588984D01*
X8467801Y-8588984D02*
X8448753Y-8579460D01*
X8629705Y-8569936D02*
X8639229Y-8579460D01*
X8639229Y-8579460D02*
X8629705Y-8588984D01*
X8629705Y-8588984D02*
X8620182Y-8579460D01*
X8620182Y-8579460D02*
X8629705Y-8569936D01*
X8629705Y-8569936D02*
X8629705Y-8588984D01*
X8629705Y-8465174D02*
X8639229Y-8474698D01*
X8639229Y-8474698D02*
X8629705Y-8484222D01*
X8629705Y-8484222D02*
X8620182Y-8474698D01*
X8620182Y-8474698D02*
X8629705Y-8465174D01*
X8629705Y-8465174D02*
X8629705Y-8484222D01*
M02*
